<svg width="30" height="31" viewBox="0 0 30 31" fill="none" xmlns="http://www.w3.org/2000/svg">
<g clip-path="url(#clip0_2908_17411)">
<path d="M20.7725 0.3125C20.8424 0.3125 20.9122 0.3125 20.9859 0.3125C21.1572 2.42816 20.3497 4.00898 19.3682 5.15376C18.4053 6.29063 17.0866 7.39325 14.9538 7.22595C14.8115 5.14059 15.6204 3.67701 16.6005 2.53487C17.5095 1.47045 19.1759 0.523276 20.7725 0.3125Z" fill="black"/>
<path d="M27.2294 22.3335C27.2294 22.3545 27.2294 22.373 27.2294 22.3927C26.63 24.2081 25.775 25.7638 24.7317 27.2077C23.7793 28.5184 22.6121 30.2824 20.528 30.2824C18.7272 30.2824 17.5311 29.1244 15.6855 29.0928C13.7331 29.0612 12.6595 30.061 10.8745 30.3127C10.6703 30.3127 10.4661 30.3127 10.2659 30.3127C8.95512 30.123 7.89729 29.0849 7.12664 28.1496C4.85421 25.3858 3.09819 21.8157 2.77148 17.2472C2.77148 16.7993 2.77148 16.3527 2.77148 15.9048C2.90981 12.6351 4.49853 9.97673 6.61024 8.68836C7.72472 8.00334 9.25679 7.41975 10.9628 7.68059C11.6939 7.79388 12.4408 8.04418 13.0956 8.29184C13.716 8.53028 14.4919 8.95315 15.227 8.93075C15.725 8.91626 16.2203 8.65675 16.7222 8.47363C18.1924 7.94274 19.6336 7.33413 21.5332 7.61999C23.8161 7.96514 25.4365 8.9795 26.4377 10.5445C24.5064 11.7736 22.9796 13.6258 23.2405 16.7887C23.4723 19.6619 25.1427 21.3428 27.2294 22.3335Z" fill="black"/>
</g>
<defs>
<clipPath id="clip0_2908_17411">
<rect width="30" height="30" fill="white" transform="translate(0 0.3125)"/>
</clipPath>
</defs>
</svg>
