<svg width="30" height="31" viewBox="0 0 30 31" fill="none" xmlns="http://www.w3.org/2000/svg">
<path d="M12.1306 16.8625C12.0364 16.8625 10.0603 16.8631 9.14889 16.8622C8.67969 16.8619 8.51229 16.6933 8.51229 16.2211C8.51169 15.0082 8.51139 13.7953 8.51229 12.5824C8.51259 12.1162 8.68959 11.9383 9.15279 11.938C10.0642 11.9374 12.0295 11.9377 12.1306 11.9377C12.1306 11.8546 12.1303 10.1035 12.1306 9.29709C12.1312 8.10489 12.3439 6.96369 12.9496 5.91879C13.5697 4.84929 14.4721 4.11669 15.6286 3.69309C16.3693 3.42159 17.1382 3.31329 17.9242 3.31269C18.9076 3.31209 19.891 3.31299 20.8747 3.31479C21.2974 3.31539 21.4849 3.50229 21.4858 3.92799C21.4876 5.06889 21.4876 6.20979 21.4858 7.35039C21.4852 7.78059 21.3055 7.95339 20.8732 7.95819C20.0671 7.96689 19.2604 7.96149 18.4552 7.99389C17.6419 7.99389 17.2141 8.39109 17.2141 9.23289C17.1946 10.1233 17.206 11.0146 17.206 11.9374C17.2822 11.9374 19.5967 11.9371 20.6785 11.9374C21.1699 11.9374 21.3379 12.1063 21.3379 12.6004C21.3379 13.8067 21.3376 15.0133 21.3367 16.2196C21.3364 16.7065 21.1786 16.8619 20.6842 16.8622C19.6024 16.8628 17.2969 16.8625 17.1961 16.8625V26.626C17.1961 27.1465 17.0323 27.3124 16.5187 27.3124C15.2665 27.3124 14.014 27.3127 12.7618 27.3124C12.3079 27.3124 12.1309 27.136 12.1309 26.6821C12.1306 23.5024 12.1306 16.9741 12.1306 16.8625Z" fill="#3D6AD6"/>
</svg>
