<svg width="36" height="37" viewBox="0 0 36 37" fill="none" xmlns="http://www.w3.org/2000/svg">
<path d="M33.2156 15.3516H19.8211C19.2304 15.3516 18.7523 15.8297 18.7523 16.4203V20.7023C18.7523 21.293 19.2304 21.7711 19.8211 21.7711H27.3656C26.5429 23.9156 24.9961 25.7086 23.0344 26.8477L26.2476 32.4164C31.4015 29.4352 34.4531 24.1969 34.4531 18.3398C34.4531 17.5031 34.3898 16.9055 34.2703 16.2375C34.1718 15.7242 33.7289 15.3516 33.2156 15.3516Z" fill="#167EE6"/>
<path d="M18.0351 28.1984C14.3437 28.1984 11.1234 26.1805 9.3937 23.1992L3.82495 26.4055C6.65855 31.3203 11.9671 34.625 18.0351 34.625C21.0164 34.625 23.8218 33.8234 26.2476 32.4242V32.4172L23.0343 26.8484C21.5578 27.7062 19.8562 28.1984 18.0351 28.1984Z" fill="#12B347"/>
<path d="M26.2406 32.4234V32.4164L23.0273 26.8477C21.5578 27.6984 19.8562 28.1977 18.0352 28.1977V34.6242C21.0164 34.6242 23.8219 33.8227 26.2406 32.4234Z" fill="#0F993E"/>
<path d="M8.04375 18.2063C8.04375 16.3852 8.54297 14.6836 9.39375 13.2141L3.825 10.0078C2.41875 12.4195 1.61719 15.218 1.61719 18.2063C1.61719 21.1945 2.41875 23.993 3.825 26.4047L9.39375 23.1984C8.53594 21.7289 8.04375 20.0273 8.04375 18.2063Z" fill="#FFD500"/>
<path d="M18.0351 8.21563C20.4398 8.21563 22.6546 9.07344 24.3773 10.4938C24.8062 10.8453 25.425 10.8172 25.8117 10.4305L28.8421 7.4C29.2851 6.95703 29.25 6.23281 28.7789 5.825C25.889 3.30781 22.1273 1.78906 18.0351 1.78906C11.9671 1.78906 6.65855 5.09375 3.82495 10.0086L9.3937 13.2148C11.1234 10.2336 14.3437 8.21563 18.0351 8.21563Z" fill="#FF4B26"/>
<path d="M24.3773 10.4938C24.8063 10.8453 25.425 10.8172 25.8117 10.4305L28.8422 7.4C29.2852 6.95703 29.25 6.23281 28.7789 5.825C25.8891 3.30781 22.1273 1.78906 18.0352 1.78906V8.21563C20.4398 8.21563 22.6547 9.06641 24.3773 10.4938Z" fill="#D93F21"/>
</svg>
