<svg width="24" height="25" viewBox="0 0 24 25" fill="none" xmlns="http://www.w3.org/2000/svg">
<path fillRule="evenodd" clipRule="evenodd" d="M12 13.8128C11.173 13.8128 10.5 13.1398 10.5 12.3128C10.5 12.2997 10.503 12.2869 10.506 12.2741L10.506 12.274L10.506 12.274C10.5088 12.2624 10.5115 12.2507 10.512 12.2388L12.074 13.8008C12.0621 13.8012 12.0504 13.804 12.0387 13.8067C12.0259 13.8097 12.0131 13.8128 12 13.8128ZM4.70725 3.60575C4.31625 3.21475 3.68425 3.21475 3.29325 3.60575C2.90225 3.99675 2.90225 4.62875 3.29325 5.01975L8.92325 10.6498C8.64725 11.1588 8.50025 11.7238 8.50025 12.3127C8.50025 14.2428 10.0703 15.8127 12.0002 15.8127C12.5892 15.8127 13.1543 15.6657 13.6632 15.3897L19.2932 21.0198C19.4882 21.2148 19.7442 21.3127 20.0002 21.3127C20.2563 21.3127 20.5123 21.2148 20.7073 21.0198C21.0983 20.6287 21.0983 19.9967 20.7073 19.6057L4.70725 3.60575ZM12.2198 17.3105C7.91475 17.4105 5.10475 13.7275 4.17275 12.3085C4.62975 11.5945 5.39575 10.5485 6.45575 9.59755L5.04475 8.18555C3.52275 9.57455 2.54675 11.0925 2.13275 11.8155C1.95575 12.1235 1.95575 12.5025 2.13275 12.8105C2.76175 13.9075 6.16175 19.3125 12.0247 19.3125C12.1067 19.3125 12.1888 19.3115 12.2708 19.3095C13.4548 19.2795 14.5268 19.0235 15.4978 18.6395L13.9178 17.0595C13.3828 17.2015 12.8198 17.2955 12.2198 17.3105ZM11.73 5.31615C17.705 5.12915 21.23 10.7032 21.868 11.8152C22.044 12.1232 22.044 12.5022 21.868 12.8102C21.453 13.5332 20.477 15.0512 18.955 16.4402L17.544 15.0282C18.604 14.0772 19.371 13.0312 19.827 12.3172C18.895 10.8982 16.072 7.20715 11.781 7.31515C11.181 7.33015 10.618 7.42415 10.082 7.56615L8.50195 5.98615C9.47395 5.60215 10.545 5.34615 11.73 5.31615Z" fill="#9295A6"/>
</svg>
