<svg width="24" height="25" viewBox="0 0 24 25" fill="none" xmlns="http://www.w3.org/2000/svg">
<path fillRule="evenodd" clipRule="evenodd" d="M12 13.8115C11.173 13.8115 10.5 13.1385 10.5 12.3115C10.5 11.4845 11.173 10.8115 12 10.8115C12.827 10.8115 13.5 11.4845 13.5 12.3115C13.5 13.1385 12.827 13.8115 12 13.8115M12 8.81154C10.07 8.81154 8.50005 10.3815 8.50005 12.3115C8.50005 14.2415 10.07 15.8115 12 15.8115C13.93 15.8115 15.5 14.2415 15.5 12.3115C15.5 10.3815 13.93 8.81154 12 8.81154M12.2189 17.3089C7.91287 17.4089 5.10387 13.7259 4.17188 12.3069C5.19788 10.7019 7.78187 7.41589 11.7799 7.31389C16.0689 7.20489 18.8939 10.8969 19.8259 12.3159C18.8009 13.9209 16.2159 17.2069 12.2189 17.3089M21.8678 11.8141C21.2298 10.7021 17.7057 5.12814 11.7297 5.31514C6.20175 5.45514 2.98675 10.3251 2.13275 11.8141C1.95575 12.1221 1.95575 12.5011 2.13275 12.8091C2.76175 13.9061 6.16175 19.3111 12.0247 19.3111C12.1067 19.3111 12.1888 19.3101 12.2708 19.3081C17.7977 19.1671 21.0138 14.2981 21.8678 12.8091C22.0438 12.5011 22.0438 12.1221 21.8678 11.8141" fill="#9295A6"/>
</svg>
