<svg width="82" height="60" viewBox="0 0 82 60" fill="none" xmlns="http://www.w3.org/2000/svg">
<path fill-rule="evenodd" clip-rule="evenodd" d="M78.515 5.78182C76.2907 1.57091 73.8769 0.796364 68.962 0.501818C64.0523 0.147273 51.7061 0 41.0103 0C30.2939 0 17.9426 0.147273 13.038 0.496364C8.13337 0.796364 5.71438 1.56545 3.46962 5.78182C1.17875 9.98727 0 17.2309 0 29.9836V30.0273C0 42.7255 1.17875 50.0236 3.46962 54.1855C5.71438 58.3964 8.12825 59.16 13.0329 59.5145C17.9426 59.82 30.2939 60 41.0103 60C51.7061 60 64.0522 59.82 68.9671 59.52C73.882 59.1655 76.2959 58.4018 78.5201 54.1909C80.8315 50.0291 82 42.7309 82 30.0327V29.9891C82 17.2309 80.8315 9.98727 78.515 5.78182Z" fill="#F44336"/>
<path fill-rule="evenodd" clip-rule="evenodd" d="M30.75 46.364V13.6367L56.375 30.0004L30.75 46.364Z" fill="#FAFAFA"/>
</svg>
