<svg width="168" height="46" viewBox="0 0 168 46" fill="none" xmlns="http://www.w3.org/2000/svg">
<path fillRule="evenodd" clipRule="evenodd" d="M35.8642 33.2949C32.7701 40.4359 26.6186 45.3127 19.5514 45.3127H1.58808V33.2949H35.8642" fill="#5367FF"/>
<path fillRule="evenodd" clipRule="evenodd" d="M35.8623 12.3303H0V0.3125H19.55C26.6172 0.3125 32.7682 5.18935 35.8623 12.3303" fill="#5367FF"/>
<path fillRule="evenodd" clipRule="evenodd" d="M37.7632 22.8137C37.7632 24.6845 37.5624 26.5571 37.1648 28.401H4.19033V17.2266H37.1648C37.5624 19.0699 37.7632 20.9424 37.7632 22.8137" fill="#5367FF"/>
<path d="M61.5767 18.4595H58.722C58.6698 18.035 58.5634 17.658 58.4026 17.3284C58.2419 16.9938 58.0355 16.7091 57.7834 16.4744C57.5314 16.2397 57.2403 16.06 56.9101 15.9351C56.5842 15.8103 56.2301 15.7478 55.8477 15.7478C55.1569 15.7478 54.5551 15.9451 54.0424 16.3396C53.5296 16.7291 53.1321 17.2984 52.8496 18.0475C52.5672 18.7916 52.426 19.6954 52.426 20.7591C52.426 21.8527 52.5672 22.7716 52.8496 23.5157C53.1364 24.2598 53.5362 24.8216 54.0489 25.2011C54.5616 25.5806 55.1547 25.7704 55.8282 25.7704C56.2062 25.7704 56.556 25.7129 56.8775 25.598C57.2034 25.4832 57.4923 25.3159 57.7443 25.0962C57.9964 24.8715 58.2049 24.5994 58.37 24.2797C58.5395 23.9601 58.6568 23.5956 58.722 23.1861L61.5767 23.2011C61.5028 23.9052 61.3182 24.5844 61.0227 25.2385C60.7316 25.8878 60.3384 26.4695 59.843 26.9839C59.352 27.4932 58.7655 27.8977 58.0833 28.1973C57.4054 28.492 56.6385 28.6393 55.7825 28.6393C54.592 28.6393 53.5275 28.3297 52.5889 27.7105C51.6547 27.0913 50.9161 26.1949 50.373 25.0213C49.8342 23.8478 49.5648 22.427 49.5648 20.7591C49.5648 19.0862 49.8385 17.663 50.386 16.4894C50.9335 15.3159 51.6765 14.422 52.615 13.8077C53.5535 13.1885 54.6094 12.8789 55.7825 12.8789C56.556 12.8789 57.2729 13.0038 57.9334 13.2534C58.5981 13.5031 59.1869 13.8677 59.6997 14.3471C60.2124 14.8215 60.6294 15.4033 60.951 16.0924C61.2769 16.7816 61.4855 17.5706 61.5767 18.4595ZM63.1811 28.4296V16.9239H65.873V18.9314H65.9772C66.1597 18.2173 66.466 17.6779 66.8962 17.3134C67.3264 16.9439 67.8217 16.7591 68.3822 16.7591C68.5213 16.7591 68.6711 16.7691 68.8319 16.789C68.9927 16.809 69.1339 16.8365 69.2556 16.8714V19.7029C69.1252 19.658 68.9449 19.618 68.7146 19.5831C68.4843 19.5481 68.2736 19.5306 68.0824 19.5306C67.674 19.5306 67.309 19.633 66.9875 19.8377C66.6702 20.0375 66.4182 20.3172 66.2314 20.6767C66.0489 21.0363 65.9577 21.4507 65.9577 21.9202V28.4296H63.1811ZM72.3428 32.7442C71.9908 32.7442 71.6606 32.7117 71.3521 32.6468C71.048 32.5869 70.796 32.5095 70.5961 32.4146L71.2218 30.0326C71.5477 30.1474 71.841 30.2099 72.1017 30.2198C72.3667 30.2298 72.5948 30.1599 72.786 30.0101C72.9815 29.8603 73.1401 29.6057 73.2618 29.246L73.4247 28.7592L69.8335 16.9239H72.7534L74.826 25.3734H74.9303L77.0224 16.9239H79.9618L76.0709 29.673C75.8841 30.2923 75.6299 30.8316 75.3083 31.291C74.9912 31.7554 74.5892 32.1125 74.1026 32.3622C73.6159 32.6169 73.0294 32.7442 72.3428 32.7442ZM81.0156 32.7442V16.9239H83.753V18.8565H83.8768C83.9985 18.5469 84.1745 18.2322 84.4048 17.9126C84.6394 17.588 84.9435 17.3184 85.3172 17.1036C85.6953 16.8839 86.1645 16.7741 86.725 16.7741C87.455 16.7741 88.1285 16.9938 88.7455 17.4332C89.3625 17.8677 89.8557 18.5244 90.2249 19.4033C90.5943 20.2772 90.7789 21.3733 90.7789 22.6917C90.7789 23.9751 90.5986 25.0588 90.238 25.9426C89.8817 26.8216 89.3951 27.4883 88.778 27.9427C88.1654 28.3921 87.4789 28.6169 86.7185 28.6169C86.1797 28.6169 85.7214 28.5145 85.3433 28.3098C84.9696 28.1049 84.6633 27.8478 84.4243 27.5381C84.1854 27.2235 84.0028 26.9065 83.8768 26.5868H83.7921V32.7442H81.0156ZM83.7335 22.6767C83.7335 23.3608 83.816 23.9576 83.9812 24.467C84.1463 24.9764 84.3852 25.3734 84.6981 25.6581C85.0109 25.9377 85.3911 26.0775 85.8386 26.0775C86.2905 26.0775 86.6729 25.9351 86.9857 25.6506C87.2986 25.3608 87.5354 24.9613 87.6962 24.452C87.8613 23.9376 87.9438 23.3459 87.9438 22.6767C87.9438 22.0125 87.8634 21.4283 87.7027 20.9239C87.5419 20.4195 87.3051 20.025 86.9922 19.7404C86.6794 19.4557 86.2949 19.3134 85.8386 19.3134C85.3868 19.3134 85.0044 19.4507 84.6915 19.7254C84.383 20.0001 84.1463 20.3896 83.9812 20.8939C83.816 21.3983 83.7335 21.9926 83.7335 22.6767ZM97.5877 16.9239V19.3209H91.559V16.9239H97.5877ZM92.9277 14.1673H95.7042V24.8939C95.7042 25.1886 95.7433 25.4183 95.8215 25.5831C95.8997 25.743 96.0083 25.8553 96.1473 25.9201C96.2908 25.9851 96.4559 26.0176 96.6427 26.0176C96.773 26.0176 96.9034 26.005 97.0337 25.9802C97.1641 25.9501 97.2641 25.9276 97.3335 25.9127L97.7703 28.2873C97.6312 28.3372 97.4357 28.3947 97.1837 28.4595C96.9317 28.5294 96.6254 28.5718 96.2647 28.5868C95.5955 28.6169 95.009 28.5145 94.505 28.2798C94.0052 28.045 93.6164 27.6805 93.3383 27.1861C93.0602 26.6918 92.9234 26.0675 92.9277 25.3135V14.1673ZM103.445 28.6543C102.433 28.6543 101.557 28.4071 100.818 27.9127C100.084 27.4134 99.517 26.7192 99.1173 25.8303C98.7176 24.9364 98.5177 23.9002 98.5177 22.7217C98.5177 21.5331 98.7176 20.4944 99.1173 19.6055C99.517 18.7116 100.084 18.0175 100.818 17.5231C101.557 17.0238 102.433 16.7741 103.445 16.7741C104.457 16.7741 105.331 17.0238 106.065 17.5231C106.804 18.0175 107.373 18.7116 107.773 19.6055C108.172 20.4944 108.372 21.5331 108.372 22.7217C108.372 23.9002 108.172 24.9364 107.773 25.8303C107.373 26.7192 106.804 27.4134 106.065 27.9127C105.331 28.4071 104.457 28.6543 103.445 28.6543ZM103.458 26.1823C103.919 26.1823 104.303 26.0326 104.612 25.7329C104.92 25.4283 105.153 25.0139 105.309 24.4895C105.47 23.9651 105.55 23.3683 105.55 22.6992C105.55 22.03 105.47 21.4333 105.309 20.9089C105.153 20.3846 104.92 19.9701 104.612 19.6655C104.303 19.3608 103.919 19.2085 103.458 19.2085C102.993 19.2085 102.602 19.3608 102.285 19.6655C101.972 19.9701 101.735 20.3846 101.574 20.9089C101.418 21.4333 101.34 22.03 101.34 22.6992C101.34 23.3683 101.418 23.9651 101.574 24.4895C101.735 25.0139 101.972 25.4283 102.285 25.7329C102.602 26.0326 102.993 26.1823 103.458 26.1823ZM113.743 28.4296V13.0886H119.01C120.022 13.0886 120.885 13.3109 121.597 13.7553C122.31 14.1948 122.853 14.8065 123.227 15.5905C123.605 16.3696 123.794 17.2684 123.794 18.2872C123.794 19.3059 123.602 20.2048 123.22 20.9838C122.838 21.7629 122.284 22.3696 121.558 22.8041C120.837 23.2385 119.963 23.4558 118.938 23.4558H115.581V20.8565H118.482C119.025 20.8565 119.472 20.7491 119.824 20.5344C120.181 20.3147 120.446 20.0125 120.62 19.628C120.798 19.2385 120.887 18.7916 120.887 18.2872C120.887 17.7778 120.798 17.3334 120.62 16.9538C120.446 16.5693 120.181 16.2722 119.824 16.0625C119.468 15.8477 119.016 15.7403 118.469 15.7403H116.566V28.4296H113.743ZM127.984 13.0886V28.4296H125.207V13.0886H127.984ZM132.696 28.6468C132.057 28.6468 131.488 28.5194 130.988 28.2648C130.488 28.0051 130.093 27.623 129.802 27.1187C129.515 26.6093 129.372 25.9751 129.372 25.216C129.372 24.5769 129.474 24.0401 129.678 23.6055C129.882 23.1711 130.16 22.8215 130.512 22.5569C130.864 22.2922 131.264 22.0925 131.711 21.9576C132.163 21.8228 132.637 21.7279 133.132 21.673C133.715 21.6031 134.184 21.5381 134.54 21.4782C134.896 21.4133 135.155 21.3184 135.316 21.1936C135.477 21.0687 135.557 20.8839 135.557 20.6393V20.5943C135.557 20.1199 135.427 19.7529 135.166 19.4932C134.909 19.2335 134.545 19.1037 134.071 19.1037C133.571 19.1037 133.174 19.231 132.878 19.4857C132.583 19.7354 132.387 20.05 132.292 20.4295L129.724 20.1898C129.854 19.4907 130.11 18.8864 130.493 18.3771C130.875 17.8627 131.368 17.4682 131.972 17.1935C132.581 16.9139 133.284 16.7741 134.084 16.7741C134.64 16.7741 135.172 16.849 135.681 16.9988C136.193 17.1486 136.647 17.3808 137.043 17.6954C137.443 18.01 137.758 18.4145 137.988 18.9089C138.218 19.3983 138.333 19.9851 138.333 20.6692V28.4296H135.7V26.834H135.622C135.461 27.1936 135.246 27.5107 134.977 27.7854C134.707 28.055 134.384 28.2673 134.006 28.4221C133.628 28.5718 133.191 28.6468 132.696 28.6468ZM133.491 26.4445C133.899 26.4445 134.26 26.3521 134.573 26.1674C134.886 25.9776 135.131 25.7229 135.309 25.4034C135.487 25.0838 135.576 24.7217 135.576 24.3172V23.0962C135.49 23.1611 135.37 23.2211 135.218 23.2759C135.07 23.3259 134.903 23.3734 134.716 23.4183C134.529 23.4583 134.342 23.4957 134.156 23.5306C133.969 23.5606 133.799 23.5881 133.647 23.613C133.321 23.668 133.037 23.7554 132.793 23.8752C132.55 23.9951 132.361 24.1573 132.226 24.3622C132.092 24.5619 132.024 24.8116 132.024 25.1112C132.024 25.5456 132.161 25.8777 132.435 26.1075C132.713 26.3322 133.065 26.4445 133.491 26.4445ZM142.896 21.7778V28.4296H140.12V16.9239H142.766V18.9538H142.884C143.106 18.2847 143.477 17.7553 143.999 17.3658C144.52 16.9713 145.152 16.7741 145.895 16.7741C146.59 16.7741 147.197 16.9488 147.713 17.2984C148.23 17.648 148.632 18.1474 148.919 18.7966C149.206 19.4407 149.35 20.2098 149.35 21.1037V28.4296H146.573V21.673C146.577 20.9688 146.42 20.4195 146.104 20.025C145.786 19.6255 145.349 19.4258 144.793 19.4258C144.42 19.4258 144.089 19.5181 143.803 19.7029C143.521 19.8877 143.298 20.1574 143.138 20.5119C142.982 20.8615 142.901 21.2835 142.896 21.7778ZM155.733 28.6543C154.703 28.6543 153.817 28.4146 153.074 27.9351C152.335 27.4508 151.766 26.7666 151.366 25.8827C150.967 24.9938 150.766 23.9426 150.766 22.7292C150.766 21.5456 150.967 20.5069 151.366 19.613C151.766 18.7191 152.328 18.0225 153.054 17.5231C153.784 17.0238 154.64 16.7741 155.622 16.7741C156.283 16.7741 156.897 16.8964 157.466 17.1411C158.04 17.3808 158.54 17.7429 158.966 18.2273C159.395 18.7116 159.73 19.3209 159.969 20.055C160.208 20.7841 160.328 21.638 160.328 22.6168V23.4932H151.874V21.5157H157.714C157.714 21.0562 157.627 20.6492 157.454 20.2947C157.279 19.9401 157.039 19.663 156.73 19.4632C156.426 19.2585 156.072 19.1561 155.668 19.1561C155.247 19.1561 154.872 19.2685 154.546 19.4932C154.225 19.7129 153.973 20.01 153.79 20.3846C153.609 20.7541 153.515 21.1661 153.51 21.6205V23.5007C153.51 24.07 153.601 24.5619 153.784 24.9764C153.971 25.3908 154.233 25.7105 154.573 25.9351C154.912 26.1599 155.314 26.2722 155.779 26.2722C156.087 26.2722 156.37 26.2223 156.626 26.1224C156.882 26.0226 157.101 25.8728 157.284 25.673C157.466 25.4733 157.606 25.2286 157.701 24.9389L160.269 25.1337C160.139 25.8427 159.872 26.462 159.467 26.9914C159.068 27.5157 158.55 27.9252 157.916 28.2198C157.287 28.5095 156.558 28.6543 155.733 28.6543ZM167.097 16.9239V19.3209H161.068V16.9239H167.097ZM162.437 14.1673H165.213V24.8939C165.213 25.1886 165.253 25.4183 165.331 25.5831C165.409 25.743 165.518 25.8553 165.657 25.9201C165.801 25.9851 165.966 26.0176 166.152 26.0176C166.283 26.0176 166.413 26.005 166.543 25.9802C166.673 25.9501 166.773 25.9276 166.843 25.9127L167.28 28.2873C167.141 28.3372 166.945 28.3947 166.694 28.4595C166.441 28.5294 166.135 28.5718 165.774 28.5868C165.105 28.6169 164.519 28.5145 164.015 28.2798C163.515 28.045 163.126 27.6805 162.848 27.1861C162.57 26.6918 162.433 26.0675 162.437 25.3135V14.1673Z" fill="#2B3144"/>
</svg>
