<svg width="20" height="20" viewBox="0 0 20 20" fill="none" xmlns="http://www.w3.org/2000/svg">
<g id="bank (1) 2">
<path id="Vector" d="M12.9702 2.08366C14.165 2.08442 15.3191 2.51711 16.2197 3.30188C17.1203 4.08664 17.7066 5.17052 17.8703 6.35352C18.034 7.53651 17.7642 8.73878 17.1105 9.73847C16.4569 10.7382 15.4636 11.4678 14.314 11.7928C13.4783 12.032 12.5938 12.0429 11.7525 11.8244L6.53333 17.0402C6.25626 17.3191 5.92654 17.5402 5.56332 17.6907C5.2001 17.8412 4.81059 17.9181 4.41739 17.917V17.917C3.79861 17.9165 3.20532 17.6705 2.76778 17.2331C2.33023 16.7958 2.08419 16.2027 2.08367 15.5842C2.08264 15.1911 2.15958 14.8018 2.31002 14.4386C2.46046 14.0755 2.68142 13.7457 2.96013 13.4685L3.40365 13.0251C3.65181 12.7788 3.98712 12.6401 4.33688 12.6392L5.38362 12.6392L5.38362 11.9795C5.38362 11.6295 5.52269 11.2939 5.77024 11.0465C6.01778 10.7991 6.35352 10.66 6.7036 10.66L7.3636 10.66L7.3636 9.61372C7.36313 9.44039 7.39707 9.26869 7.46346 9.10856C7.52984 8.94843 7.62736 8.80306 7.75035 8.68088L8.17934 8.25206C7.95959 7.41151 7.97031 6.52732 8.21036 5.69234C8.48049 4.74102 9.02855 3.89195 9.78435 3.25387C10.5402 2.61579 11.4693 2.21774 12.4528 2.11071C12.6247 2.09285 12.7974 2.08382 12.9702 2.08366V2.08366ZM12.9702 10.66C13.646 10.6607 14.3085 10.4728 14.8831 10.1175C15.4578 9.76219 15.9219 9.2536 16.2231 8.64896C16.5243 8.04432 16.6507 7.36764 16.588 6.69509C16.5254 6.02254 16.2762 5.38083 15.8684 4.84219C15.4607 4.30355 14.9106 3.88937 14.2802 3.64626C13.6498 3.40316 12.9639 3.34078 12.2999 3.46616C11.636 3.59154 11.0202 3.89969 10.5219 4.35593C10.0236 4.81217 9.66259 5.39839 9.47953 6.04859C9.27361 6.76337 9.29669 7.52466 9.54553 8.22567C9.58614 8.34274 9.59294 8.46888 9.56516 8.58964C9.53738 8.7104 9.47614 8.8209 9.38845 8.90848L8.68358 9.61372L8.68358 10.66C8.68358 11.01 8.54451 11.3456 8.29696 11.593C8.04942 11.8405 7.71368 11.9795 7.3636 11.9795L6.7036 11.9795L6.7036 12.6392C6.7036 12.9891 6.56454 13.3247 6.31699 13.5722C6.06945 13.8196 5.7337 13.9586 5.38362 13.9586L4.33688 13.9586L3.89336 14.402C3.73763 14.5569 3.61417 14.7412 3.53011 14.9441C3.44606 15.147 3.40307 15.3646 3.40365 15.5842C3.40382 15.8528 3.51059 16.1103 3.70053 16.3003C3.89046 16.4903 4.14804 16.5972 4.41673 16.5975C4.6366 16.5981 4.8544 16.555 5.05752 16.4709C5.26064 16.3868 5.44506 16.2632 5.6001 16.1074L11.0985 10.6119C11.1862 10.5242 11.2969 10.463 11.4179 10.4354C11.5388 10.4077 11.6651 10.4147 11.7822 10.4555C12.165 10.5902 12.5677 10.6594 12.9735 10.66L12.9702 10.66ZM14.6235 6.04199C14.6235 5.91151 14.5848 5.78396 14.5123 5.67547C14.4397 5.56698 14.3367 5.48242 14.2161 5.43249C14.0955 5.38255 13.9628 5.36949 13.8347 5.39494C13.7067 5.4204 13.5891 5.48323 13.4968 5.57549C13.4045 5.66776 13.3417 5.78531 13.3162 5.91328C13.2907 6.04126 13.3038 6.1739 13.3538 6.29445C13.4037 6.415 13.4883 6.51804 13.5968 6.59053C13.7054 6.66302 13.833 6.70171 13.9635 6.70171C14.1385 6.70171 14.3064 6.63221 14.4302 6.50848C14.554 6.38476 14.6235 6.21696 14.6235 6.04199Z" fill="white"/>
</g>
</svg>
