<svg width="24" height="21" viewBox="0 0 24 21" fill="none" xmlns="http://www.w3.org/2000/svg">
<path d="M8.08865 9.57329H10.6966V3.05331H8.08865V0.445312H13.3046V9.57329H15.9126V12.1813H8.08865V9.57329ZM7.47464 19.2816C3.04192 17.4434 0.177734 13.1549 0.177734 8.35623H2.78573C2.78573 12.0968 5.01843 15.4395 8.47368 16.8725L7.47464 19.2816ZM12.0006 20.1791C11.4855 20.1791 10.9667 20.1456 10.459 20.0794L10.796 17.4933C11.5888 17.5966 12.4124 17.5966 13.2053 17.4933L13.5423 20.0794C13.0346 20.1456 12.5159 20.1791 12.0006 20.1791ZM16.603 19.2495L15.5871 16.8475C19.0062 15.4014 21.2156 12.0684 21.2156 8.35623H23.8236C23.8236 13.1184 20.9893 17.3942 16.603 19.2495Z" fill="#56B2FF"/>
</svg>
