<svg width="25" height="18" viewBox="0 0 25 18" fill="none" xmlns="http://www.w3.org/2000/svg">
<path d="M16.5382 1.15969L17.3438 0.759688C17.4926 0.653021 17.6198 0.653021 17.7254 0.759688L20.1422 2.37089L22.5598 0.759688C22.6654 0.674888 22.8142 0.674888 22.9598 0.759688L23.7446 1.15969C23.935 1.24449 23.9566 1.37169 23.8294 1.52049L21.7302 4.46769C21.6246 4.61569 21.4758 4.67969 21.2638 4.67969H19.019C18.807 4.67969 18.6582 4.61569 18.5526 4.46769L16.4534 1.52049C16.3262 1.37169 16.3478 1.24449 16.5382 1.15969ZM13.8246 17.8453H10.199C9.96621 17.8453 9.81741 17.7605 9.73261 17.6125L4.43261 9.74689V17.5069C4.43261 17.7405 4.32621 17.8461 4.11261 17.8461H0.827813C0.615813 17.8461 0.507812 17.7405 0.507812 17.5069V1.58689C0.507812 1.35409 0.613413 1.24769 0.827813 1.24769H4.11421C4.32621 1.24769 4.43421 1.35409 4.43421 1.58689V8.35089L9.31421 1.45969C9.3644 1.38945 9.43164 1.33314 9.50959 1.29605C9.58755 1.25896 9.67365 1.24232 9.75981 1.24769H13.3798C13.6766 1.24769 13.7398 1.37489 13.5702 1.64769L8.43981 8.85649L14.1854 17.2733C14.4606 17.6549 14.3334 17.8453 13.8246 17.8453ZM24.5102 8.55969C24.5102 8.79249 24.383 8.89889 24.1286 8.89889H20.5454C19.7606 8.89889 19.231 9.08929 18.9766 9.47089C18.743 9.85249 18.6158 10.6373 18.6158 11.8245C18.6158 13.0117 18.7398 13.7965 18.9798 14.1989C19.2342 14.5805 19.7638 14.7717 20.5486 14.7717H24.1318C24.3862 14.7717 24.5134 14.8773 24.5134 15.1109V17.1669C24.5134 17.4005 24.3862 17.5485 24.1526 17.6125C23.2414 17.8453 22.0326 17.9517 20.5486 17.9517C18.1102 17.9517 16.8382 17.6757 15.9886 16.7221C15.1406 15.7253 14.9286 14.3901 14.9286 11.8245C14.9286 9.76769 15.0982 8.58049 15.5438 7.58449C16.307 6.07889 17.6638 5.78209 20.547 5.71809C22.031 5.71809 23.2398 5.82449 24.151 6.05729C24.3846 6.12129 24.5118 6.26929 24.5118 6.50289L24.5102 8.55969Z" fill="#0052B4"/>
</svg>
