<svg width="23" height="19" viewBox="0 0 23 19" fill="none" xmlns="http://www.w3.org/2000/svg">
<path d="M20.2115 9.3C20.2115 10.0848 19.5734 10.7402 18.7896 10.7607C18.1805 10.7765 17.5435 10.7728 16.9225 10.768V7.83875H18.7503C19.556 7.83875 20.2115 8.49422 20.2115 9.3ZM8.79836 5.74688C8.79836 4.23867 7.57141 3.01172 6.0632 3.01172H2.78906V8.48211H5.27086C5.295 8.48211 5.31898 8.48281 5.34281 8.48414C5.36648 8.48274 5.39024 8.48211 5.41422 8.48211C5.44688 8.48211 6.04812 8.4818 6.14297 8.48094C7.60789 8.43852 8.79836 7.21359 8.79836 5.74688ZM11.7298 16.1146L7.70758 10.7175C8.4932 10.457 9.21164 10.0094 9.80688 9.39945C10.7687 8.41391 11.2984 7.1168 11.2984 5.74688C11.2984 2.86016 8.94984 0.511719 6.0632 0.511719H1.53906C0.848672 0.511719 0.289062 1.07141 0.289062 1.76172V16.8616C0.289062 17.552 0.848672 18.1116 1.53906 18.1116C2.22945 18.1116 2.78906 17.552 2.78906 16.8616V10.9821H4.7868L9.72531 17.6085C9.97078 17.9378 10.3473 18.1116 10.7286 18.1116C10.9883 18.1116 11.2503 18.0309 11.4745 17.8638C12.0281 17.4513 12.1424 16.6682 11.7298 16.1146ZM22.7115 9.3C22.7115 7.11578 20.9345 5.33875 18.7503 5.33875H15.6725C14.9821 5.33875 14.4225 5.89844 14.4225 6.58875V16.8616C14.4225 17.5519 14.9821 18.1116 15.6725 18.1116C16.3629 18.1116 16.9225 17.5519 16.9225 16.8616V13.268C17.5584 13.273 18.2113 13.2764 18.8547 13.2598C20.9813 13.2041 22.7115 11.4277 22.7115 9.3Z" fill="#2B3144"/>
</svg>
