<svg width="16" height="23" viewBox="0 0 16 23" fill="none" xmlns="http://www.w3.org/2000/svg">
<path d="M13.3717 5.3125H14.7492C15.4392 5.3125 15.9992 5.8725 15.9992 6.5625C15.9992 7.2525 15.4392 7.8125 14.7492 7.8125H13.3717C12.7917 10.6625 10.2667 12.8125 7.24916 12.8125H5.26666L13.1317 20.6775C13.6192 21.165 13.6192 21.9575 13.1317 22.445C12.8892 22.69 12.5692 22.8125 12.2492 22.8125C11.9292 22.8125 11.6092 22.69 11.3642 22.4475L1.36416 12.4475C1.00666 12.0875 0.89916 11.5525 1.09416 11.085C1.28666 10.6175 1.74416 10.3125 2.24916 10.3125H7.24916C8.87666 10.3125 10.2517 9.265 10.7692 7.8125H2.24916C1.55916 7.8125 0.99916 7.2525 0.99916 6.5625C0.99916 5.8725 1.55916 5.3125 2.24916 5.3125H10.7692C10.2517 3.86 8.87666 2.8125 7.24916 2.8125H2.24916C1.55916 2.8125 0.99916 2.2525 0.99916 1.5625C0.99916 0.8725 1.55916 0.3125 2.24916 0.3125H7.24916H14.7492C15.4392 0.3125 15.9992 0.8725 15.9992 1.5625C15.9992 2.2525 15.4392 2.8125 14.7492 2.8125H12.2167C12.7692 3.5425 13.1842 4.3825 13.3717 5.3125Z" fill="#FF9811"/>
</svg>
