<svg width="12" height="20" viewBox="0 0 12 20" fill="none" xmlns="http://www.w3.org/2000/svg">
<path d="M10.7071 7.96304C11.3543 7.96304 11.879 8.48773 11.879 9.13491C11.879 9.7821 11.3543 10.3068 10.7071 10.3068H7.17199V12.6701H10.7071C11.3543 12.6701 11.879 13.1948 11.879 13.8419C11.879 14.4891 11.3543 15.0138 10.7071 15.0138H7.17199V18.549C7.17199 19.1962 6.64731 19.7208 6.00012 19.7208C5.35293 19.7208 4.82824 19.1962 4.82824 18.549V15.0138H1.29309C0.645899 15.0138 0.121211 14.4891 0.121211 13.8419C0.121211 13.1948 0.645899 12.6701 1.29309 12.6701H4.82824V10.3068H1.29309C0.645899 10.3068 0.121211 9.7821 0.121211 9.13491C0.121211 8.48773 0.645899 7.96304 1.29309 7.96304H3.81043L0.318008 2.72436C-0.0409767 2.18585 0.10457 1.45827 0.643086 1.09929C1.18145 0.740303 1.9091 0.885772 2.26816 1.42437L6.00012 7.02226L9.73207 1.42429C10.0911 0.885694 10.8188 0.740381 11.3571 1.09921C11.8957 1.45827 12.0412 2.18585 11.6822 2.72429L8.18981 7.96296L10.7071 7.96304Z" fill="#2B3144"/>
</svg>
