<svg width="23" height="23" viewBox="0 0 23 23" fill="none" xmlns="http://www.w3.org/2000/svg">
<path d="M3.86164 16.5805C4.20664 17.0759 4.93726 17.9068 5.95391 17.9068C7.16336 17.9068 8.32437 16.6788 8.84289 14.8511C9.03133 14.187 9.72242 13.8014 10.3866 13.9897C11.0507 14.1781 11.4364 14.8692 11.248 15.5334C10.4081 18.4939 8.33008 20.4068 5.95391 20.4068C4.3818 20.4068 2.87148 19.533 1.81023 18.0095C0.829297 16.6013 0.289062 14.7578 0.289062 12.8188V9.80687C0.289062 7.86789 0.829297 6.02445 1.81023 4.61625C2.87148 3.09273 4.3818 2.21891 5.95391 2.21891C8.33008 2.21891 10.4081 4.13187 11.248 7.09234C11.4364 7.75648 11.0507 8.44766 10.3866 8.63602C9.72226 8.82445 9.03125 8.43883 8.84289 7.77461C8.32445 5.94687 7.16344 4.71891 5.95391 4.71891C4.93726 4.71891 4.20664 5.54984 3.86164 6.04516C3.18 7.02367 2.78906 8.39476 2.78906 9.80687V12.8188C2.78906 14.2309 3.18 15.602 3.86164 16.5805ZM17.5883 10.0628C20.4132 10.0628 22.7114 12.361 22.7114 15.1859C22.7114 17.5798 21.0609 19.5947 18.8383 20.1541V21.0377C18.8383 21.728 18.2786 22.2877 17.5883 22.2877C16.898 22.2877 16.3383 21.728 16.3383 21.0377V20.1541C14.1157 19.5947 12.4652 17.5797 12.4652 15.1859C12.4652 14.4956 13.0248 13.9359 13.7152 13.9359C14.4055 13.9359 14.9652 14.4956 14.9652 15.1859C14.9652 16.6323 16.1419 17.8091 17.5883 17.8091C19.0347 17.8091 20.2114 16.6323 20.2114 15.1859C20.2114 13.7395 19.0347 12.5628 17.5883 12.5628C14.7634 12.5628 12.4652 10.2646 12.4652 7.43969C12.4652 5.04586 14.1157 3.03094 16.3383 2.47148V1.58789C16.3383 0.897577 16.898 0.337891 17.5883 0.337891C18.2786 0.337891 18.8383 0.897577 18.8383 1.58789V2.47148C21.0609 3.03094 22.7114 5.04594 22.7114 7.43969C22.7114 8.13 22.1517 8.68969 21.4614 8.68969C20.7711 8.68969 20.2114 8.13 20.2114 7.43969C20.2114 5.99328 19.0347 4.81656 17.5883 4.81656C16.1419 4.81656 14.9652 5.99328 14.9652 7.43969C14.9652 8.88609 16.1419 10.0628 17.5883 10.0628Z" fill="#DD2344"/>
</svg>
