<svg width="25" height="19" viewBox="0 0 25 19" fill="none" xmlns="http://www.w3.org/2000/svg">
<path d="M14.4186 18.2966H10.4986C10.2466 18.2966 10.0858 18.2054 9.99377 18.0446L4.25777 9.53181V17.9318C4.25777 18.1846 4.14257 18.299 3.91377 18.299H0.353766C0.124166 18.299 0.00976562 18.1846 0.00976562 17.9318V0.698213C0.00976562 0.446213 0.124166 0.331014 0.353766 0.331014H3.91057C4.13937 0.331014 4.25457 0.446213 4.25457 0.698213V8.01741L9.53457 0.560613C9.58864 0.484888 9.66103 0.42411 9.74498 0.383957C9.82892 0.343805 9.92167 0.32559 10.0146 0.331014H13.9346C14.2546 0.331014 14.325 0.468614 14.141 0.767014L8.58897 8.56861L14.8066 17.6774C15.1074 18.0902 14.9698 18.2966 14.4186 18.2966ZM24.0098 8.27181C24.0098 8.50141 23.8722 8.61581 23.6194 8.61581H21.3482C20.3154 8.61581 19.9482 8.82221 19.9482 9.76301V17.931C19.9482 18.1838 19.8338 18.2982 19.6042 18.2982H16.277C16.0482 18.2982 15.933 18.1838 15.933 17.931V8.68301C15.933 7.28301 16.3002 6.36301 17.0578 5.88301C17.8154 5.40301 18.9162 5.17181 20.3378 5.17181C21.6682 5.17181 22.7698 5.26381 23.6178 5.44701C23.8706 5.49261 24.0082 5.65341 24.0082 5.92701L24.0098 8.27181Z" fill="#2B3144"/>
</svg>
