<svg width="10" height="18" viewBox="0 0 10 18" fill="none" xmlns="http://www.w3.org/2000/svg">
<path d="M8.58433 14.2384C8.03906 14.9019 7.32919 15.3495 6.501 15.5758C6.14092 15.6736 5.97631 15.8639 5.99688 16.2394C6.01232 16.6098 5.99688 16.975 5.99174 17.3454C5.99174 17.6746 5.82199 17.8495 5.49791 17.8598C5.28701 17.8649 5.0761 17.8701 4.8652 17.8701C4.68001 17.8701 4.49483 17.8701 4.30964 17.8649C3.95985 17.8598 3.79524 17.6592 3.79524 17.3196C3.79009 17.0522 3.79009 16.7795 3.79009 16.512C3.78495 15.9153 3.76437 15.8947 3.19339 15.8022C2.46293 15.6838 1.74277 15.5192 1.07404 15.1952C0.549352 14.938 0.492767 14.8094 0.641944 14.2538C0.755113 13.8423 0.868282 13.4308 0.996883 13.0244C1.08948 12.726 1.17692 12.5923 1.33639 12.5923C1.42898 12.5923 1.54729 12.6386 1.70676 12.7209C2.4475 13.1067 3.23454 13.3227 4.06273 13.4256C4.20162 13.441 4.3405 13.4513 4.47939 13.4513C4.8652 13.4513 5.24071 13.3793 5.60594 13.2199C6.52672 12.8186 6.67075 11.7538 5.894 11.1159C5.63166 10.8999 5.32816 10.7404 5.01437 10.6015C4.20676 10.2466 3.36828 9.97911 2.60697 9.52129C1.3724 8.78055 0.590505 7.76718 0.683097 6.26512C0.785978 4.56759 1.74791 3.50792 3.30655 2.94207C3.94956 2.71059 3.9547 2.71574 3.9547 2.04701C3.9547 1.82067 3.94956 1.59434 3.95985 1.36286C3.97528 0.85874 4.05758 0.771291 4.5617 0.755859C4.61828 0.755859 4.68001 0.755859 4.73659 0.755859C4.83433 0.755859 4.93207 0.755859 5.0298 0.755859C5.07096 0.755859 5.11211 0.755859 5.14812 0.755859C6.10491 0.755859 6.10491 0.797012 6.11005 1.83096C6.1152 2.59228 6.1152 2.59228 6.87137 2.71059C7.45264 2.80318 8.00306 2.97294 8.53804 3.20956C8.83125 3.33816 8.94441 3.54393 8.85182 3.85771C8.71808 4.32067 8.58948 4.78878 8.44544 5.2466C8.35285 5.52438 8.2654 5.65298 8.10079 5.65298C8.0082 5.65298 7.89503 5.61697 7.751 5.54495C7.01026 5.18487 6.23351 5.00997 5.42075 5.00997C5.31787 5.00997 5.20985 5.01512 5.10697 5.02026C4.8652 5.0357 4.62857 5.06656 4.40223 5.1643C3.59976 5.51409 3.47116 6.39886 4.15532 6.94413C4.49997 7.22191 4.89606 7.41738 5.30244 7.58714C6.01231 7.88035 6.72219 8.16327 7.39606 8.53364C9.5154 9.71676 10.0915 12.4071 8.58433 14.2384Z" fill="#2B3144"/>
</svg>
