<svg width="18" height="21" viewBox="0 0 18 21" fill="none" xmlns="http://www.w3.org/2000/svg">
<path d="M16.1667 19.4787C13.7665 20.522 11.0529 20.5827 8.60841 19.6479C6.16391 18.7132 4.18329 16.8573 3.09167 14.4787H0.5V11.1453H2.20833C2.20833 10.8703 2.16667 10.5953 2.16667 10.312C2.16667 10.0287 2.16667 9.75367 2.20833 9.47867H0.5V6.14534H3.09167C4.18329 3.76673 6.16391 1.91086 8.60841 0.976064C11.0529 0.0412641 13.7665 0.102038 16.1667 1.14534L17.6917 1.81201L16.3333 4.87034L14.8083 4.20368C13.9764 3.83519 13.0765 3.64499 12.1667 3.64534C11.168 3.64597 10.1822 3.87095 9.2822 4.30366C8.38216 4.73637 7.59083 5.36576 6.96667 6.14534H12.1667V9.47867H5.55833C5.48058 10.0315 5.48058 10.5925 5.55833 11.1453H12.1667V14.4787H6.96667C7.59083 15.2583 8.38216 15.8876 9.2822 16.3204C10.1822 16.7531 11.168 16.978 12.1667 16.9787C13.085 16.9825 13.9937 16.7923 14.8333 16.4203L16.3583 15.7537L17.6917 18.812L16.1667 19.4787Z" fill="#2B3144"/>
</svg>
