<svg width="24" height="22" viewBox="0 0 24 22" fill="none" xmlns="http://www.w3.org/2000/svg">
<path d="M6.55836 10.4738L3.28906 10.4749V5.15102H6.48008C7.94789 5.15102 9.14203 6.34516 9.14203 7.81305C9.14203 9.24055 7.98328 10.4327 6.55836 10.4738ZM12.0611 17.9766L8.13164 12.7041C8.89445 12.4457 9.59211 12.0081 10.1714 11.4145C11.1198 10.4428 11.642 9.16375 11.642 7.81305C11.642 4.96672 9.32641 2.65102 6.48008 2.65102H2.03906C1.34875 2.65102 0.789062 3.2107 0.789062 3.90102V18.7236C0.789062 19.4139 1.34875 19.9736 2.03906 19.9736C2.72937 19.9736 3.28906 19.4139 3.28906 18.7236V12.9749H5.2157L10.0566 19.4705C10.302 19.7998 10.6784 19.9737 11.0598 19.9737C11.3195 19.9737 11.5816 19.893 11.8058 19.7259C12.3593 19.3134 12.4736 18.5302 12.0611 17.9766ZM15.8001 7.60664C15.8001 6.25258 16.9017 5.15094 18.2558 5.15094C19.6098 5.15094 20.7115 6.25258 20.7115 7.60664C20.7115 8.29695 21.2712 8.85664 21.9615 8.85664C22.6518 8.85664 23.2115 8.29695 23.2115 7.60664C23.2115 5.30578 21.6352 3.36641 19.5058 2.81094V2.00781C19.5058 1.3175 18.9461 0.757812 18.2558 0.757812C17.5655 0.757812 17.0058 1.3175 17.0058 2.00781V2.81094C14.8764 3.36633 13.3001 5.30578 13.3001 7.60664C13.3001 10.3392 15.5232 12.5623 18.2558 12.5623C19.6098 12.5623 20.7115 13.6639 20.7115 15.018C20.7115 16.372 19.6098 17.4736 18.2558 17.4736C16.9017 17.4736 15.8001 16.372 15.8001 15.018C15.8001 14.3277 15.2404 13.768 14.5501 13.768C13.8598 13.768 13.3001 14.3277 13.3001 15.018C13.3001 17.3188 14.8764 19.2582 17.0058 19.8136V20.6167C17.0058 21.307 17.5655 21.8667 18.2558 21.8667C18.9461 21.8667 19.5058 21.307 19.5058 20.6167V19.8136C21.6352 19.2582 23.2115 17.3188 23.2115 15.018C23.2115 12.2854 20.9884 10.0623 18.2558 10.0623C16.9017 10.0623 15.8001 8.9607 15.8001 7.60664Z" fill="#2B3144"/>
</svg>
