<svg width="17" height="20" viewBox="0 0 17 20" fill="none" xmlns="http://www.w3.org/2000/svg">
<path d="M15.5254 7.08667C15.857 7.08667 16.1749 7.21836 16.4093 7.45278C16.6438 7.6872 16.7754 8.00514 16.7754 8.33666C16.7754 8.66818 16.6438 8.98613 16.4093 9.22055C16.1749 9.45497 15.857 9.58666 15.5254 9.58666H7.71544V13.3642H11.0354C11.367 13.3642 11.6849 13.4959 11.9193 13.7303C12.1537 13.9647 12.2854 14.2826 12.2854 14.6142C12.2854 14.9457 12.1537 15.2636 11.9193 15.498C11.6849 15.7325 11.367 15.8642 11.0354 15.8642H7.71544V18.5567C7.71544 18.8882 7.58375 19.2061 7.34933 19.4405C7.11491 19.675 6.79696 19.8067 6.46544 19.8067C6.13392 19.8067 5.81598 19.675 5.58156 19.4405C5.34714 19.2061 5.21544 18.8882 5.21544 18.5567V15.8642H1.97461C1.64309 15.8642 1.32515 15.7325 1.09073 15.498C0.856306 15.2636 0.724609 14.9457 0.724609 14.6142C0.724609 14.2826 0.856306 13.9647 1.09073 13.7303C1.32515 13.4959 1.64309 13.3642 1.97461 13.3642H5.21544V2.0625C5.21544 1.73098 5.34714 1.41304 5.58156 1.17862C5.81598 0.944196 6.13392 0.8125 6.46544 0.8125H15.5254C15.857 0.8125 16.1749 0.944196 16.4093 1.17862C16.6438 1.41304 16.7754 1.73098 16.7754 2.0625C16.7754 2.39402 16.6438 2.71196 16.4093 2.94638C16.1749 3.1808 15.857 3.3125 15.5254 3.3125H7.71544V7.09L15.5254 7.08667Z" fill="#2B3144"/>
</svg>
