<svg width="14" height="19" viewBox="0 0 14 19" fill="none" xmlns="http://www.w3.org/2000/svg">
<path d="M9.5 8.0625C9.83153 8.0625 10.1495 8.1942 10.3839 8.42862C10.6183 8.66304 10.75 8.98098 10.75 9.3125C10.75 9.64402 10.6183 9.96196 10.3839 10.1964C10.1495 10.4308 9.83153 10.5625 9.5 10.5625H7V13.0625C6.99809 13.3075 6.92419 13.5466 6.7875 13.75L5.5375 15.5625H12C12.3315 15.5625 12.6495 15.6942 12.8839 15.9286C13.1183 16.163 13.25 16.481 13.25 16.8125C13.25 17.144 13.1183 17.462 12.8839 17.6964C12.6495 17.9308 12.3315 18.0625 12 18.0625H3.25C3.02387 18.0619 2.80214 18 2.60843 17.8833C2.41472 17.7666 2.25628 17.5996 2.15 17.4C2.04964 17.2045 2.00257 16.9861 2.01354 16.7666C2.02451 16.5472 2.09314 16.3345 2.2125 16.15L4.5 12.6875V10.5625H2C1.66848 10.5625 1.35054 10.4308 1.11612 10.1964C0.881696 9.96196 0.75 9.64402 0.75 9.3125C0.75 8.98098 0.881696 8.66304 1.11612 8.42862C1.35054 8.1942 1.66848 8.0625 2 8.0625H4.5V5.5625C4.5 4.23642 5.02678 2.96465 5.96447 2.02697C6.90215 1.08928 8.17392 0.5625 9.5 0.5625H12C12.3315 0.5625 12.6495 0.694196 12.8839 0.928617C13.1183 1.16304 13.25 1.48098 13.25 1.8125C13.25 2.14402 13.1183 2.46196 12.8839 2.69638C12.6495 2.9308 12.3315 3.0625 12 3.0625H9.5C8.83696 3.0625 8.20108 3.32589 7.73224 3.79473C7.26339 4.26357 7 4.89946 7 5.5625V8.0625H9.5Z" fill="#2B3144"/>
</svg>
