<svg width="80" height="20" viewBox="0 0 80 20" fill="none" xmlns="http://www.w3.org/2000/svg">
<g id="Group 1273">
<path id="Vector" d="M61.8386 5.21924H57.5211C57.2671 5.21924 57.0132 5.46769 56.8862 5.71615L55.1084 16.6482C55.1084 16.8966 55.2354 17.0208 55.4894 17.0208H57.7751C58.029 17.0208 58.156 16.8966 58.156 16.6482L58.664 13.5425C58.664 13.294 58.9179 13.0456 59.2989 13.0456H60.6957C63.6163 13.0456 65.2671 11.6791 65.6481 8.94606C65.9021 7.82801 65.6481 6.8342 65.1402 6.21306C64.3783 5.59192 63.2354 5.21924 61.8386 5.21924ZM62.3465 9.31874C62.0925 10.8095 60.9497 10.8095 59.8068 10.8095H59.0449L59.5529 7.95224C59.5529 7.82801 59.6798 7.70379 59.9338 7.70379H60.1878C60.9497 7.70379 61.7116 7.70379 62.0925 8.20069C62.3465 8.32492 62.3465 8.69761 62.3465 9.31874Z" fill="#139AD6"/>
<g id="Group">
<path id="Vector_2" d="M30.7292 5.21924H26.4117C26.1577 5.21924 25.9038 5.46769 25.7768 5.71615L23.999 16.6482C23.999 16.8966 24.126 17.0208 24.38 17.0208H26.4117C26.6657 17.0208 26.9197 16.7724 27.0466 16.5239L27.5546 13.5425C27.5546 13.294 27.8085 13.0456 28.1895 13.0456H29.5863C32.5069 13.0456 34.1577 11.6791 34.5387 8.94606C34.7926 7.82801 34.5387 6.8342 34.0307 6.21306C33.2688 5.59192 32.253 5.21924 30.7292 5.21924ZM31.2371 9.31874C30.9831 10.8095 29.8403 10.8095 28.6974 10.8095H28.0625L28.5704 7.95224C28.5704 7.82801 28.6974 7.70379 28.9514 7.70379H29.2054C29.9673 7.70379 30.7292 7.70379 31.1101 8.20069C31.2371 8.32492 31.3641 8.69761 31.2371 9.31874Z" fill="#263B80"/>
<path id="Vector_3" d="M43.8094 9.19426H41.7777C41.6507 9.19426 41.3968 9.31848 41.3968 9.44271L41.2698 10.0639L41.1428 9.8154C40.6349 9.19426 39.746 8.9458 38.7301 8.9458C36.4444 8.9458 34.4126 10.685 34.0317 13.0453C33.7777 14.2876 34.1587 15.4056 34.7936 16.151C35.4285 16.8964 36.3174 17.1448 37.4603 17.1448C39.365 17.1448 40.3809 16.0268 40.3809 16.0268L40.2539 16.6479C40.2539 16.8964 40.3809 17.0206 40.6349 17.0206H42.5396C42.7936 17.0206 43.0475 16.7722 43.1745 16.5237L44.3174 9.56694C44.1904 9.44271 43.9364 9.19426 43.8094 9.19426ZM40.8888 13.1695C40.6349 14.2876 39.746 15.1572 38.4761 15.1572C37.8412 15.1572 37.3333 14.9087 37.0793 14.6603C36.8253 14.2876 36.6984 13.7907 36.6984 13.1695C36.8253 12.0515 37.8412 11.1819 38.9841 11.1819C39.619 11.1819 39.9999 11.4304 40.3809 11.6788C40.7618 12.0515 40.8888 12.6726 40.8888 13.1695Z" fill="#263B80"/>
</g>
<path id="Vector_4" d="M74.7919 9.19426H72.7602C72.6332 9.19426 72.3792 9.31848 72.3792 9.44271L72.2522 10.0639L72.1253 9.8154C71.6173 9.19426 70.7284 8.9458 69.7126 8.9458C67.4268 8.9458 65.3951 10.685 65.0141 13.0453C64.7602 14.2876 65.1411 15.4056 65.776 16.151C66.411 16.8964 67.2998 17.1448 68.4427 17.1448C70.3475 17.1448 71.3634 16.0268 71.3634 16.0268L71.2364 16.6479C71.2364 16.8964 71.3634 17.0206 71.6173 17.0206H73.5221C73.7761 17.0206 74.03 16.7722 74.157 16.5237L75.2999 9.56694C75.1729 9.44271 75.0459 9.19426 74.7919 9.19426ZM71.8713 13.1695C71.6173 14.2876 70.7284 15.1572 69.4586 15.1572C68.8237 15.1572 68.3157 14.9087 68.0618 14.6603C67.8078 14.2876 67.6808 13.7907 67.6808 13.1695C67.8078 12.0515 68.8237 11.1819 69.9665 11.1819C70.6014 11.1819 70.9824 11.4304 71.3634 11.6788C71.8713 12.0515 71.9983 12.6726 71.8713 13.1695Z" fill="#139AD6"/>
<path id="Vector_5" d="M54.8549 9.19189H52.6962C52.4422 9.19189 52.3152 9.31612 52.1882 9.44035L49.3946 13.6641L48.1248 9.6888C47.9978 9.44035 47.8708 9.31612 47.4898 9.31612H45.4581C45.2041 9.31612 45.0771 9.56458 45.0771 9.81303L47.3629 16.3971L45.2041 19.3785C45.0771 19.627 45.2041 19.9996 45.4581 19.9996H47.4898C47.7438 19.9996 47.8708 19.8754 47.9978 19.7512L54.9819 9.93726C55.3628 9.56458 55.1089 9.19189 54.8549 9.19189Z" fill="#263B80"/>
<path id="Vector_6" d="M77.2065 5.59065L75.4287 16.7711C75.4287 17.0195 75.5557 17.1438 75.8097 17.1438H77.5874C77.8414 17.1438 78.0954 16.8953 78.2224 16.6468L80.0001 5.71487C80.0001 5.46642 79.8732 5.34219 79.6192 5.34219H77.5874C77.4605 5.21796 77.3335 5.34219 77.2065 5.59065Z" fill="#139AD6"/>
<path id="Vector_7" d="M14.6022 1.49121C13.7133 0.497396 12.0625 0.000488281 9.7768 0.000488281H3.42759C3.04664 0.000488281 2.66569 0.373168 2.53871 0.74585L-0.000976562 17.0196C-0.000976562 17.3923 0.252992 17.6408 0.50696 17.6408H4.44347L5.45934 11.5536V11.8021C5.58632 11.4294 5.96728 11.0567 6.34823 11.0567H8.25299C11.9355 11.0567 14.7292 9.56599 15.6181 5.46649C15.6181 5.34226 15.6181 5.21803 15.6181 5.09381C15.4911 5.09381 15.4911 5.09381 15.6181 5.09381C15.7451 3.47885 15.4911 2.48503 14.6022 1.49121Z" fill="#263B80"/>
<path id="Vector_8" d="M15.4921 5.09424C15.4921 5.21847 15.4921 5.34269 15.4921 5.46692C14.6032 9.69065 11.8095 11.0572 8.12697 11.0572H6.22221C5.84126 11.0572 5.4603 11.4298 5.33332 11.8025L4.06348 19.3804C4.06348 19.6288 4.19046 19.8773 4.57141 19.8773H7.873C8.25395 19.8773 8.63491 19.6288 8.63491 19.2562V19.1319L9.26983 15.2809V15.0324C9.26983 14.6597 9.65078 14.4113 10.0317 14.4113H10.5397C13.7143 14.4113 16.254 13.169 16.8889 9.4422C17.1428 7.95147 17.0159 6.58497 16.254 5.71538C16.127 5.46692 15.873 5.21847 15.4921 5.09424Z" fill="#139AD6"/>
<path id="Vector_9" d="M14.5989 4.72082C14.4719 4.72082 14.345 4.5966 14.218 4.5966C14.091 4.5966 13.964 4.5966 13.837 4.47237C13.3291 4.34814 12.8212 4.34814 12.1862 4.34814H7.23384C7.10685 4.34814 6.97987 4.34814 6.85288 4.47237C6.59891 4.5966 6.47193 4.84505 6.47193 5.0935L5.45605 11.5533V11.8018C5.58304 11.4291 5.96399 11.0564 6.34495 11.0564H8.24971C11.9323 11.0564 14.7259 9.56567 15.6148 5.46619C15.6148 5.34196 15.6148 5.21773 15.7418 5.0935C15.4878 4.96928 15.3608 4.84505 15.1069 4.84505C14.7259 4.72082 14.7259 4.72082 14.5989 4.72082Z" fill="#232C65"/>
</g>
</svg>
