<svg width="20" height="21" viewBox="0 0 20 21" fill="none" xmlns="http://www.w3.org/2000/svg">
<path fillRule="evenodd" clipRule="evenodd" d="M14.9944 6.18667C14.9944 5.72917 14.6244 5.35667 14.166 5.35417L7.50521 5.3125H7.50021C7.04188 5.3125 6.67021 5.6825 6.66688 6.14083C6.66354 6.60083 7.03438 6.97667 7.49521 6.97917L12.1269 7.00833L5.24438 13.89C4.91854 14.2158 4.91854 14.7433 5.24438 15.0683C5.40688 15.2317 5.62021 15.3125 5.83354 15.3125C6.04688 15.3125 6.26021 15.2317 6.42271 15.0683L13.3294 8.16167L13.3335 12.8133C13.3335 13.2733 13.7069 13.6458 14.1669 13.6458H14.1677C14.6277 13.6458 15.0002 13.2717 15.0002 12.8117L14.9944 6.18667Z" fill="white"/>
</svg>
