<svg width="24" height="25" viewBox="0 0 24 25" fill="none" xmlns="http://www.w3.org/2000/svg">
<path fillRule="evenodd" clipRule="evenodd" d="M7 16.3125C7 15.7625 7.45 15.3125 8 15.3125C8.55 15.3125 9 15.7625 9 16.3125C9 16.8625 8.55 17.3125 8 17.3125C7.45 17.3125 7 16.8625 7 16.3125ZM12 15.3125H16C16.55 15.3125 17 15.7625 17 16.3125C17 16.8625 16.55 17.3125 16 17.3125H12C11.45 17.3125 11 16.8625 11 16.3125C11 15.7625 11.45 15.3125 12 15.3125ZM18 20.3125H6C5.449 20.3125 5 19.8635 5 19.3125V13.3125H19V19.3125C19 19.8635 18.551 20.3125 18 20.3125ZM6 6.3125H7V7.3125C7 7.8625 7.45 8.3125 8 8.3125C8.55 8.3125 9 7.8625 9 7.3125V6.3125H15V7.3125C15 7.8625 15.45 8.3125 16 8.3125C16.55 8.3125 17 7.8625 17 7.3125V6.3125H18C18.551 6.3125 19 6.7615 19 7.3125V11.3125H5V7.3125C5 6.7615 5.449 6.3125 6 6.3125ZM18 4.3125H17V3.3125C17 2.7625 16.55 2.3125 16 2.3125C15.45 2.3125 15 2.7625 15 3.3125V4.3125H9V3.3125C9 2.7625 8.55 2.3125 8 2.3125C7.45 2.3125 7 2.7625 7 3.3125V4.3125H6C4.346 4.3125 3 5.6585 3 7.3125V19.3125C3 20.9665 4.346 22.3125 6 22.3125H18C19.654 22.3125 21 20.9665 21 19.3125V7.3125C21 5.6585 19.654 4.3125 18 4.3125Z" fill="#9295A6"/>
</svg>
