<svg width="30" height="31" viewBox="0 0 30 31" fill="none" xmlns="http://www.w3.org/2000/svg">
<rect y="0.3125" width="30" height="30" rx="15" fill="#F7931A"/>
<path fillRule="evenodd" clipRule="evenodd" d="M13.7088 16.5463L16.4109 15.6654C17.672 15.2543 18.6966 15.8503 19.0581 17.0611C19.3419 17.9317 19.206 18.8396 18.5833 19.3748C18.3523 19.5829 17.9717 19.7401 17.6415 19.8478L15.0594 20.6895L13.7088 16.5463ZM15.2901 9.98578C15.9284 10.1099 16.3944 10.6222 16.6195 11.3127C16.9718 12.3936 16.586 13.3498 15.5052 13.7021L13.0432 14.5047L11.8589 10.8718L14.0206 10.1671C14.501 10.0105 14.941 9.93354 15.2901 9.98578ZM18.5571 21.8411C19.0139 23.2423 19.2422 23.9429 19.2422 23.9429C19.2422 23.9429 18.7718 24.0962 17.8311 24.4029L17.1459 22.3012L15.6748 22.7808C16.1315 24.1819 16.3599 24.8825 16.3599 24.8825C16.3599 24.8825 15.8895 25.0358 14.9488 25.3425L14.2637 23.2408C12.3821 23.8541 11.4414 24.1608 11.4414 24.1608C11.4414 24.1608 11.2326 23.5204 10.815 22.2394L11.6857 21.9556C12.136 21.8088 12.3488 21.3407 12.2118 20.9204L9.44193 12.4237C9.29512 11.9733 8.8272 11.7606 8.4069 11.8976C7.8264 12.0868 7.53616 12.1814 7.53616 12.1814C7.53616 12.1814 7.32735 11.5409 6.90974 10.2599L9.73203 9.33982C9.27528 7.93871 9.0469 7.23815 9.0469 7.23815C9.0469 7.23815 9.51727 7.08482 10.458 6.77814L11.1431 8.87981L12.6143 8.40023C12.1575 6.99912 11.9291 6.29856 11.9291 6.29856C11.9291 6.29856 12.3995 6.14521 13.3403 5.83852L14.0352 7.97017C14.7656 7.76533 15.3654 7.66946 16.0142 7.72369C17.4317 7.79295 18.6842 8.67999 19.1932 10.2413C19.6238 11.5624 19.3756 12.839 18.4507 13.7715C20.1783 13.773 21.3093 14.8989 21.7889 16.3701C22.3755 18.2713 21.5647 20.0636 20.2201 21.0334C19.6784 21.4092 19.1576 21.6454 18.5571 21.8411Z" fill="white"/>
</svg>
