<svg width="30" height="31" viewBox="0 0 30 31" fill="none" xmlns="http://www.w3.org/2000/svg">
<rect y="0.3125" width="30" height="30" rx="15" fill="#627EEA"/>
<path fillRule="evenodd" clipRule="evenodd" d="M8.75 15.3125L15 5.3125V12.62L8.75 15.3125ZM20.9375 15.3125L15 12.6235V5.3125L20.9375 15.3125Z" fill="white"/>
<path fillRule="evenodd" clipRule="evenodd" d="M15 19.7642L8.75 16.0142L15 13.3125V19.7642Z" fill="white"/>
<path fillRule="evenodd" clipRule="evenodd" d="M15 19.7642L21.25 16.0142L15 13.3125V19.7642Z" fill="white"/>
<path fillRule="evenodd" clipRule="evenodd" d="M8.75 16.875L15 20.4829V25.3125L8.75 16.875ZM20.9375 16.875L15 25.3125V20.4829L20.9375 16.875Z" fill="white"/>
<path fillRule="evenodd" clipRule="evenodd" d="M20.9375 15.3125L15 12.6235V5.3125L20.9375 15.3125Z" fill="white"/>
<path fillRule="evenodd" clipRule="evenodd" d="M20.9375 16.875L15 20.4824V25.3125L20.9375 16.875Z" fill="white"/>
</svg>
