<svg width="30" height="31" viewBox="0 0 30 31" fill="none" xmlns="http://www.w3.org/2000/svg">
<rect y="0.3125" width="30" height="30" rx="15" fill="#5367FF"/>
<path d="M21.2747 9.28141C21.2409 9.1991 21.1835 9.12864 21.1097 9.07891C21.0359 9.02918 20.9491 9.0024 20.8601 9.00196H18.6065C18.5471 9.00162 18.4883 9.01299 18.4334 9.03542C18.3785 9.05785 18.3286 9.0909 18.2865 9.13267L15.3207 12.1029C15.2788 12.1452 15.229 12.1787 15.174 12.2016C15.1191 12.2245 15.0602 12.2362 15.0007 12.2362C14.9412 12.2362 14.8823 12.2245 14.8274 12.2016C14.7724 12.1787 14.7226 12.1452 14.6807 12.1029L11.7149 9.13267C11.6728 9.0909 11.6229 9.05785 11.568 9.03542C11.513 9.01299 11.4542 9.00162 11.3949 9.00196H9.14131C9.05233 9.0024 8.96547 9.02918 8.89167 9.07891C8.81788 9.12864 8.76046 9.1991 8.72665 9.28141C8.69213 9.36349 8.6827 9.45395 8.69955 9.54139C8.71639 9.62882 8.75876 9.70931 8.8213 9.77269L13.4051 14.3565C13.6145 14.5664 13.8632 14.7329 14.137 14.8465C14.4107 14.9601 14.7043 15.0186 15.0007 15.0186C15.2971 15.0186 15.5906 14.9601 15.8644 14.8465C16.1382 14.7329 16.3869 14.5664 16.5962 14.3565L21.1801 9.77269C21.2426 9.70931 21.285 9.62882 21.3018 9.54139C21.3187 9.45395 21.3093 9.36349 21.2747 9.28141Z" fill="white"/>
<path d="M21.1801 20.8514L16.5962 16.2676C16.3869 16.0577 16.1382 15.8912 15.8644 15.7776C15.5906 15.6639 15.2971 15.6055 15.0007 15.6055C14.7043 15.6055 14.4107 15.6639 14.137 15.7776C13.8632 15.8912 13.6145 16.0577 13.4051 16.2676L8.8213 20.8514C8.75876 20.9148 8.71639 20.9953 8.69955 21.0827C8.6827 21.1701 8.69213 21.2606 8.72665 21.3427C8.76046 21.425 8.81788 21.4955 8.89167 21.5452C8.96547 21.5949 9.05233 21.6217 9.14131 21.6221H11.3949C11.4542 21.6225 11.513 21.6111 11.568 21.5887C11.6229 21.5662 11.6728 21.5332 11.7149 21.4914L14.6807 18.5212C14.7226 18.4789 14.7724 18.4454 14.8274 18.4225C14.8823 18.3996 14.9412 18.3878 15.0007 18.3878C15.0602 18.3878 15.1191 18.3996 15.174 18.4225C15.229 18.4454 15.2788 18.4789 15.3207 18.5212L18.2865 21.4914C18.3286 21.5332 18.3785 21.5662 18.4334 21.5887C18.4883 21.6111 18.5471 21.6225 18.6065 21.6221H20.8601C20.9491 21.6217 21.0359 21.5949 21.1097 21.5452C21.1835 21.4955 21.2409 21.425 21.2747 21.3427C21.3093 21.2606 21.3187 21.1701 21.3018 21.0827C21.285 20.9953 21.2426 20.9148 21.1801 20.8514Z" fill="white"/>
</svg>
