<svg width="30" height="31" viewBox="0 0 30 31" fill="none" xmlns="http://www.w3.org/2000/svg">
<rect y="0.3125" width="30" height="30" rx="15" fill="#FF0013"/>
<path fillRule="evenodd" clipRule="evenodd" d="M14.4991 13.8125L8.49915 6.8125L19.5238 8.98712L14.4991 13.8125ZM14.9991 14.3125L20.3577 9.35463L22.5527 10.8877L14.9991 14.3125ZM20.5073 8.63936C11.8267 6.50848 7.29866 5.4058 6.92318 5.33132C6.35996 5.2196 6.37226 5.63513 6.41825 5.79226C6.46423 5.94939 13.2767 24.8618 13.3684 25.1172C13.46 25.3726 13.8237 25.3826 14.0108 25.1172C14.1355 24.9402 17.3111 20.3254 23.5375 11.2729C23.6157 11.1605 23.661 10.8086 23.4171 10.6487C23.1732 10.4889 20.6378 8.68129 20.5073 8.63936ZM13.9487 24.0041L14.9991 15.3125L21.9991 12.3125L13.9487 24.0041ZM7.49915 6.8125L13.9991 14.8125L12.9991 21.8125L7.49915 6.8125Z" fill="white"/>
</svg>
