<svg width="24" height="25" viewBox="0 0 24 25" fill="none" xmlns="http://www.w3.org/2000/svg">
<g id="Icon">
<path id="Mask" fillRule="evenodd" clipRule="evenodd" d="M12 7.3125C13.104 7.3125 14 6.4165 14 5.3125C14 4.2085 13.104 3.3125 12 3.3125C10.896 3.3125 10 4.2085 10 5.3125C10 6.4165 10.896 7.3125 12 7.3125ZM12 10.3125C10.896 10.3125 10 11.2085 10 12.3125C10 13.4165 10.896 14.3125 12 14.3125C13.104 14.3125 14 13.4165 14 12.3125C14 11.2085 13.104 10.3125 12 10.3125ZM10 19.3125C10 18.2085 10.896 17.3125 12 17.3125C13.104 17.3125 14 18.2085 14 19.3125C14 20.4165 13.104 21.3125 12 21.3125C10.896 21.3125 10 20.4165 10 19.3125Z" fill="#9295A6"/>
</g>
</svg>
