<svg width="24" height="25" viewBox="0 0 24 25" fill="none" xmlns="http://www.w3.org/2000/svg">
<path fillRule="evenodd" clipRule="evenodd" d="M10.8766 17.7695L12.9026 19.3025V14.7495C12.9026 14.5835 12.9446 14.4205 13.0226 14.2745L17.3226 6.3125H6.64258L10.7646 14.2905C10.8386 14.4325 10.8766 14.5905 10.8766 14.7495V17.7695ZM13.9032 22.3125C13.6902 22.3125 13.4772 22.2445 13.3002 22.1095L9.27423 19.0645C9.02423 18.8755 8.87723 18.5805 8.87723 18.2675V14.9935L4.11223 5.7715C3.95123 5.4615 3.96423 5.0905 4.14623 4.7925C4.32723 4.4945 4.65123 4.3125 5.00023 4.3125H19.0002C19.3522 4.3125 19.6782 4.4975 19.8592 4.8005C20.0392 5.1025 20.0472 5.4775 19.8802 5.7875L14.9032 15.0025V21.3125C14.9032 21.6915 14.6892 22.0385 14.3492 22.2075C14.2082 22.2775 14.0552 22.3125 13.9032 22.3125Z" fill="#9295A6"/>
</svg>
