<svg width="24" height="25" viewBox="0 0 24 25" fill="none" xmlns="http://www.w3.org/2000/svg">
<path fillRule="evenodd" clipRule="evenodd" d="M5 11.3125C5 8.0035 7.691 5.3125 11 5.3125C14.309 5.3125 17 8.0035 17 11.3125C17 14.6215 14.309 17.3125 11 17.3125C7.691 17.3125 5 14.6215 5 11.3125ZM20.707 19.6055L17.312 16.2095C18.365 14.8555 19 13.1585 19 11.3125C19 6.9015 15.411 3.3125 11 3.3125C6.589 3.3125 3 6.9015 3 11.3125C3 15.7235 6.589 19.3125 11 19.3125C12.846 19.3125 14.543 18.6775 15.897 17.6245L19.293 21.0195C19.488 21.2145 19.744 21.3125 20 21.3125C20.256 21.3125 20.512 21.2145 20.707 21.0195C21.098 20.6285 21.098 19.9965 20.707 19.6055Z" fill="#9295A6"/>
</svg>
