<svg width="24" height="25" viewBox="0 0 24 25" fill="none" xmlns="http://www.w3.org/2000/svg">
<path d="M7.24414 15.0935L10.2371 11.2035L13.6511 13.8855L16.5801 10.1055" stroke="white" stroke-width="1.5" stroke-linecap="round" stroke-linejoin="round"/>
<path d="M19.9943 6.43384C21.0558 6.43384 21.9163 5.57334 21.9163 4.51184C21.9163 3.45035 21.0558 2.58984 19.9943 2.58984C18.9328 2.58984 18.0723 3.45035 18.0723 4.51184C18.0723 5.57334 18.9328 6.43384 19.9943 6.43384Z" stroke="white" stroke-width="1.5" stroke-linecap="round" stroke-linejoin="round"/>
<path d="M14.9238 3.43164H7.65606C4.64462 3.43164 2.77734 5.56436 2.77734 8.57581V16.6582C2.77734 19.6696 4.60801 21.7932 7.65606 21.7932H16.2602C19.2716 21.7932 21.1389 19.6696 21.1389 16.6582V9.61928" stroke="white" stroke-width="1.5" stroke-linecap="round" stroke-linejoin="round"/>
</svg>
