<svg width="24" height="24" viewBox="0 0 24 24" fill="none" xmlns="http://www.w3.org/2000/svg">
<path fill-rule="evenodd" clip-rule="evenodd" d="M2.89844 4.18064C8.47702 -2.31196 18.8212 -1.02994 22.6877 6.55367C19.9657 6.55467 15.7031 6.55317 13.3946 6.55367C11.7201 6.55417 10.6396 6.51617 9.46853 7.13268C8.09201 7.85719 7.0535 9.20021 6.69099 10.7777L2.89844 4.18014V4.18064Z" fill="#EA4335"/>
<path fill-rule="evenodd" clip-rule="evenodd" d="M8.00781 11.9989C8.00781 14.1989 9.79734 15.9889 11.9964 15.9889C14.1954 15.9889 15.9844 14.1989 15.9844 11.9989C15.9844 9.79834 14.1954 8.00781 11.9964 8.00781C9.79734 8.00781 8.00781 9.79834 8.00781 11.9989Z" fill="#4285F4"/>
<path fill-rule="evenodd" clip-rule="evenodd" d="M13.5442 17.2234C11.3056 17.8884 8.68561 17.1509 7.25059 14.6734C5.47826 11.601 3.71007 8.52631 1.94601 5.44922C-2.66106 12.5103 1.31 22.1325 9.67312 23.7755L13.5442 17.2234Z" fill="#34A853"/>
<path fill-rule="evenodd" clip-rule="evenodd" d="M15.7001 8.00781C17.5651 9.74184 17.9711 12.5499 16.7081 14.7274C15.7566 16.3674 12.7196 21.493 11.248 23.9751C19.8647 24.5066 26.1468 16.0609 23.3097 8.00781H15.7001Z" fill="#FBBC05"/>
</svg>
