<svg width="24" height="25" viewBox="0 0 24 25" fill="none" xmlns="http://www.w3.org/2000/svg">
<g id="bank (1) 2">
<path id="Mask" fillRule="evenodd" clipRule="evenodd" d="M12.0034 4.3125C9.82142 4.3125 7.78343 5.1735 6.26343 6.7385C4.74343 8.3015 3.94143 10.3645 4.00443 12.5475C4.12143 16.6515 7.55343 20.1305 11.6534 20.3045C16.0354 20.4775 19.7724 17.0925 19.9954 12.7315C20.0024 12.6035 20.0014 12.0385 19.9994 11.5125H12.9974V13.0945H18.3064L17.9014 14.3925C17.1804 16.7065 15.3524 18.2945 13.0114 18.6405C11.2654 18.8935 9.44642 18.3945 8.02343 17.2575C6.62643 16.1445 5.75042 14.5265 5.61843 12.8175C5.48043 11.0105 6.07743 9.2885 7.30343 7.9655C8.96943 6.1655 11.6624 5.4725 13.9704 6.2215L14.7434 4.7925C13.8684 4.4735 12.9494 4.3125 12.0034 4.3125ZM11.9961 22.3115C11.8551 22.3115 11.7121 22.3085 11.5691 22.3025C6.44113 22.0855 2.15113 17.7355 2.00413 12.6045C1.92713 9.8765 2.92913 7.2985 4.82813 5.3445C6.72913 3.3895 9.27613 2.3125 12.0031 2.3125C13.4371 2.3125 14.8231 2.6105 16.1221 3.1975C16.4831 3.3605 16.7641 3.6705 16.8911 4.0485C17.0201 4.4315 16.9841 4.8555 16.7921 5.2105L15.5001 7.5945C15.1491 8.2465 14.3571 8.5265 13.6651 8.2375C12.0121 7.5645 9.99213 8.0045 8.77013 9.3245C7.92813 10.2335 7.51713 11.4195 7.61213 12.6635C7.70213 13.8215 8.30613 14.9255 9.27013 15.6945C10.2641 16.4875 11.5261 16.8405 12.7181 16.6625C13.8181 16.4995 14.7301 15.9475 15.3501 15.0945H12.4471C11.6481 15.0945 10.9971 14.4445 10.9971 13.6445V10.9625C10.9971 10.1635 11.6481 9.5125 12.4471 9.5125H20.5471C21.3401 9.5125 21.9911 10.1575 21.9971 10.9505C22.0001 11.5815 22.0021 12.6485 21.9931 12.8325C21.7201 18.1445 17.2771 22.3115 11.9961 22.3115Z" fill="white"/>
</g>
</svg>
