<svg width="24" height="25" viewBox="0 0 24 25" fill="none" xmlns="http://www.w3.org/2000/svg">
<g id="bank (1) 2">
<path id="Mask" fillRule="evenodd" clipRule="evenodd" d="M19 18.3125H5C4.449 18.3125 4 17.8645 4 17.3125V7.5625L11.4 13.1125C11.578 13.2465 11.789 13.3125 12 13.3125C12.211 13.3125 12.422 13.2465 12.6 13.1125L20 7.5625V17.3125C20 17.8645 19.551 18.3125 19 18.3125ZM18.333 6.3125L12 11.0625L5.667 6.3125H18.333ZM19 4.3125H5C3.346 4.3125 2 5.6585 2 7.3125V17.3125C2 18.9665 3.346 20.3125 5 20.3125H19C20.654 20.3125 22 18.9665 22 17.3125V7.3125C22 5.6585 20.654 4.3125 19 4.3125Z" fill="white"/>
</g>
</svg>
