<svg width="24" height="25" viewBox="0 0 24 25" fill="none" xmlns="http://www.w3.org/2000/svg">
<g id="bank (1) 2">
<path id="Mask" fillRule="evenodd" clipRule="evenodd" d="M6.6 4.3125C5.166 4.3125 4 5.4785 4 6.9125C4 14.3005 10.011 20.3125 17.4 20.3125C18.833 20.3125 20 19.1465 20 17.7125C20 17.6015 19.993 17.4925 19.979 17.3845L15.359 16.3245C15.267 16.5005 15.166 16.6915 15.074 16.8695C14.618 17.7395 14.288 18.3715 13.446 18.0325C10.14 16.8725 7.441 14.1725 6.266 10.8265C5.909 10.0415 6.589 9.6855 7.451 9.2355C7.626 9.1435 7.815 9.0445 7.988 8.9545L6.928 4.3335C6.817 4.3195 6.709 4.3125 6.6 4.3125ZM17.4 22.3125C8.908 22.3125 2 15.4045 2 6.9125C2 4.3755 4.063 2.3125 6.6 2.3125C6.86 2.3125 7.117 2.3345 7.366 2.3775C7.609 2.4165 7.853 2.4785 8.091 2.5605C8.416 2.6735 8.661 2.9465 8.738 3.2825L10.107 9.2465C10.183 9.5745 10.088 9.9185 9.854 10.1625C9.718 10.3045 9.715 10.3075 8.475 10.9565C9.479 13.1305 11.224 14.8695 13.354 15.8395C14.004 14.5985 14.008 14.5945 14.15 14.4585C14.394 14.2245 14.74 14.1335 15.066 14.2055L21.031 15.5745C21.366 15.6515 21.639 15.8955 21.751 16.2205C21.833 16.4565 21.895 16.7005 21.936 16.9515C21.978 17.1985 22 17.4545 22 17.7125C22 20.2495 19.936 22.3125 17.4 22.3125Z" fill="white"/>
</g>
</svg>
