<svg width="1590" height="334" viewBox="0 0 1590 334" fill="none" xmlns="http://www.w3.org/2000/svg">
<g clip-path="url(#clip0_467_26786)">
<rect width="1590" height="334" fill="#3671E9"/>
<ellipse opacity="0.1" cx="22.5" cy="205.297" rx="339.5" ry="340" fill="url(#paint0_linear_467_26786)"/>
<circle opacity="0.1" cx="1616.5" cy="409.5" r="124" stroke="white" stroke-width="51"/>
<path d="M148.042 324.394C151.07 304.967 135.442 294.453 113.878 287.483L120.905 261.085L103.944 257.085L97.16 282.797C92.6775 281.769 88.0739 280.74 83.4704 279.826L90.2546 254L73.294 250L66.3886 276.284C62.633 275.484 58.9986 274.684 55.4854 273.884V273.769L31.9828 268.284L27.5004 285.426C27.5004 285.426 40.0997 288.168 39.8574 288.282C46.7628 289.882 47.9742 294.225 47.7319 297.653L39.7362 327.708C40.2208 327.822 40.8266 327.936 41.5534 328.279C40.9477 328.165 40.342 328.051 39.7362 327.822L28.5907 369.876C27.7427 371.818 25.562 374.79 20.8373 373.647C20.9584 373.875 8.4803 370.79 8.4803 370.79L0 389.188L22.1699 394.445C26.2889 395.474 30.2868 396.388 34.2846 397.416L27.2581 424.043L44.2187 428.042L51.2452 401.644C55.8488 402.787 60.4524 403.93 64.8137 404.958L57.9083 431.242L74.8689 435.242L81.8954 408.615C110.971 413.758 132.777 411.701 141.863 386.903C149.253 367.019 141.5 355.477 126.235 347.935C137.502 345.535 145.861 338.564 148.042 324.394V324.394ZM109.154 375.818C103.944 395.702 68.327 384.96 56.818 382.217L66.1463 346.906C77.6553 349.649 114.726 355.02 109.154 375.818ZM114.484 324.051C109.638 342.221 80.0782 332.964 70.5076 330.679L78.9879 298.682C88.5585 300.967 119.451 305.195 114.484 324.051Z" fill="url(#paint1_linear_467_26786)"/>
<path d="M1354.18 148.929L1270 102.065L1354.13 213.941L1438.36 102.065L1354.13 148.929H1354.18ZM1355.44 -44.7578L1271.29 86.9883L1355.44 133.933L1439.62 87.0368L1355.44 -44.7578Z" fill="url(#paint2_linear_467_26786)"/>
</g>
<defs>
<linearGradient id="paint0_linear_467_26786" x1="22.5" y1="-134.703" x2="22.5" y2="545.297" gradientUnits="userSpaceOnUse">
<stop stop-color="#D9D9D9"/>
<stop offset="1" stop-color="#D9D9D9" stop-opacity="0"/>
</linearGradient>
<linearGradient id="paint1_linear_467_26786" x1="74.2088" y1="250" x2="74.2088" y2="435.242" gradientUnits="userSpaceOnUse">
<stop stop-color="white" stop-opacity="0.16"/>
<stop offset="1" stop-color="white" stop-opacity="0"/>
</linearGradient>
<linearGradient id="paint2_linear_467_26786" x1="1354.81" y1="-44.7578" x2="1354.81" y2="179.656" gradientUnits="userSpaceOnUse">
<stop stop-color="white" stop-opacity="0.16"/>
<stop offset="1" stop-color="white" stop-opacity="0"/>
</linearGradient>
<clipPath id="clip0_467_26786">
<rect width="1590" height="334" fill="white"/>
</clipPath>
</defs>
</svg>
