<svg width="375" height="339" viewBox="0 0 375 339" fill="none" xmlns="http://www.w3.org/2000/svg">
<rect y="-0.360352" width="375" height="339" fill="#3671E9"/>
<mask id="mask0_483_26832" style="mask-type:alpha" maskUnits="userSpaceOnUse" x="0" y="-1" width="375" height="340">
<rect y="-0.84082" width="375" height="339" fill="#3671E9"/>
</mask>
<g mask="url(#mask0_483_26832)">
<path d="M401.687 270.411C404.715 252.572 389.089 242.918 367.527 236.517L374.552 212.277L357.593 208.604L350.81 232.214C346.328 231.27 341.725 230.326 337.122 229.486L343.905 205.77L326.946 202.098L320.042 226.233C316.286 225.499 312.652 224.764 309.139 224.029V223.924L285.639 218.888L281.157 234.628C281.157 234.628 293.755 237.146 293.513 237.251C300.418 238.721 301.629 242.708 301.387 245.856L293.392 273.455C293.876 273.559 294.482 273.664 295.209 273.979C294.603 273.874 293.998 273.769 293.392 273.56L282.248 312.176C281.4 313.96 279.219 316.688 274.495 315.639C274.616 315.849 262.139 313.016 262.139 313.016L253.66 329.91L275.827 334.738C279.946 335.682 283.943 336.521 287.941 337.466L280.915 361.916L297.874 365.589L304.9 341.349C309.503 342.398 314.106 343.447 318.467 344.392L311.562 368.527L328.521 372.2L335.547 347.75C364.619 352.472 386.424 350.583 395.509 327.812C402.898 309.553 395.145 298.954 379.882 292.028C391.148 289.825 399.506 283.424 401.687 270.411V270.411ZM362.802 317.633C357.593 335.892 321.98 326.028 310.472 323.509L319.799 291.084C331.307 293.602 368.374 298.534 362.802 317.633ZM368.132 270.097C363.287 286.782 333.73 278.282 324.16 276.183L332.64 246.801C342.209 248.899 373.099 252.782 368.132 270.097Z" fill="url(#paint0_linear_483_26832)"/>
<path d="M107.496 142.019L23.3203 99.0167L107.445 201.676L191.664 99.0167L107.445 142.019H107.496ZM108.747 -35.7109L24.6057 85.1819L108.747 128.259L192.923 85.2264L108.747 -35.7109Z" fill="url(#paint1_linear_483_26832)"/>
</g>
<defs>
<linearGradient id="paint0_linear_483_26832" x1="327.861" y1="202.098" x2="327.861" y2="372.2" gradientUnits="userSpaceOnUse">
<stop stop-color="white" stop-opacity="0.16"/>
<stop offset="1" stop-color="white" stop-opacity="0"/>
</linearGradient>
<linearGradient id="paint1_linear_483_26832" x1="108.122" y1="-35.7109" x2="108.122" y2="170.216" gradientUnits="userSpaceOnUse">
<stop stop-color="white" stop-opacity="0.16"/>
<stop offset="1" stop-color="white" stop-opacity="0"/>
</linearGradient>
</defs>
</svg>
