<svg width="108" height="104" viewBox="0 0 108 104" fill="none" xmlns="http://www.w3.org/2000/svg">
<g id="empty 1">
<path id="Vector" d="M70.4155 49.7246C73.1757 49.6093 75.7694 49.6838 78.144 49.9419C82.0449 50.3662 85.3365 51.284 87.8026 52.655C90.2665 54.0248 91.8845 55.8331 92.4966 58.0369C93.1087 60.2408 92.6734 62.6909 91.3032 65.2591C89.9318 67.8293 87.6353 70.494 84.5742 73.0941C84.1262 73.4747 83.6621 73.8537 83.1825 74.2305M34.8972 62.3315C32.5 63.8313 30.3427 65.3957 28.467 66.9891C25.4059 69.5893 23.1094 72.2539 21.738 74.8243C20.3678 77.3925 19.9325 79.8425 20.5446 82.0464C21.1567 84.2502 22.7747 86.0585 25.2386 87.4282C27.7047 88.7992 30.9963 89.7172 34.8972 90.1413C42.6977 90.9895 52.8609 89.8553 63.5293 86.5208C64.4171 86.2433 65.2943 85.9551 66.1598 85.6566" fill="#E9EAF0"/>
<path id="Vector_2" d="M79.3617 67.1148L69.6173 28.3022C68.8576 25.276 65.7944 23.516 62.7792 24.3731L33.3044 32.7513C30.2888 33.6085 28.4657 36.758 29.2345 39.7818L42.0443 90.1621C42.065 90.1624 42.087 90.1627 42.1101 90.1629C42.3355 90.1656 42.6739 90.1656 43.1221 90.1545C44.0182 90.1325 45.3529 90.0666 47.0986 89.8908C50.5897 89.5395 55.7249 88.7489 62.283 86.9909C63.6026 86.6372 64.8998 86.242 66.1604 85.8205" fill="#E9EAF0"/>
<path id="Vector_3" d="M64.6587 39.0945L38.42 46.5528C37.9751 46.6793 37.7059 47.1435 37.8186 47.5899L38.3451 49.6742C38.4578 50.1205 38.9099 50.3798 39.3547 50.2534L65.5934 42.795C66.0383 42.6685 66.3075 42.2043 66.1948 41.758L65.6683 39.6736C65.5556 39.2273 65.1036 38.9681 64.6587 39.0945Z" fill="#AEB1BF"/>
<path id="Vector_4" d="M67.4595 49.7899L41.2208 57.2481C40.7759 57.3746 40.5067 57.8389 40.6194 58.2852L41.1459 60.3696C41.2586 60.8158 41.7106 61.0751 42.1555 60.9487L68.3942 53.4903C68.8391 53.364 69.1083 52.8996 68.9956 52.4533L68.4691 50.369C68.3564 49.9226 67.9044 49.6634 67.4595 49.7899Z" fill="#AEB1BF"/>
<path id="Vector_5" d="M97.8818 19.8184C98.4833 21.2344 98.1765 22.9141 97.1204 24.5065C96.0657 26.0967 94.2809 27.5669 92.0087 28.5214C89.7365 29.476 87.4325 29.7238 85.5509 29.367C83.6667 29.0099 82.2422 28.0576 81.6406 26.6415C81.0393 25.2255 81.346 23.5458 82.4022 21.9534C83.4569 20.3632 85.2417 18.893 87.5139 17.9385C89.786 16.9839 92.0901 16.7361 93.9717 17.0929C95.8558 17.45 97.2804 18.4023 97.8818 19.8184Z" fill="#AEB1BF"/>
<path id="Vector_6" d="M95.2762 22.2266C95.7988 23.457 94.2166 25.2972 91.7422 26.3367" stroke="#E9EAF0" stroke-width="0.5"/>
<path id="Vector_7" d="M16.0325 32.0884C15.2205 32.5546 14.1436 32.4777 13.0219 31.888C11.9046 31.3008 10.7873 30.2229 9.95249 28.7849C9.11769 27.3468 8.73791 25.8456 8.78517 24.5895C8.83261 23.3287 9.30407 22.3626 10.116 21.8964C10.9279 21.4301 12.0048 21.5071 13.1265 22.0966C14.2438 22.684 15.3612 23.7617 16.196 25.1998C17.0308 26.6378 17.4105 28.1392 17.3633 29.3951C17.3158 30.6561 16.8444 31.6222 16.0325 32.0884Z" fill="#AEB1BF"/>
<path id="Vector_8" d="M14.4581 30.6737C13.7103 31.1032 12.3615 30.1719 11.4453 28.5938" stroke="#E9EAF0" stroke-width="0.5"/>
<path id="Vector_9" d="M91.688 67.3782C95.176 71.9654 92.1202 80.1307 84.8354 85.5131C77.5506 90.8953 68.846 91.507 65.3424 86.8739L63.0273 83.8158L89.3575 64.3047L91.688 67.3782Z" fill="#C8CDCD"/>
<path id="Vector_10" d="M82.2577 82.1583C89.5284 76.7734 92.5886 68.652 89.0927 64.0188C85.5967 59.3856 76.8684 59.9949 69.5975 65.38C62.3267 70.7649 59.2665 78.8862 62.7625 83.5194C66.2585 88.1527 74.9868 87.5433 82.2577 82.1583Z" fill="#AEB1BF"/>
<path id="Vector_11" d="M80.6339 80.0119C86.5394 75.6381 89.1711 69.236 86.5122 65.7119C83.8532 62.188 76.9104 62.8769 71.0048 67.2505C65.0994 71.6242 62.4677 78.0266 65.1266 81.5505C67.7857 85.0746 74.7284 84.3856 80.6339 80.0119Z" fill="#AEB1BF"/>
</g>
</svg>
