<svg width="147" height="153" viewBox="0 0 147 153" fill="none" xmlns="http://www.w3.org/2000/svg">
<path d="M128.982 97.7192C128.982 127.434 104.6 151.534 74.5107 151.534C44.4213 151.534 20.0399 127.434 20.0399 97.7192C20.0399 68.0044 44.4213 43.9049 74.5107 43.9049C104.6 43.9049 128.982 68.0044 128.982 97.7192Z" fill="white" stroke="black" stroke-width="1.0584"/>
<path d="M40.63 68.9728C40.8108 69.1174 40.9582 69.4929 40.8001 70.2002C40.6497 70.8731 40.2457 71.6933 39.6026 72.4789C38.9595 73.2646 38.2322 73.8264 37.5977 74.1124C36.9308 74.4131 36.5283 74.3491 36.3474 74.2046C36.1666 74.0601 36.0191 73.6845 36.1772 72.9773C36.3277 72.3044 36.7317 71.4842 37.3748 70.6985C38.0179 69.9129 38.7451 69.351 39.3797 69.065C40.0466 68.7644 40.4491 68.8283 40.63 68.9728Z" fill="#F7A600" stroke="black" stroke-width="1.0584"/>
<path d="M58.3388 85.1173C58.4437 85.5024 58.2337 86.0955 57.4371 86.7738C56.6736 87.4238 55.5002 88.0274 54.0947 88.4012C52.6891 88.7751 51.3676 88.835 50.3771 88.6515C49.3434 88.46 48.8605 88.0512 48.7556 87.6661C48.6507 87.281 48.8606 86.6879 49.6573 86.0096C50.4207 85.3596 51.5941 84.756 52.9997 84.3822C54.4053 84.0083 55.7268 83.9484 56.7173 84.1319C57.751 84.3234 58.2339 84.7322 58.3388 85.1173Z" fill="#0C0C0C" stroke="black" stroke-width="1.0584"/>
<path d="M98.8617 81.9937C98.6595 82.341 98.0856 82.6133 97.0379 82.5367C96.0334 82.4633 94.772 82.0708 93.5107 81.3537C92.2495 80.6366 91.2722 79.7563 90.7031 78.9351C90.1097 78.0786 90.0596 77.4515 90.2618 77.1042C90.4641 76.7569 91.038 76.4846 92.0856 76.5612C93.0902 76.6346 94.3515 77.0271 95.6128 77.7442C96.8741 78.4613 97.8514 79.3415 98.4204 80.1628C99.0139 81.0193 99.064 81.6464 98.8617 81.9937Z" fill="#0C0C0C" stroke="black" stroke-width="1.0584"/>
<path d="M107.888 61.9549C107.855 62.0113 107.683 62.1614 107.147 62.1222C106.655 62.0862 106.016 61.8909 105.367 61.5218C104.718 61.1526 104.226 60.7053 103.947 60.3026C103.643 59.8648 103.688 59.6421 103.721 59.5856C103.754 59.5292 103.926 59.3791 104.462 59.4183C104.954 59.4543 105.593 59.6496 106.242 60.0187C106.891 60.3879 107.383 60.8352 107.662 61.2379C107.966 61.6757 107.921 61.8984 107.888 61.9549Z" fill="#0C0C0C" stroke="black" stroke-width="1.0584"/>
<path d="M117.211 80.379C117.179 80.4354 117.006 80.5855 116.47 80.5463C115.978 80.5103 115.339 80.315 114.69 79.9458C114.041 79.5767 113.549 79.1293 113.27 78.7267C112.967 78.2889 113.011 78.0661 113.044 78.0097C113.077 77.9532 113.25 77.8032 113.785 77.8423C114.278 77.8783 114.916 78.0737 115.565 78.4428C116.215 78.8119 116.707 79.2593 116.986 79.6619C117.289 80.0998 117.244 80.3225 117.211 80.379Z" fill="#F7A600" stroke="black" stroke-width="1.0584"/>
<path d="M47.3347 111.182C47.0584 111.516 46.4667 111.701 45.5482 111.523C44.655 111.35 43.5896 110.85 42.5871 110.041C41.5845 109.232 40.8755 108.3 40.5253 107.47C40.1652 106.617 40.2304 106.007 40.5067 105.673C40.783 105.338 41.3747 105.153 42.2932 105.331C43.1864 105.505 44.2518 106.005 45.2543 106.814C46.2568 107.623 46.9659 108.554 47.316 109.384C47.6762 110.238 47.6109 110.848 47.3347 111.182Z" fill="#F7A600" stroke="black" stroke-width="1.0584"/>
<path d="M31.1393 110.83C31.0586 110.927 30.8282 111.044 30.3399 110.951C29.8758 110.863 29.3044 110.599 28.7591 110.159C28.2138 109.719 27.8386 109.219 27.6584 108.787C27.4689 108.333 27.538 108.087 27.6188 107.989C27.6996 107.891 27.93 107.775 28.4183 107.868C28.8823 107.956 29.4537 108.219 29.999 108.659C30.5444 109.099 30.9195 109.6 31.0997 110.031C31.2893 110.486 31.2201 110.732 31.1393 110.83Z" fill="#0C0C0C" stroke="black" stroke-width="1.0584"/>
<path d="M63.9953 144.729C63.9511 144.845 63.7717 145.028 63.2774 145.093C62.8084 145.156 62.1812 145.085 61.5219 144.839C60.8625 144.593 60.3451 144.236 60.035 143.883C59.7081 143.51 59.696 143.256 59.7402 143.141C59.7843 143.025 59.9637 142.842 60.458 142.777C60.927 142.714 61.5543 142.785 62.2136 143.031C62.8729 143.277 63.3903 143.634 63.7004 143.987C64.0273 144.359 64.0394 144.614 63.9953 144.729Z" fill="#0C0C0C" stroke="black" stroke-width="1.0584"/>
<path d="M66.8573 45.2182L79.6394 29.5576L90.1658 45.2182L95.429 53.0485L79.6394 64.794L60.4662 53.0485L66.8573 45.2182Z" fill="white"/>
<path d="M54.0752 60.8788L60.4662 53.0485M79.6394 29.5576V53.0485M79.6394 29.5576L66.8573 45.2182M79.6394 29.5576L90.1658 45.2182M79.6394 76.5394V64.794M100.692 60.8788L95.429 53.0485M79.6394 53.0485L66.8573 45.2182M79.6394 53.0485L90.1658 45.2182M79.6394 53.0485V64.794M66.8573 45.2182L60.4662 53.0485M90.1658 45.2182L95.429 53.0485M79.6394 64.794L60.4662 53.0485M79.6394 64.794L95.429 53.0485" stroke="black"/>
<path d="M84.3132 15.8183C84.3132 18.5727 82.0516 20.8164 79.2483 20.8164C76.4451 20.8164 74.1835 18.5727 74.1835 15.8183C74.1835 13.0639 76.4451 10.8202 79.2483 10.8202C82.0516 10.8202 84.3132 13.0639 84.3132 15.8183Z" fill="#F7A600" stroke="black" stroke-width="1.0584"/>
<mask id="path-13-inside-1_37464_156787" fill="white">
<path fill-rule="evenodd" clip-rule="evenodd" d="M84.3146 117.397C115.762 99.4001 135.604 75.1475 128.633 63.2271C126.806 60.1035 123.319 58.1366 118.603 57.2585C127.882 57.3073 134.759 59.8346 137.782 65.0465C145.757 78.797 123.882 106.027 88.9231 125.865C53.9641 145.704 19.1592 150.64 11.1843 136.889C7.82731 131.101 9.75958 122.924 15.7306 113.916C13.0273 119.59 12.5389 124.615 14.7515 128.399C21.7227 140.319 52.8672 135.393 84.3146 117.397Z"/>
</mask>
<path fill-rule="evenodd" clip-rule="evenodd" d="M84.3146 117.397C115.762 99.4001 135.604 75.1475 128.633 63.2271C126.806 60.1035 123.319 58.1366 118.603 57.2585C127.882 57.3073 134.759 59.8346 137.782 65.0465C145.757 78.797 123.882 106.027 88.9231 125.865C53.9641 145.704 19.1592 150.64 11.1843 136.889C7.82731 131.101 9.75958 122.924 15.7306 113.916C13.0273 119.59 12.5389 124.615 14.7515 128.399C21.7227 140.319 52.8672 135.393 84.3146 117.397Z" fill="#F7A600"/>
<path d="M128.633 63.2271L128.115 63.53V63.53L128.633 63.2271ZM84.3146 117.397L84.0166 116.876L84.3146 117.397ZM118.603 57.2585L118.606 56.6586L118.493 57.8484L118.603 57.2585ZM137.782 65.0465L137.263 65.3476L137.782 65.0465ZM88.9231 125.865L88.6269 125.344L88.9231 125.865ZM11.1843 136.889L10.6653 137.19H10.6653L11.1843 136.889ZM15.7306 113.916L16.2722 114.174L15.2304 113.585L15.7306 113.916ZM14.7515 128.399L15.2694 128.096L14.7515 128.399ZM128.115 63.53C129.741 66.3114 129.841 69.8695 128.501 74.0043C127.16 78.1395 124.399 82.7853 120.416 87.6534C112.454 97.3861 99.6937 107.904 84.0166 116.876L84.6126 117.917C100.383 108.892 113.268 98.2861 121.345 88.4133C125.382 83.4786 128.24 78.7014 129.642 74.3742C131.045 70.0466 131.01 66.103 129.151 62.9242L128.115 63.53ZM118.493 57.8484C123.116 58.709 126.409 60.6133 128.115 63.53L129.151 62.9242C127.203 59.5936 123.523 57.5643 118.712 56.6687L118.493 57.8484ZM118.599 57.8585C127.82 57.9069 134.407 60.4222 137.263 65.3476L138.301 64.7455C135.112 59.2469 127.944 56.7076 118.606 56.6586L118.599 57.8585ZM137.263 65.3476C139.146 68.5936 139.3 72.687 137.855 77.3842C136.409 82.0833 133.378 87.3289 128.985 92.797C120.202 103.73 106.058 115.452 88.6269 125.344L89.2192 126.387C106.747 116.44 121.02 104.627 129.921 93.5486C134.369 88.0107 137.496 82.6308 139.002 77.737C140.508 72.8415 140.406 68.3747 138.301 64.7455L137.263 65.3476ZM88.6269 125.344C71.1963 135.235 53.827 141.397 39.8504 143.379C32.8603 144.371 26.7502 144.312 21.9168 143.174C17.0842 142.036 13.5867 139.836 11.7033 136.588L10.6653 137.19C12.7694 140.818 16.6131 143.158 21.6418 144.342C26.6697 145.526 32.9411 145.571 40.0189 144.567C54.1782 142.559 71.6908 136.334 89.2192 126.387L88.6269 125.344ZM11.7033 136.588C8.53144 131.119 10.2822 123.222 16.2307 114.248L15.2304 113.585C9.23693 122.627 7.12318 131.083 10.6653 137.19L11.7033 136.588ZM15.2694 128.096C13.2047 124.565 13.6038 119.775 16.2722 114.174L15.1889 113.658C12.4508 119.405 11.8731 124.665 14.2335 128.702L15.2694 128.096ZM84.0166 116.876C68.3397 125.847 52.7608 131.547 40.2607 133.524C34.0085 134.513 28.5587 134.565 24.2641 133.652C19.9688 132.74 16.8968 130.879 15.2694 128.096L14.2335 128.702C16.0917 131.879 19.527 133.872 24.0147 134.826C28.503 135.78 34.1119 135.711 40.4482 134.709C53.1251 132.704 68.8421 126.943 84.6126 117.917L84.0166 116.876Z" fill="black" mask="url(#path-13-inside-1_37464_156787)"/>
<mask id="path-15-inside-2_37464_156787" fill="white">
<path fill-rule="evenodd" clip-rule="evenodd" d="M86.1895 120.224C119.592 101.108 140.637 75.2941 133.194 62.5668C132.341 61.1088 131.152 59.8858 129.664 58.8918C133.354 60.1714 136.138 62.2119 137.782 65.0464C145.757 78.7969 123.882 106.026 88.9231 125.865C53.9641 145.704 19.1592 150.64 11.1843 136.889C8.99663 133.117 9.05521 128.331 11.014 122.961C10.4088 126.307 10.7742 129.3 12.2311 131.791C19.6742 144.518 52.7865 139.339 86.1895 120.224Z"/>
</mask>
<path fill-rule="evenodd" clip-rule="evenodd" d="M86.1895 120.224C119.592 101.108 140.637 75.2941 133.194 62.5668C132.341 61.1088 131.152 59.8858 129.664 58.8918C133.354 60.1714 136.138 62.2119 137.782 65.0464C145.757 78.7969 123.882 106.026 88.9231 125.865C53.9641 145.704 19.1592 150.64 11.1843 136.889C8.99663 133.117 9.05521 128.331 11.014 122.961C10.4088 126.307 10.7742 129.3 12.2311 131.791C19.6742 144.518 52.7865 139.339 86.1895 120.224Z" fill="#FFF7E9"/>
<path d="M133.194 62.5668L132.676 62.8697V62.8697L133.194 62.5668ZM86.1895 120.224L85.8914 119.703L86.1895 120.224ZM129.664 58.8918L129.86 58.325L129.33 59.3908L129.664 58.8918ZM137.782 65.0464L137.263 65.3475V65.3475L137.782 65.0464ZM88.9231 125.865L88.6269 125.343L88.9231 125.865ZM11.1843 136.889L10.6653 137.19H10.6653L11.1843 136.889ZM11.014 122.961L11.6044 123.068L10.4503 122.755L11.014 122.961ZM12.2311 131.791L11.7132 132.094L12.2311 131.791ZM132.676 62.8697C134.421 65.8539 134.533 69.6617 133.116 74.0734C131.698 78.4857 128.77 83.4371 124.544 88.6205C116.095 98.9839 102.546 110.172 85.8914 119.703L86.4875 120.744C103.236 111.16 116.91 99.883 125.474 89.3787C129.754 84.1283 132.779 79.0451 134.258 74.4404C135.737 69.835 135.688 65.6434 133.712 62.2639L132.676 62.8697ZM129.33 59.3908C130.751 60.3396 131.874 61.498 132.676 62.8697L133.712 62.2639C132.809 60.7196 131.553 59.4321 129.997 58.3929L129.33 59.3908ZM129.467 59.4587C133.06 60.7045 135.709 62.6685 137.263 65.3475L138.301 64.7454C136.567 61.7553 133.648 59.6383 129.86 58.325L129.467 59.4587ZM137.263 65.3475C139.146 68.5935 139.3 72.6869 137.855 77.3841C136.409 82.0832 133.378 87.3288 128.985 92.7969C120.202 103.73 106.058 115.452 88.6269 125.343L89.2192 126.387C106.747 116.44 121.02 104.627 129.921 93.5485C134.369 88.0106 137.496 82.6307 139.002 77.7369C140.508 72.8414 140.406 68.3746 138.301 64.7454L137.263 65.3475ZM88.6269 125.343C71.1963 135.235 53.827 141.397 39.8504 143.379C32.8603 144.37 26.7502 144.312 21.9168 143.174C17.0842 142.036 13.5867 139.836 11.7033 136.588L10.6653 137.19C12.7694 140.818 16.6131 143.158 21.6418 144.342C26.6697 145.525 32.9411 145.571 40.0189 144.567C54.1782 142.559 71.6908 136.334 89.2192 126.387L88.6269 125.343ZM11.7033 136.588C9.638 133.027 9.65291 128.443 11.5776 123.166L10.4503 122.755C8.45751 128.218 8.35526 133.207 10.6653 137.19L11.7033 136.588ZM12.7491 131.488C11.3814 129.149 11.0179 126.31 11.6044 123.068L10.4236 122.854C9.79961 126.303 10.1669 129.45 11.7132 132.094L12.7491 131.488ZM85.8914 119.703C69.237 129.234 52.6776 135.276 39.3826 137.356C32.733 138.396 26.932 138.439 22.3561 137.454C17.7797 136.47 14.4951 134.474 12.7491 131.488L11.7132 132.094C13.6887 135.472 17.3344 137.601 22.1037 138.628C26.8735 139.654 32.8339 139.594 39.5681 138.541C53.0407 136.434 69.7389 130.329 86.4875 120.744L85.8914 119.703Z" fill="black" mask="url(#path-15-inside-2_37464_156787)"/>
<path d="M69.6589 118.746L62.4384 122.996L53.4263 116.491L69.5382 114.717L69.6589 118.746Z" fill="#F7A600" stroke="black"/>
<path d="M88.4738 101.799L113.007 103.883L108.513 122.791L92.023 132.169L75.533 141.548L62.2722 138.013L61.6305 129.555L60.9888 121.098L74.7313 111.448L88.4738 101.799Z" fill="#FFCE68"/>
<path d="M88.4738 101.799L113.007 103.883M88.4738 101.799L104.723 107.401L108.513 122.791M88.4738 101.799L74.7313 111.448L60.9888 121.098L61.6305 129.555M88.4738 101.799L90.3803 109.854M113.007 103.883L108.513 122.791M113.007 103.883L92.2869 117.91M108.513 122.791L92.2869 117.91M108.513 122.791L92.023 132.169L75.533 141.548L62.2722 138.013M62.2722 138.013L77.2796 127.961L92.2869 117.91M62.2722 138.013L61.6305 129.555M92.2869 117.91L90.3803 109.854M61.6305 129.555L90.3803 109.854" stroke="black"/>
<path d="M92.566 117.238L89.2148 102.136L111.559 104.291L92.566 117.238Z" fill="#F7A600" fill-opacity="0.7"/>
<path d="M108.44 122.492L93.0169 117.886L112.375 104.927L108.44 122.492Z" fill="#F7A600"/>
<path d="M78.6042 134.953L71.827 139.865L74.3691 150.606L82.3106 136.636L78.6042 134.953Z" fill="#F7A600" stroke="black"/>
<path d="M96.6264 7.76629C98.8951 12.2495 98.8951 17.5446 96.6264 22.0278L97.5708 22.5057C99.9915 17.7221 99.9915 12.072 97.5708 7.2884L96.6264 7.76629Z" fill="white"/>
<path d="M107.793 1.2719C111.341 10.3273 111.341 20.388 107.793 29.4434L108.779 29.8295C112.424 20.5258 112.424 10.1894 108.779 0.885817L107.793 1.2719Z" fill="white"/>
<path d="M61.938 7.68743C59.6693 12.1706 59.6693 17.4658 61.938 21.9489L60.9936 22.4268C58.5729 17.6432 58.5729 11.9932 60.9936 7.20954L61.938 7.68743Z" fill="white"/>
<path d="M50.7711 1.19304C47.2234 10.2485 47.2234 20.3091 50.7711 29.3645L49.7856 29.7506C46.1407 20.447 46.1407 10.1106 49.7856 0.80696L50.7711 1.19304Z" fill="white"/>
<path d="M136.717 20.0789L136.689 20.1788C135.304 25.1568 131.444 29.0653 126.484 30.5136L126.682 30.5605C131.492 31.703 135.322 35.3354 136.717 40.0789L136.942 39.4602C138.574 34.9748 142.047 31.4021 146.484 29.6441C141.651 28.7596 137.818 25.0643 136.758 20.2662L136.717 20.0789Z" fill="white"/>
<path d="M129.089 138.079L128.83 138.797C128.054 140.951 126.505 142.741 124.484 143.818C126.497 144.738 128.067 146.41 128.858 148.476L129.089 149.079L129.198 148.746C129.938 146.491 131.458 144.574 133.484 143.34C131.503 142.585 129.979 140.96 129.353 138.934L129.089 138.079Z" fill="white"/>
<path d="M5.72414 47.9817L5.46217 48.6672C4.459 51.2925 2.5108 53.448 0 54.7105C2.50087 55.7885 4.47712 57.8073 5.50158 60.3305L5.72414 60.8787L5.80577 60.6441C6.75997 57.9022 8.67098 55.5964 11.1881 54.1498C8.72548 53.2653 6.80894 51.2937 5.99447 48.807L5.72414 47.9817Z" fill="white"/>
</svg>
