<svg width="24" height="25" viewBox="0 0 24 25" fill="none" xmlns="http://www.w3.org/2000/svg">
<path fillRule="evenodd" clipRule="evenodd" d="M19 11.8125H13V5.8125C13 5.2595 12.552 4.8125 12 4.8125C11.448 4.8125 11 5.2595 11 5.8125V11.8125H5C4.448 11.8125 4 12.2595 4 12.8125C4 13.3655 4.448 13.8125 5 13.8125H11V19.8125C11 20.3655 11.448 20.8125 12 20.8125C12.552 20.8125 13 20.3655 13 19.8125V13.8125H19C19.552 13.8125 20 13.3655 20 12.8125C20 12.2595 19.552 11.8125 19 11.8125Z" fill="#9295A6"/>
</svg>
