<svg width="25" height="25" viewBox="0 0 25 25" fill="none" xmlns="http://www.w3.org/2000/svg">
<g id="Icon">
<path id="Mask" fillRule="evenodd" clipRule="evenodd" d="M11.345 3.35087C6.84601 3.84487 3.33301 7.66487 3.33301 12.2929C3.33301 17.2559 7.37101 21.2929 12.333 21.2929C17.295 21.2929 21.333 17.2559 21.333 12.2929C21.333 7.66487 17.82 3.84487 13.321 3.35087C12.5445 3.29958 12.1379 3.29984 11.345 3.35087ZM12.333 19.0429C8.61101 19.0429 5.58301 16.0149 5.58301 12.2929C5.58301 8.57088 8.61101 5.54288 12.333 5.54288C16.055 5.54288 19.083 8.57088 19.083 12.2929C19.083 16.0149 16.055 19.0429 12.333 19.0429ZM14.333 12.2929H12.333V10.2929C12.333 9.73988 11.885 9.29288 11.333 9.29288C10.781 9.29288 10.333 9.73988 10.333 10.2929V13.2929C10.333 13.8459 10.781 14.2929 11.333 14.2929H14.333C14.885 14.2929 15.333 13.8459 15.333 13.2929C15.333 12.7399 14.885 12.2929 14.333 12.2929Z" fill="#6C7080"/>
</g>
</svg>
