<svg width="30" height="31" viewBox="0 0 30 31" fill="none" xmlns="http://www.w3.org/2000/svg">
<g id="Icon">
<path id="Mask" fillRule="evenodd" clipRule="evenodd" d="M7.39281 6.56281H22.3878C24.8616 6.56281 26.8753 8.54156 26.8753 10.9741V14.0628C26.8753 14.7541 26.3166 15.3128 25.6253 15.3128C24.9341 15.3128 24.3753 14.7541 24.3753 14.0628V10.9741C24.3753 9.92156 23.4841 9.06281 22.3878 9.06281H7.39281L9.00906 10.6791C9.49656 11.1678 9.49656 11.9578 9.00906 12.4466C8.76531 12.6903 8.44531 12.8128 8.12531 12.8128C7.80531 12.8128 7.48531 12.6903 7.24156 12.4466L3.49156 8.69656C3.00281 8.20781 3.00281 7.41781 3.49156 6.92906L7.24156 3.17906C7.72906 2.69031 8.52031 2.69031 9.00906 3.17906C9.49656 3.66781 9.49656 4.45781 9.00906 4.94656L7.39281 6.56281ZM20.9913 18.1794C21.48 17.6906 22.27 17.6906 22.7587 18.1794L26.5088 21.9294C26.9975 22.4181 26.9975 23.2081 26.5088 23.6969L22.7587 27.4469C22.515 27.6906 22.195 27.8131 21.875 27.8131C21.555 27.8131 21.235 27.6906 20.9913 27.4469C20.5025 26.9581 20.5025 26.1681 20.9913 25.6794L22.6075 24.0631H7.6125C5.1375 24.0631 3.125 22.0844 3.125 19.6519V16.5631C3.125 15.8719 3.685 15.3131 4.375 15.3131C5.065 15.3131 5.625 15.8719 5.625 16.5631V19.6519C5.625 20.7056 6.51625 21.5631 7.6125 21.5631H22.6075L20.9913 19.9469C20.5025 19.4581 20.5025 18.6681 20.9913 18.1794Z" fill="#6C7080"/>
</g>
</svg>
