<svg width="20" height="21" viewBox="0 0 20 21" fill="none" xmlns="http://www.w3.org/2000/svg">
<g id="Icon">
<path id="Mask" fillRule="evenodd" clipRule="evenodd" d="M10.0003 11.5627C9.31116 11.5627 8.75033 11.0019 8.75033 10.3127C8.75033 10.3018 8.75284 10.2911 8.75535 10.2805C8.75764 10.2707 8.75993 10.261 8.76033 10.251L10.062 11.5527C10.0521 11.5531 10.0423 11.5554 10.0326 11.5577C10.0219 11.5602 10.0112 11.5627 10.0003 11.5627ZM3.92303 3.05687C3.5972 2.73104 3.07053 2.73104 2.7447 3.05687C2.41887 3.38271 2.41887 3.90937 2.7447 4.23521L7.43637 8.92688C7.20637 9.35104 7.08387 9.82187 7.08387 10.3127C7.08387 11.921 8.3922 13.2294 10.0005 13.2294C10.4914 13.2294 10.9622 13.1069 11.3864 12.8769L16.078 17.5685C16.2405 17.731 16.4539 17.8127 16.6672 17.8127C16.8805 17.8127 17.0939 17.731 17.2564 17.5685C17.5822 17.2427 17.5822 16.716 17.2564 16.3902L3.92303 3.05687ZM10.1834 14.4775C6.59595 14.5609 4.25428 11.4917 3.47762 10.3092C3.85845 9.71421 4.49678 8.84254 5.38012 8.05004L4.20428 6.87337C2.93595 8.03087 2.12262 9.29587 1.77762 9.89837C1.63012 10.155 1.63012 10.4709 1.77762 10.7275C2.30178 11.6417 5.13512 16.1459 10.0209 16.1459C10.0893 16.1459 10.1576 16.145 10.2259 16.1434C11.2126 16.1184 12.1059 15.905 12.9151 15.585L11.5984 14.2684C11.1526 14.3867 10.6834 14.465 10.1834 14.4775ZM9.77529 4.48221C14.7545 4.32638 17.692 8.97138 18.2236 9.89804C18.3703 10.1547 18.3703 10.4705 18.2236 10.7272C17.8778 11.3297 17.0645 12.5947 15.7961 13.7522L14.6203 12.5755C15.5036 11.783 16.1428 10.9114 16.5228 10.3164C15.7461 9.13388 13.3936 6.05804 9.81779 6.14804C9.31779 6.16054 8.84862 6.23888 8.40195 6.35721L7.08529 5.04054C7.89529 4.72054 8.78779 4.50721 9.77529 4.48221Z" fill="#9295A6"/>
</g>
</svg>
