<svg width="140" height="67" viewBox="0 0 140 67" fill="none" xmlns="http://www.w3.org/2000/svg">
<g id="Graph">
<g id="Vector 48" opacity="0.2" filter="url(#filter0_f_3687_35129)">
<path d="M13 53.6758L19.7786 46.0571C21.1584 44.5063 22.1761 42.668 22.758 40.6754L24.4046 35.0366C24.5369 34.5837 24.7541 34.1602 25.0447 33.7886V33.7886C26.5469 31.8681 29.4604 31.8901 30.9334 33.8331L33.0507 36.6259C33.7506 37.5491 34.8422 38.0914 36.0007 38.0914V38.0914C37.3866 38.0914 38.6564 38.8655 39.2913 40.0975L39.361 40.2328C40.9719 43.3588 45.5568 42.9814 46.6349 39.6341L47.1317 38.0914L48.691 34.8876C49.4648 33.2976 50.5329 31.8686 51.8387 30.6762L52.3932 30.1698C53.8742 28.8173 55.0474 27.1624 55.8332 25.317L59.2583 17.2744C59.3654 17.0228 59.4905 16.7793 59.6326 16.5457L60.1498 15.6956C62.5074 11.8203 68.3386 12.5567 69.6587 16.8966V16.8966L72.057 24.5619C72.2781 25.2687 72.555 25.9569 72.885 26.62L74.3356 29.5342C75.3003 31.4723 75.8024 33.6077 75.8024 35.7726V39.9945C75.8024 40.3839 75.883 40.769 76.0392 41.1256V41.1256C77.0112 43.3445 80.1443 43.3852 81.1735 41.1922L82.6287 38.0914L86.8738 29.2306C87.2261 28.4953 87.7167 27.8347 88.3187 27.285L89.4333 26.2671C89.8865 25.8533 90.478 25.6238 91.0917 25.6238V25.6238C92.4499 25.6238 93.5509 26.7249 93.5509 28.0831V33.2591C93.5509 33.9834 93.654 34.7041 93.857 35.3993L96.0213 42.8109C96.1929 43.3987 96.4818 43.9457 96.8705 44.419L97.0392 44.6244C98.7672 46.7285 101.987 46.7285 103.715 44.6244V44.6244C104.211 44.0206 104.534 43.2936 104.649 42.5209L106.152 32.455C106.396 30.8229 106.927 29.2466 107.719 27.7991L110.617 22.507V22.507C112.078 20.1049 115.625 20.2962 116.82 22.8415L118.126 25.6238L120.041 29.7059C121.441 32.6885 123.932 35.0205 127 36.2212V36.2212" stroke="#58A4F3" stroke-width="2"/>
</g>
<path id="Vector 49" d="M13 49.3125L19.7786 41.6939C21.1584 40.143 22.1761 38.3047 22.758 36.3121L24.4046 30.6733C24.5369 30.2205 24.7541 29.7969 25.0447 29.4254V29.4254C26.5469 27.5048 29.4604 27.5268 30.9334 29.4699L33.0507 32.2626C33.7506 33.1858 34.8422 33.7281 36.0007 33.7281V33.7281C37.3866 33.7281 38.6564 34.5022 39.2913 35.7342L39.361 35.8695C40.9719 38.9955 45.5568 38.6181 46.6349 35.2708L47.1317 33.7281L48.691 30.5243C49.4648 28.9343 50.5329 27.5053 51.8387 26.3129L52.3932 25.8065C53.8742 24.454 55.0474 22.7991 55.8332 20.9538L59.2583 12.9111C59.3654 12.6596 59.4905 12.416 59.6326 12.1824L60.1498 11.3324C62.5074 7.45701 68.3386 8.19345 69.6587 12.5333V12.5333L72.057 20.1986C72.2781 20.9055 72.555 21.5936 72.885 22.2567L74.3356 25.1709C75.3003 27.109 75.8024 29.2444 75.8024 31.4094V35.6313C75.8024 36.0206 75.883 36.4057 76.0393 36.7623V36.7623C77.0112 38.9813 80.1443 39.0219 81.1735 36.8289L82.6287 33.7281L86.8738 24.8673C87.2261 24.132 87.7167 23.4715 88.3187 22.9217L89.4333 21.9038C89.8865 21.49 90.478 21.2606 91.0917 21.2606V21.2606C92.4499 21.2606 93.5509 22.3616 93.5509 23.7198V28.8958C93.5509 29.6201 93.654 30.3408 93.857 31.0361L96.0213 38.4476C96.1929 39.0354 96.4818 39.5824 96.8705 40.0557L97.0392 40.2612C98.7672 42.3652 101.987 42.3652 103.715 40.2612V40.2612C104.211 39.6574 104.534 38.9304 104.649 38.1576L106.152 28.0918C106.396 26.4596 106.927 24.8833 107.719 23.4358L110.617 18.1437V18.1437C112.078 15.7416 115.625 15.9329 116.82 18.4782L118.126 21.2606L120.041 25.3426C121.441 28.3252 123.932 30.6572 127 31.858V31.858" stroke="#0070E4" stroke-width="1.5"/>
</g>
<defs>
<filter id="filter0_f_3687_35129" x="0.25293" y="0.171875" width="139.111" height="66.168" filterUnits="userSpaceOnUse" color-interpolation-filters="sRGB">
<feFlood flood-opacity="0" result="BackgroundImageFix"/>
<feBlend mode="normal" in="SourceGraphic" in2="BackgroundImageFix" result="shape"/>
<feGaussianBlur stdDeviation="6" result="effect1_foregroundBlur_3687_35129"/>
</filter>
</defs>
</svg>
