<svg width="24" height="25" viewBox="0 0 24 25" fill="none" xmlns="http://www.w3.org/2000/svg">
<g id="Icon">
<path id="Mask" fillRule="evenodd" clipRule="evenodd" d="M15 19.3125V15.3125H19L19.001 19.3125H15ZM19 13.3125H15C13.897 13.3125 13 14.2095 13 15.3125V19.3125C13 20.4155 13.897 21.3125 15 21.3125H19C20.103 21.3125 21 20.4155 21 19.3125V15.3125C21 14.2095 20.103 13.3125 19 13.3125ZM5 19.3125V15.3125H9L9.001 19.3125H5ZM9 13.3125H5C3.897 13.3125 3 14.2095 3 15.3125V19.3125C3 20.4155 3.897 21.3125 5 21.3125H9C10.103 21.3125 11 20.4155 11 19.3125V15.3125C11 14.2095 10.103 13.3125 9 13.3125ZM15 9.3125V5.3125H19L19.001 9.3125H15ZM19 3.3125H15C13.897 3.3125 13 4.2095 13 5.3125V9.3125C13 10.4155 13.897 11.3125 15 11.3125H19C20.103 11.3125 21 10.4155 21 9.3125V5.3125C21 4.2095 20.103 3.3125 19 3.3125ZM5 9.3125V5.3125H9L9.001 9.3125H5ZM9 3.3125H5C3.897 3.3125 3 4.2095 3 5.3125V9.3125C3 10.4155 3.897 11.3125 5 11.3125H9C10.103 11.3125 11 10.4155 11 9.3125V5.3125C11 4.2095 10.103 3.3125 9 3.3125Z" fill="#9295A6"/>
</g>
</svg>
