<svg width="24" height="25" viewBox="0 0 24 25" fill="none" xmlns="http://www.w3.org/2000/svg">
<g id="Icon">
<path id="Mask" fillRule="evenodd" clipRule="evenodd" d="M3 7.3125C3 6.7605 3.448 6.3125 4 6.3125C4.552 6.3125 5 6.7605 5 7.3125C5 7.8645 4.552 8.3125 4 8.3125C3.448 8.3125 3 7.8645 3 7.3125ZM3 12.3125C3 11.7605 3.448 11.3125 4 11.3125C4.552 11.3125 5 11.7605 5 12.3125C5 12.8645 4.552 13.3125 4 13.3125C3.448 13.3125 3 12.8645 3 12.3125ZM4 16.3125C3.448 16.3125 3 16.7605 3 17.3125C3 17.8645 3.448 18.3125 4 18.3125C4.552 18.3125 5 17.8645 5 17.3125C5 16.7605 4.552 16.3125 4 16.3125ZM7.935 11.3125H20.064C20.579 11.3125 21 11.7335 21 12.2485V12.3765C21 12.8915 20.579 13.3125 20.064 13.3125H7.935C7.42 13.3125 7 12.8915 7 12.3765V12.2485C7 11.7335 7.42 11.3125 7.935 11.3125ZM20.064 16.3125H7.935C7.42 16.3125 7 16.7335 7 17.2485V17.3765C7 17.8915 7.42 18.3125 7.935 18.3125H20.064C20.579 18.3125 21 17.8915 21 17.3765V17.2485C21 16.7335 20.579 16.3125 20.064 16.3125ZM7.935 6.3125H20.064C20.579 6.3125 21 6.7335 21 7.2485V7.3765C21 7.8915 20.579 8.3125 20.064 8.3125H7.935C7.42 8.3125 7 7.8915 7 7.3765V7.2485C7 6.7335 7.42 6.3125 7.935 6.3125Z" fill="#9295A6"/>
</g>
</svg>
