<svg width="20" height="21" viewBox="0 0 20 21" fill="none" xmlns="http://www.w3.org/2000/svg">
<path fillRule="evenodd" clipRule="evenodd" d="M10.0004 11.5627C9.3112 11.5627 8.75037 11.0018 8.75037 10.3127C8.75037 9.62351 9.3112 9.06268 10.0004 9.06268C10.6895 9.06268 11.2504 9.62351 11.2504 10.3127C11.2504 11.0018 10.6895 11.5627 10.0004 11.5627M10.0004 7.39601C8.39203 7.39601 7.0837 8.70435 7.0837 10.3127C7.0837 11.921 8.39203 13.2293 10.0004 13.2293C11.6087 13.2293 12.917 11.921 12.917 10.3127C12.917 8.70435 11.6087 7.39601 10.0004 7.39601M10.1827 14.4771C6.59439 14.5605 4.25355 11.4913 3.47689 10.3088C4.33189 8.9713 6.48522 6.23296 9.81689 6.14796C13.3911 6.05713 15.7452 9.1338 16.5219 10.3163C15.6677 11.6538 13.5136 14.3921 10.1827 14.4771M18.2235 9.89818C17.6918 8.97151 14.7551 4.32651 9.77512 4.48235C5.16845 4.59901 2.48928 8.65735 1.77762 9.89818C1.63012 10.1548 1.63012 10.4707 1.77762 10.7273C2.30178 11.6415 5.13512 16.1457 10.021 16.1457C10.0893 16.1457 10.1576 16.1448 10.226 16.1432C14.8318 16.0257 17.5118 11.9682 18.2235 10.7273C18.3701 10.4707 18.3701 10.1548 18.2235 9.89818" fill="#9295A6"/>
</svg>
