<svg width="24" height="25" viewBox="0 0 24 25" fill="none" xmlns="http://www.w3.org/2000/svg">
<g id="Icon">
<path id="Mask" fillRule="evenodd" clipRule="evenodd" d="M12.474 16.6245C12.6246 16.6245 12.7753 16.6605 12.9127 16.7316L16.4838 18.5982L15.8044 14.6594C15.7504 14.3506 15.8537 14.036 16.0792 13.8171L18.9558 11.0353L14.9735 10.4554C14.6655 10.4109 14.3993 10.2186 14.2609 9.94L12.474 6.34521L10.687 9.94C10.5487 10.2186 10.2824 10.4109 9.97449 10.4554L5.99219 11.0353L8.86877 13.8171C9.09427 14.036 9.19755 14.3506 9.14354 14.6594L8.46419 18.5982L12.0353 16.7316C12.1727 16.6605 12.3233 16.6245 12.474 16.6245ZM17.7444 21.2722C17.5938 21.2722 17.4431 21.2371 17.3057 21.1651L12.4745 18.641L7.64322 21.1651C7.32297 21.3319 6.9364 21.3025 6.64741 21.0903C6.35558 20.878 6.21062 20.5189 6.27126 20.1636L7.19222 14.8311L3.28856 11.0554C3.028 10.8043 2.93514 10.4272 3.046 10.0833C3.15591 9.73933 3.45342 9.48919 3.81062 9.43708L9.21227 8.65256L11.6255 3.79572C11.9458 3.15143 13.0032 3.15143 13.3234 3.79572L15.7367 8.65256L21.1383 9.43708C21.4955 9.48919 21.7931 9.73933 21.903 10.0833C22.0138 10.4272 21.921 10.8043 21.6604 11.0554L17.7567 14.8311L18.6777 20.1636C18.7383 20.5189 18.5934 20.878 18.3015 21.0903C18.1376 21.2115 17.9415 21.2722 17.7444 21.2722Z" fill="#9295A6"/>
</g>
</svg>
