<svg width="24" height="25" viewBox="0 0 24 25" fill="none" xmlns="http://www.w3.org/2000/svg">
<g id="Icon">
<path id="Mask" fillRule="evenodd" clipRule="evenodd" d="M18.6669 20.0903H13.1113V10.0903H19.778V18.9792C19.778 19.5925 19.2791 20.0903 18.6669 20.0903ZM4.22266 18.9792V10.0903H10.8893V20.0903H5.33377C4.72155 20.0903 4.22266 19.5925 4.22266 18.9792ZM5.33377 4.53473H18.6671C19.2793 4.53473 19.7782 5.03251 19.7782 5.64584V7.86806H4.22266V5.64584C4.22266 5.03251 4.72155 4.53473 5.33377 4.53473ZM18.6667 2.3125H5.33333C3.49556 2.3125 2 3.80806 2 5.64583V8.77694V9.18139V18.9792C2 20.8169 3.49556 22.3125 5.33333 22.3125H18.6667C20.5044 22.3125 22 20.8169 22 18.9792V9.18139V8.77694V5.64583C22 3.80806 20.5044 2.3125 18.6667 2.3125Z" fill="#9295A6"/>
</g>
</svg>
