<svg width="24" height="25" viewBox="0 0 24 25" fill="none" xmlns="http://www.w3.org/2000/svg">
<g id="Icon">
<path id="icon" fillRule="evenodd" clipRule="evenodd" d="M15.4506 1.71614C16.5126 1.41269 17.6196 2.02767 17.923 3.08974C17.9741 3.26843 18 3.45335 18 3.63919V5.31346H20C21.1046 5.31346 22 6.20889 22 7.31346V19.3135C22 20.418 21.1046 21.3135 20 21.3135H4C2.89543 21.3135 2 20.418 2 19.3135H2.0267C2.00895 19.2059 2 19.097 2 18.9877V7.06776C2 6.1748 2.59195 5.39003 3.45056 5.14471L15.4506 1.71614ZM10.1401 19.3135H20V11.3135H18V15.5592C18 16.4521 17.408 17.2369 16.5494 17.4822L10.1401 19.3135ZM18 7.31346H20V9.31346H18V7.31346ZM4 7.06773V18.9877L16 15.5591V3.63916L4 7.06773ZM14 9.31346C14 9.86574 13.5523 10.3135 13 10.3135C12.4477 10.3135 12 9.86574 12 9.31346C12 8.76117 12.4477 8.31346 13 8.31346C13.5523 8.31346 14 8.76117 14 9.31346Z" fill="#9295A6"/>
</g>
</svg>
