<svg width="127" height="45" viewBox="0 0 127 45" fill="none" xmlns="http://www.w3.org/2000/svg">
<path d="M18.5819 29.2686L12.8059 35.0179C12.023 35.7971 12.023 37.0605 12.8059 37.8397L18.5819 43.589C19.3647 44.3683 20.634 44.3683 21.4169 43.589L27.1929 37.8397C27.9757 37.0605 27.9757 35.7971 27.1929 35.0179L21.4169 29.2686C20.634 28.4893 19.3647 28.4893 18.5819 29.2686Z" fill="url(#paint0_linear_2_34285)"/>
<path d="M6.00586 34.0217C6.00586 34.9114 7.08063 35.3581 7.71128 34.7305L18.5888 23.9046C19.3691 23.1281 20.6302 23.1281 21.4105 23.9046L32.2881 34.7305C32.9187 35.3581 33.9935 34.9114 33.9935 34.0217V28.272C33.9935 28.006 33.8875 27.7509 33.6989 27.5633L21.4105 15.3333C20.6302 14.5567 19.3691 14.5567 18.5888 15.3333L6.30044 27.5633C6.11187 27.7509 6.00586 28.006 6.00586 28.272V34.0217Z" fill="url(#paint1_linear_2_34285)"/>
<path d="M21.4123 9.98C20.6317 9.2014 19.3683 9.2014 18.5877 9.98L1.70617 26.817C1.07583 27.4457 0 26.9992 0 26.1089V20.3623C0 20.0966 0.105719 19.8419 0.293826 19.6543L18.5877 1.40863C19.3683 0.630065 20.6317 0.630065 21.4123 1.40863L39.7062 19.6543C39.8943 19.8419 40 20.0966 40 20.3623V26.1089C40 26.9992 38.9242 27.4457 38.2938 26.817L21.4123 9.98Z" fill="url(#paint2_linear_2_34285)"/>
<path d="M75.8645 24.4442C76.7121 24.491 77.4083 24.8062 77.9532 25.3901C78.4981 25.9623 78.8916 26.6162 79.1337 27.3519C79.3759 28.0875 79.497 28.8407 79.497 29.6114C79.497 30.3821 79.3759 31.1353 79.1337 31.871C78.9037 32.6066 78.5102 33.2664 77.9532 33.8503C77.4083 34.4224 76.7121 34.7319 75.8645 34.7786H69.1806C68.8536 34.7669 68.5752 34.656 68.3451 34.4458C68.1271 34.2239 68.0121 33.9553 68 33.64V29.2961C68.0121 28.9692 68.1392 28.7006 68.3814 28.4904C68.6236 28.2685 68.9142 28.1576 69.2532 28.1576C69.5802 28.1693 69.8587 28.2861 70.0887 28.5079C70.3188 28.7181 70.4399 28.9809 70.452 29.2961V31.9586C70.452 32.2738 70.6215 32.4315 70.9605 32.4315H75.2469C75.7071 32.4081 76.0885 32.2388 76.3912 31.9235C76.6939 31.6082 76.9119 31.2521 77.045 30.855C77.1904 30.4463 77.263 30.0318 77.263 29.6114C77.263 29.191 77.1904 28.7823 77.045 28.3853C76.9119 27.9766 76.6939 27.6146 76.3912 27.2993C76.0885 26.984 75.7071 26.8147 75.2469 26.7914H69.1806C68.4541 26.733 68.0605 26.3535 68 25.6528C68 25.3259 68.109 25.0456 68.3269 24.8121C68.557 24.5785 68.8415 24.4559 69.1806 24.4442H75.8645ZM85.5634 32.0636C85.5634 31.7367 85.6784 31.4623 85.9085 31.2404C86.1506 31.0069 86.4413 30.8901 86.7802 30.8901H89.5592L89.087 29.5939C88.8932 29.1151 88.6995 28.6656 88.5057 28.2452C88.3241 27.8131 88.1122 27.4219 87.87 27.0716C87.6521 26.7213 87.4039 26.5345 87.1254 26.5111C86.8348 26.5345 86.5745 26.7213 86.3443 27.0716C86.1143 27.4219 85.9024 27.8131 85.7087 28.2452C85.5271 28.6656 85.3393 29.1151 85.1456 29.5939L83.4202 34.148C83.2991 34.3933 83.1417 34.5976 82.9479 34.7611C82.7664 34.9128 82.4879 34.9887 82.1125 34.9887C81.7613 34.9887 81.4707 34.872 81.2407 34.6385C81.0227 34.405 80.9259 34.1247 80.9501 33.7977C80.9622 33.6459 80.9985 33.5058 81.059 33.3773L83.0569 28.4028C83.6139 27.095 84.1709 26.0382 84.7279 25.2325C85.2728 24.4384 86.0719 24.0355 87.1254 24.0239C88.1667 24.0355 88.9598 24.4384 89.5047 25.2325C90.0617 26.0148 90.6187 27.0716 91.1757 28.4028L93.1736 33.3773C93.2341 33.5058 93.2705 33.6459 93.2825 33.7977C93.3068 34.1247 93.2038 34.405 92.9738 34.6385C92.7558 34.872 92.4712 34.9887 92.1201 34.9887C91.7205 34.9887 91.4239 34.9128 91.2301 34.7611C91.0485 34.5976 90.8972 34.3933 90.7761 34.148L90.431 33.2372H86.7802C86.4413 33.2372 86.1567 33.1205 85.9267 32.8869C85.6845 32.665 85.5634 32.3906 85.5634 32.0636ZM106.85 25.6178C106.85 25.9448 106.729 26.2192 106.487 26.4411C106.257 26.6746 105.972 26.7914 105.633 26.7914H98.3681C98.1381 26.803 97.9443 26.8556 97.7869 26.949C97.6417 27.0308 97.5326 27.13 97.46 27.2468C97.3874 27.3519 97.351 27.4628 97.351 27.5796C97.351 27.6964 97.3874 27.8131 97.46 27.9299C97.5326 28.035 97.6417 28.1343 97.7869 28.2277C97.9443 28.3094 98.1381 28.3561 98.3681 28.3678H103.526C104.374 28.3911 105.07 28.5838 105.615 28.9458C106.172 29.2961 106.566 29.7048 106.796 30.1719C107.038 30.6273 107.159 31.0944 107.159 31.5732C107.159 32.0403 107.038 32.5074 106.796 32.9745C106.553 33.4299 106.16 33.8386 105.615 34.2006C105.07 34.5509 104.374 34.726 103.526 34.726H103.417C103.345 34.7377 103.272 34.7436 103.199 34.7436H96.3339C95.9949 34.7436 95.7043 34.6327 95.4621 34.4107C95.2321 34.1772 95.1169 33.897 95.1169 33.57C95.1169 33.2431 95.238 32.9687 95.4802 32.7468C95.7103 32.5132 95.9949 32.3964 96.3339 32.3964H103.635C103.865 32.4081 104.053 32.3673 104.198 32.2738C104.356 32.1804 104.471 32.0753 104.543 31.9586C104.616 31.8301 104.652 31.7016 104.652 31.5732C104.652 31.4915 104.616 31.3805 104.543 31.2404C104.471 31.0886 104.356 30.966 104.198 30.8726C104.053 30.7792 103.865 30.7266 103.635 30.7149H98.4771C97.6295 30.6916 96.9272 30.5047 96.3702 30.1544C95.8254 29.8041 95.4319 29.4071 95.1897 28.9633C94.9595 28.5079 94.8445 28.0467 94.8445 27.5796C94.8445 27.1242 94.9656 26.6746 95.2078 26.2309C95.45 25.7754 95.8435 25.3726 96.3884 25.0223C96.9333 24.672 97.6295 24.4851 98.4771 24.4618H98.5861C98.6587 24.4501 98.7314 24.4442 98.804 24.4442H105.633C105.972 24.4442 106.257 24.561 106.487 24.7946C106.729 25.0164 106.85 25.2908 106.85 25.6178ZM110.446 24.164C110.773 24.1757 111.052 24.2924 111.282 24.5143C111.512 24.7245 111.633 24.9872 111.645 25.3025V28.2277H117.548V25.3025C117.56 24.9756 117.687 24.707 117.929 24.4968C118.172 24.2749 118.462 24.164 118.801 24.164C119.128 24.1757 119.407 24.2924 119.637 24.5143C119.867 24.7245 119.988 24.9872 120 25.3025V33.8853C119.927 34.5859 119.528 34.9654 118.801 35.0239C118.462 35.0239 118.165 34.9187 117.911 34.7086C117.669 34.4866 117.548 34.2123 117.548 33.8853V30.5748H111.645V33.8853C111.572 34.5859 111.173 34.9654 110.446 35.0239C110.107 35.0239 109.811 34.9187 109.556 34.7086C109.314 34.4866 109.193 34.2123 109.193 33.8853V25.3025C109.205 24.9756 109.332 24.707 109.575 24.4968C109.817 24.2749 110.107 24.164 110.446 24.164Z" fill="#3699FF"/>
<path d="M125 33.1168C125 32.5645 125.448 32.1168 126 32.1168C126.552 32.1168 127 32.5645 127 33.1168C127 33.669 126.552 34.1168 126 34.1168C125.448 34.1168 125 33.669 125 33.1168Z" fill="#3699FF"/>
<path d="M58.0967 18.3808C58.0345 18.9888 57.6929 19.3181 57.0716 19.3687C56.7817 19.3687 56.528 19.2776 56.3106 19.0952C56.1035 18.9027 56 18.6646 56 18.3808V11.2072C56.0103 10.9235 56.1191 10.6905 56.3261 10.5081C56.5332 10.3156 56.7817 10.2193 57.0716 10.2193H63.5947C64.5059 10.2497 65.1945 10.4473 65.6603 10.8121C66.1263 11.1667 66.4628 11.5719 66.6699 12.0279C66.877 12.4839 66.9805 12.9449 66.9805 13.4109C66.9805 13.8973 66.877 14.3685 66.6699 14.8245C66.4731 15.2804 66.1367 15.6907 65.6603 16.0555C65.1945 16.4102 64.599 16.5824 63.8742 16.5722H59.9605C59.6705 16.5722 59.4272 16.471 59.2305 16.2683C59.0233 16.0757 58.9199 15.8376 58.9199 15.554C58.9199 15.2702 59.0182 15.0321 59.215 14.8396C59.422 14.637 59.6705 14.5357 59.9605 14.5357H63.9675C64.1642 14.5357 64.3247 14.4749 64.449 14.3533C64.5835 14.2216 64.6819 14.0746 64.744 13.9126C64.8062 13.7403 64.8372 13.568 64.8372 13.3958C64.8372 13.2337 64.8062 13.0716 64.744 12.9094C64.6819 12.7371 64.5835 12.5903 64.449 12.4687C64.3247 12.337 64.1642 12.2661 63.9675 12.2559H58.5005C58.2313 12.2661 58.0967 12.3978 58.0967 12.6511V18.3808ZM76.967 10.2193C77.4951 10.2294 77.9662 10.3916 78.3804 10.7057C78.7946 11.0197 79.1259 11.3946 79.3744 11.8303C79.6332 12.2661 79.8248 12.727 79.949 13.2134C80.0733 13.6997 80.1354 14.1962 80.1354 14.7029C80.1354 15.3716 80.0266 16.0302 79.8093 16.6786C79.6022 17.317 79.2553 17.8844 78.7686 18.3808C78.2924 18.8773 77.6918 19.1459 76.967 19.1864H71.5467C70.8219 19.156 70.2162 18.8926 69.7296 18.396C69.2429 17.8996 68.896 17.3271 68.6889 16.6786C68.4922 16.0302 68.3938 15.3716 68.3938 14.7029C68.3938 14.0341 68.4974 13.3806 68.7044 12.7423C68.9116 12.0938 69.2532 11.5213 69.7296 11.0248C70.2162 10.5182 70.8219 10.2497 71.5467 10.2193H71.8418H76.6719H76.967ZM76.439 17.1498C76.8324 17.1296 77.1586 16.9876 77.4174 16.7242C77.6867 16.4506 77.8782 16.1365 77.9921 15.782C78.106 15.4273 78.1629 15.0676 78.1629 14.7029C78.1629 14.3381 78.1009 13.9835 77.9766 13.6389C77.8627 13.2843 77.6763 12.9702 77.4174 12.6967C77.1586 12.4231 76.8324 12.2762 76.439 12.2559H72.0282C71.6346 12.2762 71.3085 12.4231 71.0497 12.6967C70.7908 12.9702 70.5993 13.2843 70.475 13.6389C70.3611 13.9835 70.3042 14.3381 70.3042 14.7029C70.3042 15.0676 70.3611 15.4273 70.475 15.782C70.589 16.1365 70.7753 16.4506 71.0342 16.7242C71.3033 16.9876 71.6346 17.1296 72.0282 17.1498H76.439ZM85.1209 19.5359C84.7689 19.5359 84.4168 19.4751 84.0648 19.3535C83.7231 19.232 83.3918 19.0546 83.0709 18.8217C82.7498 18.5785 82.4703 18.2593 82.2321 17.8641C81.994 17.4689 81.8645 16.9979 81.8439 16.4506V10.964C81.8439 10.6804 81.9473 10.4473 82.1545 10.2649C82.3719 10.0724 82.6255 9.9761 82.9155 9.9761C83.5367 10.0268 83.8732 10.3561 83.925 10.964V16.329C83.9353 16.5722 83.9871 16.78 84.0804 16.9522C84.1735 17.1143 84.2771 17.2461 84.391 17.3474C84.5049 17.4386 84.6187 17.5095 84.7326 17.5602C84.8569 17.6006 84.9811 17.621 85.1054 17.621C85.2296 17.621 85.3539 17.6006 85.4781 17.5602C85.6024 17.5095 85.7214 17.4386 85.8353 17.3474C85.9493 17.2461 86.0528 17.1143 86.146 16.9522C86.2391 16.78 86.2857 16.5722 86.2857 16.329V10.964C86.2857 10.6804 86.3893 10.4473 86.5964 10.2649C86.8138 10.0724 87.0675 9.9761 87.3574 9.9761C87.9786 10.0268 88.3203 10.3561 88.3825 10.964V16.329C88.3928 16.5722 88.4446 16.7749 88.5378 16.937C88.631 17.1092 88.7345 17.2461 88.8483 17.3474C88.9623 17.4386 89.0762 17.5095 89.1901 17.5602C89.3143 17.6006 89.4386 17.621 89.5628 17.621C89.6871 17.621 89.8113 17.6006 89.9356 17.5602C90.0598 17.5095 90.1789 17.4386 90.2928 17.3474C90.4067 17.2461 90.5102 17.1143 90.6034 16.9522C90.6966 16.78 90.7432 16.5722 90.7432 16.329V10.964C90.7432 10.6804 90.8468 10.4473 91.0538 10.2649C91.2713 10.0724 91.525 9.9761 91.8148 9.9761C92.4361 10.0268 92.7778 10.3561 92.8399 10.964V16.4506C92.8399 16.9979 92.7157 17.4689 92.4672 17.8641C92.229 18.2593 91.9494 18.5785 91.6284 18.8217C91.3178 19.0546 90.9865 19.232 90.6345 19.3535C90.2928 19.4751 89.9407 19.5359 89.5783 19.5359C89.2264 19.5359 88.8743 19.4751 88.5222 19.3535C88.1806 19.232 87.8492 19.0496 87.5282 18.8064C87.4661 18.7659 87.4091 18.7203 87.3574 18.6696C87.2953 18.7203 87.2384 18.7659 87.1866 18.8064C86.8656 19.0496 86.5291 19.232 86.1771 19.3535C85.8353 19.4751 85.4833 19.5359 85.1209 19.5359ZM97.7633 10.2193H98.4778H103.758C104.048 10.2294 104.286 10.3358 104.473 10.5385C104.669 10.7412 104.768 10.9843 104.768 11.268C104.716 11.8759 104.38 12.2053 103.758 12.2559H98.2913C97.8979 12.2762 97.5717 12.4231 97.3129 12.6967C97.0541 12.9702 96.8625 13.2843 96.7383 13.6389C96.6244 13.9835 96.5674 14.3381 96.5674 14.7029C96.5674 15.0676 96.6244 15.4273 96.7383 15.782C96.8625 16.1264 97.0541 16.4354 97.3129 16.7091C97.5717 16.9826 97.8979 17.1296 98.2913 17.1498H103.758C104.048 17.1599 104.286 17.2663 104.473 17.4689C104.669 17.6717 104.768 17.9148 104.768 18.1985C104.758 18.4721 104.654 18.7051 104.457 18.8976C104.271 19.08 104.038 19.1762 103.758 19.1864H98.0584H97.7633C97.0385 19.1459 96.438 18.8773 95.9617 18.3808C95.4958 17.8743 95.1592 17.3017 94.9522 16.6634C94.7555 16.0252 94.6571 15.3716 94.6571 14.7029C94.6571 14.0341 94.7606 13.3806 94.9677 12.7423C95.1747 12.1039 95.5113 11.5365 95.9772 11.0401C96.4432 10.5334 97.0385 10.2599 97.7633 10.2193ZM104.737 14.6421C104.737 14.9257 104.633 15.1638 104.426 15.3563C104.229 15.559 103.986 15.6604 103.696 15.6604H99.0058C98.7158 15.6604 98.4673 15.5641 98.2603 15.3716C98.0636 15.1689 97.9652 14.9257 97.9652 14.6421C97.9652 14.3583 98.0636 14.1152 98.2603 13.9126C98.4673 13.7201 98.7158 13.6238 99.0058 13.6238H103.696C103.986 13.6238 104.229 13.7251 104.426 13.9277C104.633 14.1202 104.737 14.3583 104.737 14.6421ZM108.418 18.4113C108.355 19.0192 108.014 19.3485 107.393 19.3992C107.103 19.3992 106.849 19.308 106.632 19.1255C106.424 18.933 106.321 18.6949 106.321 18.4113V11.2072C106.331 10.9235 106.44 10.6905 106.647 10.5081C106.854 10.3156 107.103 10.2193 107.393 10.2193H108.154H110.064H113.9C113.962 10.2193 114.024 10.2244 114.087 10.2345H114.18C114.905 10.2548 115.5 10.4169 115.966 10.7208C116.432 11.0248 116.768 11.3744 116.975 11.7696C117.182 12.1546 117.286 12.5446 117.286 12.9399C117.286 13.3451 117.182 13.7453 116.975 14.1405C116.779 14.5256 116.442 14.87 115.966 15.174C115.5 15.4779 114.905 15.6401 114.18 15.6604H111.446C111.529 16.167 111.7 16.5419 111.959 16.785C112.207 17.0282 112.523 17.1498 112.906 17.1498H116.261C116.551 17.1599 116.789 17.2663 116.975 17.4689C117.172 17.6717 117.27 17.9148 117.27 18.1985C117.26 18.4721 117.157 18.7051 116.96 18.8976C116.773 19.08 116.54 19.1762 116.261 19.1864H112.627C111.86 19.1966 111.167 18.9027 110.545 18.3049C109.924 17.7071 109.546 16.9979 109.412 16.1771C109.225 15.2652 109.132 14.7536 109.132 14.6421C109.132 14.3583 109.231 14.1202 109.427 13.9277C109.634 13.7251 109.883 13.6238 110.173 13.6238H114.273C114.47 13.6136 114.63 13.5731 114.754 13.5022C114.889 13.4211 114.987 13.335 115.049 13.2438C115.112 13.1425 115.143 13.0411 115.143 12.9399C115.143 12.8385 115.112 12.7423 115.049 12.6511C114.987 12.5497 114.889 12.4636 114.754 12.3927C114.63 12.3116 114.47 12.2661 114.273 12.2559H110.064H108.821C108.552 12.2661 108.418 12.3978 108.418 12.6511V18.4113Z" fill="white"/>
<defs>
<linearGradient id="paint0_linear_2_34285" x1="19.7615" y1="0.167969" x2="20.0496" y2="44.3709" gradientUnits="userSpaceOnUse">
<stop stop-color="#42A5F5"/>
<stop offset="0.51" stop-color="#0176FB"/>
<stop offset="1" stop-color="#1463E8"/>
</linearGradient>
<linearGradient id="paint1_linear_2_34285" x1="19.7888" y1="0.168314" x2="20.077" y2="44.3713" gradientUnits="userSpaceOnUse">
<stop stop-color="#42A5F5"/>
<stop offset="0.51" stop-color="#0176FB"/>
<stop offset="1" stop-color="#1463E8"/>
</linearGradient>
<linearGradient id="paint2_linear_2_34285" x1="19.8418" y1="0.159235" x2="20.1156" y2="42.1655" gradientUnits="userSpaceOnUse">
<stop stop-color="#42A5F5"/>
<stop offset="0.51" stop-color="#0176FB"/>
<stop offset="1" stop-color="#1463E8"/>
</linearGradient>
</defs>
</svg>
