<svg width="327" height="305" viewBox="0 0 327 305" fill="none" xmlns="http://www.w3.org/2000/svg">
<rect width="327" height="305" rx="10" fill="white"/>
<path d="M33.07 32.54L27.98 47H25.46L20.44 32.54H22.53L26.72 44.54L30.99 32.54H33.07ZM37.3756 36.66V47H35.3156V36.66H37.3756ZM37.4156 32.55V34.66H35.2656V32.55H37.4156ZM44.3877 47.2C43.6677 47.2 42.991 47.0867 42.3577 46.86C41.731 46.6333 41.2043 46.2767 40.7777 45.79C40.3577 45.3033 40.0943 44.68 39.9877 43.92H41.8977C41.9843 44.3133 42.1477 44.64 42.3877 44.9C42.6343 45.1533 42.9277 45.3433 43.2677 45.47C43.6143 45.59 43.9843 45.65 44.3777 45.65C45.031 45.65 45.5577 45.5333 45.9577 45.3C46.3643 45.06 46.5677 44.6933 46.5677 44.2C46.5677 43.8467 46.4577 43.5633 46.2377 43.35C46.0243 43.1367 45.6843 42.98 45.2177 42.88L43.1577 42.39C42.3043 42.19 41.621 41.8733 41.1077 41.44C40.5943 41 40.3343 40.3867 40.3277 39.6C40.3277 38.9933 40.4777 38.4533 40.7777 37.98C41.0843 37.5067 41.5377 37.1367 42.1377 36.87C42.7377 36.5967 43.4843 36.46 44.3777 36.46C45.5443 36.46 46.481 36.72 47.1877 37.24C47.8943 37.76 48.261 38.5133 48.2877 39.5H46.4377C46.371 39.0267 46.1543 38.6567 45.7877 38.39C45.4277 38.1167 44.951 37.98 44.3577 37.98C43.7443 37.98 43.241 38.1033 42.8477 38.35C42.4543 38.59 42.2577 38.96 42.2577 39.46C42.2577 39.8 42.401 40.07 42.6877 40.27C42.9743 40.4633 43.4043 40.6233 43.9777 40.75L45.9377 41.24C46.4443 41.3733 46.861 41.55 47.1877 41.77C47.5143 41.9833 47.771 42.22 47.9577 42.48C48.1443 42.74 48.2743 43.01 48.3477 43.29C48.4277 43.57 48.4677 43.8333 48.4677 44.08C48.4677 44.7333 48.301 45.2933 47.9677 45.76C47.641 46.22 47.171 46.5767 46.5577 46.83C45.951 47.0767 45.2277 47.2 44.3877 47.2ZM56.3877 38.2H54.0677L54.0777 44.37C54.0777 44.71 54.111 44.96 54.1777 45.12C54.251 45.2733 54.371 45.3733 54.5377 45.42C54.711 45.46 54.9443 45.48 55.2377 45.48H56.4477V46.87C56.3143 46.9233 56.1143 46.97 55.8477 47.01C55.5877 47.05 55.251 47.07 54.8377 47.07C54.071 47.07 53.4743 46.9667 53.0477 46.76C52.6277 46.5533 52.3343 46.2567 52.1677 45.87C52.0077 45.4767 51.9277 45.0033 51.9277 44.45V38.2H50.2477V36.66H51.9877L52.5177 33.62H54.0677V36.65H56.3877V38.2ZM62.9883 47.2C62.0216 47.2 61.1749 46.9933 60.4483 46.58C59.7283 46.16 59.1683 45.5533 58.7683 44.76C58.3749 43.9667 58.1783 43.0067 58.1783 41.88C58.1783 40.7933 58.3649 39.8433 58.7383 39.03C59.1183 38.2167 59.6683 37.5867 60.3883 37.14C61.1083 36.6867 61.9783 36.46 62.9983 36.46C63.9716 36.46 64.8149 36.6733 65.5283 37.1C66.2416 37.52 66.7949 38.1367 67.1883 38.95C67.5816 39.7567 67.7783 40.7333 67.7783 41.88C67.7783 42.9267 67.5916 43.85 67.2183 44.65C66.8516 45.45 66.3116 46.0767 65.5983 46.53C64.8916 46.9767 64.0216 47.2 62.9883 47.2ZM62.9983 45.55C63.5849 45.55 64.0749 45.3967 64.4683 45.09C64.8683 44.7767 65.1683 44.34 65.3683 43.78C65.5683 43.2133 65.6683 42.56 65.6683 41.82C65.6683 41.1333 65.5783 40.51 65.3983 39.95C65.2249 39.3833 64.9416 38.9333 64.5483 38.6C64.1549 38.2667 63.6383 38.1 62.9983 38.1C62.3983 38.1 61.8983 38.2533 61.4983 38.56C61.0983 38.86 60.7949 39.29 60.5883 39.85C60.3883 40.4033 60.2883 41.06 60.2883 41.82C60.2883 42.4933 60.3783 43.1133 60.5583 43.68C60.7383 44.2467 61.0283 44.7 61.4283 45.04C61.8283 45.38 62.3516 45.55 62.9983 45.55ZM70.2273 47V36.66H72.2773V38.78C72.4507 38.2733 72.6907 37.85 72.9973 37.51C73.3107 37.1633 73.674 36.9033 74.0873 36.73C74.5007 36.55 74.9373 36.46 75.3973 36.46C75.5373 36.46 75.6707 36.47 75.7973 36.49C75.924 36.5033 76.024 36.53 76.0973 36.57V38.63C76.0107 38.59 75.8973 38.5633 75.7573 38.55C75.624 38.5367 75.5073 38.5267 75.4073 38.52C74.954 38.4867 74.5407 38.51 74.1673 38.59C73.794 38.67 73.4707 38.8033 73.1973 38.99C72.9307 39.1767 72.724 39.42 72.5773 39.72C72.4373 40.02 72.3673 40.3733 72.3673 40.78V47H70.2273ZM83.2706 32.54C83.324 32.54 83.4806 32.5433 83.7406 32.55C84.0073 32.55 84.3273 32.55 84.7006 32.55C85.074 32.5433 85.454 32.5433 85.8406 32.55C86.234 32.55 86.584 32.5533 86.8906 32.56C88.6573 32.5867 90.094 32.88 91.2006 33.44C92.3073 34 93.1173 34.8067 93.6306 35.86C94.1506 36.9067 94.4106 38.1833 94.4106 39.69C94.4106 41.2567 94.134 42.5867 93.5806 43.68C93.0273 44.7667 92.1806 45.5933 91.0406 46.16C89.9073 46.72 88.4706 47 86.7306 47H83.2706V32.54ZM85.4506 34.34V45.2H86.7506C87.844 45.2 88.794 45.0233 89.6006 44.67C90.414 44.31 91.044 43.73 91.4906 42.93C91.9373 42.1233 92.1606 41.0467 92.1606 39.7C92.1606 38.38 91.9473 37.33 91.5206 36.55C91.094 35.7633 90.4806 35.2 89.6806 34.86C88.8873 34.5133 87.9306 34.34 86.8106 34.34H85.4506ZM99.3045 36.66V47H97.2445V36.66H99.3045ZM99.3445 32.55V34.66H97.1945V32.55H99.3445ZM106.317 47.2C105.597 47.2 104.92 47.0867 104.287 46.86C103.66 46.6333 103.133 46.2767 102.707 45.79C102.287 45.3033 102.023 44.68 101.917 43.92H103.827C103.913 44.3133 104.077 44.64 104.317 44.9C104.563 45.1533 104.857 45.3433 105.197 45.47C105.543 45.59 105.913 45.65 106.307 45.65C106.96 45.65 107.487 45.5333 107.887 45.3C108.293 45.06 108.497 44.6933 108.497 44.2C108.497 43.8467 108.387 43.5633 108.167 43.35C107.953 43.1367 107.613 42.98 107.147 42.88L105.087 42.39C104.233 42.19 103.55 41.8733 103.037 41.44C102.523 41 102.263 40.3867 102.257 39.6C102.257 38.9933 102.407 38.4533 102.707 37.98C103.013 37.5067 103.467 37.1367 104.067 36.87C104.667 36.5967 105.413 36.46 106.307 36.46C107.473 36.46 108.41 36.72 109.117 37.24C109.823 37.76 110.19 38.5133 110.217 39.5H108.367C108.3 39.0267 108.083 38.6567 107.717 38.39C107.357 38.1167 106.88 37.98 106.287 37.98C105.673 37.98 105.17 38.1033 104.777 38.35C104.383 38.59 104.187 38.96 104.187 39.46C104.187 39.8 104.33 40.07 104.617 40.27C104.903 40.4633 105.333 40.6233 105.907 40.75L107.867 41.24C108.373 41.3733 108.79 41.55 109.117 41.77C109.443 41.9833 109.7 42.22 109.887 42.48C110.073 42.74 110.203 43.01 110.277 43.29C110.357 43.57 110.397 43.8333 110.397 44.08C110.397 44.7333 110.23 45.2933 109.897 45.76C109.57 46.22 109.1 46.5767 108.487 46.83C107.88 47.0767 107.157 47.2 106.317 47.2ZM118.317 38.2H115.997L116.007 44.37C116.007 44.71 116.04 44.96 116.107 45.12C116.18 45.2733 116.3 45.3733 116.467 45.42C116.64 45.46 116.873 45.48 117.167 45.48H118.377V46.87C118.243 46.9233 118.043 46.97 117.777 47.01C117.517 47.05 117.18 47.07 116.767 47.07C116 47.07 115.403 46.9667 114.977 46.76C114.557 46.5533 114.263 46.2567 114.097 45.87C113.937 45.4767 113.857 45.0033 113.857 44.45V38.2H112.177V36.66H113.917L114.447 33.62H115.997V36.65H118.317V38.2ZM120.991 47V36.66H123.041V38.78C123.214 38.2733 123.454 37.85 123.761 37.51C124.074 37.1633 124.437 36.9033 124.851 36.73C125.264 36.55 125.701 36.46 126.161 36.46C126.301 36.46 126.434 36.47 126.561 36.49C126.687 36.5033 126.787 36.53 126.861 36.57V38.63C126.774 38.59 126.661 38.5633 126.521 38.55C126.387 38.5367 126.271 38.5267 126.171 38.52C125.717 38.4867 125.304 38.51 124.931 38.59C124.557 38.67 124.234 38.8033 123.961 38.99C123.694 39.1767 123.487 39.42 123.341 39.72C123.201 40.02 123.131 40.3733 123.131 40.78V47H120.991ZM131.252 36.66V47H129.192V36.66H131.252ZM131.292 32.55V34.66H129.142V32.55H131.292ZM139.881 47.2C139.301 47.2 138.808 47.1233 138.401 46.97C137.995 46.8167 137.658 46.62 137.391 46.38C137.131 46.14 136.925 45.8867 136.771 45.62C136.625 45.3533 136.511 45.1067 136.431 44.88L136.201 47H134.591V32.14H136.751V38.23C136.845 38.05 136.981 37.8567 137.161 37.65C137.348 37.4433 137.578 37.25 137.851 37.07C138.131 36.89 138.455 36.7433 138.821 36.63C139.188 36.5167 139.601 36.46 140.061 36.46C141.348 36.46 142.368 36.9133 143.121 37.82C143.881 38.7267 144.261 40.0467 144.261 41.78C144.261 42.8733 144.098 43.8267 143.771 44.64C143.445 45.4467 142.955 46.0767 142.301 46.53C141.655 46.9767 140.848 47.2 139.881 47.2ZM139.461 45.59C140.248 45.59 140.888 45.2833 141.381 44.67C141.881 44.0567 142.131 43.07 142.131 41.71C142.131 40.5367 141.898 39.64 141.431 39.02C140.971 38.4 140.305 38.09 139.431 38.09C138.805 38.09 138.295 38.23 137.901 38.51C137.508 38.7833 137.218 39.19 137.031 39.73C136.851 40.27 136.758 40.93 136.751 41.71C136.751 43.09 136.965 44.0833 137.391 44.69C137.818 45.29 138.508 45.59 139.461 45.59ZM150.338 47.2C149.818 47.1933 149.322 47.1167 148.848 46.97C148.375 46.8233 147.952 46.6033 147.578 46.31C147.212 46.0167 146.918 45.6533 146.698 45.22C146.485 44.7867 146.378 44.2833 146.378 43.71V36.66H148.528V43.48C148.528 44.1 148.722 44.6033 149.108 44.99C149.495 45.3767 150.078 45.57 150.858 45.57C151.565 45.57 152.132 45.3867 152.558 45.02C152.985 44.6467 153.198 44.1033 153.198 43.39V36.66H155.328V47H153.668L153.428 45C153.308 45.54 153.092 45.9733 152.778 46.3C152.472 46.62 152.105 46.8533 151.678 47C151.258 47.14 150.812 47.2067 150.338 47.2ZM163.871 38.2H161.551L161.561 44.37C161.561 44.71 161.595 44.96 161.661 45.12C161.735 45.2733 161.855 45.3733 162.021 45.42C162.195 45.46 162.428 45.48 162.721 45.48H163.931V46.87C163.798 46.9233 163.598 46.97 163.331 47.01C163.071 47.05 162.735 47.07 162.321 47.07C161.555 47.07 160.958 46.9667 160.531 46.76C160.111 46.5533 159.818 46.2567 159.651 45.87C159.491 45.4767 159.411 45.0033 159.411 44.45V38.2H157.731V36.66H159.471L160.001 33.62H161.551V36.65H163.871V38.2ZM168.805 36.66V47H166.745V36.66H168.805ZM168.845 32.55V34.66H166.695V32.55H168.845ZM176.227 47.2C175.261 47.2 174.414 46.9933 173.687 46.58C172.967 46.16 172.407 45.5533 172.007 44.76C171.614 43.9667 171.417 43.0067 171.417 41.88C171.417 40.7933 171.604 39.8433 171.977 39.03C172.357 38.2167 172.907 37.5867 173.627 37.14C174.347 36.6867 175.217 36.46 176.237 36.46C177.211 36.46 178.054 36.6733 178.767 37.1C179.481 37.52 180.034 38.1367 180.427 38.95C180.821 39.7567 181.017 40.7333 181.017 41.88C181.017 42.9267 180.831 43.85 180.457 44.65C180.091 45.45 179.551 46.0767 178.837 46.53C178.131 46.9767 177.261 47.2 176.227 47.2ZM176.237 45.55C176.824 45.55 177.314 45.3967 177.707 45.09C178.107 44.7767 178.407 44.34 178.607 43.78C178.807 43.2133 178.907 42.56 178.907 41.82C178.907 41.1333 178.817 40.51 178.637 39.95C178.464 39.3833 178.181 38.9333 177.787 38.6C177.394 38.2667 176.877 38.1 176.237 38.1C175.637 38.1 175.137 38.2533 174.737 38.56C174.337 38.86 174.034 39.29 173.827 39.85C173.627 40.4033 173.527 41.06 173.527 41.82C173.527 42.4933 173.617 43.1133 173.797 43.68C173.977 44.2467 174.267 44.7 174.667 45.04C175.067 45.38 175.591 45.55 176.237 45.55ZM183.466 47V36.66H185.556V38.15C185.723 37.87 185.946 37.6067 186.226 37.36C186.513 37.1133 186.863 36.9133 187.276 36.76C187.696 36.6067 188.18 36.53 188.726 36.53C189.373 36.53 189.97 36.66 190.516 36.92C191.07 37.1733 191.513 37.5733 191.846 38.12C192.18 38.66 192.346 39.36 192.346 40.22V47H190.206V40.45C190.206 39.71 190.006 39.16 189.606 38.8C189.213 38.44 188.703 38.26 188.076 38.26C187.656 38.26 187.256 38.33 186.876 38.47C186.496 38.61 186.19 38.8233 185.956 39.11C185.723 39.39 185.606 39.7433 185.606 40.17V47H183.466Z" fill="#212121"/>
<path d="M280.001 38.3333C279.084 38.3333 278.334 39.0833 278.334 39.9999C278.334 40.9166 279.084 41.6666 280.001 41.6666C280.917 41.6666 281.667 40.9166 281.667 39.9999C281.667 39.0833 280.917 38.3333 280.001 38.3333ZM290.001 38.3333C289.084 38.3333 288.334 39.0833 288.334 39.9999C288.334 40.9166 289.084 41.6666 290.001 41.6666C290.917 41.6666 291.667 40.9166 291.667 39.9999C291.667 39.0833 290.917 38.3333 290.001 38.3333ZM285.001 38.3333C284.084 38.3333 283.334 39.0833 283.334 39.9999C283.334 40.9166 284.084 41.6666 285.001 41.6666C285.917 41.6666 286.667 40.9166 286.667 39.9999C286.667 39.0833 285.917 38.3333 285.001 38.3333Z" fill="#B5B5C3"/>
<g filter="url(#filter0_d_15_13993)">
<path d="M123.971 160.745C124.381 148.516 120.467 136.535 112.915 126.908C105.364 117.28 94.6601 110.624 82.6859 108.11L79.2626 124.413C87.4007 126.122 94.6757 130.646 99.8078 137.189C104.94 143.732 107.6 151.875 107.321 160.186L123.971 160.745Z" fill="#42A5F5"/>
</g>
<g filter="url(#filter1_d_15_13993)">
<path d="M80.5663 107.71C68.89 105.76 56.8978 107.853 46.5717 113.641C36.2456 119.43 28.2038 128.569 23.7754 139.548L39.2266 145.78C42.2361 138.319 47.7013 132.108 54.7189 128.174C61.7365 124.24 69.8865 122.818 77.8217 124.144L80.5663 107.71Z" fill="#4AB58E"/>
</g>
<g filter="url(#filter2_d_15_13993)">
<path d="M23.0387 141.484C19.4597 151.489 19.0313 162.349 21.8112 172.605C24.5911 182.86 30.4458 192.017 38.5873 198.845L49.2927 186.078C43.7597 181.439 39.7809 175.215 37.8917 168.246C36.0025 161.276 36.2936 153.895 38.7259 147.096L23.0387 141.484Z" fill="#5F5CF1"/>
</g>
<g filter="url(#filter3_d_15_13993)">
<path d="M40.1239 200.084C46.1802 204.783 53.2005 208.085 60.6821 209.753C68.1638 211.422 75.9218 211.415 83.4007 209.735L79.7479 193.479C74.6652 194.622 69.3929 194.626 64.3084 193.492C59.2239 192.358 54.4529 190.114 50.337 186.921L40.1239 200.084Z" fill="#FCC419"/>
</g>
<g filter="url(#filter4_d_15_13993)">
<path d="M85.6883 209.166C96.0217 206.346 105.232 200.405 112.061 192.153C118.89 183.901 123.004 173.742 123.841 163.063L107.231 161.761C106.662 169.018 103.866 175.923 99.2255 181.531C94.5846 187.139 88.3251 191.177 81.3026 193.093L85.6883 209.166Z" fill="#723F65"/>
</g>
<rect x="145" y="85" width="8" height="8" rx="2" fill="#3699FF"/>
<path d="M172.337 83.378H173.632V93.5H172.337V83.378ZM176.206 93.5V86.262H177.459V87.312C177.576 87.1113 177.737 86.9223 177.942 86.745C178.152 86.5677 178.404 86.4253 178.698 86.318C178.997 86.2107 179.34 86.157 179.727 86.157C180.184 86.157 180.604 86.248 180.987 86.43C181.374 86.612 181.682 86.8967 181.911 87.284C182.144 87.6667 182.261 88.1613 182.261 88.768V93.5H180.966V88.894C180.966 88.3293 180.817 87.9117 180.518 87.641C180.224 87.3657 179.841 87.228 179.37 87.228C179.043 87.228 178.738 87.2817 178.453 87.389C178.168 87.4917 177.937 87.6503 177.76 87.865C177.583 88.075 177.494 88.341 177.494 88.663V93.5H176.206ZM187.067 93.64C186.129 93.64 185.385 93.318 184.834 92.674C184.283 92.03 184.008 91.0897 184.008 89.853C184.008 89.1017 184.118 88.446 184.337 87.886C184.561 87.326 184.892 86.892 185.331 86.584C185.77 86.276 186.316 86.122 186.969 86.122C187.314 86.122 187.62 86.1663 187.886 86.255C188.157 86.3437 188.39 86.4557 188.586 86.591C188.782 86.7263 188.941 86.8663 189.062 87.011C189.188 87.1557 189.281 87.2887 189.342 87.41V83.098H190.644V93.5H189.657L189.517 92.016C189.47 92.156 189.396 92.3193 189.293 92.506C189.19 92.688 189.046 92.8677 188.859 93.045C188.672 93.2177 188.432 93.36 188.138 93.472C187.849 93.584 187.492 93.64 187.067 93.64ZM187.298 92.646C188.031 92.646 188.553 92.4243 188.866 91.981C189.183 91.533 189.342 90.8027 189.342 89.79C189.337 89.2253 189.265 88.7447 189.125 88.348C188.99 87.9513 188.775 87.6503 188.481 87.445C188.192 87.235 187.807 87.13 187.326 87.13C186.729 87.13 186.243 87.3423 185.87 87.767C185.497 88.1917 185.31 88.866 185.31 89.79C185.31 90.6953 185.478 91.3977 185.814 91.897C186.155 92.3963 186.649 92.646 187.298 92.646ZM194.434 86.262V93.5H193.181V86.262H194.434ZM194.462 83.385V84.729H193.139V83.385H194.462ZM198.884 93.64C198.417 93.64 198.004 93.5583 197.645 93.395C197.286 93.227 197.003 92.9867 196.798 92.674C196.597 92.3613 196.497 91.9833 196.497 91.54C196.497 90.7373 196.777 90.14 197.337 89.748C197.897 89.356 198.795 89.146 200.032 89.118L201.327 89.083V88.516C201.327 88.0727 201.194 87.7227 200.928 87.466C200.662 87.2047 200.249 87.074 199.689 87.074C199.274 87.0787 198.907 87.1767 198.59 87.368C198.277 87.5593 198.074 87.872 197.981 88.306H196.84C196.868 87.8347 197.001 87.438 197.239 87.116C197.477 86.7893 197.808 86.542 198.233 86.374C198.662 86.206 199.169 86.122 199.752 86.122C200.382 86.122 200.905 86.2107 201.32 86.388C201.74 86.5653 202.053 86.8267 202.258 87.172C202.468 87.5173 202.573 87.942 202.573 88.446V93.5H201.467L201.376 92.142C201.096 92.7067 200.739 93.0987 200.305 93.318C199.876 93.5327 199.402 93.64 198.884 93.64ZM199.276 92.709C199.519 92.709 199.759 92.6647 199.997 92.576C200.24 92.4873 200.461 92.3683 200.662 92.219C200.863 92.065 201.021 91.8947 201.138 91.708C201.259 91.5167 201.322 91.3207 201.327 91.12V89.881L200.249 89.902C199.698 89.9113 199.236 89.9673 198.863 90.07C198.494 90.1727 198.217 90.3337 198.03 90.553C197.848 90.7723 197.757 91.0593 197.757 91.414C197.757 91.82 197.897 92.1373 198.177 92.366C198.462 92.5947 198.828 92.709 199.276 92.709ZM208.148 93.5V92.709V92.296C208.148 91.778 208.243 91.33 208.435 90.952C208.631 90.574 208.887 90.245 209.205 89.965C209.527 89.6803 209.877 89.426 210.255 89.202C210.637 88.978 211.018 88.7633 211.396 88.558C211.778 88.348 212.128 88.131 212.446 87.907C212.763 87.6783 213.017 87.4217 213.209 87.137C213.405 86.8477 213.503 86.507 213.503 86.115C213.503 85.6017 213.321 85.184 212.957 84.862C212.597 84.54 212.11 84.379 211.494 84.379C210.831 84.379 210.299 84.5657 209.898 84.939C209.496 85.3123 209.27 85.8093 209.219 86.43H207.931C207.945 85.8467 208.089 85.3147 208.365 84.834C208.64 84.3487 209.044 83.9613 209.576 83.672C210.108 83.3827 210.763 83.238 211.543 83.238C212.219 83.238 212.807 83.3593 213.307 83.602C213.806 83.84 214.191 84.176 214.462 84.61C214.737 85.0393 214.875 85.541 214.875 86.115C214.875 86.6377 214.779 87.0857 214.588 87.459C214.396 87.8323 214.142 88.1567 213.825 88.432C213.512 88.7027 213.169 88.9453 212.796 89.16C212.422 89.3747 212.047 89.5823 211.669 89.783C211.291 89.979 210.945 90.1867 210.633 90.406C210.32 90.6207 210.068 90.868 209.877 91.148C209.685 91.428 209.59 91.7617 209.59 92.149V92.352H214.931V93.5H208.148ZM220.319 83.238C220.967 83.238 221.548 83.3453 222.062 83.56C222.575 83.7747 222.981 84.0873 223.28 84.498C223.578 84.9087 223.728 85.408 223.728 85.996C223.728 86.5467 223.578 87.0087 223.28 87.382C222.986 87.7553 222.605 88.04 222.139 88.236C222.479 88.3013 222.804 88.46 223.112 88.712C223.424 88.964 223.681 89.2697 223.882 89.629C224.082 89.9883 224.183 90.364 224.183 90.756C224.183 91.3393 224.022 91.848 223.7 92.282C223.382 92.716 222.934 93.0543 222.356 93.297C221.777 93.535 221.098 93.654 220.319 93.654C219.544 93.654 218.867 93.535 218.289 93.297C217.71 93.0543 217.26 92.716 216.938 92.282C216.62 91.848 216.462 91.3393 216.462 90.756C216.462 90.364 216.56 89.9883 216.756 89.629C216.956 89.2697 217.213 88.964 217.526 88.712C217.838 88.46 218.165 88.3013 218.506 88.236C218.044 88.04 217.661 87.7553 217.358 87.382C217.059 87.0087 216.91 86.5467 216.91 85.996C216.91 85.408 217.059 84.9087 217.358 84.498C217.656 84.0873 218.062 83.7747 218.576 83.56C219.094 83.3453 219.675 83.238 220.319 83.238ZM220.319 87.69C220.935 87.69 221.434 87.5383 221.817 87.235C222.204 86.9317 222.398 86.5093 222.398 85.968C222.398 85.422 222.204 84.9927 221.817 84.68C221.429 84.3627 220.93 84.204 220.319 84.204C219.707 84.204 219.208 84.3627 218.821 84.68C218.433 84.9973 218.24 85.4267 218.24 85.968C218.24 86.5093 218.433 86.9317 218.821 87.235C219.208 87.5383 219.707 87.69 220.319 87.69ZM220.319 92.604C221.07 92.604 221.67 92.436 222.118 92.1C222.566 91.7593 222.79 91.309 222.79 90.749C222.79 90.3803 222.687 90.0513 222.482 89.762C222.281 89.4727 221.996 89.2463 221.628 89.083C221.259 88.915 220.823 88.831 220.319 88.831C219.819 88.831 219.385 88.915 219.017 89.083C218.653 89.2463 218.368 89.4727 218.163 89.762C217.962 90.0513 217.862 90.3803 217.862 90.749C217.862 91.309 218.083 91.7593 218.527 92.1C218.975 92.436 219.572 92.604 220.319 92.604ZM228.174 83.224C228.627 83.224 229.033 83.343 229.392 83.581C229.751 83.819 230.034 84.155 230.239 84.589C230.444 85.023 230.547 85.534 230.547 86.122C230.547 86.71 230.444 87.2187 230.239 87.648C230.038 88.0773 229.758 88.411 229.399 88.649C229.04 88.8823 228.631 88.999 228.174 88.999C227.712 88.999 227.299 88.8823 226.935 88.649C226.576 88.411 226.291 88.0773 226.081 87.648C225.871 87.2187 225.766 86.71 225.766 86.122C225.766 85.534 225.871 85.023 226.081 84.589C226.291 84.155 226.576 83.819 226.935 83.581C227.299 83.343 227.712 83.224 228.174 83.224ZM228.16 88.278C228.608 88.278 228.951 88.0797 229.189 87.683C229.432 87.2863 229.553 86.766 229.553 86.122C229.553 85.4687 229.432 84.9437 229.189 84.547C228.946 84.1457 228.603 83.945 228.16 83.945C227.861 83.945 227.607 84.0383 227.397 84.225C227.192 84.407 227.033 84.6613 226.921 84.988C226.814 85.3147 226.76 85.6927 226.76 86.122C226.76 86.7613 226.881 87.2817 227.124 87.683C227.367 88.0797 227.712 88.278 228.16 88.278ZM234.509 87.851C234.966 87.851 235.375 87.9723 235.734 88.215C236.093 88.453 236.376 88.789 236.581 89.223C236.786 89.657 236.889 90.1657 236.889 90.749C236.889 91.337 236.786 91.848 236.581 92.282C236.38 92.716 236.1 93.052 235.741 93.29C235.382 93.5233 234.971 93.64 234.509 93.64C234.047 93.64 233.634 93.5233 233.27 93.29C232.906 93.052 232.621 92.716 232.416 92.282C232.211 91.848 232.108 91.337 232.108 90.749C232.108 90.1657 232.211 89.657 232.416 89.223C232.626 88.789 232.913 88.453 233.277 88.215C233.641 87.9723 234.052 87.851 234.509 87.851ZM234.495 92.905C234.784 92.905 235.034 92.814 235.244 92.632C235.454 92.4453 235.615 92.191 235.727 91.869C235.839 91.547 235.895 91.1783 235.895 90.763C235.895 90.3383 235.837 89.9627 235.72 89.636C235.608 89.3047 235.447 89.0457 235.237 88.859C235.027 88.6723 234.78 88.579 234.495 88.579C234.21 88.579 233.963 88.6747 233.753 88.866C233.543 89.0527 233.382 89.3117 233.27 89.643C233.158 89.9697 233.102 90.343 233.102 90.763C233.102 91.1783 233.158 91.547 233.27 91.869C233.382 92.191 233.541 92.4453 233.746 92.632C233.956 92.814 234.206 92.905 234.495 92.905ZM235.09 83.266L228.286 93.556L227.411 93.549L234.243 83.266H235.09Z" fill="#212121"/>
<rect x="145" y="120" width="8" height="8" rx="2" fill="#723F65"/>
<path d="M171.581 128.5L175.242 118.378H176.705L180.366 128.5H179.043L178.049 125.728H173.912L172.897 128.5H171.581ZM174.241 124.538H177.706L175.984 119.659L174.241 124.538ZM184.717 128.64C184.339 128.635 183.982 128.582 183.646 128.479C183.315 128.372 183.021 128.215 182.764 128.01C182.508 127.805 182.305 127.55 182.155 127.247C182.011 126.939 181.938 126.582 181.938 126.176V121.262H183.233V126.043C183.233 126.514 183.378 126.897 183.667 127.191C183.961 127.485 184.402 127.632 184.99 127.632C185.522 127.632 185.949 127.494 186.271 127.219C186.598 126.939 186.761 126.524 186.761 125.973V121.262H188.049V128.5H187.02L186.887 127.114C186.799 127.478 186.647 127.772 186.432 127.996C186.222 128.22 185.968 128.386 185.669 128.493C185.375 128.596 185.058 128.645 184.717 128.64ZM192.808 128.64C192.304 128.64 191.835 128.563 191.401 128.409C190.972 128.25 190.615 128.005 190.33 127.674C190.045 127.338 189.866 126.911 189.791 126.393H190.967C191.032 126.678 191.149 126.916 191.317 127.107C191.49 127.294 191.704 127.436 191.961 127.534C192.218 127.627 192.498 127.674 192.801 127.674C193.286 127.674 193.678 127.583 193.977 127.401C194.276 127.219 194.425 126.939 194.425 126.561C194.425 126.295 194.346 126.083 194.187 125.924C194.033 125.761 193.793 125.642 193.466 125.567L191.968 125.196C191.385 125.056 190.918 124.837 190.568 124.538C190.218 124.239 190.043 123.822 190.043 123.285C190.038 122.86 190.139 122.487 190.344 122.165C190.549 121.843 190.857 121.589 191.268 121.402C191.679 121.215 192.19 121.122 192.801 121.122C193.585 121.122 194.217 121.299 194.698 121.654C195.183 122.004 195.435 122.52 195.454 123.201H194.313C194.266 122.856 194.11 122.583 193.844 122.382C193.583 122.177 193.23 122.074 192.787 122.074C192.325 122.074 191.949 122.167 191.66 122.354C191.371 122.536 191.226 122.821 191.226 123.208C191.226 123.465 191.329 123.668 191.534 123.817C191.739 123.962 192.043 124.083 192.444 124.181L193.893 124.545C194.229 124.634 194.504 124.75 194.719 124.895C194.938 125.04 195.111 125.201 195.237 125.378C195.368 125.555 195.459 125.742 195.51 125.938C195.566 126.129 195.594 126.314 195.594 126.491C195.594 126.934 195.482 127.317 195.258 127.639C195.039 127.956 194.721 128.204 194.306 128.381C193.895 128.554 193.396 128.64 192.808 128.64ZM201.086 122.207H199.455V126.708C199.455 126.965 199.481 127.154 199.532 127.275C199.588 127.392 199.679 127.466 199.805 127.499C199.936 127.532 200.113 127.548 200.337 127.548H201.128V128.416C201.04 128.449 200.904 128.477 200.722 128.5C200.545 128.523 200.323 128.535 200.057 128.535C199.558 128.535 199.171 128.467 198.895 128.332C198.62 128.197 198.426 127.996 198.314 127.73C198.207 127.464 198.153 127.137 198.153 126.75V122.207H196.977V121.262H198.188L198.503 119.155H199.455V121.255H201.086V122.207ZM203.116 128.5V121.262H204.348V122.655C204.47 122.31 204.64 122.025 204.859 121.801C205.079 121.572 205.328 121.402 205.608 121.29C205.893 121.178 206.187 121.122 206.49 121.122C206.598 121.122 206.703 121.129 206.805 121.143C206.908 121.157 206.987 121.18 207.043 121.213V122.466C206.973 122.433 206.882 122.412 206.77 122.403C206.663 122.389 206.572 122.382 206.497 122.382C206.208 122.363 205.937 122.382 205.685 122.438C205.433 122.489 205.212 122.58 205.02 122.711C204.829 122.842 204.677 123.014 204.565 123.229C204.458 123.439 204.404 123.696 204.404 123.999V128.5H203.116ZM210.538 128.64C210.072 128.64 209.659 128.558 209.299 128.395C208.94 128.227 208.658 127.987 208.452 127.674C208.252 127.361 208.151 126.983 208.151 126.54C208.151 125.737 208.431 125.14 208.991 124.748C209.551 124.356 210.45 124.146 211.686 124.118L212.981 124.083V123.516C212.981 123.073 212.848 122.723 212.582 122.466C212.316 122.205 211.903 122.074 211.343 122.074C210.928 122.079 210.562 122.177 210.244 122.368C209.932 122.559 209.729 122.872 209.635 123.306H208.494C208.522 122.835 208.655 122.438 208.893 122.116C209.131 121.789 209.463 121.542 209.887 121.374C210.317 121.206 210.823 121.122 211.406 121.122C212.036 121.122 212.559 121.211 212.974 121.388C213.394 121.565 213.707 121.827 213.912 122.172C214.122 122.517 214.227 122.942 214.227 123.446V128.5H213.121L213.03 127.142C212.75 127.707 212.393 128.099 211.959 128.318C211.53 128.533 211.056 128.64 210.538 128.64ZM210.93 127.709C211.173 127.709 211.413 127.665 211.651 127.576C211.894 127.487 212.116 127.368 212.316 127.219C212.517 127.065 212.676 126.895 212.792 126.708C212.914 126.517 212.977 126.321 212.981 126.12V124.881L211.903 124.902C211.353 124.911 210.891 124.967 210.517 125.07C210.149 125.173 209.871 125.334 209.684 125.553C209.502 125.772 209.411 126.059 209.411 126.414C209.411 126.82 209.551 127.137 209.831 127.366C210.116 127.595 210.482 127.709 210.93 127.709ZM218.436 128.591C218.044 128.591 217.726 128.537 217.484 128.43C217.246 128.323 217.061 128.178 216.931 127.996C216.805 127.814 216.718 127.606 216.672 127.373C216.63 127.135 216.609 126.89 216.609 126.638V118.098H217.883V126.512C217.883 126.876 217.953 127.149 218.093 127.331C218.237 127.513 218.438 127.613 218.695 127.632L219.087 127.639V128.479C218.979 128.512 218.867 128.537 218.751 128.556C218.634 128.579 218.529 128.591 218.436 128.591ZM222.321 121.262V128.5H221.068V121.262H222.321ZM222.349 118.385V119.729H221.026V118.385H222.349ZM226.771 128.64C226.304 128.64 225.891 128.558 225.532 128.395C225.173 128.227 224.89 127.987 224.685 127.674C224.484 127.361 224.384 126.983 224.384 126.54C224.384 125.737 224.664 125.14 225.224 124.748C225.784 124.356 226.682 124.146 227.919 124.118L229.214 124.083V123.516C229.214 123.073 229.081 122.723 228.815 122.466C228.549 122.205 228.136 122.074 227.576 122.074C227.161 122.079 226.794 122.177 226.477 122.368C226.164 122.559 225.961 122.872 225.868 123.306H224.727C224.755 122.835 224.888 122.438 225.126 122.116C225.364 121.789 225.695 121.542 226.12 121.374C226.549 121.206 227.056 121.122 227.639 121.122C228.269 121.122 228.792 121.211 229.207 121.388C229.627 121.565 229.94 121.827 230.145 122.172C230.355 122.517 230.46 122.942 230.46 123.446V128.5H229.354L229.263 127.142C228.983 127.707 228.626 128.099 228.192 128.318C227.763 128.533 227.289 128.64 226.771 128.64ZM227.163 127.709C227.406 127.709 227.646 127.665 227.884 127.576C228.127 127.487 228.348 127.368 228.549 127.219C228.75 127.065 228.908 126.895 229.025 126.708C229.146 126.517 229.209 126.321 229.214 126.12V124.881L228.136 124.902C227.585 124.911 227.123 124.967 226.75 125.07C226.381 125.173 226.104 125.334 225.917 125.553C225.735 125.772 225.644 126.059 225.644 126.414C225.644 126.82 225.784 127.137 226.064 127.366C226.349 127.595 226.715 127.709 227.163 127.709ZM237.771 128.5V120.443H235.818V119.596C236.424 119.596 236.896 119.552 237.232 119.463C237.568 119.374 237.806 119.239 237.946 119.057C238.09 118.875 238.17 118.649 238.184 118.378H239.108V128.5H237.771ZM245.105 128.654C244.545 128.654 244.022 128.549 243.537 128.339C243.056 128.124 242.653 127.821 242.326 127.429C242.004 127.037 241.806 126.568 241.731 126.022H242.991C243.108 126.484 243.35 126.86 243.719 127.149C244.088 127.434 244.536 127.576 245.063 127.576C245.66 127.576 246.171 127.42 246.596 127.107C247.025 126.794 247.345 126.311 247.555 125.658C247.765 125.005 247.844 124.167 247.793 123.145C247.676 123.5 247.492 123.812 247.24 124.083C246.988 124.349 246.685 124.559 246.33 124.713C245.975 124.867 245.583 124.944 245.154 124.944C244.487 124.944 243.899 124.813 243.39 124.552C242.881 124.291 242.485 123.917 242.2 123.432C241.92 122.947 241.78 122.366 241.78 121.689C241.78 121.012 241.92 120.415 242.2 119.897C242.48 119.379 242.881 118.973 243.404 118.679C243.927 118.385 244.547 118.238 245.266 118.238C246.05 118.238 246.729 118.441 247.303 118.847C247.877 119.248 248.32 119.827 248.633 120.583C248.946 121.334 249.102 122.237 249.102 123.292C249.102 124.426 248.946 125.392 248.633 126.19C248.325 126.988 247.872 127.599 247.275 128.024C246.682 128.444 245.959 128.654 245.105 128.654ZM245.294 123.845C245.667 123.845 246.022 123.759 246.358 123.586C246.694 123.413 246.967 123.185 247.177 122.9C247.392 122.611 247.499 122.296 247.499 121.955C247.504 121.432 247.415 120.973 247.233 120.576C247.051 120.175 246.792 119.862 246.456 119.638C246.12 119.409 245.728 119.295 245.28 119.295C244.869 119.295 244.505 119.393 244.188 119.589C243.875 119.785 243.628 120.058 243.446 120.408C243.269 120.758 243.18 121.164 243.18 121.626C243.18 122.303 243.36 122.842 243.719 123.243C244.078 123.644 244.603 123.845 245.294 123.845ZM253.094 118.224C253.547 118.224 253.953 118.343 254.312 118.581C254.672 118.819 254.954 119.155 255.159 119.589C255.365 120.023 255.467 120.534 255.467 121.122C255.467 121.71 255.365 122.219 255.159 122.648C254.959 123.077 254.679 123.411 254.319 123.649C253.96 123.882 253.552 123.999 253.094 123.999C252.632 123.999 252.219 123.882 251.855 123.649C251.496 123.411 251.211 123.077 251.001 122.648C250.791 122.219 250.686 121.71 250.686 121.122C250.686 120.534 250.791 120.023 251.001 119.589C251.211 119.155 251.496 118.819 251.855 118.581C252.219 118.343 252.632 118.224 253.094 118.224ZM253.08 123.278C253.528 123.278 253.871 123.08 254.109 122.683C254.352 122.286 254.473 121.766 254.473 121.122C254.473 120.469 254.352 119.944 254.109 119.547C253.867 119.146 253.524 118.945 253.08 118.945C252.782 118.945 252.527 119.038 252.317 119.225C252.112 119.407 251.953 119.661 251.841 119.988C251.734 120.315 251.68 120.693 251.68 121.122C251.68 121.761 251.802 122.282 252.044 122.683C252.287 123.08 252.632 123.278 253.08 123.278ZM259.429 122.851C259.887 122.851 260.295 122.972 260.654 123.215C261.014 123.453 261.296 123.789 261.501 124.223C261.707 124.657 261.809 125.166 261.809 125.749C261.809 126.337 261.707 126.848 261.501 127.282C261.301 127.716 261.021 128.052 260.661 128.29C260.302 128.523 259.891 128.64 259.429 128.64C258.967 128.64 258.554 128.523 258.19 128.29C257.826 128.052 257.542 127.716 257.336 127.282C257.131 126.848 257.028 126.337 257.028 125.749C257.028 125.166 257.131 124.657 257.336 124.223C257.546 123.789 257.833 123.453 258.197 123.215C258.561 122.972 258.972 122.851 259.429 122.851ZM259.415 127.905C259.705 127.905 259.954 127.814 260.164 127.632C260.374 127.445 260.535 127.191 260.647 126.869C260.759 126.547 260.815 126.178 260.815 125.763C260.815 125.338 260.757 124.963 260.64 124.636C260.528 124.305 260.367 124.046 260.157 123.859C259.947 123.672 259.7 123.579 259.415 123.579C259.131 123.579 258.883 123.675 258.673 123.866C258.463 124.053 258.302 124.312 258.19 124.643C258.078 124.97 258.022 125.343 258.022 125.763C258.022 126.178 258.078 126.547 258.19 126.869C258.302 127.191 258.461 127.445 258.666 127.632C258.876 127.814 259.126 127.905 259.415 127.905ZM260.01 118.266L253.206 128.556L252.331 128.549L259.163 118.266H260.01Z" fill="#212121"/>
<rect x="145" y="155" width="8" height="8" rx="2" fill="#FFA800"/>
<path d="M172.337 163.5V153.378H175.592C176.824 153.378 177.755 153.604 178.385 154.057C179.02 154.51 179.337 155.163 179.337 156.017C179.337 156.554 179.197 157.013 178.917 157.396C178.642 157.779 178.156 158.094 177.461 158.341C177.858 158.425 178.191 158.546 178.462 158.705C178.737 158.864 178.957 159.05 179.12 159.265C179.288 159.475 179.407 159.708 179.477 159.965C179.552 160.222 179.589 160.492 179.589 160.777C179.589 161.692 179.262 162.375 178.609 162.828C177.96 163.276 176.99 163.5 175.697 163.5H172.337ZM173.632 162.422H175.683C176.528 162.422 177.169 162.284 177.608 162.009C178.051 161.729 178.273 161.3 178.273 160.721C178.273 160.296 178.163 159.953 177.944 159.692C177.729 159.426 177.438 159.232 177.069 159.111C176.7 158.99 176.29 158.929 175.837 158.929H173.632V162.422ZM173.632 157.83H175.837C176.103 157.83 176.367 157.804 176.628 157.753C176.889 157.702 177.13 157.613 177.349 157.487C177.568 157.361 177.746 157.193 177.881 156.983C178.016 156.768 178.084 156.5 178.084 156.178C178.084 155.59 177.858 155.156 177.405 154.876C176.957 154.591 176.374 154.449 175.655 154.449H173.632V157.83ZM184.565 163.64C183.898 163.64 183.315 163.498 182.815 163.213C182.316 162.924 181.929 162.501 181.653 161.946C181.378 161.391 181.24 160.712 181.24 159.909C181.24 159.153 181.369 158.49 181.625 157.921C181.882 157.352 182.258 156.911 182.752 156.598C183.252 156.281 183.856 156.122 184.565 156.122C185.233 156.122 185.811 156.269 186.301 156.563C186.796 156.852 187.179 157.279 187.449 157.844C187.72 158.409 187.855 159.097 187.855 159.909C187.855 160.646 187.729 161.295 187.477 161.855C187.23 162.415 186.861 162.854 186.371 163.171C185.886 163.484 185.284 163.64 184.565 163.64ZM184.565 162.618C184.999 162.618 185.366 162.508 185.664 162.289C185.963 162.07 186.189 161.755 186.343 161.344C186.497 160.933 186.574 160.446 186.574 159.881C186.574 159.363 186.507 158.899 186.371 158.488C186.236 158.073 186.019 157.744 185.72 157.501C185.426 157.258 185.041 157.137 184.565 157.137C184.127 157.137 183.756 157.247 183.452 157.466C183.149 157.681 182.918 157.993 182.759 158.404C182.605 158.815 182.528 159.307 182.528 159.881C182.528 160.39 182.598 160.852 182.738 161.267C182.878 161.682 183.098 162.011 183.396 162.254C183.695 162.497 184.085 162.618 184.565 162.618ZM191.547 163.591C191.155 163.591 190.837 163.537 190.595 163.43C190.357 163.323 190.172 163.178 190.042 162.996C189.916 162.814 189.829 162.606 189.783 162.373C189.741 162.135 189.72 161.89 189.72 161.638V153.098H190.994V161.512C190.994 161.876 191.064 162.149 191.204 162.331C191.348 162.513 191.549 162.613 191.806 162.632L192.198 162.639V163.479C192.09 163.512 191.978 163.537 191.862 163.556C191.745 163.579 191.64 163.591 191.547 163.591ZM195.432 156.262V163.5H194.179V156.262H195.432ZM195.46 153.385V154.729H194.137V153.385H195.46ZM203.536 156.262L200.925 163.5H199.749L197.131 156.262H198.349L200.274 161.876H200.393L202.325 156.262H203.536ZM206.491 156.262V163.5H205.238V156.262H206.491ZM206.519 153.385V154.729H205.196V153.385H206.519ZM210.941 163.64C210.474 163.64 210.061 163.558 209.702 163.395C209.342 163.227 209.06 162.987 208.855 162.674C208.654 162.361 208.554 161.983 208.554 161.54C208.554 160.737 208.834 160.14 209.394 159.748C209.954 159.356 210.852 159.146 212.089 159.118L213.384 159.083V158.516C213.384 158.073 213.251 157.723 212.985 157.466C212.719 157.205 212.306 157.074 211.746 157.074C211.33 157.079 210.964 157.177 210.647 157.368C210.334 157.559 210.131 157.872 210.038 158.306H208.897C208.925 157.835 209.058 157.438 209.296 157.116C209.534 156.789 209.865 156.542 210.29 156.374C210.719 156.206 211.225 156.122 211.809 156.122C212.439 156.122 212.961 156.211 213.377 156.388C213.797 156.565 214.109 156.827 214.315 157.172C214.525 157.517 214.63 157.942 214.63 158.446V163.5H213.524L213.433 162.142C213.153 162.707 212.796 163.099 212.362 163.318C211.932 163.533 211.459 163.64 210.941 163.64ZM211.333 162.709C211.575 162.709 211.816 162.665 212.054 162.576C212.296 162.487 212.518 162.368 212.719 162.219C212.919 162.065 213.078 161.895 213.195 161.708C213.316 161.517 213.379 161.321 213.384 161.12V159.881L212.306 159.902C211.755 159.911 211.293 159.967 210.92 160.07C210.551 160.173 210.273 160.334 210.087 160.553C209.905 160.772 209.814 161.059 209.814 161.414C209.814 161.82 209.954 162.137 210.234 162.366C210.518 162.595 210.885 162.709 211.333 162.709ZM221.941 163.5V155.443H219.988V154.596C220.594 154.596 221.066 154.552 221.402 154.463C221.738 154.374 221.976 154.239 222.116 154.057C222.26 153.875 222.34 153.649 222.354 153.378H223.278V163.5H221.941ZM227.812 163.5V155.443H225.859V154.596C226.465 154.596 226.937 154.552 227.273 154.463C227.609 154.374 227.847 154.239 227.987 154.057C228.131 153.875 228.211 153.649 228.225 153.378H229.149V163.5H227.812ZM234.229 153.224C234.682 153.224 235.088 153.343 235.447 153.581C235.806 153.819 236.089 154.155 236.294 154.589C236.499 155.023 236.602 155.534 236.602 156.122C236.602 156.71 236.499 157.219 236.294 157.648C236.093 158.077 235.813 158.411 235.454 158.649C235.095 158.882 234.686 158.999 234.229 158.999C233.767 158.999 233.354 158.882 232.99 158.649C232.631 158.411 232.346 158.077 232.136 157.648C231.926 157.219 231.821 156.71 231.821 156.122C231.821 155.534 231.926 155.023 232.136 154.589C232.346 154.155 232.631 153.819 232.99 153.581C233.354 153.343 233.767 153.224 234.229 153.224ZM234.215 158.278C234.663 158.278 235.006 158.08 235.244 157.683C235.487 157.286 235.608 156.766 235.608 156.122C235.608 155.469 235.487 154.944 235.244 154.547C235.001 154.146 234.658 153.945 234.215 153.945C233.916 153.945 233.662 154.038 233.452 154.225C233.247 154.407 233.088 154.661 232.976 154.988C232.869 155.315 232.815 155.693 232.815 156.122C232.815 156.761 232.936 157.282 233.179 157.683C233.422 158.08 233.767 158.278 234.215 158.278ZM240.564 157.851C241.021 157.851 241.43 157.972 241.789 158.215C242.148 158.453 242.431 158.789 242.636 159.223C242.841 159.657 242.944 160.166 242.944 160.749C242.944 161.337 242.841 161.848 242.636 162.282C242.435 162.716 242.155 163.052 241.796 163.29C241.437 163.523 241.026 163.64 240.564 163.64C240.102 163.64 239.689 163.523 239.325 163.29C238.961 163.052 238.676 162.716 238.471 162.282C238.266 161.848 238.163 161.337 238.163 160.749C238.163 160.166 238.266 159.657 238.471 159.223C238.681 158.789 238.968 158.453 239.332 158.215C239.696 157.972 240.107 157.851 240.564 157.851ZM240.55 162.905C240.839 162.905 241.089 162.814 241.299 162.632C241.509 162.445 241.67 162.191 241.782 161.869C241.894 161.547 241.95 161.178 241.95 160.763C241.95 160.338 241.892 159.963 241.775 159.636C241.663 159.305 241.502 159.046 241.292 158.859C241.082 158.672 240.835 158.579 240.55 158.579C240.265 158.579 240.018 158.675 239.808 158.866C239.598 159.053 239.437 159.312 239.325 159.643C239.213 159.97 239.157 160.343 239.157 160.763C239.157 161.178 239.213 161.547 239.325 161.869C239.437 162.191 239.596 162.445 239.801 162.632C240.011 162.814 240.261 162.905 240.55 162.905ZM241.145 153.266L234.341 163.556L233.466 163.549L240.298 153.266H241.145Z" fill="#212121"/>
<rect x="145" y="190" width="8" height="8" rx="2" fill="#8381F0"/>
<path d="M176.054 198.64C175.167 198.64 174.402 198.437 173.758 198.031C173.114 197.62 172.619 197.03 172.274 196.26C171.929 195.49 171.756 194.559 171.756 193.467C171.756 192.366 171.931 191.425 172.281 190.646C172.636 189.867 173.14 189.272 173.793 188.861C174.446 188.446 175.219 188.238 176.11 188.238C176.619 188.238 177.097 188.327 177.545 188.504C177.993 188.681 178.39 188.924 178.735 189.232C179.08 189.535 179.356 189.883 179.561 190.275C179.771 190.667 179.89 191.075 179.918 191.5H178.532C178.467 191.127 178.322 190.779 178.098 190.457C177.874 190.135 177.589 189.876 177.244 189.68C176.903 189.484 176.518 189.386 176.089 189.386C175.506 189.386 174.992 189.531 174.549 189.82C174.11 190.105 173.767 190.546 173.52 191.143C173.277 191.74 173.156 192.506 173.156 193.439C173.156 194.158 173.231 194.774 173.38 195.287C173.529 195.8 173.737 196.218 174.003 196.54C174.274 196.857 174.589 197.093 174.948 197.247C175.312 197.396 175.704 197.471 176.124 197.471C176.549 197.471 176.917 197.396 177.23 197.247C177.547 197.098 177.811 196.906 178.021 196.673C178.231 196.435 178.392 196.181 178.504 195.91C178.621 195.635 178.684 195.371 178.693 195.119L178.735 194.223H176.271V193.271L180.079 193.278V198.5H179.106V196.96C178.929 197.249 178.705 197.522 178.434 197.779C178.163 198.036 177.832 198.243 177.44 198.402C177.053 198.561 176.591 198.64 176.054 198.64ZM183.433 195.182C183.433 195.639 183.507 196.055 183.657 196.428C183.811 196.797 184.042 197.091 184.35 197.31C184.662 197.529 185.052 197.639 185.519 197.639C185.981 197.639 186.377 197.532 186.709 197.317C187.045 197.102 187.259 196.792 187.353 196.386H188.578C188.489 196.876 188.293 197.289 187.99 197.625C187.686 197.961 187.32 198.215 186.891 198.388C186.461 198.556 186.013 198.64 185.547 198.64C184.87 198.64 184.275 198.493 183.762 198.199C183.248 197.905 182.847 197.483 182.558 196.932C182.268 196.381 182.124 195.721 182.124 194.951C182.124 194.19 182.254 193.523 182.516 192.949C182.777 192.375 183.155 191.927 183.65 191.605C184.149 191.283 184.749 191.122 185.449 191.122C186.13 191.122 186.706 191.269 187.178 191.563C187.649 191.857 188.006 192.272 188.249 192.809C188.496 193.341 188.62 193.973 188.62 194.706V195.182H183.433ZM183.44 194.307H187.374C187.374 193.892 187.304 193.518 187.164 193.187C187.024 192.851 186.809 192.587 186.52 192.396C186.235 192.2 185.876 192.102 185.442 192.102C184.989 192.102 184.613 192.212 184.315 192.431C184.021 192.646 183.799 192.923 183.65 193.264C183.505 193.6 183.435 193.948 183.44 194.307ZM190.567 198.5V191.262H191.799V192.655C191.921 192.31 192.091 192.025 192.31 191.801C192.53 191.572 192.779 191.402 193.059 191.29C193.344 191.178 193.638 191.122 193.941 191.122C194.049 191.122 194.154 191.129 194.256 191.143C194.359 191.157 194.438 191.18 194.494 191.213V192.466C194.424 192.433 194.333 192.412 194.221 192.403C194.114 192.389 194.023 192.382 193.948 192.382C193.659 192.363 193.388 192.382 193.136 192.438C192.884 192.489 192.663 192.58 192.471 192.711C192.28 192.842 192.128 193.014 192.016 193.229C191.909 193.439 191.855 193.696 191.855 193.999V198.5H190.567ZM196.165 198.5V191.262H197.411V192.312C197.612 191.995 197.887 191.717 198.237 191.479C198.587 191.241 199.042 191.122 199.602 191.122C199.863 191.122 200.129 191.166 200.4 191.255C200.675 191.344 200.927 191.477 201.156 191.654C201.385 191.831 201.562 192.048 201.688 192.305C201.912 191.95 202.215 191.666 202.598 191.451C202.981 191.232 203.412 191.122 203.893 191.122C204.145 191.122 204.409 191.162 204.684 191.241C204.959 191.316 205.214 191.451 205.447 191.647C205.685 191.838 205.879 192.107 206.028 192.452C206.177 192.793 206.252 193.231 206.252 193.768V198.5H204.95V193.894C204.95 193.455 204.88 193.117 204.74 192.879C204.6 192.636 204.416 192.466 204.187 192.368C203.963 192.27 203.723 192.221 203.466 192.221C203.242 192.221 203.004 192.265 202.752 192.354C202.5 192.443 202.285 192.592 202.108 192.802C201.931 193.012 201.842 193.299 201.842 193.663V198.5H200.554V193.516C200.554 193.231 200.477 192.993 200.323 192.802C200.174 192.611 199.985 192.466 199.756 192.368C199.532 192.27 199.308 192.221 199.084 192.221C198.837 192.221 198.587 192.27 198.335 192.368C198.088 192.466 197.878 192.622 197.705 192.837C197.537 193.047 197.453 193.322 197.453 193.663V198.5H196.165ZM210.423 198.64C209.956 198.64 209.543 198.558 209.184 198.395C208.825 198.227 208.542 197.987 208.337 197.674C208.136 197.361 208.036 196.983 208.036 196.54C208.036 195.737 208.316 195.14 208.876 194.748C209.436 194.356 210.334 194.146 211.571 194.118L212.866 194.083V193.516C212.866 193.073 212.733 192.723 212.467 192.466C212.201 192.205 211.788 192.074 211.228 192.074C210.813 192.079 210.446 192.177 210.129 192.368C209.816 192.559 209.613 192.872 209.52 193.306H208.379C208.407 192.835 208.54 192.438 208.778 192.116C209.016 191.789 209.347 191.542 209.772 191.374C210.201 191.206 210.708 191.122 211.291 191.122C211.921 191.122 212.444 191.211 212.859 191.388C213.279 191.565 213.592 191.827 213.797 192.172C214.007 192.517 214.112 192.942 214.112 193.446V198.5H213.006L212.915 197.142C212.635 197.707 212.278 198.099 211.844 198.318C211.415 198.533 210.941 198.64 210.423 198.64ZM210.815 197.709C211.058 197.709 211.298 197.665 211.536 197.576C211.779 197.487 212 197.368 212.201 197.219C212.402 197.065 212.56 196.895 212.677 196.708C212.798 196.517 212.861 196.321 212.866 196.12V194.881L211.788 194.902C211.237 194.911 210.775 194.967 210.402 195.07C210.033 195.173 209.756 195.334 209.569 195.553C209.387 195.772 209.296 196.059 209.296 196.414C209.296 196.82 209.436 197.137 209.716 197.366C210.001 197.595 210.367 197.709 210.815 197.709ZM216.493 198.5V191.262H217.746V192.312C217.863 192.111 218.024 191.922 218.229 191.745C218.439 191.568 218.691 191.425 218.985 191.318C219.284 191.211 219.627 191.157 220.014 191.157C220.472 191.157 220.892 191.248 221.274 191.43C221.662 191.612 221.97 191.897 222.198 192.284C222.432 192.667 222.548 193.161 222.548 193.768V198.5H221.253V193.894C221.253 193.329 221.104 192.912 220.805 192.641C220.511 192.366 220.129 192.228 219.657 192.228C219.331 192.228 219.025 192.282 218.74 192.389C218.456 192.492 218.225 192.65 218.047 192.865C217.87 193.075 217.781 193.341 217.781 193.663V198.5H216.493ZM225.225 200.81C224.8 200.81 224.509 200.78 224.35 200.719C224.191 200.658 224.112 200.628 224.112 200.628V199.788L224.847 199.802C225.118 199.811 225.342 199.793 225.519 199.746C225.696 199.699 225.839 199.636 225.946 199.557C226.053 199.478 226.135 199.389 226.191 199.291C226.252 199.193 226.301 199.1 226.338 199.011L226.59 198.325L223.762 191.262H225.071L227.206 196.848L229.327 191.262H230.594L227.542 199.046C227.355 199.503 227.145 199.86 226.912 200.117C226.683 200.374 226.427 200.553 226.142 200.656C225.862 200.759 225.556 200.81 225.225 200.81ZM237.021 198.5V190.443H235.068V189.596C235.674 189.596 236.146 189.552 236.482 189.463C236.818 189.374 237.056 189.239 237.196 189.057C237.34 188.875 237.42 188.649 237.434 188.378H238.358V198.5H237.021ZM244.355 198.654C243.795 198.654 243.272 198.549 242.787 198.339C242.306 198.124 241.902 197.821 241.576 197.429C241.254 197.037 241.055 196.568 240.981 196.022H242.241C242.357 196.484 242.6 196.86 242.969 197.149C243.337 197.434 243.785 197.576 244.313 197.576C244.91 197.576 245.421 197.42 245.846 197.107C246.275 196.794 246.595 196.311 246.805 195.658C247.015 195.005 247.094 194.167 247.043 193.145C246.926 193.5 246.742 193.812 246.49 194.083C246.238 194.349 245.934 194.559 245.58 194.713C245.225 194.867 244.833 194.944 244.404 194.944C243.736 194.944 243.148 194.813 242.64 194.552C242.131 194.291 241.734 193.917 241.45 193.432C241.17 192.947 241.03 192.366 241.03 191.689C241.03 191.012 241.17 190.415 241.45 189.897C241.73 189.379 242.131 188.973 242.654 188.679C243.176 188.385 243.797 188.238 244.516 188.238C245.3 188.238 245.979 188.441 246.553 188.847C247.127 189.248 247.57 189.827 247.883 190.583C248.195 191.334 248.352 192.237 248.352 193.292C248.352 194.426 248.195 195.392 247.883 196.19C247.575 196.988 247.122 197.599 246.525 198.024C245.932 198.444 245.209 198.654 244.355 198.654ZM244.544 193.845C244.917 193.845 245.272 193.759 245.608 193.586C245.944 193.413 246.217 193.185 246.427 192.9C246.641 192.611 246.749 192.296 246.749 191.955C246.753 191.432 246.665 190.973 246.483 190.576C246.301 190.175 246.042 189.862 245.706 189.638C245.37 189.409 244.978 189.295 244.53 189.295C244.119 189.295 243.755 189.393 243.438 189.589C243.125 189.785 242.878 190.058 242.696 190.408C242.518 190.758 242.43 191.164 242.43 191.626C242.43 192.303 242.609 192.842 242.969 193.243C243.328 193.644 243.853 193.845 244.544 193.845ZM252.344 188.224C252.797 188.224 253.203 188.343 253.562 188.581C253.921 188.819 254.204 189.155 254.409 189.589C254.614 190.023 254.717 190.534 254.717 191.122C254.717 191.71 254.614 192.219 254.409 192.648C254.208 193.077 253.928 193.411 253.569 193.649C253.21 193.882 252.801 193.999 252.344 193.999C251.882 193.999 251.469 193.882 251.105 193.649C250.746 193.411 250.461 193.077 250.251 192.648C250.041 192.219 249.936 191.71 249.936 191.122C249.936 190.534 250.041 190.023 250.251 189.589C250.461 189.155 250.746 188.819 251.105 188.581C251.469 188.343 251.882 188.224 252.344 188.224ZM252.33 193.278C252.778 193.278 253.121 193.08 253.359 192.683C253.602 192.286 253.723 191.766 253.723 191.122C253.723 190.469 253.602 189.944 253.359 189.547C253.116 189.146 252.773 188.945 252.33 188.945C252.031 188.945 251.777 189.038 251.567 189.225C251.362 189.407 251.203 189.661 251.091 189.988C250.984 190.315 250.93 190.693 250.93 191.122C250.93 191.761 251.051 192.282 251.294 192.683C251.537 193.08 251.882 193.278 252.33 193.278ZM258.679 192.851C259.136 192.851 259.545 192.972 259.904 193.215C260.263 193.453 260.546 193.789 260.751 194.223C260.956 194.657 261.059 195.166 261.059 195.749C261.059 196.337 260.956 196.848 260.751 197.282C260.55 197.716 260.27 198.052 259.911 198.29C259.552 198.523 259.141 198.64 258.679 198.64C258.217 198.64 257.804 198.523 257.44 198.29C257.076 198.052 256.791 197.716 256.586 197.282C256.381 196.848 256.278 196.337 256.278 195.749C256.278 195.166 256.381 194.657 256.586 194.223C256.796 193.789 257.083 193.453 257.447 193.215C257.811 192.972 258.222 192.851 258.679 192.851ZM258.665 197.905C258.954 197.905 259.204 197.814 259.414 197.632C259.624 197.445 259.785 197.191 259.897 196.869C260.009 196.547 260.065 196.178 260.065 195.763C260.065 195.338 260.007 194.963 259.89 194.636C259.778 194.305 259.617 194.046 259.407 193.859C259.197 193.672 258.95 193.579 258.665 193.579C258.38 193.579 258.133 193.675 257.923 193.866C257.713 194.053 257.552 194.312 257.44 194.643C257.328 194.97 257.272 195.343 257.272 195.763C257.272 196.178 257.328 196.547 257.44 196.869C257.552 197.191 257.711 197.445 257.916 197.632C258.126 197.814 258.376 197.905 258.665 197.905ZM259.26 188.266L252.456 198.556L251.581 198.549L258.413 188.266H259.26Z" fill="#212121"/>
<rect x="145" y="225" width="8" height="8" rx="2" fill="#0BB783"/>
<path d="M179.736 230C179.736 230.779 179.608 231.44 179.351 231.981C179.094 232.522 178.693 232.935 178.147 233.22C177.606 233.5 176.901 233.64 176.033 233.64C175.156 233.64 174.444 233.495 173.898 233.206C173.357 232.917 172.96 232.492 172.708 231.932C172.461 231.372 172.337 230.684 172.337 229.867V223.378H173.681V230.063C173.681 230.88 173.884 231.491 174.29 231.897C174.696 232.303 175.277 232.506 176.033 232.506C176.542 232.506 176.973 232.417 177.328 232.24C177.687 232.063 177.96 231.794 178.147 231.435C178.338 231.071 178.434 230.614 178.434 230.063V223.378H179.736V230ZM182.044 233.5V226.262H183.297V227.312C183.413 227.111 183.574 226.922 183.78 226.745C183.99 226.568 184.242 226.425 184.536 226.318C184.834 226.211 185.177 226.157 185.565 226.157C186.022 226.157 186.442 226.248 186.825 226.43C187.212 226.612 187.52 226.897 187.749 227.284C187.982 227.667 188.099 228.161 188.099 228.768V233.5H186.804V228.894C186.804 228.329 186.654 227.912 186.356 227.641C186.062 227.366 185.679 227.228 185.208 227.228C184.881 227.228 184.575 227.282 184.291 227.389C184.006 227.492 183.775 227.65 183.598 227.865C183.42 228.075 183.332 228.341 183.332 228.663V233.5H182.044ZM191.694 226.262V233.5H190.441V226.262H191.694ZM191.722 223.385V224.729H190.399V223.385H191.722ZM197.915 227.207H196.284V231.708C196.284 231.965 196.309 232.154 196.361 232.275C196.417 232.392 196.508 232.466 196.634 232.499C196.764 232.532 196.942 232.548 197.166 232.548H197.957V233.416C197.868 233.449 197.733 233.477 197.551 233.5C197.373 233.523 197.152 233.535 196.886 233.535C196.386 233.535 195.999 233.467 195.724 233.332C195.448 233.197 195.255 232.996 195.143 232.73C195.035 232.464 194.982 232.137 194.982 231.75V227.207H193.806V226.262H195.017L195.332 224.155H196.284V226.255H197.915V227.207ZM200.677 230.182C200.677 230.639 200.752 231.055 200.901 231.428C201.055 231.797 201.286 232.091 201.594 232.31C201.907 232.529 202.296 232.639 202.763 232.639C203.225 232.639 203.622 232.532 203.953 232.317C204.289 232.102 204.504 231.792 204.597 231.386H205.822C205.733 231.876 205.537 232.289 205.234 232.625C204.931 232.961 204.564 233.215 204.135 233.388C203.706 233.556 203.258 233.64 202.791 233.64C202.114 233.64 201.519 233.493 201.006 233.199C200.493 232.905 200.091 232.483 199.802 231.932C199.513 231.381 199.368 230.721 199.368 229.951C199.368 229.19 199.499 228.523 199.76 227.949C200.021 227.375 200.399 226.927 200.894 226.605C201.393 226.283 201.993 226.122 202.693 226.122C203.374 226.122 203.951 226.269 204.422 226.563C204.893 226.857 205.25 227.272 205.493 227.809C205.74 228.341 205.864 228.973 205.864 229.706V230.182H200.677ZM200.684 229.307H204.618C204.618 228.892 204.548 228.518 204.408 228.187C204.268 227.851 204.053 227.587 203.764 227.396C203.479 227.2 203.12 227.102 202.686 227.102C202.233 227.102 201.858 227.212 201.559 227.431C201.265 227.646 201.043 227.923 200.894 228.264C200.749 228.6 200.679 228.948 200.684 229.307ZM210.423 233.64C209.485 233.64 208.74 233.318 208.19 232.674C207.639 232.03 207.364 231.09 207.364 229.853C207.364 229.102 207.473 228.446 207.693 227.886C207.917 227.326 208.248 226.892 208.687 226.584C209.125 226.276 209.671 226.122 210.325 226.122C210.67 226.122 210.976 226.166 211.242 226.255C211.512 226.344 211.746 226.456 211.942 226.591C212.138 226.726 212.296 226.866 212.418 227.011C212.544 227.156 212.637 227.289 212.698 227.41V223.098H214V233.5H213.013L212.873 232.016C212.826 232.156 212.751 232.319 212.649 232.506C212.546 232.688 212.401 232.868 212.215 233.045C212.028 233.218 211.788 233.36 211.494 233.472C211.204 233.584 210.847 233.64 210.423 233.64ZM210.654 232.646C211.386 232.646 211.909 232.424 212.222 231.981C212.539 231.533 212.698 230.803 212.698 229.79C212.693 229.225 212.621 228.745 212.481 228.348C212.345 227.951 212.131 227.65 211.837 227.445C211.547 227.235 211.162 227.13 210.682 227.13C210.084 227.13 209.599 227.342 209.226 227.767C208.852 228.192 208.666 228.866 208.666 229.79C208.666 230.695 208.834 231.398 209.17 231.897C209.51 232.396 210.005 232.646 210.654 232.646ZM223.407 233.64C222.931 233.64 222.469 233.582 222.021 233.465C221.573 233.344 221.167 233.164 220.803 232.926C220.439 232.688 220.136 232.394 219.893 232.044C219.655 231.689 219.506 231.279 219.445 230.812H220.803C220.887 231.195 221.053 231.517 221.3 231.778C221.552 232.039 221.858 232.235 222.217 232.366C222.581 232.497 222.976 232.562 223.4 232.562C223.876 232.562 224.301 232.497 224.674 232.366C225.052 232.231 225.349 232.039 225.563 231.792C225.783 231.545 225.892 231.248 225.892 230.903C225.892 230.6 225.822 230.336 225.682 230.112C225.547 229.888 225.349 229.701 225.087 229.552C224.826 229.403 224.509 229.286 224.135 229.202L222.147 228.74C221.401 228.577 220.815 228.285 220.39 227.865C219.97 227.445 219.756 226.89 219.746 226.199C219.746 225.616 219.9 225.102 220.208 224.659C220.521 224.216 220.948 223.87 221.489 223.623C222.035 223.376 222.658 223.252 223.358 223.252C224.166 223.252 224.845 223.39 225.395 223.665C225.946 223.94 226.361 224.302 226.641 224.75C226.921 225.198 227.064 225.676 227.068 226.185H225.731C225.689 225.728 225.554 225.366 225.325 225.1C225.101 224.829 224.819 224.638 224.478 224.526C224.138 224.409 223.767 224.351 223.365 224.351C223.076 224.351 222.796 224.388 222.525 224.463C222.259 224.533 222.019 224.64 221.804 224.785C221.594 224.93 221.426 225.109 221.3 225.324C221.174 225.539 221.111 225.788 221.111 226.073C221.111 226.437 221.235 226.733 221.482 226.962C221.734 227.191 222.189 227.387 222.847 227.55L224.772 228.012C225.276 228.119 225.687 228.278 226.004 228.488C226.326 228.698 226.574 228.936 226.746 229.202C226.924 229.468 227.045 229.746 227.11 230.035C227.18 230.324 227.215 230.609 227.215 230.889C227.215 231.398 227.064 231.862 226.76 232.282C226.457 232.697 226.021 233.029 225.451 233.276C224.887 233.519 224.205 233.64 223.407 233.64ZM232.794 227.207H231.163V231.708C231.163 231.965 231.189 232.154 231.24 232.275C231.296 232.392 231.387 232.466 231.513 232.499C231.644 232.532 231.821 232.548 232.045 232.548H232.836V233.416C232.747 233.449 232.612 233.477 232.43 233.5C232.253 233.523 232.031 233.535 231.765 233.535C231.266 233.535 230.878 233.467 230.603 233.332C230.328 233.197 230.134 232.996 230.022 232.73C229.915 232.464 229.861 232.137 229.861 231.75V227.207H228.685V226.262H229.896L230.211 224.155H231.163V226.255H232.794V227.207ZM236.785 233.64C236.318 233.64 235.905 233.558 235.546 233.395C235.186 233.227 234.904 232.987 234.699 232.674C234.498 232.361 234.398 231.983 234.398 231.54C234.398 230.737 234.678 230.14 235.238 229.748C235.798 229.356 236.696 229.146 237.933 229.118L239.228 229.083V228.516C239.228 228.073 239.095 227.723 238.829 227.466C238.563 227.205 238.15 227.074 237.59 227.074C237.174 227.079 236.808 227.177 236.491 227.368C236.178 227.559 235.975 227.872 235.882 228.306H234.741C234.769 227.835 234.902 227.438 235.14 227.116C235.378 226.789 235.709 226.542 236.134 226.374C236.563 226.206 237.069 226.122 237.653 226.122C238.283 226.122 238.805 226.211 239.221 226.388C239.641 226.565 239.953 226.827 240.159 227.172C240.369 227.517 240.474 227.942 240.474 228.446V233.5H239.368L239.277 232.142C238.997 232.707 238.64 233.099 238.206 233.318C237.776 233.533 237.303 233.64 236.785 233.64ZM237.177 232.709C237.419 232.709 237.66 232.665 237.898 232.576C238.14 232.487 238.362 232.368 238.563 232.219C238.763 232.065 238.922 231.895 239.039 231.708C239.16 231.517 239.223 231.321 239.228 231.12V229.881L238.15 229.902C237.599 229.911 237.137 229.967 236.764 230.07C236.395 230.173 236.117 230.334 235.931 230.553C235.749 230.772 235.658 231.059 235.658 231.414C235.658 231.82 235.798 232.137 236.078 232.366C236.362 232.595 236.729 232.709 237.177 232.709ZM246.19 227.207H244.559V231.708C244.559 231.965 244.585 232.154 244.636 232.275C244.692 232.392 244.783 232.466 244.909 232.499C245.04 232.532 245.217 232.548 245.441 232.548H246.232V233.416C246.144 233.449 246.008 233.477 245.826 233.5C245.649 233.523 245.427 233.535 245.161 233.535C244.662 233.535 244.275 233.467 243.999 233.332C243.724 233.197 243.53 232.996 243.418 232.73C243.311 232.464 243.257 232.137 243.257 231.75V227.207H242.081V226.262H243.292L243.607 224.155H244.559V226.255H246.19V227.207ZM248.953 230.182C248.953 230.639 249.028 231.055 249.177 231.428C249.331 231.797 249.562 232.091 249.87 232.31C250.183 232.529 250.572 232.639 251.039 232.639C251.501 232.639 251.898 232.532 252.229 232.317C252.565 232.102 252.78 231.792 252.873 231.386H254.098C254.009 231.876 253.813 232.289 253.51 232.625C253.207 232.961 252.84 233.215 252.411 233.388C251.982 233.556 251.534 233.64 251.067 233.64C250.39 233.64 249.795 233.493 249.282 233.199C248.769 232.905 248.367 232.483 248.078 231.932C247.789 231.381 247.644 230.721 247.644 229.951C247.644 229.19 247.775 228.523 248.036 227.949C248.297 227.375 248.675 226.927 249.17 226.605C249.669 226.283 250.269 226.122 250.969 226.122C251.65 226.122 252.227 226.269 252.698 226.563C253.169 226.857 253.526 227.272 253.769 227.809C254.016 228.341 254.14 228.973 254.14 229.706V230.182H248.953ZM248.96 229.307H252.894C252.894 228.892 252.824 228.518 252.684 228.187C252.544 227.851 252.329 227.587 252.04 227.396C251.755 227.2 251.396 227.102 250.962 227.102C250.509 227.102 250.134 227.212 249.835 227.431C249.541 227.646 249.319 227.923 249.17 228.264C249.025 228.6 248.955 228.948 248.96 229.307ZM258.616 233.64C258.112 233.64 257.643 233.563 257.209 233.409C256.779 233.25 256.422 233.005 256.138 232.674C255.853 232.338 255.673 231.911 255.599 231.393H256.775C256.84 231.678 256.957 231.916 257.125 232.107C257.297 232.294 257.512 232.436 257.769 232.534C258.025 232.627 258.305 232.674 258.609 232.674C259.094 232.674 259.486 232.583 259.785 232.401C260.083 232.219 260.233 231.939 260.233 231.561C260.233 231.295 260.153 231.083 259.995 230.924C259.841 230.761 259.6 230.642 259.274 230.567L257.776 230.196C257.192 230.056 256.726 229.837 256.376 229.538C256.026 229.239 255.851 228.822 255.851 228.285C255.846 227.86 255.946 227.487 256.152 227.165C256.357 226.843 256.665 226.589 257.076 226.402C257.486 226.215 257.997 226.122 258.609 226.122C259.393 226.122 260.025 226.299 260.506 226.654C260.991 227.004 261.243 227.52 261.262 228.201H260.121C260.074 227.856 259.918 227.583 259.652 227.382C259.39 227.177 259.038 227.074 258.595 227.074C258.133 227.074 257.757 227.167 257.468 227.354C257.178 227.536 257.034 227.821 257.034 228.208C257.034 228.465 257.136 228.668 257.342 228.817C257.547 228.962 257.85 229.083 258.252 229.181L259.701 229.545C260.037 229.634 260.312 229.75 260.527 229.895C260.746 230.04 260.919 230.201 261.045 230.378C261.175 230.555 261.266 230.742 261.318 230.938C261.374 231.129 261.402 231.314 261.402 231.491C261.402 231.934 261.29 232.317 261.066 232.639C260.846 232.956 260.529 233.204 260.114 233.381C259.703 233.554 259.204 233.64 258.616 233.64ZM266.519 233.5V232.709V232.296C266.519 231.778 266.615 231.33 266.806 230.952C267.002 230.574 267.259 230.245 267.576 229.965C267.898 229.68 268.248 229.426 268.626 229.202C269.009 228.978 269.389 228.763 269.767 228.558C270.15 228.348 270.5 228.131 270.817 227.907C271.135 227.678 271.389 227.422 271.58 227.137C271.776 226.848 271.874 226.507 271.874 226.115C271.874 225.602 271.692 225.184 271.328 224.862C270.969 224.54 270.481 224.379 269.865 224.379C269.203 224.379 268.671 224.566 268.269 224.939C267.868 225.312 267.642 225.809 267.59 226.43H266.302C266.316 225.847 266.461 225.315 266.736 224.834C267.012 224.349 267.415 223.961 267.947 223.672C268.479 223.383 269.135 223.238 269.914 223.238C270.591 223.238 271.179 223.359 271.678 223.602C272.178 223.84 272.563 224.176 272.833 224.61C273.109 225.039 273.246 225.541 273.246 226.115C273.246 226.638 273.151 227.086 272.959 227.459C272.768 227.832 272.514 228.157 272.196 228.432C271.884 228.703 271.541 228.945 271.167 229.16C270.794 229.375 270.418 229.582 270.04 229.783C269.662 229.979 269.317 230.187 269.004 230.406C268.692 230.621 268.44 230.868 268.248 231.148C268.057 231.428 267.961 231.762 267.961 232.149V232.352H273.302V233.5H266.519ZM278.452 223.238C279.549 223.238 280.422 223.679 281.07 224.561C281.724 225.438 282.05 226.738 282.05 228.46C282.05 230.173 281.726 231.468 281.077 232.345C280.429 233.218 279.549 233.654 278.438 233.654C277.332 233.654 276.455 233.22 275.806 232.352C275.158 231.479 274.833 230.189 274.833 228.481C274.833 227.328 274.983 226.362 275.281 225.583C275.58 224.804 276 224.218 276.541 223.826C277.083 223.434 277.72 223.238 278.452 223.238ZM278.452 232.534C279.176 232.534 279.722 232.217 280.09 231.582C280.464 230.943 280.65 229.904 280.65 228.467C280.65 227.002 280.461 225.947 280.083 225.303C279.71 224.654 279.164 224.33 278.445 224.33C277.731 224.33 277.181 224.657 276.793 225.31C276.411 225.959 276.219 227.011 276.219 228.467C276.219 229.9 276.411 230.936 276.793 231.575C277.176 232.214 277.729 232.534 278.452 232.534ZM286.054 223.224C286.506 223.224 286.912 223.343 287.272 223.581C287.631 223.819 287.913 224.155 288.119 224.589C288.324 225.023 288.427 225.534 288.427 226.122C288.427 226.71 288.324 227.219 288.119 227.648C287.918 228.077 287.638 228.411 287.279 228.649C286.919 228.882 286.511 228.999 286.054 228.999C285.592 228.999 285.179 228.882 284.815 228.649C284.455 228.411 284.171 228.077 283.961 227.648C283.751 227.219 283.646 226.71 283.646 226.122C283.646 225.534 283.751 225.023 283.961 224.589C284.171 224.155 284.455 223.819 284.815 223.581C285.179 223.343 285.592 223.224 286.054 223.224ZM286.04 228.278C286.488 228.278 286.831 228.08 287.069 227.683C287.311 227.286 287.433 226.766 287.433 226.122C287.433 225.469 287.311 224.944 287.069 224.547C286.826 224.146 286.483 223.945 286.04 223.945C285.741 223.945 285.487 224.038 285.277 224.225C285.071 224.407 284.913 224.661 284.801 224.988C284.693 225.315 284.64 225.693 284.64 226.122C284.64 226.761 284.761 227.282 285.004 227.683C285.246 228.08 285.592 228.278 286.04 228.278ZM292.389 227.851C292.846 227.851 293.254 227.972 293.614 228.215C293.973 228.453 294.255 228.789 294.461 229.223C294.666 229.657 294.769 230.166 294.769 230.749C294.769 231.337 294.666 231.848 294.461 232.282C294.26 232.716 293.98 233.052 293.621 233.29C293.261 233.523 292.851 233.64 292.389 233.64C291.927 233.64 291.514 233.523 291.15 233.29C290.786 233.052 290.501 232.716 290.296 232.282C290.09 231.848 289.988 231.337 289.988 230.749C289.988 230.166 290.09 229.657 290.296 229.223C290.506 228.789 290.793 228.453 291.157 228.215C291.521 227.972 291.931 227.851 292.389 227.851ZM292.375 232.905C292.664 232.905 292.914 232.814 293.124 232.632C293.334 232.445 293.495 232.191 293.607 231.869C293.719 231.547 293.775 231.178 293.775 230.763C293.775 230.338 293.716 229.963 293.6 229.636C293.488 229.305 293.327 229.046 293.117 228.859C292.907 228.672 292.659 228.579 292.375 228.579C292.09 228.579 291.843 228.675 291.633 228.866C291.423 229.053 291.262 229.312 291.15 229.643C291.038 229.97 290.982 230.343 290.982 230.763C290.982 231.178 291.038 231.547 291.15 231.869C291.262 232.191 291.42 232.445 291.626 232.632C291.836 232.814 292.085 232.905 292.375 232.905ZM292.97 223.266L286.166 233.556L285.291 233.549L292.123 223.266H292.97Z" fill="#212121"/>
<path d="M20.276 267.344V266.324H26.84V267.344H24.194V275H23.078V267.344H20.276ZM28.0563 275V268.796H29.1123V269.99C29.2163 269.694 29.3623 269.45 29.5503 269.258C29.7383 269.062 29.9523 268.916 30.1923 268.82C30.4363 268.724 30.6883 268.676 30.9483 268.676C31.0403 268.676 31.1303 268.682 31.2183 268.694C31.3063 268.706 31.3743 268.726 31.4223 268.754V269.828C31.3623 269.8 31.2843 269.782 31.1883 269.774C31.0963 269.762 31.0183 269.756 30.9543 269.756C30.7063 269.74 30.4743 269.756 30.2583 269.804C30.0423 269.848 29.8523 269.926 29.6883 270.038C29.5243 270.15 29.3943 270.298 29.2983 270.482C29.2063 270.662 29.1603 270.882 29.1603 271.142V275H28.0563ZM34.6723 275.12C34.2723 275.12 33.9183 275.05 33.6103 274.91C33.3023 274.766 33.0603 274.56 32.8843 274.292C32.7123 274.024 32.6263 273.7 32.6263 273.32C32.6263 272.632 32.8663 272.12 33.3463 271.784C33.8263 271.448 34.5963 271.268 35.6563 271.244L36.7663 271.214V270.728C36.7663 270.348 36.6523 270.048 36.4243 269.828C36.1963 269.604 35.8423 269.492 35.3623 269.492C35.0063 269.496 34.6923 269.58 34.4203 269.744C34.1523 269.908 33.9783 270.176 33.8983 270.548H32.9203C32.9443 270.144 33.0583 269.804 33.2623 269.528C33.4663 269.248 33.7503 269.036 34.1143 268.892C34.4823 268.748 34.9163 268.676 35.4163 268.676C35.9563 268.676 36.4043 268.752 36.7603 268.904C37.1203 269.056 37.3883 269.28 37.5643 269.576C37.7443 269.872 37.8343 270.236 37.8343 270.668V275H36.8863L36.8083 273.836C36.5683 274.32 36.2623 274.656 35.8903 274.844C35.5223 275.028 35.1163 275.12 34.6723 275.12ZM35.0083 274.322C35.2163 274.322 35.4223 274.284 35.6263 274.208C35.8343 274.132 36.0243 274.03 36.1963 273.902C36.3683 273.77 36.5043 273.624 36.6043 273.464C36.7083 273.3 36.7623 273.132 36.7663 272.96V271.898L35.8423 271.916C35.3703 271.924 34.9743 271.972 34.6543 272.06C34.3383 272.148 34.1003 272.286 33.9403 272.474C33.7843 272.662 33.7063 272.908 33.7063 273.212C33.7063 273.56 33.8263 273.832 34.0663 274.028C34.3103 274.224 34.6243 274.322 35.0083 274.322ZM42.3677 275.12C41.5637 275.12 40.9257 274.844 40.4537 274.292C39.9817 273.74 39.7457 272.934 39.7457 271.874C39.7457 271.23 39.8397 270.668 40.0277 270.188C40.2197 269.708 40.5037 269.336 40.8797 269.072C41.2557 268.808 41.7237 268.676 42.2837 268.676C42.5797 268.676 42.8417 268.714 43.0697 268.79C43.3017 268.866 43.5017 268.962 43.6697 269.078C43.8377 269.194 43.9737 269.314 44.0777 269.438C44.1857 269.562 44.2657 269.676 44.3177 269.78V266.084H45.4337V275H44.5877L44.4677 273.728C44.4277 273.848 44.3637 273.988 44.2757 274.148C44.1877 274.304 44.0637 274.458 43.9037 274.61C43.7437 274.758 43.5377 274.88 43.2857 274.976C43.0377 275.072 42.7317 275.12 42.3677 275.12ZM42.5657 274.268C43.1937 274.268 43.6417 274.078 43.9097 273.698C44.1817 273.314 44.3177 272.688 44.3177 271.82C44.3137 271.336 44.2517 270.924 44.1317 270.584C44.0157 270.244 43.8317 269.986 43.5797 269.81C43.3317 269.63 43.0017 269.54 42.5897 269.54C42.0777 269.54 41.6617 269.722 41.3417 270.086C41.0217 270.45 40.8617 271.028 40.8617 271.82C40.8617 272.596 41.0057 273.198 41.2937 273.626C41.5857 274.054 42.0097 274.268 42.5657 274.268ZM48.4584 272.156C48.4584 272.548 48.5224 272.904 48.6504 273.224C48.7824 273.54 48.9804 273.792 49.2444 273.98C49.5124 274.168 49.8464 274.262 50.2464 274.262C50.6424 274.262 50.9824 274.17 51.2664 273.986C51.5544 273.802 51.7384 273.536 51.8184 273.188H52.8684C52.7924 273.608 52.6244 273.962 52.3644 274.25C52.1044 274.538 51.7904 274.756 51.4224 274.904C51.0544 275.048 50.6704 275.12 50.2704 275.12C49.6904 275.12 49.1804 274.994 48.7404 274.742C48.3004 274.49 47.9564 274.128 47.7084 273.656C47.4604 273.184 47.3364 272.618 47.3364 271.958C47.3364 271.306 47.4484 270.734 47.6724 270.242C47.8964 269.75 48.2204 269.366 48.6444 269.09C49.0724 268.814 49.5864 268.676 50.1864 268.676C50.7704 268.676 51.2644 268.802 51.6684 269.054C52.0724 269.306 52.3784 269.662 52.5864 270.122C52.7984 270.578 52.9044 271.12 52.9044 271.748V272.156H48.4584ZM48.4644 271.406H51.8364C51.8364 271.05 51.7764 270.73 51.6564 270.446C51.5364 270.158 51.3524 269.932 51.1044 269.768C50.8604 269.6 50.5524 269.516 50.1804 269.516C49.7924 269.516 49.4704 269.61 49.2144 269.798C48.9624 269.982 48.7724 270.22 48.6444 270.512C48.5204 270.8 48.4604 271.098 48.4644 271.406ZM54.8282 275V268.796H55.8842V269.99C55.9882 269.694 56.1342 269.45 56.3222 269.258C56.5102 269.062 56.7242 268.916 56.9642 268.82C57.2082 268.724 57.4602 268.676 57.7202 268.676C57.8122 268.676 57.9022 268.682 57.9902 268.694C58.0782 268.706 58.1462 268.726 58.1942 268.754V269.828C58.1342 269.8 58.0562 269.782 57.9602 269.774C57.8682 269.762 57.7902 269.756 57.7262 269.756C57.4782 269.74 57.2462 269.756 57.0302 269.804C56.8142 269.848 56.6242 269.926 56.4602 270.038C56.2962 270.15 56.1662 270.298 56.0702 270.482C55.9782 270.662 55.9322 270.882 55.9322 271.142V275H54.8282ZM62.0473 275.12C61.6153 275.12 61.2133 275.054 60.8413 274.922C60.4733 274.786 60.1673 274.576 59.9233 274.292C59.6793 274.004 59.5253 273.638 59.4613 273.194H60.4693C60.5253 273.438 60.6253 273.642 60.7693 273.806C60.9173 273.966 61.1013 274.088 61.3213 274.172C61.5413 274.252 61.7813 274.292 62.0413 274.292C62.4573 274.292 62.7933 274.214 63.0493 274.058C63.3053 273.902 63.4333 273.662 63.4333 273.338C63.4333 273.11 63.3653 272.928 63.2293 272.792C63.0973 272.652 62.8913 272.55 62.6113 272.486L61.3273 272.168C60.8273 272.048 60.4273 271.86 60.1273 271.604C59.8273 271.348 59.6773 270.99 59.6773 270.53C59.6733 270.166 59.7593 269.846 59.9353 269.57C60.1113 269.294 60.3753 269.076 60.7273 268.916C61.0793 268.756 61.5173 268.676 62.0413 268.676C62.7133 268.676 63.2553 268.828 63.6673 269.132C64.0833 269.432 64.2993 269.874 64.3153 270.458H63.3373C63.2973 270.162 63.1633 269.928 62.9353 269.756C62.7113 269.58 62.4093 269.492 62.0293 269.492C61.6333 269.492 61.3113 269.572 61.0633 269.732C60.8153 269.888 60.6913 270.132 60.6913 270.464C60.6913 270.684 60.7793 270.858 60.9553 270.986C61.1313 271.11 61.3913 271.214 61.7353 271.298L62.9773 271.61C63.2653 271.686 63.5013 271.786 63.6853 271.91C63.8733 272.034 64.0213 272.172 64.1293 272.324C64.2413 272.476 64.3193 272.636 64.3633 272.804C64.4113 272.968 64.4353 273.126 64.4353 273.278C64.4353 273.658 64.3393 273.986 64.1473 274.262C63.9593 274.534 63.6873 274.746 63.3313 274.898C62.9793 275.046 62.5513 275.12 62.0473 275.12ZM69.5047 276.932V268.796H70.6087L70.6207 269.876C70.6927 269.748 70.7847 269.614 70.8967 269.474C71.0127 269.334 71.1527 269.204 71.3167 269.084C71.4847 268.964 71.6787 268.866 71.8987 268.79C72.1227 268.714 72.3767 268.676 72.6607 268.676C73.1567 268.676 73.5927 268.79 73.9687 269.018C74.3487 269.242 74.6447 269.586 74.8567 270.05C75.0687 270.514 75.1747 271.102 75.1747 271.814C75.1747 272.526 75.0707 273.128 74.8627 273.62C74.6587 274.108 74.3627 274.48 73.9747 274.736C73.5867 274.992 73.1187 275.12 72.5707 275.12C72.2947 275.12 72.0487 275.08 71.8327 275C71.6207 274.924 71.4347 274.824 71.2747 274.7C71.1187 274.572 70.9867 274.436 70.8787 274.292C70.7747 274.148 70.6887 274.01 70.6207 273.878V276.932H69.5047ZM72.3607 274.256C72.8727 274.256 73.2907 274.062 73.6147 273.674C73.9387 273.282 74.1007 272.674 74.1007 271.85C74.1007 271.142 73.9527 270.58 73.6567 270.164C73.3607 269.748 72.9287 269.54 72.3607 269.54C71.7847 269.54 71.3487 269.754 71.0527 270.182C70.7567 270.606 70.6087 271.162 70.6087 271.85C70.6087 272.294 70.6747 272.698 70.8067 273.062C70.9387 273.426 71.1347 273.716 71.3947 273.932C71.6547 274.148 71.9767 274.256 72.3607 274.256ZM77.8217 272.156C77.8217 272.548 77.8857 272.904 78.0137 273.224C78.1457 273.54 78.3437 273.792 78.6077 273.98C78.8757 274.168 79.2097 274.262 79.6097 274.262C80.0057 274.262 80.3457 274.17 80.6297 273.986C80.9177 273.802 81.1017 273.536 81.1817 273.188H82.2317C82.1557 273.608 81.9877 273.962 81.7277 274.25C81.4677 274.538 81.1537 274.756 80.7857 274.904C80.4177 275.048 80.0337 275.12 79.6337 275.12C79.0537 275.12 78.5437 274.994 78.1037 274.742C77.6637 274.49 77.3197 274.128 77.0717 273.656C76.8237 273.184 76.6997 272.618 76.6997 271.958C76.6997 271.306 76.8117 270.734 77.0357 270.242C77.2597 269.75 77.5837 269.366 78.0077 269.09C78.4357 268.814 78.9497 268.676 79.5497 268.676C80.1337 268.676 80.6277 268.802 81.0317 269.054C81.4357 269.306 81.7417 269.662 81.9497 270.122C82.1617 270.578 82.2677 271.12 82.2677 271.748V272.156H77.8217ZM77.8277 271.406H81.1997C81.1997 271.05 81.1397 270.73 81.0197 270.446C80.8997 270.158 80.7157 269.932 80.4677 269.768C80.2237 269.6 79.9157 269.516 79.5437 269.516C79.1557 269.516 78.8337 269.61 78.5777 269.798C78.3257 269.982 78.1357 270.22 78.0077 270.512C77.8837 270.8 77.8237 271.098 77.8277 271.406ZM84.1914 275V268.796H85.2474V269.99C85.3514 269.694 85.4974 269.45 85.6854 269.258C85.8734 269.062 86.0874 268.916 86.3274 268.82C86.5714 268.724 86.8234 268.676 87.0834 268.676C87.1754 268.676 87.2654 268.682 87.3534 268.694C87.4414 268.706 87.5094 268.726 87.5574 268.754V269.828C87.4974 269.8 87.4194 269.782 87.3234 269.774C87.2314 269.762 87.1534 269.756 87.0894 269.756C86.8414 269.74 86.6094 269.756 86.3934 269.804C86.1774 269.848 85.9874 269.926 85.8234 270.038C85.6594 270.15 85.5294 270.298 85.4334 270.482C85.3414 270.662 85.2954 270.882 85.2954 271.142V275H84.1914ZM91.5869 268.676C92.0309 268.676 92.4309 268.762 92.7869 268.934C93.1429 269.102 93.4329 269.342 93.6569 269.654C93.8849 269.966 94.0269 270.334 94.0829 270.758H93.0989C93.0629 270.542 92.9789 270.344 92.8469 270.164C92.7189 269.984 92.5489 269.84 92.3369 269.732C92.1249 269.624 91.8769 269.57 91.5929 269.57C91.0609 269.57 90.6289 269.762 90.2969 270.146C89.9649 270.53 89.7989 271.118 89.7989 271.91C89.7989 272.626 89.9509 273.2 90.2549 273.632C90.5629 274.06 91.0149 274.274 91.6109 274.274C91.8949 274.274 92.1409 274.22 92.3489 274.112C92.5609 274 92.7309 273.854 92.8589 273.674C92.9869 273.49 93.0689 273.294 93.1049 273.086H94.0709C94.0189 273.502 93.8789 273.862 93.6509 274.166C93.4229 274.47 93.1309 274.706 92.7749 274.874C92.4229 275.038 92.0269 275.12 91.5869 275.12C91.0309 275.12 90.5369 274.998 90.1049 274.754C89.6769 274.51 89.3409 274.15 89.0969 273.674C88.8529 273.198 88.7309 272.614 88.7309 271.922C88.7309 271.274 88.8409 270.708 89.0609 270.224C89.2849 269.736 89.6089 269.356 90.0329 269.084C90.4609 268.812 90.9789 268.676 91.5869 268.676ZM96.7756 272.156C96.7756 272.548 96.8396 272.904 96.9676 273.224C97.0996 273.54 97.2976 273.792 97.5616 273.98C97.8296 274.168 98.1636 274.262 98.5636 274.262C98.9596 274.262 99.2996 274.17 99.5836 273.986C99.8716 273.802 100.056 273.536 100.136 273.188H101.186C101.11 273.608 100.942 273.962 100.682 274.25C100.422 274.538 100.108 274.756 99.7396 274.904C99.3716 275.048 98.9876 275.12 98.5876 275.12C98.0076 275.12 97.4976 274.994 97.0576 274.742C96.6176 274.49 96.2736 274.128 96.0256 273.656C95.7776 273.184 95.6536 272.618 95.6536 271.958C95.6536 271.306 95.7656 270.734 95.9896 270.242C96.2136 269.75 96.5376 269.366 96.9616 269.09C97.3896 268.814 97.9036 268.676 98.5036 268.676C99.0876 268.676 99.5816 268.802 99.9856 269.054C100.39 269.306 100.696 269.662 100.904 270.122C101.116 270.578 101.222 271.12 101.222 271.748V272.156H96.7756ZM96.7816 271.406H100.154C100.154 271.05 100.094 270.73 99.9736 270.446C99.8536 270.158 99.6696 269.932 99.4216 269.768C99.1776 269.6 98.8696 269.516 98.4976 269.516C98.1096 269.516 97.7876 269.61 97.5316 269.798C97.2796 269.982 97.0896 270.22 96.9616 270.512C96.8376 270.8 96.7776 271.098 96.7816 271.406ZM103.145 275V268.796H104.219V269.696C104.319 269.524 104.457 269.362 104.633 269.21C104.813 269.058 105.029 268.936 105.281 268.844C105.537 268.752 105.831 268.706 106.163 268.706C106.555 268.706 106.915 268.784 107.243 268.94C107.575 269.096 107.839 269.34 108.035 269.672C108.235 270 108.335 270.424 108.335 270.944V275H107.225V271.052C107.225 270.568 107.097 270.21 106.841 269.978C106.589 269.742 106.261 269.624 105.857 269.624C105.577 269.624 105.315 269.67 105.071 269.762C104.827 269.85 104.629 269.986 104.477 270.17C104.325 270.35 104.249 270.578 104.249 270.854V275H103.145ZM113.33 269.606H111.932V273.464C111.932 273.684 111.954 273.846 111.998 273.95C112.046 274.05 112.124 274.114 112.232 274.142C112.344 274.17 112.496 274.184 112.688 274.184H113.366V274.928C113.29 274.956 113.174 274.98 113.018 275C112.866 275.02 112.676 275.03 112.448 275.03C112.02 275.03 111.688 274.972 111.452 274.856C111.216 274.74 111.05 274.568 110.954 274.34C110.862 274.112 110.816 273.832 110.816 273.5V269.606H109.808V268.796H110.846L111.116 266.99H111.932V268.79H113.33V269.606ZM117.005 275.12C116.605 275.12 116.251 275.05 115.943 274.91C115.635 274.766 115.393 274.56 115.217 274.292C115.045 274.024 114.959 273.7 114.959 273.32C114.959 272.632 115.199 272.12 115.679 271.784C116.159 271.448 116.929 271.268 117.989 271.244L119.099 271.214V270.728C119.099 270.348 118.985 270.048 118.757 269.828C118.529 269.604 118.175 269.492 117.695 269.492C117.339 269.496 117.025 269.58 116.753 269.744C116.485 269.908 116.311 270.176 116.231 270.548H115.253C115.277 270.144 115.391 269.804 115.595 269.528C115.799 269.248 116.083 269.036 116.447 268.892C116.815 268.748 117.249 268.676 117.749 268.676C118.289 268.676 118.737 268.752 119.093 268.904C119.453 269.056 119.721 269.28 119.897 269.576C120.077 269.872 120.167 270.236 120.167 270.668V275H119.219L119.141 273.836C118.901 274.32 118.595 274.656 118.223 274.844C117.855 275.028 117.449 275.12 117.005 275.12ZM117.341 274.322C117.549 274.322 117.755 274.284 117.959 274.208C118.167 274.132 118.357 274.03 118.529 273.902C118.701 273.77 118.837 273.624 118.937 273.464C119.041 273.3 119.095 273.132 119.099 272.96V271.898L118.175 271.916C117.703 271.924 117.307 271.972 116.987 272.06C116.671 272.148 116.433 272.286 116.273 272.474C116.117 272.662 116.039 272.908 116.039 273.212C116.039 273.56 116.159 273.832 116.399 274.028C116.643 274.224 116.957 274.322 117.341 274.322ZM125.079 277.052C124.103 277.052 123.343 276.91 122.799 276.626C122.259 276.346 121.989 275.944 121.989 275.42C121.989 275.196 122.041 275.006 122.145 274.85C122.249 274.69 122.373 274.558 122.517 274.454C122.661 274.35 122.795 274.268 122.919 274.208C123.043 274.144 123.123 274.098 123.159 274.07C123.091 274.03 123.005 273.98 122.901 273.92C122.801 273.86 122.713 273.78 122.637 273.68C122.561 273.58 122.523 273.45 122.523 273.29C122.523 273.094 122.615 272.914 122.799 272.75C122.983 272.586 123.255 272.464 123.615 272.384C123.251 272.2 122.967 271.956 122.763 271.652C122.559 271.348 122.457 271.018 122.457 270.662C122.457 270.262 122.565 269.914 122.781 269.618C123.001 269.322 123.313 269.096 123.717 268.94C124.121 268.78 124.601 268.7 125.157 268.7C125.561 268.7 125.901 268.748 126.177 268.844C126.453 268.936 126.709 269.068 126.945 269.24C127.009 269.212 127.109 269.17 127.245 269.114C127.385 269.054 127.539 268.99 127.707 268.922C127.875 268.854 128.031 268.79 128.175 268.73C128.323 268.666 128.441 268.618 128.529 268.586L128.523 269.612L127.437 269.816C127.497 269.944 127.545 270.084 127.581 270.236C127.621 270.388 127.641 270.53 127.641 270.662C127.641 271.026 127.545 271.356 127.353 271.652C127.165 271.948 126.879 272.184 126.495 272.36C126.111 272.536 125.631 272.624 125.055 272.624C125.007 272.624 124.945 272.624 124.869 272.624C124.797 272.62 124.735 272.616 124.683 272.612C124.259 272.624 123.967 272.672 123.807 272.756C123.647 272.836 123.567 272.926 123.567 273.026C123.567 273.142 123.657 273.222 123.837 273.266C124.017 273.31 124.323 273.348 124.755 273.38C124.911 273.388 125.103 273.398 125.331 273.41C125.563 273.422 125.819 273.438 126.099 273.458C126.751 273.498 127.253 273.664 127.605 273.956C127.957 274.248 128.133 274.642 128.133 275.138C128.133 275.702 127.881 276.162 127.377 276.518C126.873 276.874 126.107 277.052 125.079 277.052ZM125.277 276.338C125.849 276.338 126.287 276.252 126.591 276.08C126.895 275.908 127.047 275.648 127.047 275.3C127.047 275.052 126.953 274.85 126.765 274.694C126.581 274.534 126.299 274.442 125.919 274.418L124.179 274.304C124.023 274.296 123.861 274.336 123.693 274.424C123.525 274.508 123.381 274.626 123.261 274.778C123.145 274.93 123.087 275.102 123.087 275.294C123.087 275.622 123.265 275.878 123.621 276.062C123.981 276.246 124.533 276.338 125.277 276.338ZM125.085 271.91C125.533 271.91 125.893 271.806 126.165 271.598C126.441 271.39 126.579 271.082 126.579 270.674C126.579 270.254 126.441 269.934 126.165 269.714C125.893 269.494 125.533 269.384 125.085 269.384C124.633 269.384 124.267 269.496 123.987 269.72C123.711 269.94 123.573 270.258 123.573 270.674C123.573 271.066 123.705 271.37 123.969 271.586C124.233 271.802 124.605 271.91 125.085 271.91ZM130.92 272.156C130.92 272.548 130.984 272.904 131.112 273.224C131.244 273.54 131.442 273.792 131.706 273.98C131.974 274.168 132.308 274.262 132.708 274.262C133.104 274.262 133.444 274.17 133.728 273.986C134.016 273.802 134.2 273.536 134.28 273.188H135.33C135.254 273.608 135.086 273.962 134.826 274.25C134.566 274.538 134.252 274.756 133.884 274.904C133.516 275.048 133.132 275.12 132.732 275.12C132.152 275.12 131.642 274.994 131.202 274.742C130.762 274.49 130.418 274.128 130.17 273.656C129.922 273.184 129.798 272.618 129.798 271.958C129.798 271.306 129.91 270.734 130.134 270.242C130.358 269.75 130.682 269.366 131.106 269.09C131.534 268.814 132.048 268.676 132.648 268.676C133.232 268.676 133.726 268.802 134.13 269.054C134.534 269.306 134.84 269.662 135.048 270.122C135.26 270.578 135.366 271.12 135.366 271.748V272.156H130.92ZM130.926 271.406H134.298C134.298 271.05 134.238 270.73 134.118 270.446C133.998 270.158 133.814 269.932 133.566 269.768C133.322 269.6 133.014 269.516 132.642 269.516C132.254 269.516 131.932 269.61 131.676 269.798C131.424 269.982 131.234 270.22 131.106 270.512C130.982 270.8 130.922 271.098 130.926 271.406ZM143.889 268.796V269.606H142.383V275H141.267V269.606H139.959V268.796H141.267V267.836C141.267 267.344 141.393 266.97 141.645 266.714C141.897 266.454 142.273 266.324 142.773 266.324H143.943L143.949 267.11H143.019C142.767 267.11 142.595 267.178 142.503 267.314C142.411 267.45 142.365 267.656 142.365 267.932V268.796H143.889ZM145.66 275V268.796H146.716V269.99C146.82 269.694 146.966 269.45 147.154 269.258C147.342 269.062 147.556 268.916 147.796 268.82C148.04 268.724 148.292 268.676 148.552 268.676C148.644 268.676 148.734 268.682 148.822 268.694C148.91 268.706 148.978 268.726 149.026 268.754V269.828C148.966 269.8 148.888 269.782 148.792 269.774C148.7 269.762 148.622 269.756 148.558 269.756C148.31 269.74 148.078 269.756 147.862 269.804C147.646 269.848 147.456 269.926 147.292 270.038C147.128 270.15 146.998 270.298 146.902 270.482C146.81 270.662 146.764 270.882 146.764 271.142V275H145.66ZM153.05 275.12C152.478 275.12 151.978 274.998 151.55 274.754C151.122 274.506 150.79 274.144 150.554 273.668C150.318 273.192 150.2 272.61 150.2 271.922C150.2 271.274 150.31 270.706 150.53 270.218C150.75 269.73 151.072 269.352 151.496 269.084C151.924 268.812 152.442 268.676 153.05 268.676C153.622 268.676 154.118 268.802 154.538 269.054C154.962 269.302 155.29 269.668 155.522 270.152C155.754 270.636 155.87 271.226 155.87 271.922C155.87 272.554 155.762 273.11 155.546 273.59C155.334 274.07 155.018 274.446 154.598 274.718C154.182 274.986 153.666 275.12 153.05 275.12ZM153.05 274.244C153.422 274.244 153.736 274.15 153.992 273.962C154.248 273.774 154.442 273.504 154.574 273.152C154.706 272.8 154.772 272.382 154.772 271.898C154.772 271.454 154.714 271.056 154.598 270.704C154.482 270.348 154.296 270.066 154.04 269.858C153.788 269.65 153.458 269.546 153.05 269.546C152.674 269.546 152.356 269.64 152.096 269.828C151.836 270.012 151.638 270.28 151.502 270.632C151.37 270.984 151.304 271.406 151.304 271.898C151.304 272.334 151.364 272.73 151.484 273.086C151.604 273.442 151.792 273.724 152.048 273.932C152.304 274.14 152.638 274.244 153.05 274.244ZM157.722 275V268.796H158.79V269.696C158.962 269.424 159.198 269.186 159.498 268.982C159.798 268.778 160.188 268.676 160.668 268.676C160.892 268.676 161.12 268.714 161.352 268.79C161.588 268.866 161.804 268.98 162 269.132C162.196 269.284 162.348 269.47 162.456 269.69C162.648 269.386 162.908 269.142 163.236 268.958C163.564 268.77 163.934 268.676 164.346 268.676C164.562 268.676 164.788 268.71 165.024 268.778C165.26 268.842 165.478 268.958 165.678 269.126C165.882 269.29 166.048 269.52 166.176 269.816C166.304 270.108 166.368 270.484 166.368 270.944V275H165.252V271.052C165.252 270.676 165.192 270.386 165.072 270.182C164.952 269.974 164.794 269.828 164.598 269.744C164.406 269.66 164.2 269.618 163.98 269.618C163.788 269.618 163.584 269.656 163.368 269.732C163.152 269.808 162.968 269.936 162.816 270.116C162.664 270.296 162.588 270.542 162.588 270.854V275H161.484V270.728C161.484 270.484 161.418 270.28 161.286 270.116C161.158 269.952 160.996 269.828 160.8 269.744C160.608 269.66 160.416 269.618 160.224 269.618C160.012 269.618 159.798 269.66 159.582 269.744C159.37 269.828 159.19 269.962 159.042 270.146C158.898 270.326 158.826 270.562 158.826 270.854V275H157.722ZM174.834 269.606H173.436V273.464C173.436 273.684 173.458 273.846 173.502 273.95C173.55 274.05 173.628 274.114 173.736 274.142C173.848 274.17 174 274.184 174.192 274.184H174.87V274.928C174.794 274.956 174.678 274.98 174.522 275C174.37 275.02 174.18 275.03 173.952 275.03C173.524 275.03 173.192 274.972 172.956 274.856C172.72 274.74 172.554 274.568 172.458 274.34C172.366 274.112 172.32 273.832 172.32 273.5V269.606H171.312V268.796H172.35L172.62 266.99H173.436V268.79H174.834V269.606ZM176.828 275V266.084H177.908V269.708C178.012 269.536 178.152 269.376 178.328 269.228C178.504 269.076 178.718 268.954 178.97 268.862C179.222 268.766 179.514 268.718 179.846 268.718C180.25 268.718 180.616 268.794 180.944 268.946C181.272 269.094 181.532 269.306 181.724 269.582C181.916 269.858 182.012 270.186 182.012 270.566V275H180.902V270.788C180.902 270.416 180.774 270.13 180.518 269.93C180.266 269.726 179.936 269.624 179.528 269.624C179.252 269.624 178.992 269.67 178.748 269.762C178.504 269.85 178.306 269.986 178.154 270.17C178.006 270.35 177.932 270.58 177.932 270.86V275H176.828ZM184.934 272.156C184.934 272.548 184.998 272.904 185.126 273.224C185.258 273.54 185.456 273.792 185.72 273.98C185.988 274.168 186.322 274.262 186.722 274.262C187.118 274.262 187.458 274.17 187.742 273.986C188.03 273.802 188.214 273.536 188.294 273.188H189.344C189.268 273.608 189.1 273.962 188.84 274.25C188.58 274.538 188.266 274.756 187.898 274.904C187.53 275.048 187.146 275.12 186.746 275.12C186.166 275.12 185.656 274.994 185.216 274.742C184.776 274.49 184.432 274.128 184.184 273.656C183.936 273.184 183.812 272.618 183.812 271.958C183.812 271.306 183.924 270.734 184.148 270.242C184.372 269.75 184.696 269.366 185.12 269.09C185.548 268.814 186.062 268.676 186.662 268.676C187.246 268.676 187.74 268.802 188.144 269.054C188.548 269.306 188.854 269.662 189.062 270.122C189.274 270.578 189.38 271.12 189.38 271.748V272.156H184.934ZM184.94 271.406H188.312C188.312 271.05 188.252 270.73 188.132 270.446C188.012 270.158 187.828 269.932 187.58 269.768C187.336 269.6 187.028 269.516 186.656 269.516C186.268 269.516 185.946 269.61 185.69 269.798C185.438 269.982 185.248 270.22 185.12 270.512C184.996 270.8 184.936 271.098 184.94 271.406ZM202.489 268.796L200.611 275H199.519L198.103 270.422L196.759 275H195.673L193.759 268.796H194.785L196.207 273.566H196.303L197.701 268.796H198.541L199.993 273.554H200.089L201.451 268.796H202.489ZM206.394 275.12C205.822 275.12 205.322 274.998 204.894 274.754C204.466 274.506 204.134 274.144 203.898 273.668C203.662 273.192 203.544 272.61 203.544 271.922C203.544 271.274 203.654 270.706 203.874 270.218C204.094 269.73 204.416 269.352 204.84 269.084C205.268 268.812 205.786 268.676 206.394 268.676C206.966 268.676 207.462 268.802 207.882 269.054C208.306 269.302 208.634 269.668 208.866 270.152C209.098 270.636 209.214 271.226 209.214 271.922C209.214 272.554 209.106 273.11 208.89 273.59C208.678 274.07 208.362 274.446 207.942 274.718C207.526 274.986 207.01 275.12 206.394 275.12ZM206.394 274.244C206.766 274.244 207.08 274.15 207.336 273.962C207.592 273.774 207.786 273.504 207.918 273.152C208.05 272.8 208.116 272.382 208.116 271.898C208.116 271.454 208.058 271.056 207.942 270.704C207.826 270.348 207.64 270.066 207.384 269.858C207.132 269.65 206.802 269.546 206.394 269.546C206.018 269.546 205.7 269.64 205.44 269.828C205.18 270.012 204.982 270.28 204.846 270.632C204.714 270.984 204.648 271.406 204.648 271.898C204.648 272.334 204.708 272.73 204.828 273.086C204.948 273.442 205.136 273.724 205.392 273.932C205.648 274.14 205.982 274.244 206.394 274.244ZM211.066 275V268.796H212.122V269.99C212.226 269.694 212.372 269.45 212.56 269.258C212.748 269.062 212.962 268.916 213.202 268.82C213.446 268.724 213.698 268.676 213.958 268.676C214.05 268.676 214.14 268.682 214.228 268.694C214.316 268.706 214.384 268.726 214.432 268.754V269.828C214.372 269.8 214.294 269.782 214.198 269.774C214.106 269.762 214.028 269.756 213.964 269.756C213.716 269.74 213.484 269.756 213.268 269.804C213.052 269.848 212.862 269.926 212.698 270.038C212.534 270.15 212.404 270.298 212.308 270.482C212.216 270.662 212.17 270.882 212.17 271.142V275H211.066ZM217.685 275.078C217.349 275.078 217.077 275.032 216.869 274.94C216.665 274.848 216.507 274.724 216.395 274.568C216.287 274.412 216.213 274.234 216.173 274.034C216.137 273.83 216.119 273.62 216.119 273.404V266.084H217.211V273.296C217.211 273.608 217.271 273.842 217.391 273.998C217.515 274.154 217.687 274.24 217.907 274.256L218.243 274.262V274.982C218.151 275.01 218.055 275.032 217.955 275.048C217.855 275.068 217.765 275.078 217.685 275.078ZM222.237 275.12C221.433 275.12 220.795 274.844 220.323 274.292C219.851 273.74 219.615 272.934 219.615 271.874C219.615 271.23 219.709 270.668 219.897 270.188C220.089 269.708 220.373 269.336 220.749 269.072C221.125 268.808 221.593 268.676 222.153 268.676C222.449 268.676 222.711 268.714 222.939 268.79C223.171 268.866 223.371 268.962 223.539 269.078C223.707 269.194 223.843 269.314 223.947 269.438C224.055 269.562 224.135 269.676 224.187 269.78V266.084H225.303V275H224.457L224.337 273.728C224.297 273.848 224.233 273.988 224.145 274.148C224.057 274.304 223.933 274.458 223.773 274.61C223.613 274.758 223.407 274.88 223.155 274.976C222.907 275.072 222.601 275.12 222.237 275.12ZM222.435 274.268C223.063 274.268 223.511 274.078 223.779 273.698C224.051 273.314 224.187 272.688 224.187 271.82C224.183 271.336 224.121 270.924 224.001 270.584C223.885 270.244 223.701 269.986 223.449 269.81C223.201 269.63 222.871 269.54 222.459 269.54C221.947 269.54 221.531 269.722 221.211 270.086C220.891 270.45 220.731 271.028 220.731 271.82C220.731 272.596 220.875 273.198 221.163 273.626C221.455 274.054 221.879 274.268 222.435 274.268ZM235.696 268.796L233.818 275H232.726L231.31 270.422L229.966 275H228.88L226.966 268.796H227.992L229.414 273.566H229.51L230.908 268.796H231.748L233.2 273.554H233.296L234.658 268.796H235.696ZM238.558 268.796V275H237.484V268.796H238.558ZM238.582 266.33V267.482H237.448V266.33H238.582ZM243.148 275.12C242.344 275.12 241.706 274.844 241.234 274.292C240.762 273.74 240.526 272.934 240.526 271.874C240.526 271.23 240.62 270.668 240.808 270.188C241 269.708 241.284 269.336 241.66 269.072C242.036 268.808 242.504 268.676 243.064 268.676C243.36 268.676 243.622 268.714 243.85 268.79C244.082 268.866 244.282 268.962 244.45 269.078C244.618 269.194 244.754 269.314 244.858 269.438C244.966 269.562 245.046 269.676 245.098 269.78V266.084H246.214V275H245.368L245.248 273.728C245.208 273.848 245.144 273.988 245.056 274.148C244.968 274.304 244.844 274.458 244.684 274.61C244.524 274.758 244.318 274.88 244.066 274.976C243.818 275.072 243.512 275.12 243.148 275.12ZM243.346 274.268C243.974 274.268 244.422 274.078 244.69 273.698C244.962 273.314 245.098 272.688 245.098 271.82C245.094 271.336 245.032 270.924 244.912 270.584C244.796 270.244 244.612 269.986 244.36 269.81C244.112 269.63 243.782 269.54 243.37 269.54C242.858 269.54 242.442 269.722 242.122 270.086C241.802 270.45 241.642 271.028 241.642 271.82C241.642 272.596 241.786 273.198 242.074 273.626C242.366 274.054 242.79 274.268 243.346 274.268ZM249.239 272.156C249.239 272.548 249.303 272.904 249.431 273.224C249.563 273.54 249.761 273.792 250.025 273.98C250.293 274.168 250.627 274.262 251.027 274.262C251.423 274.262 251.763 274.17 252.047 273.986C252.335 273.802 252.519 273.536 252.599 273.188H253.649C253.573 273.608 253.405 273.962 253.145 274.25C252.885 274.538 252.571 274.756 252.203 274.904C251.835 275.048 251.451 275.12 251.051 275.12C250.471 275.12 249.961 274.994 249.521 274.742C249.081 274.49 248.737 274.128 248.489 273.656C248.241 273.184 248.117 272.618 248.117 271.958C248.117 271.306 248.229 270.734 248.453 270.242C248.677 269.75 249.001 269.366 249.425 269.09C249.853 268.814 250.367 268.676 250.967 268.676C251.551 268.676 252.045 268.802 252.449 269.054C252.853 269.306 253.159 269.662 253.367 270.122C253.579 270.578 253.685 271.12 253.685 271.748V272.156H249.239ZM249.245 271.406H252.617C252.617 271.05 252.557 270.73 252.437 270.446C252.317 270.158 252.133 269.932 251.885 269.768C251.641 269.6 251.333 269.516 250.961 269.516C250.573 269.516 250.251 269.61 249.995 269.798C249.743 269.982 249.553 270.22 249.425 270.512C249.301 270.8 249.241 271.098 249.245 271.406Z" fill="#B5B5C3"/>
<defs>
<filter id="filter0_d_15_13993" x="64.2617" y="104.11" width="74.7383" height="82.635" filterUnits="userSpaceOnUse" color-interpolation-filters="sRGB">
<feFlood flood-opacity="0" result="BackgroundImageFix"/>
<feColorMatrix in="SourceAlpha" type="matrix" values="0 0 0 0 0 0 0 0 0 0 0 0 0 0 0 0 0 0 127 0" result="hardAlpha"/>
<feOffset dy="11"/>
<feGaussianBlur stdDeviation="7.5"/>
<feComposite in2="hardAlpha" operator="out"/>
<feColorMatrix type="matrix" values="0 0 0 0 0.564706 0 0 0 0 0.792157 0 0 0 0 0.976471 0 0 0 0.25 0"/>
<feBlend mode="normal" in2="BackgroundImageFix" result="effect1_dropShadow_15_13993"/>
<feBlend mode="normal" in="SourceGraphic" in2="effect1_dropShadow_15_13993" result="shape"/>
</filter>
<filter id="filter1_d_15_13993" x="8.77539" y="103" width="86.791" height="68.7803" filterUnits="userSpaceOnUse" color-interpolation-filters="sRGB">
<feFlood flood-opacity="0" result="BackgroundImageFix"/>
<feColorMatrix in="SourceAlpha" type="matrix" values="0 0 0 0 0 0 0 0 0 0 0 0 0 0 0 0 0 0 127 0" result="hardAlpha"/>
<feOffset dy="11"/>
<feGaussianBlur stdDeviation="7.5"/>
<feComposite in2="hardAlpha" operator="out"/>
<feColorMatrix type="matrix" values="0 0 0 0 0.290196 0 0 0 0 0.709804 0 0 0 0 0.556863 0 0 0 0.25 0"/>
<feBlend mode="normal" in2="BackgroundImageFix" result="effect1_dropShadow_15_13993"/>
<feBlend mode="normal" in="SourceGraphic" in2="effect1_dropShadow_15_13993" result="shape"/>
</filter>
<filter id="filter2_d_15_13993" x="5" y="137.484" width="59.293" height="87.3601" filterUnits="userSpaceOnUse" color-interpolation-filters="sRGB">
<feFlood flood-opacity="0" result="BackgroundImageFix"/>
<feColorMatrix in="SourceAlpha" type="matrix" values="0 0 0 0 0 0 0 0 0 0 0 0 0 0 0 0 0 0 127 0" result="hardAlpha"/>
<feOffset dy="11"/>
<feGaussianBlur stdDeviation="7.5"/>
<feComposite in2="hardAlpha" operator="out"/>
<feColorMatrix type="matrix" values="0 0 0 0 0.513726 0 0 0 0 0.505882 0 0 0 0 0.941176 0 0 0 0.25 0"/>
<feBlend mode="normal" in2="BackgroundImageFix" result="effect1_dropShadow_15_13993"/>
<feBlend mode="normal" in="SourceGraphic" in2="effect1_dropShadow_15_13993" result="shape"/>
</filter>
<filter id="filter3_d_15_13993" x="25.123" y="182.921" width="73.2773" height="54.0791" filterUnits="userSpaceOnUse" color-interpolation-filters="sRGB">
<feFlood flood-opacity="0" result="BackgroundImageFix"/>
<feColorMatrix in="SourceAlpha" type="matrix" values="0 0 0 0 0 0 0 0 0 0 0 0 0 0 0 0 0 0 127 0" result="hardAlpha"/>
<feOffset dy="11"/>
<feGaussianBlur stdDeviation="7.5"/>
<feComposite in2="hardAlpha" operator="out"/>
<feColorMatrix type="matrix" values="0 0 0 0 1 0 0 0 0 0.717647 0 0 0 0 0.301961 0 0 0 0.25 0"/>
<feBlend mode="normal" in2="BackgroundImageFix" result="effect1_dropShadow_15_13993"/>
<feBlend mode="normal" in="SourceGraphic" in2="effect1_dropShadow_15_13993" result="shape"/>
</filter>
<filter id="filter4_d_15_13993" x="66.3027" y="157.761" width="72.5391" height="77.4045" filterUnits="userSpaceOnUse" color-interpolation-filters="sRGB">
<feFlood flood-opacity="0" result="BackgroundImageFix"/>
<feColorMatrix in="SourceAlpha" type="matrix" values="0 0 0 0 0 0 0 0 0 0 0 0 0 0 0 0 0 0 127 0" result="hardAlpha"/>
<feOffset dy="11"/>
<feGaussianBlur stdDeviation="7.5"/>
<feComposite in2="hardAlpha" operator="out"/>
<feColorMatrix type="matrix" values="0 0 0 0 0.807843 0 0 0 0 0.576471 0 0 0 0 0.847059 0 0 0 0.25 0"/>
<feBlend mode="normal" in2="BackgroundImageFix" result="effect1_dropShadow_15_13993"/>
<feBlend mode="normal" in="SourceGraphic" in2="effect1_dropShadow_15_13993" result="shape"/>
</filter>
</defs>
</svg>
