<svg width="102" height="34" viewBox="0 0 102 34" fill="none" xmlns="http://www.w3.org/2000/svg">
<path d="M0.899658 33.5435L3.87046 25.5792L8.81966 33.5401L8.82493 33.5401L13.278 28.6424L19.4165 31.7056L23.1807 24.3539L25.6564 11.4885L33.5785 8.42526L39.5201 0.460938L41.5006 4.74942L46.452 5.9747L48.4325 15.7769L55.3644 21.9033L58.3352 11.4885L62.7914 15.7769L66.7525 11.4885L74.6746 25.5792L77.6454 18.2275L82.3909 25.9818L86.9133 21.9033L90.9332 13.2214L95.958 8.96788L96.0794 33.5022L8.82493 33.5401L8.8218 33.5435L8.81966 33.5401L0.899658 33.5435Z" fill="url(#paint0_linear_10333_17277)"/>
<path d="M0.899658 33.5435L7.23807 26.29C7.38652 26.1201 7.63033 26.0707 7.83321 26.1693L18.756 31.4802C19.0097 31.6035 19.3152 31.4927 19.4308 31.2353L24.144 20.7381C24.1619 20.6982 24.1745 20.6562 24.1815 20.6131L25.6106 11.7716C25.6389 11.5962 25.7582 11.4491 25.9239 11.385L33.4442 8.4772C33.532 8.44326 33.6084 8.38525 33.6646 8.30982L39.0177 1.13439C39.2444 0.830567 39.7135 0.879605 39.8724 1.22373L41.4 4.53139C41.4636 4.6692 41.5864 4.77064 41.7338 4.80711L46.1447 5.89865C46.3323 5.94509 46.4764 6.09552 46.5147 6.28499L48.3993 15.6124C48.4209 15.7192 48.4767 15.816 48.5583 15.8881L54.7701 21.378C55.0457 21.6216 55.4811 21.4943 55.582 21.1405L58.107 12.2884C58.2105 11.9257 58.6629 11.8038 58.9346 12.0653L62.4237 15.4231C62.6256 15.6173 62.9476 15.6078 63.1377 15.402L66.2862 11.9933C66.5165 11.744 66.923 11.7917 67.0893 12.0875L74.1649 24.6725C74.3704 25.038 74.9073 25.0035 75.0643 24.6148L77.2612 19.1784C77.4173 18.7921 77.9497 18.755 78.1579 19.1159L82.0641 25.8879C82.2287 26.1733 82.6196 26.2242 82.8519 25.9905L86.8512 21.9658C86.8923 21.9245 86.9258 21.8763 86.9503 21.8234L90.8868 13.3216C90.9173 13.2556 90.9619 13.197 91.0174 13.15L95.958 8.96788" stroke="#0BB783"/>
<circle cx="95.8999" cy="9.5" r="3" fill="#0BB783"/>
<circle cx="95.8999" cy="9.5" r="5.75" stroke="#0BB783" stroke-opacity="0.3" stroke-width="0.5"/>
<rect width="0.5" height="21" transform="translate(95.8997 12.5)" fill="url(#paint1_linear_10333_17277)"/>
<defs>
<linearGradient id="paint0_linear_10333_17277" x1="45.7093" y1="0.460938" x2="45.3303" y2="31.0913" gradientUnits="userSpaceOnUse">
<stop stop-color="#0BB783" stop-opacity="0.5"/>
<stop offset="1" stop-color="#0BB783" stop-opacity="0"/>
</linearGradient>
<linearGradient id="paint1_linear_10333_17277" x1="0.235395" y1="3.69964e-07" x2="-8.75107" y2="6.01051" gradientUnits="userSpaceOnUse">
<stop stop-color="#0BB783"/>
<stop offset="1" stop-color="#0BB783" stop-opacity="0.1"/>
</linearGradient>
</defs>
</svg>
