<svg width="327" height="397" viewBox="0 0 327 397" fill="none" xmlns="http://www.w3.org/2000/svg">
<rect width="327" height="397" rx="10" fill="#121212"/>
<rect width="327" height="397" rx="10" fill="url(#paint0_linear_10_10811)"/>
<path d="M36.41 47H34.16L31.6 40.95H27.97V47H25.83V32.54H31.57C32.6433 32.54 33.5333 32.7067 34.24 33.04C34.9467 33.3667 35.4733 33.8333 35.82 34.44C36.1667 35.0467 36.34 35.7633 36.34 36.59C36.34 37.37 36.2067 38.02 35.94 38.54C35.68 39.06 35.34 39.4833 34.92 39.81C34.5067 40.1367 34.07 40.3933 33.61 40.58L36.41 47ZM30.99 39.22C31.9967 39.22 32.7767 39.0033 33.33 38.57C33.8833 38.13 34.16 37.5033 34.16 36.69C34.16 35.89 33.9067 35.2833 33.4 34.87C32.9 34.4567 32.22 34.25 31.36 34.25H27.97V39.22H30.99ZM40.5208 42.33C40.5208 42.95 40.6208 43.5067 40.8208 44C41.0274 44.4867 41.3374 44.8733 41.7508 45.16C42.1641 45.44 42.6774 45.58 43.2908 45.58C43.9041 45.58 44.4341 45.44 44.8808 45.16C45.3341 44.88 45.6308 44.4633 45.7708 43.91H47.7508C47.6308 44.6167 47.3474 45.2167 46.9008 45.71C46.4608 46.2033 45.9274 46.5767 45.3008 46.83C44.6741 47.0767 44.0174 47.2 43.3308 47.2C42.3508 47.2 41.4874 46.99 40.7408 46.57C39.9941 46.1433 39.4108 45.5367 38.9908 44.75C38.5774 43.9633 38.3708 43.0267 38.3708 41.94C38.3708 40.8667 38.5608 39.92 38.9408 39.1C39.3208 38.2733 39.8708 37.6267 40.5908 37.16C41.3108 36.6933 42.1774 36.46 43.1908 36.46C44.1908 36.46 45.0308 36.6733 45.7108 37.1C46.3974 37.5267 46.9174 38.1267 47.2708 38.9C47.6241 39.6667 47.8008 40.5733 47.8008 41.62V42.33H40.5208ZM40.5208 40.94H45.7608C45.7608 40.4 45.6674 39.91 45.4808 39.47C45.2941 39.0233 45.0074 38.6733 44.6208 38.42C44.2408 38.16 43.7608 38.03 43.1808 38.03C42.5874 38.03 42.0941 38.1733 41.7008 38.46C41.3074 38.7467 41.0108 39.1133 40.8108 39.56C40.6174 40.0067 40.5208 40.4667 40.5208 40.94ZM58.3078 36.66L54.5478 47H52.7378L48.9678 36.66H50.9478L53.5678 44.29H53.7078L56.3278 36.66H58.3078ZM61.563 42.33C61.563 42.95 61.663 43.5067 61.863 44C62.0696 44.4867 62.3796 44.8733 62.793 45.16C63.2063 45.44 63.7196 45.58 64.333 45.58C64.9463 45.58 65.4763 45.44 65.923 45.16C66.3763 44.88 66.673 44.4633 66.813 43.91H68.793C68.673 44.6167 68.3896 45.2167 67.943 45.71C67.503 46.2033 66.9696 46.5767 66.343 46.83C65.7163 47.0767 65.0596 47.2 64.373 47.2C63.393 47.2 62.5296 46.99 61.783 46.57C61.0363 46.1433 60.453 45.5367 60.033 44.75C59.6196 43.9633 59.413 43.0267 59.413 41.94C59.413 40.8667 59.603 39.92 59.983 39.1C60.363 38.2733 60.913 37.6267 61.633 37.16C62.353 36.6933 63.2196 36.46 64.233 36.46C65.233 36.46 66.073 36.6733 66.753 37.1C67.4396 37.5267 67.9596 38.1267 68.313 38.9C68.6663 39.6667 68.843 40.5733 68.843 41.62V42.33H61.563ZM61.563 40.94H66.803C66.803 40.4 66.7096 39.91 66.523 39.47C66.3363 39.0233 66.0496 38.6733 65.663 38.42C65.283 38.16 64.803 38.03 64.223 38.03C63.6296 38.03 63.1363 38.1733 62.743 38.46C62.3496 38.7467 62.053 39.1133 61.853 39.56C61.6596 40.0067 61.563 40.4667 61.563 40.94ZM71.382 47V36.66H73.472V38.15C73.6387 37.87 73.862 37.6067 74.142 37.36C74.4287 37.1133 74.7787 36.9133 75.192 36.76C75.612 36.6067 76.0954 36.53 76.642 36.53C77.2887 36.53 77.8854 36.66 78.432 36.92C78.9854 37.1733 79.4287 37.5733 79.762 38.12C80.0954 38.66 80.262 39.36 80.262 40.22V47H78.122V40.45C78.122 39.71 77.922 39.16 77.522 38.8C77.1287 38.44 76.6187 38.26 75.992 38.26C75.572 38.26 75.172 38.33 74.792 38.47C74.412 38.61 74.1054 38.8233 73.872 39.11C73.6387 39.39 73.522 39.7433 73.522 40.17V47H71.382ZM86.7969 47.2C86.2769 47.1933 85.7802 47.1167 85.3069 46.97C84.8335 46.8233 84.4102 46.6033 84.0369 46.31C83.6702 46.0167 83.3769 45.6533 83.1569 45.22C82.9435 44.7867 82.8369 44.2833 82.8369 43.71V36.66H84.9869V43.48C84.9869 44.1 85.1802 44.6033 85.5669 44.99C85.9535 45.3767 86.5369 45.57 87.3169 45.57C88.0235 45.57 88.5902 45.3867 89.0169 45.02C89.4435 44.6467 89.6569 44.1033 89.6569 43.39V36.66H91.7869V47H90.1269L89.8869 45C89.7669 45.54 89.5502 45.9733 89.2369 46.3C88.9302 46.62 88.5635 46.8533 88.1369 47C87.7169 47.14 87.2702 47.2067 86.7969 47.2ZM96.3098 42.33C96.3098 42.95 96.4098 43.5067 96.6098 44C96.8165 44.4867 97.1265 44.8733 97.5398 45.16C97.9532 45.44 98.4665 45.58 99.0798 45.58C99.6932 45.58 100.223 45.44 100.67 45.16C101.123 44.88 101.42 44.4633 101.56 43.91H103.54C103.42 44.6167 103.137 45.2167 102.69 45.71C102.25 46.2033 101.717 46.5767 101.09 46.83C100.463 47.0767 99.8065 47.2 99.1198 47.2C98.1398 47.2 97.2765 46.99 96.5298 46.57C95.7832 46.1433 95.1998 45.5367 94.7798 44.75C94.3665 43.9633 94.1598 43.0267 94.1598 41.94C94.1598 40.8667 94.3498 39.92 94.7298 39.1C95.1098 38.2733 95.6598 37.6267 96.3798 37.16C97.0998 36.6933 97.9665 36.46 98.9798 36.46C99.9798 36.46 100.82 36.6733 101.5 37.1C102.187 37.5267 102.707 38.1267 103.06 38.9C103.413 39.6667 103.59 40.5733 103.59 41.62V42.33H96.3098ZM96.3098 40.94H101.55C101.55 40.4 101.457 39.91 101.27 39.47C101.083 39.0233 100.797 38.6733 100.41 38.42C100.03 38.16 99.5498 38.03 98.9698 38.03C98.3765 38.03 97.8832 38.1733 97.4898 38.46C97.0965 38.7467 96.7998 39.1133 96.5998 39.56C96.4065 40.0067 96.3098 40.4667 96.3098 40.94ZM121.633 47H119.383L116.823 40.95H113.193V47H111.053V32.54H116.793C117.867 32.54 118.757 32.7067 119.463 33.04C120.17 33.3667 120.697 33.8333 121.043 34.44C121.39 35.0467 121.563 35.7633 121.563 36.59C121.563 37.37 121.43 38.02 121.163 38.54C120.903 39.06 120.563 39.4833 120.143 39.81C119.73 40.1367 119.293 40.3933 118.833 40.58L121.633 47ZM116.213 39.22C117.22 39.22 118 39.0033 118.553 38.57C119.107 38.13 119.383 37.5033 119.383 36.69C119.383 35.89 119.13 35.2833 118.623 34.87C118.123 34.4567 117.443 34.25 116.583 34.25H113.193V39.22H116.213ZM128.246 47.2C127.526 47.2 126.85 47.0867 126.216 46.86C125.59 46.6333 125.063 46.2767 124.636 45.79C124.216 45.3033 123.953 44.68 123.846 43.92H125.756C125.843 44.3133 126.006 44.64 126.246 44.9C126.493 45.1533 126.786 45.3433 127.126 45.47C127.473 45.59 127.843 45.65 128.236 45.65C128.89 45.65 129.416 45.5333 129.816 45.3C130.223 45.06 130.426 44.6933 130.426 44.2C130.426 43.8467 130.316 43.5633 130.096 43.35C129.883 43.1367 129.543 42.98 129.076 42.88L127.016 42.39C126.163 42.19 125.48 41.8733 124.966 41.44C124.453 41 124.193 40.3867 124.186 39.6C124.186 38.9933 124.336 38.4533 124.636 37.98C124.943 37.5067 125.396 37.1367 125.996 36.87C126.596 36.5967 127.343 36.46 128.236 36.46C129.403 36.46 130.34 36.72 131.046 37.24C131.753 37.76 132.12 38.5133 132.146 39.5H130.296C130.23 39.0267 130.013 38.6567 129.646 38.39C129.286 38.1167 128.81 37.98 128.216 37.98C127.603 37.98 127.1 38.1033 126.706 38.35C126.313 38.59 126.116 38.96 126.116 39.46C126.116 39.8 126.26 40.07 126.546 40.27C126.833 40.4633 127.263 40.6233 127.836 40.75L129.796 41.24C130.303 41.3733 130.72 41.55 131.046 41.77C131.373 41.9833 131.63 42.22 131.816 42.48C132.003 42.74 132.133 43.01 132.206 43.29C132.286 43.57 132.326 43.8333 132.326 44.08C132.326 44.7333 132.16 45.2933 131.826 45.76C131.5 46.22 131.03 46.5767 130.416 46.83C129.81 47.0767 129.086 47.2 128.246 47.2ZM139.099 47.2C138.133 47.2 137.286 46.9933 136.559 46.58C135.839 46.16 135.279 45.5533 134.879 44.76C134.486 43.9667 134.289 43.0067 134.289 41.88C134.289 40.7933 134.476 39.8433 134.849 39.03C135.229 38.2167 135.779 37.5867 136.499 37.14C137.219 36.6867 138.089 36.46 139.109 36.46C140.083 36.46 140.926 36.6733 141.639 37.1C142.353 37.52 142.906 38.1367 143.299 38.95C143.693 39.7567 143.889 40.7333 143.889 41.88C143.889 42.9267 143.703 43.85 143.329 44.65C142.963 45.45 142.423 46.0767 141.709 46.53C141.003 46.9767 140.133 47.2 139.099 47.2ZM139.109 45.55C139.696 45.55 140.186 45.3967 140.579 45.09C140.979 44.7767 141.279 44.34 141.479 43.78C141.679 43.2133 141.779 42.56 141.779 41.82C141.779 41.1333 141.689 40.51 141.509 39.95C141.336 39.3833 141.053 38.9333 140.659 38.6C140.266 38.2667 139.749 38.1 139.109 38.1C138.509 38.1 138.009 38.2533 137.609 38.56C137.209 38.86 136.906 39.29 136.699 39.85C136.499 40.4033 136.399 41.06 136.399 41.82C136.399 42.4933 136.489 43.1133 136.669 43.68C136.849 44.2467 137.139 44.7 137.539 45.04C137.939 45.38 138.463 45.55 139.109 45.55ZM149.982 47.2C149.462 47.1933 148.965 47.1167 148.492 46.97C148.019 46.8233 147.595 46.6033 147.222 46.31C146.855 46.0167 146.562 45.6533 146.342 45.22C146.129 44.7867 146.022 44.2833 146.022 43.71V36.66H148.172V43.48C148.172 44.1 148.365 44.6033 148.752 44.99C149.139 45.3767 149.722 45.57 150.502 45.57C151.209 45.57 151.775 45.3867 152.202 45.02C152.629 44.6467 152.842 44.1033 152.842 43.39V36.66H154.972V47H153.312L153.072 45C152.952 45.54 152.735 45.9733 152.422 46.3C152.115 46.62 151.749 46.8533 151.322 47C150.902 47.14 150.455 47.2067 149.982 47.2ZM157.992 47V36.66H160.042V38.78C160.216 38.2733 160.456 37.85 160.762 37.51C161.076 37.1633 161.439 36.9033 161.852 36.73C162.266 36.55 162.702 36.46 163.162 36.46C163.302 36.46 163.436 36.47 163.562 36.49C163.689 36.5033 163.789 36.53 163.862 36.57V38.63C163.776 38.59 163.662 38.5633 163.522 38.55C163.389 38.5367 163.272 38.5267 163.172 38.52C162.719 38.4867 162.306 38.51 161.932 38.59C161.559 38.67 161.236 38.8033 160.962 38.99C160.696 39.1767 160.489 39.42 160.342 39.72C160.202 40.02 160.132 40.3733 160.132 40.78V47H157.992ZM170.028 36.46C170.801 36.46 171.488 36.6133 172.088 36.92C172.695 37.22 173.185 37.64 173.558 38.18C173.931 38.72 174.158 39.35 174.238 40.07H172.388C172.328 39.73 172.198 39.4133 171.998 39.12C171.805 38.8267 171.541 38.5933 171.208 38.42C170.881 38.24 170.491 38.15 170.038 38.15C169.211 38.15 168.538 38.4533 168.018 39.06C167.498 39.6667 167.238 40.5967 167.238 41.85C167.238 42.9967 167.478 43.91 167.958 44.59C168.445 45.27 169.151 45.61 170.078 45.61C170.525 45.61 170.911 45.5167 171.238 45.33C171.571 45.1433 171.835 44.9033 172.028 44.61C172.221 44.3167 172.345 44.0133 172.398 43.7H174.218C174.145 44.3933 173.918 45.0033 173.538 45.53C173.165 46.0567 172.675 46.4667 172.068 46.76C171.468 47.0533 170.788 47.2 170.028 47.2C169.088 47.2 168.255 46.9967 167.528 46.59C166.801 46.1767 166.231 45.5733 165.818 44.78C165.411 43.98 165.208 43.01 165.208 41.87C165.208 40.7967 165.398 39.8533 165.778 39.04C166.158 38.2267 166.708 37.5933 167.428 37.14C168.155 36.6867 169.021 36.46 170.028 36.46ZM178.369 42.33C178.369 42.95 178.469 43.5067 178.669 44C178.876 44.4867 179.186 44.8733 179.599 45.16C180.013 45.44 180.526 45.58 181.139 45.58C181.753 45.58 182.283 45.44 182.729 45.16C183.183 44.88 183.479 44.4633 183.619 43.91H185.599C185.479 44.6167 185.196 45.2167 184.749 45.71C184.309 46.2033 183.776 46.5767 183.149 46.83C182.523 47.0767 181.866 47.2 181.179 47.2C180.199 47.2 179.336 46.99 178.589 46.57C177.843 46.1433 177.259 45.5367 176.839 44.75C176.426 43.9633 176.219 43.0267 176.219 41.94C176.219 40.8667 176.409 39.92 176.789 39.1C177.169 38.2733 177.719 37.6267 178.439 37.16C179.159 36.6933 180.026 36.46 181.039 36.46C182.039 36.46 182.879 36.6733 183.559 37.1C184.246 37.5267 184.766 38.1267 185.119 38.9C185.473 39.6667 185.649 40.5733 185.649 41.62V42.33H178.369ZM178.369 40.94H183.609C183.609 40.4 183.516 39.91 183.329 39.47C183.143 39.0233 182.856 38.6733 182.469 38.42C182.089 38.16 181.609 38.03 181.029 38.03C180.436 38.03 179.943 38.1733 179.549 38.46C179.156 38.7467 178.859 39.1133 178.659 39.56C178.466 40.0067 178.369 40.4667 178.369 40.94ZM191.92 47.2C191.2 47.2 190.523 47.0867 189.89 46.86C189.263 46.6333 188.736 46.2767 188.31 45.79C187.89 45.3033 187.626 44.68 187.52 43.92H189.43C189.516 44.3133 189.68 44.64 189.92 44.9C190.166 45.1533 190.46 45.3433 190.8 45.47C191.146 45.59 191.516 45.65 191.91 45.65C192.563 45.65 193.09 45.5333 193.49 45.3C193.896 45.06 194.1 44.6933 194.1 44.2C194.1 43.8467 193.99 43.5633 193.77 43.35C193.556 43.1367 193.216 42.98 192.75 42.88L190.69 42.39C189.836 42.19 189.153 41.8733 188.64 41.44C188.126 41 187.866 40.3867 187.86 39.6C187.86 38.9933 188.01 38.4533 188.31 37.98C188.616 37.5067 189.07 37.1367 189.67 36.87C190.27 36.5967 191.016 36.46 191.91 36.46C193.076 36.46 194.013 36.72 194.72 37.24C195.426 37.76 195.793 38.5133 195.82 39.5H193.97C193.903 39.0267 193.686 38.6567 193.32 38.39C192.96 38.1167 192.483 37.98 191.89 37.98C191.276 37.98 190.773 38.1033 190.38 38.35C189.986 38.59 189.79 38.96 189.79 39.46C189.79 39.8 189.933 40.07 190.22 40.27C190.506 40.4633 190.936 40.6233 191.51 40.75L193.47 41.24C193.976 41.3733 194.393 41.55 194.72 41.77C195.046 41.9833 195.303 42.22 195.49 42.48C195.676 42.74 195.806 43.01 195.88 43.29C195.96 43.57 196 43.8333 196 44.08C196 44.7333 195.833 45.2933 195.5 45.76C195.173 46.22 194.703 46.5767 194.09 46.83C193.483 47.0767 192.76 47.2 191.92 47.2Z" fill="white"/>
<path d="M284.001 38.3333C283.084 38.3333 282.334 39.0833 282.334 39.9999C282.334 40.9166 283.084 41.6666 284.001 41.6666C284.917 41.6666 285.667 40.9166 285.667 39.9999C285.667 39.0833 284.917 38.3333 284.001 38.3333ZM294.001 38.3333C293.084 38.3333 292.334 39.0833 292.334 39.9999C292.334 40.9166 293.084 41.6666 294.001 41.6666C294.917 41.6666 295.667 40.9166 295.667 39.9999C295.667 39.0833 294.917 38.3333 294.001 38.3333ZM289.001 38.3333C288.084 38.3333 287.334 39.0833 287.334 39.9999C287.334 40.9166 288.084 41.6666 289.001 41.6666C289.917 41.6666 290.667 40.9166 290.667 39.9999C290.667 39.0833 289.917 38.3333 289.001 38.3333Z" fill="white" fill-opacity="0.56"/>
<path d="M178.188 87.4326C189.301 89.6215 199.784 94.2666 208.871 101.028C217.958 107.79 225.419 116.498 230.708 126.514C235.996 136.53 238.979 147.602 239.438 158.919C239.898 170.237 237.821 181.514 233.361 191.926" stroke="#FCC419" stroke-width="20" stroke-linecap="round"/>
<path d="M89.3477 145.043C92.3325 131.798 98.8346 119.599 108.172 109.726C117.509 99.853 129.337 92.6692 142.415 88.9284C155.493 85.1876 169.339 85.0278 182.501 88.4657" stroke="#8381F0" stroke-width="20" stroke-linecap="round"/>
<path d="M243.229 194.239C245.299 189.119 242.827 183.29 237.707 181.22C232.586 179.149 226.757 181.622 224.687 186.742L243.229 194.239ZM104.477 132.479C106.947 127.54 104.946 121.533 100.006 119.062C95.0669 116.592 89.0599 118.593 86.5894 123.533L104.477 132.479ZM224.687 186.742C221.355 194.982 216.393 202.464 210.099 208.739L224.22 222.902C232.422 214.725 238.887 204.976 243.229 194.239L224.687 186.742ZM210.099 208.739C203.805 215.014 196.308 219.954 188.058 223.261L195.5 241.825C206.25 237.516 216.018 231.079 224.22 222.902L210.099 208.739ZM188.058 223.261C179.808 226.568 170.975 228.175 162.089 227.985L161.662 247.98C173.24 248.228 184.75 246.134 195.5 241.825L188.058 223.261ZM162.089 227.985C153.203 227.795 144.447 225.812 136.346 222.155L128.118 240.384C138.673 245.149 150.083 247.733 161.662 247.98L162.089 227.985ZM136.346 222.155C128.245 218.499 120.966 213.243 114.946 206.705L100.233 220.251C108.077 228.771 117.562 235.619 128.118 240.384L136.346 222.155ZM114.946 206.705C108.926 200.166 104.288 192.479 101.311 184.104L82.4664 190.802C86.3451 201.715 92.3879 211.731 100.233 220.251L114.946 206.705ZM101.311 184.104C98.3347 175.729 97.0803 166.839 97.6233 157.968L77.6607 156.746C76.9531 168.306 78.5877 179.889 82.4664 190.802L101.311 184.104ZM86.5894 123.533C81.4091 133.89 78.3742 145.187 77.6667 156.746L97.6293 157.968C98.1723 149.097 100.501 140.428 104.477 132.479L86.5894 123.533ZM77.6667 156.746C76.9592 168.305 78.5936 179.888 82.472 190.8L101.317 184.102C98.3407 175.728 97.0863 166.839 97.6293 157.968L77.6667 156.746ZM82.472 190.8C86.3505 201.712 92.3929 211.728 100.237 220.247L114.95 206.7C108.931 200.162 104.293 192.476 101.317 184.102L82.472 190.8ZM100.237 220.247C108.081 228.767 117.565 235.614 128.12 240.379L136.349 222.15C128.248 218.493 120.97 213.239 114.95 206.7L100.237 220.247ZM128.12 240.379C138.675 245.143 150.084 247.727 161.662 247.974L162.089 227.979C153.204 227.789 144.449 225.806 136.349 222.15L128.12 240.379ZM161.662 247.974C173.24 248.222 184.748 246.128 195.498 241.819L188.056 223.255C179.807 226.562 170.975 228.169 162.089 227.979L161.662 247.974ZM195.498 241.819C206.247 237.51 216.015 231.074 224.216 222.898L210.095 208.735C203.801 215.01 196.305 219.948 188.056 223.255L195.498 241.819Z" fill="#90CAF9"/>
<path d="M224.169 187.988C221.994 193.064 224.347 198.943 229.424 201.118C234.5 203.292 240.379 200.94 242.553 195.863L224.169 187.988ZM202.901 109.051C210.793 114.923 217.272 122.485 221.864 131.183L239.55 121.845C233.566 110.51 225.124 100.657 214.841 93.0057L202.901 109.051ZM221.864 131.183C226.457 139.881 229.048 149.496 229.447 159.325L249.43 158.514C248.911 145.707 245.535 133.179 239.55 121.845L221.864 131.183ZM229.447 159.325C229.845 169.153 228.042 178.946 224.169 187.988L242.553 195.863C247.6 184.081 249.95 171.32 249.43 158.514L229.447 159.325Z" fill="#FCC419"/>
<path d="M115.822 137.068V135.878H123.48V137.068H120.393V146H119.091V137.068H115.822ZM126.96 146.14C126.292 146.14 125.709 145.998 125.21 145.713C124.71 145.424 124.323 145.001 124.048 144.446C123.772 143.891 123.635 143.212 123.635 142.409C123.635 141.653 123.763 140.99 124.02 140.421C124.276 139.852 124.652 139.411 125.147 139.098C125.646 138.781 126.25 138.622 126.96 138.622C127.627 138.622 128.206 138.769 128.696 139.063C129.19 139.352 129.573 139.779 129.844 140.344C130.114 140.909 130.25 141.597 130.25 142.409C130.25 143.146 130.124 143.795 129.872 144.355C129.624 144.915 129.256 145.354 128.766 145.671C128.28 145.984 127.678 146.14 126.96 146.14ZM126.96 145.118C127.394 145.118 127.76 145.008 128.059 144.789C128.357 144.57 128.584 144.255 128.738 143.844C128.892 143.433 128.969 142.946 128.969 142.381C128.969 141.863 128.901 141.399 128.766 140.988C128.63 140.573 128.413 140.244 128.115 140.001C127.821 139.758 127.436 139.637 126.96 139.637C126.521 139.637 126.15 139.747 125.847 139.966C125.543 140.181 125.312 140.493 125.154 140.904C125 141.315 124.923 141.807 124.923 142.381C124.923 142.89 124.993 143.352 125.133 143.767C125.273 144.182 125.492 144.511 125.791 144.754C126.089 144.997 126.479 145.118 126.96 145.118ZM135.559 139.707H133.928V144.208C133.928 144.465 133.954 144.654 134.005 144.775C134.061 144.892 134.152 144.966 134.278 144.999C134.409 145.032 134.586 145.048 134.81 145.048H135.601V145.916C135.512 145.949 135.377 145.977 135.195 146C135.018 146.023 134.796 146.035 134.53 146.035C134.031 146.035 133.643 145.967 133.368 145.832C133.093 145.697 132.899 145.496 132.787 145.23C132.68 144.964 132.626 144.637 132.626 144.25V139.707H131.45V138.762H132.661L132.976 136.655H133.928V138.755H135.559V139.707ZM139.55 146.14C139.083 146.14 138.67 146.058 138.311 145.895C137.951 145.727 137.669 145.487 137.464 145.174C137.263 144.861 137.163 144.483 137.163 144.04C137.163 143.237 137.443 142.64 138.003 142.248C138.563 141.856 139.461 141.646 140.698 141.618L141.993 141.583V141.016C141.993 140.573 141.86 140.223 141.594 139.966C141.328 139.705 140.915 139.574 140.355 139.574C139.939 139.579 139.573 139.677 139.256 139.868C138.943 140.059 138.74 140.372 138.647 140.806H137.506C137.534 140.335 137.667 139.938 137.905 139.616C138.143 139.289 138.474 139.042 138.899 138.874C139.328 138.706 139.834 138.622 140.418 138.622C141.048 138.622 141.57 138.711 141.986 138.888C142.406 139.065 142.718 139.327 142.924 139.672C143.134 140.017 143.239 140.442 143.239 140.946V146H142.133L142.042 144.642C141.762 145.207 141.405 145.599 140.971 145.818C140.541 146.033 140.068 146.14 139.55 146.14ZM139.942 145.209C140.184 145.209 140.425 145.165 140.663 145.076C140.905 144.987 141.127 144.868 141.328 144.719C141.528 144.565 141.687 144.395 141.804 144.208C141.925 144.017 141.988 143.821 141.993 143.62V142.381L140.915 142.402C140.364 142.411 139.902 142.467 139.529 142.57C139.16 142.673 138.882 142.834 138.696 143.053C138.514 143.272 138.423 143.559 138.423 143.914C138.423 144.32 138.563 144.637 138.843 144.866C139.127 145.095 139.494 145.209 139.942 145.209ZM147.447 146.091C147.055 146.091 146.738 146.037 146.495 145.93C146.257 145.823 146.073 145.678 145.942 145.496C145.816 145.314 145.73 145.106 145.683 144.873C145.641 144.635 145.62 144.39 145.62 144.138V135.598H146.894V144.012C146.894 144.376 146.964 144.649 147.104 144.831C147.249 145.013 147.449 145.113 147.706 145.132L148.098 145.139V145.979C147.991 146.012 147.879 146.037 147.762 146.056C147.645 146.079 147.54 146.091 147.447 146.091ZM160.861 146H159.489L157.641 141.639H154.918V146H153.623V135.878H157.543C158.271 135.878 158.88 135.99 159.37 136.214C159.86 136.433 160.226 136.751 160.469 137.166C160.711 137.577 160.833 138.069 160.833 138.643C160.833 139.194 160.735 139.651 160.539 140.015C160.347 140.379 160.102 140.673 159.804 140.897C159.505 141.116 159.195 141.287 158.873 141.408L160.861 146ZM157.123 140.568C157.883 140.568 158.471 140.414 158.887 140.106C159.302 139.793 159.51 139.331 159.51 138.72C159.51 138.123 159.323 137.677 158.95 137.383C158.581 137.084 158.075 136.935 157.431 136.935H154.918V140.568H157.123ZM163.693 142.682C163.693 143.139 163.767 143.555 163.917 143.928C164.071 144.297 164.302 144.591 164.61 144.81C164.922 145.029 165.312 145.139 165.779 145.139C166.241 145.139 166.637 145.032 166.969 144.817C167.305 144.602 167.519 144.292 167.613 143.886H168.838C168.749 144.376 168.553 144.789 168.25 145.125C167.946 145.461 167.58 145.715 167.151 145.888C166.721 146.056 166.273 146.14 165.807 146.14C165.13 146.14 164.535 145.993 164.022 145.699C163.508 145.405 163.107 144.983 162.818 144.432C162.528 143.881 162.384 143.221 162.384 142.451C162.384 141.69 162.514 141.023 162.776 140.449C163.037 139.875 163.415 139.427 163.91 139.105C164.409 138.783 165.009 138.622 165.709 138.622C166.39 138.622 166.966 138.769 167.438 139.063C167.909 139.357 168.266 139.772 168.509 140.309C168.756 140.841 168.88 141.473 168.88 142.206V142.682H163.693ZM163.7 141.807H167.634C167.634 141.392 167.564 141.018 167.424 140.687C167.284 140.351 167.069 140.087 166.78 139.896C166.495 139.7 166.136 139.602 165.702 139.602C165.249 139.602 164.873 139.712 164.575 139.931C164.281 140.146 164.059 140.423 163.91 140.764C163.765 141.1 163.695 141.448 163.7 141.807ZM176.278 138.762L173.667 146H172.491L169.873 138.762H171.091L173.016 144.376H173.135L175.067 138.762H176.278ZM178.498 142.682C178.498 143.139 178.572 143.555 178.722 143.928C178.876 144.297 179.107 144.591 179.415 144.81C179.727 145.029 180.117 145.139 180.584 145.139C181.046 145.139 181.442 145.032 181.774 144.817C182.11 144.602 182.324 144.292 182.418 143.886H183.643C183.554 144.376 183.358 144.789 183.055 145.125C182.751 145.461 182.385 145.715 181.956 145.888C181.526 146.056 181.078 146.14 180.612 146.14C179.935 146.14 179.34 145.993 178.827 145.699C178.313 145.405 177.912 144.983 177.623 144.432C177.333 143.881 177.189 143.221 177.189 142.451C177.189 141.69 177.319 141.023 177.581 140.449C177.842 139.875 178.22 139.427 178.715 139.105C179.214 138.783 179.814 138.622 180.514 138.622C181.195 138.622 181.771 138.769 182.243 139.063C182.714 139.357 183.071 139.772 183.314 140.309C183.561 140.841 183.685 141.473 183.685 142.206V142.682H178.498ZM178.505 141.807H182.439C182.439 141.392 182.369 141.018 182.229 140.687C182.089 140.351 181.874 140.087 181.585 139.896C181.3 139.7 180.941 139.602 180.507 139.602C180.054 139.602 179.678 139.712 179.38 139.931C179.086 140.146 178.864 140.423 178.715 140.764C178.57 141.1 178.5 141.448 178.505 141.807ZM185.632 146V138.762H186.885V139.812C187.002 139.611 187.163 139.422 187.368 139.245C187.578 139.068 187.83 138.925 188.124 138.818C188.423 138.711 188.766 138.657 189.153 138.657C189.611 138.657 190.031 138.748 190.413 138.93C190.801 139.112 191.109 139.397 191.337 139.784C191.571 140.167 191.687 140.661 191.687 141.268V146H190.392V141.394C190.392 140.829 190.243 140.412 189.944 140.141C189.65 139.866 189.268 139.728 188.796 139.728C188.47 139.728 188.164 139.782 187.879 139.889C187.595 139.992 187.364 140.15 187.186 140.365C187.009 140.575 186.92 140.841 186.92 141.163V146H185.632ZM196.433 146.14C196.055 146.135 195.698 146.082 195.362 145.979C195.031 145.872 194.737 145.715 194.48 145.51C194.223 145.305 194.02 145.05 193.871 144.747C193.726 144.439 193.654 144.082 193.654 143.676V138.762H194.949V143.543C194.949 144.014 195.094 144.397 195.383 144.691C195.677 144.985 196.118 145.132 196.706 145.132C197.238 145.132 197.665 144.994 197.987 144.719C198.314 144.439 198.477 144.024 198.477 143.473V138.762H199.765V146H198.736L198.603 144.614C198.514 144.978 198.363 145.272 198.148 145.496C197.938 145.72 197.684 145.886 197.385 145.993C197.091 146.096 196.774 146.145 196.433 146.14ZM202.879 142.682C202.879 143.139 202.953 143.555 203.103 143.928C203.257 144.297 203.488 144.591 203.796 144.81C204.108 145.029 204.498 145.139 204.965 145.139C205.427 145.139 205.823 145.032 206.155 144.817C206.491 144.602 206.705 144.292 206.799 143.886H208.024C207.935 144.376 207.739 144.789 207.436 145.125C207.132 145.461 206.766 145.715 206.337 145.888C205.907 146.056 205.459 146.14 204.993 146.14C204.316 146.14 203.721 145.993 203.208 145.699C202.694 145.405 202.293 144.983 202.004 144.432C201.714 143.881 201.57 143.221 201.57 142.451C201.57 141.69 201.7 141.023 201.962 140.449C202.223 139.875 202.601 139.427 203.096 139.105C203.595 138.783 204.195 138.622 204.895 138.622C205.576 138.622 206.152 138.769 206.624 139.063C207.095 139.357 207.452 139.772 207.695 140.309C207.942 140.841 208.066 141.473 208.066 142.206V142.682H202.879ZM202.886 141.807H206.82C206.82 141.392 206.75 141.018 206.61 140.687C206.47 140.351 206.255 140.087 205.966 139.896C205.681 139.7 205.322 139.602 204.888 139.602C204.435 139.602 204.059 139.712 203.761 139.931C203.467 140.146 203.245 140.423 203.096 140.764C202.951 141.1 202.881 141.448 202.886 141.807Z" fill="white" fill-opacity="0.7"/>
<path d="M120.91 169.54H131.24V171.35C130.74 172.023 130.243 172.79 129.75 173.65C129.257 174.51 128.787 175.413 128.34 176.36C127.9 177.3 127.5 178.24 127.14 179.18C126.787 180.113 126.497 180.997 126.27 181.83C126.043 182.657 125.903 183.38 125.85 184H123.52C123.613 183.36 123.79 182.563 124.05 181.61C124.31 180.657 124.66 179.613 125.1 178.48C125.547 177.34 126.087 176.16 126.72 174.94C127.353 173.72 128.09 172.523 128.93 171.35H120.91V169.54ZM138.167 169.34C139.774 169.34 141.05 169.973 141.997 171.24C142.95 172.5 143.427 174.353 143.427 176.8C143.427 179.233 142.954 181.08 142.007 182.34C141.067 183.593 139.784 184.22 138.157 184.22C136.524 184.22 135.237 183.597 134.297 182.35C133.357 181.097 132.887 179.253 132.887 176.82C132.887 175.187 133.104 173.817 133.537 172.71C133.97 171.597 134.58 170.757 135.367 170.19C136.16 169.623 137.094 169.34 138.167 169.34ZM138.167 182.4C139.154 182.4 139.894 181.967 140.387 181.1C140.88 180.227 141.127 178.797 141.127 176.81C141.127 174.783 140.877 173.327 140.377 172.44C139.877 171.547 139.137 171.1 138.157 171.1C137.184 171.1 136.44 171.55 135.927 172.45C135.414 173.343 135.157 174.797 135.157 176.81C135.157 178.79 135.41 180.217 135.917 181.09C136.43 181.963 137.18 182.4 138.167 182.4ZM146.349 184V169.54H151.159C152.952 169.54 154.302 169.863 155.209 170.51C156.122 171.157 156.579 172.09 156.579 173.31C156.579 174.063 156.382 174.713 155.989 175.26C155.602 175.8 154.922 176.253 153.949 176.62C154.522 176.747 155.002 176.93 155.389 177.17C155.775 177.403 156.079 177.673 156.299 177.98C156.525 178.287 156.685 178.62 156.779 178.98C156.879 179.34 156.929 179.713 156.929 180.1C156.929 181.413 156.465 182.393 155.539 183.04C154.619 183.68 153.215 184 151.329 184H146.349ZM148.489 182.26H151.339C152.459 182.26 153.309 182.07 153.889 181.69C154.469 181.303 154.759 180.727 154.759 179.96C154.759 179.407 154.615 178.953 154.329 178.6C154.042 178.247 153.655 177.987 153.169 177.82C152.682 177.653 152.139 177.57 151.539 177.57H148.489V182.26ZM148.489 175.8H151.539C151.899 175.8 152.252 175.763 152.599 175.69C152.945 175.617 153.262 175.497 153.549 175.33C153.835 175.157 154.065 174.927 154.239 174.64C154.412 174.353 154.499 174.003 154.499 173.59C154.499 172.803 154.202 172.22 153.609 171.84C153.015 171.46 152.245 171.27 151.299 171.27H148.489V175.8ZM175.487 178.86C175.487 179.987 175.3 180.95 174.927 181.75C174.554 182.543 173.967 183.15 173.167 183.57C172.374 183.99 171.337 184.2 170.057 184.2C168.764 184.2 167.717 183.987 166.917 183.56C166.124 183.133 165.544 182.51 165.177 181.69C164.817 180.87 164.637 179.87 164.637 178.69V169.54H166.847V178.96C166.847 180.107 167.127 180.96 167.687 181.52C168.254 182.073 169.044 182.35 170.057 182.35C170.73 182.35 171.31 182.23 171.797 181.99C172.29 181.743 172.667 181.37 172.927 180.87C173.187 180.363 173.317 179.727 173.317 178.96V169.54H175.487V178.86ZM183.978 184.2C183.291 184.2 182.621 184.113 181.968 183.94C181.314 183.767 180.721 183.51 180.188 183.17C179.654 182.823 179.211 182.393 178.858 181.88C178.511 181.367 178.294 180.767 178.208 180.08H180.438C180.551 180.6 180.774 181.037 181.108 181.39C181.448 181.743 181.864 182.01 182.358 182.19C182.851 182.37 183.388 182.46 183.968 182.46C184.608 182.46 185.181 182.373 185.688 182.2C186.201 182.02 186.608 181.767 186.908 181.44C187.208 181.107 187.358 180.707 187.358 180.24C187.358 179.82 187.254 179.463 187.048 179.17C186.848 178.877 186.561 178.633 186.188 178.44C185.821 178.24 185.378 178.083 184.858 177.97L182.118 177.35C181.044 177.123 180.198 176.703 179.578 176.09C178.964 175.47 178.654 174.65 178.648 173.63C178.641 172.777 178.864 172.03 179.318 171.39C179.778 170.75 180.404 170.253 181.198 169.9C181.991 169.54 182.894 169.36 183.908 169.36C185.088 169.36 186.078 169.557 186.878 169.95C187.684 170.343 188.294 170.863 188.708 171.51C189.121 172.15 189.331 172.847 189.338 173.6H187.148C187.094 172.987 186.914 172.5 186.608 172.14C186.301 171.78 185.914 171.523 185.448 171.37C184.988 171.21 184.481 171.13 183.928 171.13C183.528 171.13 183.144 171.18 182.778 171.28C182.411 171.38 182.088 171.527 181.808 171.72C181.528 171.913 181.304 172.153 181.138 172.44C180.978 172.72 180.898 173.043 180.898 173.41C180.898 173.903 181.064 174.303 181.398 174.61C181.731 174.917 182.344 175.18 183.238 175.4L185.918 176.01C186.684 176.17 187.304 176.407 187.778 176.72C188.251 177.027 188.614 177.377 188.868 177.77C189.121 178.163 189.294 178.573 189.388 179C189.481 179.42 189.528 179.823 189.528 180.21C189.528 180.957 189.304 181.633 188.858 182.24C188.411 182.84 187.774 183.317 186.948 183.67C186.121 184.023 185.131 184.2 183.978 184.2ZM192.593 169.54C192.647 169.54 192.803 169.543 193.063 169.55C193.33 169.55 193.65 169.55 194.023 169.55C194.397 169.543 194.777 169.543 195.163 169.55C195.557 169.55 195.907 169.553 196.213 169.56C197.98 169.587 199.417 169.88 200.523 170.44C201.63 171 202.44 171.807 202.953 172.86C203.473 173.907 203.733 175.183 203.733 176.69C203.733 178.257 203.457 179.587 202.903 180.68C202.35 181.767 201.503 182.593 200.363 183.16C199.23 183.72 197.793 184 196.053 184H192.593V169.54ZM194.773 171.34V182.2H196.073C197.167 182.2 198.117 182.023 198.923 181.67C199.737 181.31 200.367 180.73 200.813 179.93C201.26 179.123 201.483 178.047 201.483 176.7C201.483 175.38 201.27 174.33 200.843 173.55C200.417 172.763 199.803 172.2 199.003 171.86C198.21 171.513 197.253 171.34 196.133 171.34H194.773Z" fill="white"/>
<g filter="url(#filter0_d_10_10811)">
<rect x="238" y="86" width="64" height="22" rx="4" fill="#464E5F"/>
<path d="M247.825 101V95.34H246.455V94.675C246.882 94.675 247.217 94.6417 247.46 94.575C247.707 94.505 247.883 94.4033 247.99 94.27C248.1 94.1333 248.162 93.9667 248.175 93.77H248.92V101H247.825ZM250.576 93.77H255.741V94.675C255.491 95.0117 255.243 95.395 254.996 95.825C254.749 96.255 254.514 96.7067 254.291 97.18C254.071 97.65 253.871 98.12 253.691 98.59C253.514 99.0567 253.369 99.4983 253.256 99.915C253.143 100.328 253.073 100.69 253.046 101H251.881C251.928 100.68 252.016 100.282 252.146 99.805C252.276 99.3283 252.451 98.8067 252.671 98.24C252.894 97.67 253.164 97.08 253.481 96.47C253.798 95.86 254.166 95.2617 254.586 94.675H250.576V93.77ZM255.539 101V99.71H256.774V101H255.539ZM258.557 93.77H262.962L262.927 94.675H259.442L259.272 96.85C259.519 96.65 259.779 96.5067 260.052 96.42C260.325 96.33 260.622 96.285 260.942 96.285C261.392 96.285 261.802 96.375 262.172 96.555C262.545 96.735 262.844 97 263.067 97.35C263.29 97.6967 263.402 98.125 263.402 98.635C263.402 99.1383 263.292 99.575 263.072 99.945C262.852 100.315 262.54 100.602 262.137 100.805C261.737 101.008 261.265 101.11 260.722 101.11C260.269 101.11 259.849 101.033 259.462 100.88C259.075 100.723 258.742 100.51 258.462 100.24C258.185 99.9667 257.98 99.6517 257.847 99.295L258.742 98.87C258.862 99.13 259.01 99.3633 259.187 99.57C259.364 99.7733 259.572 99.9333 259.812 100.05C260.052 100.163 260.327 100.22 260.637 100.22C261.127 100.22 261.522 100.082 261.822 99.805C262.122 99.525 262.272 99.1467 262.272 98.67C262.272 98.3733 262.202 98.1133 262.062 97.89C261.922 97.6667 261.734 97.4933 261.497 97.37C261.26 97.2433 260.995 97.18 260.702 97.18C260.519 97.18 260.347 97.1967 260.187 97.23C260.027 97.26 259.867 97.3217 259.707 97.415C259.55 97.505 259.384 97.64 259.207 97.82C259.18 97.8333 259.16 97.84 259.147 97.84C259.137 97.84 259.115 97.8317 259.082 97.815L258.227 97.505L258.557 93.77ZM264.796 101V93.77H267.201C268.098 93.77 268.773 93.9317 269.226 94.255C269.683 94.5783 269.911 95.045 269.911 95.655C269.911 96.0317 269.813 96.3567 269.616 96.63C269.423 96.9 269.083 97.1267 268.596 97.31C268.883 97.3733 269.123 97.465 269.316 97.585C269.509 97.7017 269.661 97.8367 269.771 97.99C269.884 98.1433 269.964 98.31 270.011 98.49C270.061 98.67 270.086 98.8567 270.086 99.05C270.086 99.7067 269.854 100.197 269.391 100.52C268.931 100.84 268.229 101 267.286 101H264.796ZM265.866 100.13H267.291C267.851 100.13 268.276 100.035 268.566 99.845C268.856 99.6517 269.001 99.3633 269.001 98.98C269.001 98.7033 268.929 98.4767 268.786 98.3C268.643 98.1233 268.449 97.9933 268.206 97.91C267.963 97.8267 267.691 97.785 267.391 97.785H265.866V100.13ZM265.866 96.9H267.391C267.571 96.9 267.748 96.8817 267.921 96.845C268.094 96.8083 268.253 96.7483 268.396 96.665C268.539 96.5783 268.654 96.4633 268.741 96.32C268.828 96.1767 268.871 96.0017 268.871 95.795C268.871 95.4017 268.723 95.11 268.426 94.92C268.129 94.73 267.744 94.635 267.271 94.635H265.866V96.9ZM279.215 98.43C279.215 98.9933 279.122 99.475 278.935 99.875C278.748 100.272 278.455 100.575 278.055 100.785C277.658 100.995 277.14 101.1 276.5 101.1C275.853 101.1 275.33 100.993 274.93 100.78C274.533 100.567 274.243 100.255 274.06 99.845C273.88 99.435 273.79 98.935 273.79 98.345V93.77H274.895V98.48C274.895 99.0533 275.035 99.48 275.315 99.76C275.598 100.037 275.993 100.175 276.5 100.175C276.837 100.175 277.127 100.115 277.37 99.995C277.617 99.8717 277.805 99.685 277.935 99.435C278.065 99.1817 278.13 98.8633 278.13 98.48V93.77H279.215V98.43ZM283.385 101.1C283.042 101.1 282.707 101.057 282.38 100.97C282.054 100.883 281.757 100.755 281.49 100.585C281.224 100.412 281.002 100.197 280.825 99.94C280.652 99.6833 280.544 99.3833 280.5 99.04H281.615C281.672 99.3 281.784 99.5183 281.95 99.695C282.12 99.8717 282.329 100.005 282.575 100.095C282.822 100.185 283.09 100.23 283.38 100.23C283.7 100.23 283.987 100.187 284.24 100.1C284.497 100.01 284.7 99.8833 284.85 99.72C285 99.5533 285.075 99.3533 285.075 99.12C285.075 98.91 285.024 98.7317 284.92 98.585C284.82 98.4383 284.677 98.3167 284.49 98.22C284.307 98.12 284.085 98.0417 283.825 97.985L282.455 97.675C281.919 97.5617 281.495 97.3517 281.185 97.045C280.879 96.735 280.724 96.325 280.72 95.815C280.717 95.3883 280.829 95.015 281.055 94.695C281.285 94.375 281.599 94.1267 281.995 93.95C282.392 93.77 282.844 93.68 283.35 93.68C283.94 93.68 284.435 93.7783 284.835 93.975C285.239 94.1717 285.544 94.4317 285.75 94.755C285.957 95.075 286.062 95.4233 286.065 95.8H284.97C284.944 95.4933 284.854 95.25 284.7 95.07C284.547 94.89 284.354 94.7617 284.12 94.685C283.89 94.605 283.637 94.565 283.36 94.565C283.16 94.565 282.969 94.59 282.785 94.64C282.602 94.69 282.44 94.7633 282.3 94.86C282.16 94.9567 282.049 95.0767 281.965 95.22C281.885 95.36 281.845 95.5217 281.845 95.705C281.845 95.9517 281.929 96.1517 282.095 96.305C282.262 96.4583 282.569 96.59 283.015 96.7L284.355 97.005C284.739 97.085 285.049 97.2033 285.285 97.36C285.522 97.5133 285.704 97.6883 285.83 97.885C285.957 98.0817 286.044 98.2867 286.09 98.5C286.137 98.71 286.16 98.9117 286.16 99.105C286.16 99.4783 286.049 99.8167 285.825 100.12C285.602 100.42 285.284 100.658 284.87 100.835C284.457 101.012 283.962 101.1 283.385 101.1ZM287.618 93.77C287.645 93.77 287.723 93.7717 287.853 93.775C287.986 93.775 288.146 93.775 288.333 93.775C288.52 93.7717 288.71 93.7717 288.903 93.775C289.1 93.775 289.275 93.7767 289.428 93.78C290.311 93.7933 291.03 93.94 291.583 94.22C292.136 94.5 292.541 94.9033 292.798 95.43C293.058 95.9533 293.188 96.5917 293.188 97.345C293.188 98.1283 293.05 98.7933 292.773 99.34C292.496 99.8833 292.073 100.297 291.503 100.58C290.936 100.86 290.218 101 289.348 101H287.618V93.77ZM288.708 94.67V100.1H289.358C289.905 100.1 290.38 100.012 290.783 99.835C291.19 99.655 291.505 99.365 291.728 98.965C291.951 98.5617 292.063 98.0233 292.063 97.35C292.063 96.69 291.956 96.165 291.743 95.775C291.53 95.3817 291.223 95.1 290.823 94.93C290.426 94.7567 289.948 94.67 289.388 94.67H288.708Z" fill="white"/>
</g>
<path d="M26.604 290.5V282.443H24.651V281.596C25.2577 281.596 25.729 281.552 26.065 281.463C26.401 281.374 26.639 281.239 26.779 281.057C26.9237 280.875 27.003 280.649 27.017 280.378H27.941V290.5H26.604ZM34.1622 280.238C35.2588 280.238 36.1315 280.679 36.7802 281.561C37.4335 282.438 37.7602 283.738 37.7602 285.46C37.7602 287.173 37.4358 288.468 36.7872 289.345C36.1385 290.218 35.2588 290.654 34.1482 290.654C33.0422 290.654 32.1648 290.22 31.5162 289.352C30.8675 288.479 30.5432 287.189 30.5432 285.481C30.5432 284.328 30.6925 283.362 30.9912 282.583C31.2898 281.804 31.7098 281.218 32.2512 280.826C32.7925 280.434 33.4295 280.238 34.1622 280.238ZM34.1622 289.534C34.8855 289.534 35.4315 289.217 35.8002 288.582C36.1735 287.943 36.3602 286.904 36.3602 285.467C36.3602 284.002 36.1712 282.947 35.7932 282.303C35.4198 281.654 34.8738 281.33 34.1552 281.33C33.4412 281.33 32.8905 281.657 32.5032 282.31C32.1205 282.959 31.9292 284.011 31.9292 285.467C31.9292 286.9 32.1205 287.936 32.5032 288.575C32.8858 289.214 33.4388 289.534 34.1622 289.534ZM39.3834 290.5V288.848H40.9234V290.5H39.3834ZM43.5796 280.378H49.6206L49.5856 281.498H44.6856L44.4266 284.767C44.7626 284.454 45.129 284.233 45.5256 284.102C45.927 283.967 46.361 283.899 46.8276 283.899C47.439 283.899 48.0013 284.025 48.5146 284.277C49.0326 284.524 49.448 284.893 49.7606 285.383C50.0733 285.868 50.2296 286.47 50.2296 287.189C50.2296 287.889 50.078 288.498 49.7746 289.016C49.4713 289.534 49.0443 289.938 48.4936 290.227C47.943 290.512 47.2966 290.654 46.5546 290.654C45.9293 290.654 45.3506 290.544 44.8186 290.325C44.2866 290.106 43.8293 289.8 43.4466 289.408C43.0686 289.016 42.791 288.566 42.6136 288.057L43.7336 287.588C43.9016 287.971 44.1116 288.311 44.3636 288.61C44.6203 288.909 44.9236 289.142 45.2736 289.31C45.6236 289.478 46.0203 289.562 46.4636 289.562C47.1823 289.562 47.7586 289.354 48.1926 288.939C48.6313 288.519 48.8506 287.95 48.8506 287.231C48.8506 286.783 48.748 286.393 48.5426 286.062C48.3373 285.726 48.0596 285.465 47.7096 285.278C47.3643 285.091 46.9816 284.998 46.5616 284.998C46.2863 284.998 46.0296 285.024 45.7916 285.075C45.5536 285.122 45.318 285.215 45.0846 285.355C44.8513 285.495 44.6063 285.707 44.3496 285.992C44.3216 286.006 44.3006 286.013 44.2866 286.013C44.2726 286.008 44.2493 285.999 44.2166 285.985L43.1246 285.642L43.5796 280.378ZM52.4174 290.5V280.378H55.6724C56.9044 280.378 57.8354 280.604 58.4654 281.057C59.1001 281.51 59.4174 282.163 59.4174 283.017C59.4174 283.554 59.2774 284.013 58.9974 284.396C58.7221 284.779 58.2367 285.094 57.5414 285.341C57.9381 285.425 58.2717 285.546 58.5424 285.705C58.8177 285.864 59.0371 286.05 59.2004 286.265C59.3684 286.475 59.4874 286.708 59.5574 286.965C59.6321 287.222 59.6694 287.492 59.6694 287.777C59.6694 288.692 59.3427 289.375 58.6894 289.828C58.0407 290.276 57.0701 290.5 55.7774 290.5H52.4174ZM53.7124 289.422H55.7634C56.6081 289.422 57.2497 289.284 57.6884 289.009C58.1317 288.729 58.3534 288.3 58.3534 287.721C58.3534 287.296 58.2437 286.953 58.0244 286.692C57.8097 286.426 57.5181 286.232 57.1494 286.111C56.7807 285.99 56.3701 285.929 55.9174 285.929H53.7124V289.422ZM53.7124 284.83H55.9174C56.1834 284.83 56.4471 284.804 56.7084 284.753C56.9697 284.702 57.2101 284.613 57.4294 284.487C57.6487 284.361 57.8261 284.193 57.9614 283.983C58.0967 283.768 58.1644 283.5 58.1644 283.178C58.1644 282.59 57.9381 282.156 57.4854 281.876C57.0374 281.591 56.4541 281.449 55.7354 281.449H53.7124V284.83ZM72.7755 287C72.7755 287.779 72.6472 288.44 72.3905 288.981C72.1339 289.522 71.7325 289.935 71.1865 290.22C70.6452 290.5 69.9405 290.64 69.0725 290.64C68.1952 290.64 67.4835 290.495 66.9375 290.206C66.3962 289.917 65.9995 289.492 65.7475 288.932C65.5002 288.372 65.3765 287.684 65.3765 286.867V280.378H66.7205V287.063C66.7205 287.88 66.9235 288.491 67.3295 288.897C67.7355 289.303 68.3165 289.506 69.0725 289.506C69.5812 289.506 70.0129 289.417 70.3675 289.24C70.7269 289.063 70.9999 288.794 71.1865 288.435C71.3779 288.071 71.4735 287.614 71.4735 287.063V280.378H72.7755V287ZM78.7863 290.64C78.3103 290.64 77.8483 290.582 77.4003 290.465C76.9523 290.344 76.5463 290.164 76.1823 289.926C75.8183 289.688 75.5149 289.394 75.2723 289.044C75.0343 288.689 74.8849 288.279 74.8243 287.812H76.1823C76.2663 288.195 76.4319 288.517 76.6793 288.778C76.9313 289.039 77.2369 289.235 77.5963 289.366C77.9603 289.497 78.3546 289.562 78.7793 289.562C79.2553 289.562 79.6799 289.497 80.0533 289.366C80.4313 289.231 80.7276 289.039 80.9423 288.792C81.1616 288.545 81.2713 288.248 81.2713 287.903C81.2713 287.6 81.2013 287.336 81.0613 287.112C80.9259 286.888 80.7276 286.701 80.4663 286.552C80.2049 286.403 79.8876 286.286 79.5143 286.202L77.5263 285.74C76.7796 285.577 76.1939 285.285 75.7693 284.865C75.3493 284.445 75.1346 283.89 75.1253 283.199C75.1253 282.616 75.2793 282.102 75.5873 281.659C75.8999 281.216 76.3269 280.87 76.8683 280.623C77.4143 280.376 78.0373 280.252 78.7373 280.252C79.5446 280.252 80.2236 280.39 80.7743 280.665C81.3249 280.94 81.7403 281.302 82.0203 281.75C82.3003 282.198 82.4426 282.676 82.4473 283.185H81.1103C81.0683 282.728 80.9329 282.366 80.7043 282.1C80.4803 281.829 80.1979 281.638 79.8573 281.526C79.5166 281.409 79.1456 281.351 78.7443 281.351C78.4549 281.351 78.1749 281.388 77.9043 281.463C77.6383 281.533 77.3979 281.64 77.1833 281.785C76.9733 281.93 76.8053 282.109 76.6793 282.324C76.5533 282.539 76.4903 282.788 76.4903 283.073C76.4903 283.437 76.6139 283.733 76.8613 283.962C77.1133 284.191 77.5683 284.387 78.2263 284.55L80.1513 285.012C80.6553 285.119 81.0659 285.278 81.3833 285.488C81.7053 285.698 81.9526 285.936 82.1253 286.202C82.3026 286.468 82.4239 286.746 82.4893 287.035C82.5593 287.324 82.5943 287.609 82.5943 287.889C82.5943 288.398 82.4426 288.862 82.1393 289.282C81.8359 289.697 81.3996 290.029 80.8303 290.276C80.2656 290.519 79.5843 290.64 78.7863 290.64ZM84.9118 280.378C84.9445 280.378 85.0425 280.38 85.2058 280.385C85.3738 280.385 85.5768 280.385 85.8148 280.385C86.0528 280.38 86.3002 280.38 86.5568 280.385C86.8135 280.385 87.0492 280.387 87.2638 280.392C88.5052 280.411 89.5108 280.614 90.2808 281.001C91.0555 281.384 91.6225 281.941 91.9818 282.674C92.3458 283.407 92.5278 284.307 92.5278 285.376C92.5278 286.496 92.3318 287.436 91.9398 288.197C91.5525 288.958 90.9598 289.532 90.1618 289.919C89.3685 290.306 88.3582 290.5 87.1308 290.5H84.9118V280.378ZM86.2418 281.491V289.387H87.1308C87.9662 289.387 88.6848 289.259 89.2868 289.002C89.8888 288.741 90.3508 288.318 90.6728 287.735C90.9995 287.152 91.1628 286.372 91.1628 285.397C91.1628 284.422 91.0042 283.649 90.6868 283.08C90.3742 282.511 89.9215 282.105 89.3288 281.862C88.7362 281.615 88.0222 281.491 87.1868 281.491H86.2418Z" fill="white"/>
<rect x="120" y="282" width="8" height="8" rx="2" fill="#90CAF9"/>
<path d="M146.322 281.568V280.378H153.98V281.568H150.893V290.5H149.591V281.568H146.322ZM155.102 290.5V283.262H156.334V284.655C156.456 284.31 156.626 284.025 156.845 283.801C157.065 283.572 157.314 283.402 157.594 283.29C157.879 283.178 158.173 283.122 158.476 283.122C158.584 283.122 158.689 283.129 158.791 283.143C158.894 283.157 158.973 283.18 159.029 283.213V284.466C158.959 284.433 158.868 284.412 158.756 284.403C158.649 284.389 158.558 284.382 158.483 284.382C158.194 284.363 157.923 284.382 157.671 284.438C157.419 284.489 157.198 284.58 157.006 284.711C156.815 284.842 156.663 285.014 156.551 285.229C156.444 285.439 156.39 285.696 156.39 285.999V290.5H155.102ZM162.524 290.64C162.058 290.64 161.645 290.558 161.285 290.395C160.926 290.227 160.644 289.987 160.438 289.674C160.238 289.361 160.137 288.983 160.137 288.54C160.137 287.737 160.417 287.14 160.977 286.748C161.537 286.356 162.436 286.146 163.672 286.118L164.967 286.083V285.516C164.967 285.073 164.834 284.723 164.568 284.466C164.302 284.205 163.889 284.074 163.329 284.074C162.914 284.079 162.548 284.177 162.23 284.368C161.918 284.559 161.715 284.872 161.621 285.306H160.48C160.508 284.835 160.641 284.438 160.879 284.116C161.117 283.789 161.449 283.542 161.873 283.374C162.303 283.206 162.809 283.122 163.392 283.122C164.022 283.122 164.545 283.211 164.96 283.388C165.38 283.565 165.693 283.827 165.898 284.172C166.108 284.517 166.213 284.942 166.213 285.446V290.5H165.107L165.016 289.142C164.736 289.707 164.379 290.099 163.945 290.318C163.516 290.533 163.042 290.64 162.524 290.64ZM162.916 289.709C163.159 289.709 163.399 289.665 163.637 289.576C163.88 289.487 164.102 289.368 164.302 289.219C164.503 289.065 164.662 288.895 164.778 288.708C164.9 288.517 164.963 288.321 164.967 288.12V286.881L163.889 286.902C163.339 286.911 162.877 286.967 162.503 287.07C162.135 287.173 161.857 287.334 161.67 287.553C161.488 287.772 161.397 288.059 161.397 288.414C161.397 288.82 161.537 289.137 161.817 289.366C162.102 289.595 162.468 289.709 162.916 289.709ZM168.595 290.5V283.262H169.848V284.312C169.964 284.111 170.125 283.922 170.331 283.745C170.541 283.568 170.793 283.425 171.087 283.318C171.385 283.211 171.728 283.157 172.116 283.157C172.573 283.157 172.993 283.248 173.376 283.43C173.763 283.612 174.071 283.897 174.3 284.284C174.533 284.667 174.65 285.161 174.65 285.768V290.5H173.355V285.894C173.355 285.329 173.205 284.912 172.907 284.641C172.613 284.366 172.23 284.228 171.759 284.228C171.432 284.228 171.126 284.282 170.842 284.389C170.557 284.492 170.326 284.65 170.149 284.865C169.971 285.075 169.883 285.341 169.883 285.663V290.5H168.595ZM179.456 290.64C178.518 290.64 177.773 290.318 177.223 289.674C176.672 289.03 176.397 288.09 176.397 286.853C176.397 286.102 176.506 285.446 176.726 284.886C176.95 284.326 177.281 283.892 177.72 283.584C178.158 283.276 178.704 283.122 179.358 283.122C179.703 283.122 180.009 283.166 180.275 283.255C180.545 283.344 180.779 283.456 180.975 283.591C181.171 283.726 181.329 283.866 181.451 284.011C181.577 284.156 181.67 284.289 181.731 284.41V280.098H183.033V290.5H182.046L181.906 289.016C181.859 289.156 181.784 289.319 181.682 289.506C181.579 289.688 181.434 289.868 181.248 290.045C181.061 290.218 180.821 290.36 180.527 290.472C180.237 290.584 179.88 290.64 179.456 290.64ZM179.687 289.646C180.419 289.646 180.942 289.424 181.255 288.981C181.572 288.533 181.731 287.803 181.731 286.79C181.726 286.225 181.654 285.745 181.514 285.348C181.378 284.951 181.164 284.65 180.87 284.445C180.58 284.235 180.195 284.13 179.715 284.13C179.117 284.13 178.632 284.342 178.259 284.767C177.885 285.192 177.699 285.866 177.699 286.79C177.699 287.695 177.867 288.398 178.203 288.897C178.543 289.396 179.038 289.646 179.687 289.646ZM186.823 283.262V290.5H185.57V283.262H186.823ZM186.851 280.385V281.729H185.528V280.385H186.851ZM189.353 290.5V283.262H190.606V284.312C190.722 284.111 190.883 283.922 191.089 283.745C191.299 283.568 191.551 283.425 191.845 283.318C192.143 283.211 192.486 283.157 192.874 283.157C193.331 283.157 193.751 283.248 194.134 283.43C194.521 283.612 194.829 283.897 195.058 284.284C195.291 284.667 195.408 285.161 195.408 285.768V290.5H194.113V285.894C194.113 285.329 193.963 284.912 193.665 284.641C193.371 284.366 192.988 284.228 192.517 284.228C192.19 284.228 191.884 284.282 191.6 284.389C191.315 284.492 191.084 284.65 190.907 284.865C190.729 285.075 190.641 285.341 190.641 285.663V290.5H189.353ZM200.655 292.894C199.516 292.894 198.629 292.728 197.995 292.397C197.365 292.07 197.05 291.601 197.05 290.99C197.05 290.729 197.11 290.507 197.232 290.325C197.353 290.138 197.498 289.984 197.666 289.863C197.834 289.742 197.99 289.646 198.135 289.576C198.279 289.501 198.373 289.448 198.415 289.415C198.335 289.368 198.235 289.31 198.114 289.24C197.997 289.17 197.894 289.077 197.806 288.96C197.717 288.843 197.673 288.692 197.673 288.505C197.673 288.276 197.78 288.066 197.995 287.875C198.209 287.684 198.527 287.541 198.947 287.448C198.522 287.233 198.191 286.949 197.953 286.594C197.715 286.239 197.596 285.854 197.596 285.439C197.596 284.972 197.722 284.566 197.974 284.221C198.23 283.876 198.594 283.612 199.066 283.43C199.537 283.243 200.097 283.15 200.746 283.15C201.217 283.15 201.614 283.206 201.936 283.318C202.258 283.425 202.556 283.579 202.832 283.78C202.906 283.747 203.023 283.698 203.182 283.633C203.345 283.563 203.525 283.488 203.721 283.409C203.917 283.33 204.099 283.255 204.267 283.185C204.439 283.11 204.577 283.054 204.68 283.017L204.673 284.214L203.406 284.452C203.476 284.601 203.532 284.765 203.574 284.942C203.62 285.119 203.644 285.285 203.644 285.439C203.644 285.864 203.532 286.249 203.308 286.594C203.088 286.939 202.755 287.215 202.307 287.42C201.859 287.625 201.299 287.728 200.627 287.728C200.571 287.728 200.498 287.728 200.41 287.728C200.326 287.723 200.253 287.719 200.193 287.714C199.698 287.728 199.357 287.784 199.171 287.882C198.984 287.975 198.891 288.08 198.891 288.197C198.891 288.332 198.996 288.426 199.206 288.477C199.416 288.528 199.773 288.573 200.277 288.61C200.459 288.619 200.683 288.631 200.949 288.645C201.219 288.659 201.518 288.678 201.845 288.701C202.605 288.748 203.191 288.941 203.602 289.282C204.012 289.623 204.218 290.082 204.218 290.661C204.218 291.319 203.924 291.856 203.336 292.271C202.748 292.686 201.854 292.894 200.655 292.894ZM200.886 292.061C201.553 292.061 202.064 291.961 202.419 291.76C202.773 291.559 202.951 291.256 202.951 290.85C202.951 290.561 202.841 290.325 202.622 290.143C202.407 289.956 202.078 289.849 201.635 289.821L199.605 289.688C199.423 289.679 199.234 289.725 199.038 289.828C198.842 289.926 198.674 290.064 198.534 290.241C198.398 290.418 198.331 290.619 198.331 290.843C198.331 291.226 198.538 291.524 198.954 291.739C199.374 291.954 200.018 292.061 200.886 292.061ZM200.662 286.895C201.184 286.895 201.604 286.774 201.922 286.531C202.244 286.288 202.405 285.929 202.405 285.453C202.405 284.963 202.244 284.59 201.922 284.333C201.604 284.076 201.184 283.948 200.662 283.948C200.134 283.948 199.707 284.079 199.381 284.34C199.059 284.597 198.898 284.968 198.898 285.453C198.898 285.91 199.052 286.265 199.36 286.517C199.668 286.769 200.102 286.895 200.662 286.895ZM213.855 280.238C214.569 280.238 215.201 280.387 215.752 280.686C216.302 280.98 216.746 281.374 217.082 281.869C217.418 282.364 217.616 282.907 217.677 283.5H216.298C216.223 283.103 216.081 282.744 215.871 282.422C215.661 282.1 215.385 281.843 215.045 281.652C214.704 281.461 214.296 281.365 213.82 281.365C213.208 281.365 212.69 281.51 212.266 281.799C211.846 282.084 211.526 282.525 211.307 283.122C211.092 283.719 210.985 284.485 210.985 285.418C210.985 286.827 211.225 287.863 211.706 288.526C212.191 289.184 212.896 289.513 213.82 289.513C214.296 289.513 214.704 289.413 215.045 289.212C215.385 289.011 215.661 288.743 215.871 288.407C216.081 288.071 216.223 287.707 216.298 287.315H217.677C217.625 287.744 217.509 288.16 217.327 288.561C217.149 288.958 216.904 289.312 216.592 289.625C216.279 289.938 215.894 290.185 215.437 290.367C214.984 290.549 214.457 290.64 213.855 290.64C212.945 290.64 212.168 290.432 211.524 290.017C210.884 289.602 210.394 289.004 210.054 288.225C209.718 287.446 209.55 286.505 209.55 285.404C209.55 284.307 209.718 283.374 210.054 282.604C210.39 281.834 210.877 281.248 211.517 280.847C212.161 280.441 212.94 280.238 213.855 280.238ZM222.537 290.64C221.869 290.64 221.286 290.498 220.787 290.213C220.287 289.924 219.9 289.501 219.625 288.946C219.349 288.391 219.212 287.712 219.212 286.909C219.212 286.153 219.34 285.49 219.597 284.921C219.853 284.352 220.229 283.911 220.724 283.598C221.223 283.281 221.827 283.122 222.537 283.122C223.204 283.122 223.783 283.269 224.273 283.563C224.767 283.852 225.15 284.279 225.421 284.844C225.691 285.409 225.827 286.097 225.827 286.909C225.827 287.646 225.701 288.295 225.449 288.855C225.201 289.415 224.833 289.854 224.343 290.171C223.857 290.484 223.255 290.64 222.537 290.64ZM222.537 289.618C222.971 289.618 223.337 289.508 223.636 289.289C223.934 289.07 224.161 288.755 224.315 288.344C224.469 287.933 224.546 287.446 224.546 286.881C224.546 286.363 224.478 285.899 224.343 285.488C224.207 285.073 223.99 284.744 223.692 284.501C223.398 284.258 223.013 284.137 222.537 284.137C222.098 284.137 221.727 284.247 221.424 284.466C221.12 284.681 220.889 284.993 220.731 285.404C220.577 285.815 220.5 286.307 220.5 286.881C220.5 287.39 220.57 287.852 220.71 288.267C220.85 288.682 221.069 289.011 221.368 289.254C221.666 289.497 222.056 289.618 222.537 289.618ZM227.691 290.5V283.262H228.937V284.312C229.138 283.995 229.413 283.717 229.763 283.479C230.113 283.241 230.568 283.122 231.128 283.122C231.389 283.122 231.655 283.166 231.926 283.255C232.201 283.344 232.453 283.477 232.682 283.654C232.911 283.831 233.088 284.048 233.214 284.305C233.438 283.95 233.741 283.666 234.124 283.451C234.507 283.232 234.938 283.122 235.419 283.122C235.671 283.122 235.935 283.162 236.21 283.241C236.485 283.316 236.74 283.451 236.973 283.647C237.211 283.838 237.405 284.107 237.554 284.452C237.703 284.793 237.778 285.231 237.778 285.768V290.5H236.476V285.894C236.476 285.455 236.406 285.117 236.266 284.879C236.126 284.636 235.942 284.466 235.713 284.368C235.489 284.27 235.249 284.221 234.992 284.221C234.768 284.221 234.53 284.265 234.278 284.354C234.026 284.443 233.811 284.592 233.634 284.802C233.457 285.012 233.368 285.299 233.368 285.663V290.5H232.08V285.516C232.08 285.231 232.003 284.993 231.849 284.802C231.7 284.611 231.511 284.466 231.282 284.368C231.058 284.27 230.834 284.221 230.61 284.221C230.363 284.221 230.113 284.27 229.861 284.368C229.614 284.466 229.404 284.622 229.231 284.837C229.063 285.047 228.979 285.322 228.979 285.663V290.5H227.691ZM239.974 290.5V283.262H241.22V284.312C241.421 283.995 241.696 283.717 242.046 283.479C242.396 283.241 242.851 283.122 243.411 283.122C243.673 283.122 243.939 283.166 244.209 283.255C244.485 283.344 244.737 283.477 244.965 283.654C245.194 283.831 245.371 284.048 245.497 284.305C245.721 283.95 246.025 283.666 246.407 283.451C246.79 283.232 247.222 283.122 247.702 283.122C247.954 283.122 248.218 283.162 248.493 283.241C248.769 283.316 249.023 283.451 249.256 283.647C249.494 283.838 249.688 284.107 249.837 284.452C249.987 284.793 250.061 285.231 250.061 285.768V290.5H248.759V285.894C248.759 285.455 248.689 285.117 248.549 284.879C248.409 284.636 248.225 284.466 247.996 284.368C247.772 284.27 247.532 284.221 247.275 284.221C247.051 284.221 246.813 284.265 246.561 284.354C246.309 284.443 246.095 284.592 245.917 284.802C245.74 285.012 245.651 285.299 245.651 285.663V290.5H244.363V285.516C244.363 285.231 244.286 284.993 244.132 284.802C243.983 284.611 243.794 284.466 243.565 284.368C243.341 284.27 243.117 284.221 242.893 284.221C242.646 284.221 242.396 284.27 242.144 284.368C241.897 284.466 241.687 284.622 241.514 284.837C241.346 285.047 241.262 285.322 241.262 285.663V290.5H239.974ZM253.658 283.262V290.5H252.405V283.262H253.658ZM253.686 280.385V281.729H252.363V280.385H253.686ZM258.674 290.64C258.17 290.64 257.701 290.563 257.267 290.409C256.838 290.25 256.481 290.005 256.196 289.674C255.912 289.338 255.732 288.911 255.657 288.393H256.833C256.899 288.678 257.015 288.916 257.183 289.107C257.356 289.294 257.571 289.436 257.827 289.534C258.084 289.627 258.364 289.674 258.667 289.674C259.153 289.674 259.545 289.583 259.843 289.401C260.142 289.219 260.291 288.939 260.291 288.561C260.291 288.295 260.212 288.083 260.053 287.924C259.899 287.761 259.659 287.642 259.332 287.567L257.834 287.196C257.251 287.056 256.784 286.837 256.434 286.538C256.084 286.239 255.909 285.822 255.909 285.285C255.905 284.86 256.005 284.487 256.21 284.165C256.416 283.843 256.724 283.589 257.134 283.402C257.545 283.215 258.056 283.122 258.667 283.122C259.451 283.122 260.084 283.299 260.564 283.654C261.05 284.004 261.302 284.52 261.32 285.201H260.179C260.133 284.856 259.976 284.583 259.71 284.382C259.449 284.177 259.097 284.074 258.653 284.074C258.191 284.074 257.816 284.167 257.526 284.354C257.237 284.536 257.092 284.821 257.092 285.208C257.092 285.465 257.195 285.668 257.4 285.817C257.606 285.962 257.909 286.083 258.31 286.181L259.759 286.545C260.095 286.634 260.371 286.75 260.585 286.895C260.805 287.04 260.977 287.201 261.103 287.378C261.234 287.555 261.325 287.742 261.376 287.938C261.432 288.129 261.46 288.314 261.46 288.491C261.46 288.934 261.348 289.317 261.124 289.639C260.905 289.956 260.588 290.204 260.172 290.381C259.762 290.554 259.262 290.64 258.674 290.64ZM265.899 290.64C265.395 290.64 264.926 290.563 264.492 290.409C264.063 290.25 263.706 290.005 263.421 289.674C263.136 289.338 262.957 288.911 262.882 288.393H264.058C264.123 288.678 264.24 288.916 264.408 289.107C264.581 289.294 264.795 289.436 265.052 289.534C265.309 289.627 265.589 289.674 265.892 289.674C266.377 289.674 266.769 289.583 267.068 289.401C267.367 289.219 267.516 288.939 267.516 288.561C267.516 288.295 267.437 288.083 267.278 287.924C267.124 287.761 266.884 287.642 266.557 287.567L265.059 287.196C264.476 287.056 264.009 286.837 263.659 286.538C263.309 286.239 263.134 285.822 263.134 285.285C263.129 284.86 263.23 284.487 263.435 284.165C263.64 283.843 263.948 283.589 264.359 283.402C264.77 283.215 265.281 283.122 265.892 283.122C266.676 283.122 267.308 283.299 267.789 283.654C268.274 284.004 268.526 284.52 268.545 285.201H267.404C267.357 284.856 267.201 284.583 266.935 284.382C266.674 284.177 266.321 284.074 265.878 284.074C265.416 284.074 265.04 284.167 264.751 284.354C264.462 284.536 264.317 284.821 264.317 285.208C264.317 285.465 264.42 285.668 264.625 285.817C264.83 285.962 265.134 286.083 265.535 286.181L266.984 286.545C267.32 286.634 267.595 286.75 267.81 286.895C268.029 287.04 268.202 287.201 268.328 287.378C268.459 287.555 268.55 287.742 268.601 287.938C268.657 288.129 268.685 288.314 268.685 288.491C268.685 288.934 268.573 289.317 268.349 289.639C268.13 289.956 267.812 290.204 267.397 290.381C266.986 290.554 266.487 290.64 265.899 290.64ZM272.064 283.262V290.5H270.811V283.262H272.064ZM272.092 280.385V281.729H270.769V280.385H272.092ZM277.389 290.64C276.721 290.64 276.138 290.498 275.639 290.213C275.139 289.924 274.752 289.501 274.477 288.946C274.201 288.391 274.064 287.712 274.064 286.909C274.064 286.153 274.192 285.49 274.449 284.921C274.705 284.352 275.081 283.911 275.576 283.598C276.075 283.281 276.679 283.122 277.389 283.122C278.056 283.122 278.635 283.269 279.125 283.563C279.619 283.852 280.002 284.279 280.273 284.844C280.543 285.409 280.679 286.097 280.679 286.909C280.679 287.646 280.553 288.295 280.301 288.855C280.053 289.415 279.685 289.854 279.195 290.171C278.709 290.484 278.107 290.64 277.389 290.64ZM277.389 289.618C277.823 289.618 278.189 289.508 278.488 289.289C278.786 289.07 279.013 288.755 279.167 288.344C279.321 287.933 279.398 287.446 279.398 286.881C279.398 286.363 279.33 285.899 279.195 285.488C279.059 285.073 278.842 284.744 278.544 284.501C278.25 284.258 277.865 284.137 277.389 284.137C276.95 284.137 276.579 284.247 276.276 284.466C275.972 284.681 275.741 284.993 275.583 285.404C275.429 285.815 275.352 286.307 275.352 286.881C275.352 287.39 275.422 287.852 275.562 288.267C275.702 288.682 275.921 289.011 276.22 289.254C276.518 289.497 276.908 289.618 277.389 289.618ZM282.543 290.5V283.262H283.796V284.312C283.913 284.111 284.074 283.922 284.279 283.745C284.489 283.568 284.741 283.425 285.035 283.318C285.334 283.211 285.677 283.157 286.064 283.157C286.521 283.157 286.941 283.248 287.324 283.43C287.711 283.612 288.019 283.897 288.248 284.284C288.481 284.667 288.598 285.161 288.598 285.768V290.5H287.303V285.894C287.303 285.329 287.154 284.912 286.855 284.641C286.561 284.366 286.178 284.228 285.707 284.228C285.38 284.228 285.075 284.282 284.79 284.389C284.505 284.492 284.274 284.65 284.097 284.865C283.92 285.075 283.831 285.341 283.831 285.663V290.5H282.543Z" fill="white" fill-opacity="0.7"/>
<path d="M26.604 325.5V317.443H24.651V316.596C25.2577 316.596 25.729 316.552 26.065 316.463C26.401 316.374 26.639 316.239 26.779 316.057C26.9237 315.875 27.003 315.649 27.017 315.378H27.941V325.5H26.604ZM30.5222 315.378H37.6272V316.498C37.2678 316.988 36.9108 317.546 36.5562 318.171C36.2062 318.792 35.8725 319.443 35.5552 320.124C35.2378 320.801 34.9532 321.47 34.7012 322.133C34.4492 322.791 34.2392 323.412 34.0712 323.995C33.9078 324.574 33.8028 325.075 33.7562 325.5H32.3492C32.4238 325.038 32.5568 324.466 32.7482 323.785C32.9442 323.104 33.2008 322.359 33.5182 321.552C33.8355 320.74 34.2182 319.902 34.6662 319.039C35.1142 318.176 35.6275 317.329 36.2062 316.498H30.5222V315.378ZM37.5241 325.5V323.848H39.0641V325.5H37.5241ZM41.7203 315.378H47.7613L47.7263 316.498H42.8263L42.5673 319.767C42.9033 319.454 43.2696 319.233 43.6663 319.102C44.0676 318.967 44.5016 318.899 44.9683 318.899C45.5796 318.899 46.1419 319.025 46.6553 319.277C47.1733 319.524 47.5886 319.893 47.9013 320.383C48.2139 320.868 48.3703 321.47 48.3703 322.189C48.3703 322.889 48.2186 323.498 47.9153 324.016C47.6119 324.534 47.1849 324.938 46.6343 325.227C46.0836 325.512 45.4373 325.654 44.6953 325.654C44.0699 325.654 43.4913 325.544 42.9593 325.325C42.4273 325.106 41.9699 324.8 41.5873 324.408C41.2093 324.016 40.9316 323.566 40.7543 323.057L41.8743 322.588C42.0423 322.971 42.2523 323.311 42.5043 323.61C42.7609 323.909 43.0643 324.142 43.4143 324.31C43.7643 324.478 44.1609 324.562 44.6043 324.562C45.3229 324.562 45.8993 324.354 46.3333 323.939C46.7719 323.519 46.9913 322.95 46.9913 322.231C46.9913 321.783 46.8886 321.393 46.6833 321.062C46.4779 320.726 46.2003 320.465 45.8503 320.278C45.5049 320.091 45.1223 319.998 44.7023 319.998C44.4269 319.998 44.1703 320.024 43.9323 320.075C43.6943 320.122 43.4586 320.215 43.2253 320.355C42.9919 320.495 42.7469 320.707 42.4903 320.992C42.4623 321.006 42.4413 321.013 42.4273 321.013C42.4133 321.008 42.3899 320.999 42.3573 320.985L41.2653 320.642L41.7203 315.378ZM53.9546 325.5V315.378H57.2096C58.4416 315.378 59.3726 315.604 60.0026 316.057C60.6372 316.51 60.9546 317.163 60.9546 318.017C60.9546 318.554 60.8146 319.013 60.5346 319.396C60.2592 319.779 59.7739 320.094 59.0786 320.341C59.4752 320.425 59.8089 320.546 60.0796 320.705C60.3549 320.864 60.5742 321.05 60.7376 321.265C60.9056 321.475 61.0246 321.708 61.0946 321.965C61.1692 322.222 61.2066 322.492 61.2066 322.777C61.2066 323.692 60.8799 324.375 60.2266 324.828C59.5779 325.276 58.6072 325.5 57.3146 325.5H53.9546ZM55.2496 324.422H57.3006C58.1452 324.422 58.7869 324.284 59.2256 324.009C59.6689 323.729 59.8906 323.3 59.8906 322.721C59.8906 322.296 59.7809 321.953 59.5616 321.692C59.3469 321.426 59.0552 321.232 58.6866 321.111C58.3179 320.99 57.9072 320.929 57.4546 320.929H55.2496V324.422ZM55.2496 319.83H57.4546C57.7206 319.83 57.9842 319.804 58.2456 319.753C58.5069 319.702 58.7472 319.613 58.9666 319.487C59.1859 319.361 59.3632 319.193 59.4986 318.983C59.6339 318.768 59.7016 318.5 59.7016 318.178C59.7016 317.59 59.4752 317.156 59.0226 316.876C58.5746 316.591 57.9912 316.449 57.2726 316.449H55.2496V319.83ZM74.3127 322C74.3127 322.779 74.1844 323.44 73.9277 323.981C73.6711 324.522 73.2697 324.935 72.7237 325.22C72.1824 325.5 71.4777 325.64 70.6097 325.64C69.7324 325.64 69.0207 325.495 68.4747 325.206C67.9334 324.917 67.5367 324.492 67.2847 323.932C67.0374 323.372 66.9137 322.684 66.9137 321.867V315.378H68.2577V322.063C68.2577 322.88 68.4607 323.491 68.8667 323.897C69.2727 324.303 69.8537 324.506 70.6097 324.506C71.1184 324.506 71.5501 324.417 71.9047 324.24C72.2641 324.063 72.5371 323.794 72.7237 323.435C72.9151 323.071 73.0107 322.614 73.0107 322.063V315.378H74.3127V322ZM80.3235 325.64C79.8475 325.64 79.3855 325.582 78.9375 325.465C78.4895 325.344 78.0835 325.164 77.7195 324.926C77.3555 324.688 77.0521 324.394 76.8095 324.044C76.5715 323.689 76.4221 323.279 76.3615 322.812H77.7195C77.8035 323.195 77.9691 323.517 78.2165 323.778C78.4685 324.039 78.7741 324.235 79.1335 324.366C79.4975 324.497 79.8918 324.562 80.3165 324.562C80.7925 324.562 81.2171 324.497 81.5905 324.366C81.9685 324.231 82.2648 324.039 82.4795 323.792C82.6988 323.545 82.8085 323.248 82.8085 322.903C82.8085 322.6 82.7385 322.336 82.5985 322.112C82.4631 321.888 82.2648 321.701 82.0035 321.552C81.7421 321.403 81.4248 321.286 81.0515 321.202L79.0635 320.74C78.3168 320.577 77.7311 320.285 77.3065 319.865C76.8865 319.445 76.6718 318.89 76.6625 318.199C76.6625 317.616 76.8165 317.102 77.1245 316.659C77.4371 316.216 77.8641 315.87 78.4055 315.623C78.9515 315.376 79.5745 315.252 80.2745 315.252C81.0818 315.252 81.7608 315.39 82.3115 315.665C82.8621 315.94 83.2775 316.302 83.5575 316.75C83.8375 317.198 83.9798 317.676 83.9845 318.185H82.6475C82.6055 317.728 82.4701 317.366 82.2415 317.1C82.0175 316.829 81.7351 316.638 81.3945 316.526C81.0538 316.409 80.6828 316.351 80.2815 316.351C79.9921 316.351 79.7121 316.388 79.4415 316.463C79.1755 316.533 78.9351 316.64 78.7205 316.785C78.5105 316.93 78.3425 317.109 78.2165 317.324C78.0905 317.539 78.0275 317.788 78.0275 318.073C78.0275 318.437 78.1511 318.733 78.3985 318.962C78.6505 319.191 79.1055 319.387 79.7635 319.55L81.6885 320.012C82.1925 320.119 82.6031 320.278 82.9205 320.488C83.2425 320.698 83.4898 320.936 83.6625 321.202C83.8398 321.468 83.9611 321.746 84.0265 322.035C84.0965 322.324 84.1315 322.609 84.1315 322.889C84.1315 323.398 83.9798 323.862 83.6765 324.282C83.3731 324.697 82.9368 325.029 82.3675 325.276C81.8028 325.519 81.1215 325.64 80.3235 325.64ZM86.449 315.378C86.4817 315.378 86.5797 315.38 86.743 315.385C86.911 315.385 87.114 315.385 87.352 315.385C87.59 315.38 87.8374 315.38 88.094 315.385C88.3507 315.385 88.5864 315.387 88.801 315.392C90.0424 315.411 91.048 315.614 91.818 316.001C92.5927 316.384 93.1597 316.941 93.519 317.674C93.883 318.407 94.065 319.307 94.065 320.376C94.065 321.496 93.869 322.436 93.477 323.197C93.0897 323.958 92.497 324.532 91.699 324.919C90.9057 325.306 89.8954 325.5 88.668 325.5H86.449V315.378ZM87.779 316.491V324.387H88.668C89.5034 324.387 90.222 324.259 90.824 324.002C91.426 323.741 91.888 323.318 92.21 322.735C92.5367 322.152 92.7 321.372 92.7 320.397C92.7 319.422 92.5414 318.649 92.224 318.08C91.9114 317.511 91.4587 317.105 90.866 316.862C90.2734 316.615 89.5594 316.491 88.724 316.491H87.779Z" fill="white"/>
<rect x="120" y="317" width="8" height="8" rx="2" fill="#CE93D8"/>
<path d="M151.054 325.64C150.167 325.64 149.402 325.437 148.758 325.031C148.114 324.62 147.619 324.03 147.274 323.26C146.929 322.49 146.756 321.559 146.756 320.467C146.756 319.366 146.931 318.425 147.281 317.646C147.636 316.867 148.14 316.272 148.793 315.861C149.446 315.446 150.219 315.238 151.11 315.238C151.619 315.238 152.097 315.327 152.545 315.504C152.993 315.681 153.39 315.924 153.735 316.232C154.08 316.535 154.356 316.883 154.561 317.275C154.771 317.667 154.89 318.075 154.918 318.5H153.532C153.467 318.127 153.322 317.779 153.098 317.457C152.874 317.135 152.589 316.876 152.244 316.68C151.903 316.484 151.518 316.386 151.089 316.386C150.506 316.386 149.992 316.531 149.549 316.82C149.11 317.105 148.767 317.546 148.52 318.143C148.277 318.74 148.156 319.506 148.156 320.439C148.156 321.158 148.231 321.774 148.38 322.287C148.529 322.8 148.737 323.218 149.003 323.54C149.274 323.857 149.589 324.093 149.948 324.247C150.312 324.396 150.704 324.471 151.124 324.471C151.549 324.471 151.917 324.396 152.23 324.247C152.547 324.098 152.811 323.906 153.021 323.673C153.231 323.435 153.392 323.181 153.504 322.91C153.621 322.635 153.684 322.371 153.693 322.119L153.735 321.223H151.271V320.271L155.079 320.278V325.5H154.106V323.96C153.929 324.249 153.705 324.522 153.434 324.779C153.163 325.036 152.832 325.243 152.44 325.402C152.053 325.561 151.591 325.64 151.054 325.64ZM159.511 325.64C159.044 325.64 158.631 325.558 158.272 325.395C157.912 325.227 157.63 324.987 157.425 324.674C157.224 324.361 157.124 323.983 157.124 323.54C157.124 322.737 157.404 322.14 157.964 321.748C158.524 321.356 159.422 321.146 160.659 321.118L161.954 321.083V320.516C161.954 320.073 161.821 319.723 161.555 319.466C161.289 319.205 160.876 319.074 160.316 319.074C159.9 319.079 159.534 319.177 159.217 319.368C158.904 319.559 158.701 319.872 158.608 320.306H157.467C157.495 319.835 157.628 319.438 157.866 319.116C158.104 318.789 158.435 318.542 158.86 318.374C159.289 318.206 159.795 318.122 160.379 318.122C161.009 318.122 161.531 318.211 161.947 318.388C162.367 318.565 162.679 318.827 162.885 319.172C163.095 319.517 163.2 319.942 163.2 320.446V325.5H162.094L162.003 324.142C161.723 324.707 161.366 325.099 160.932 325.318C160.502 325.533 160.029 325.64 159.511 325.64ZM159.903 324.709C160.145 324.709 160.386 324.665 160.624 324.576C160.866 324.487 161.088 324.368 161.289 324.219C161.489 324.065 161.648 323.895 161.765 323.708C161.886 323.517 161.949 323.321 161.954 323.12V321.881L160.876 321.902C160.325 321.911 159.863 321.967 159.49 322.07C159.121 322.173 158.843 322.334 158.657 322.553C158.475 322.772 158.384 323.059 158.384 323.414C158.384 323.82 158.524 324.137 158.804 324.366C159.088 324.595 159.455 324.709 159.903 324.709ZM168.041 325.64C167.537 325.64 167.068 325.563 166.634 325.409C166.204 325.25 165.847 325.005 165.563 324.674C165.278 324.338 165.098 323.911 165.024 323.393H166.2C166.265 323.678 166.382 323.916 166.55 324.107C166.722 324.294 166.937 324.436 167.194 324.534C167.45 324.627 167.73 324.674 168.034 324.674C168.519 324.674 168.911 324.583 169.21 324.401C169.508 324.219 169.658 323.939 169.658 323.561C169.658 323.295 169.578 323.083 169.42 322.924C169.266 322.761 169.025 322.642 168.699 322.567L167.201 322.196C166.617 322.056 166.151 321.837 165.801 321.538C165.451 321.239 165.276 320.822 165.276 320.285C165.271 319.86 165.371 319.487 165.577 319.165C165.782 318.843 166.09 318.589 166.501 318.402C166.911 318.215 167.422 318.122 168.034 318.122C168.818 318.122 169.45 318.299 169.931 318.654C170.416 319.004 170.668 319.52 170.687 320.201H169.546C169.499 319.856 169.343 319.583 169.077 319.382C168.815 319.177 168.463 319.074 168.02 319.074C167.558 319.074 167.182 319.167 166.893 319.354C166.603 319.536 166.459 319.821 166.459 320.208C166.459 320.465 166.561 320.668 166.767 320.817C166.972 320.962 167.275 321.083 167.677 321.181L169.126 321.545C169.462 321.634 169.737 321.75 169.952 321.895C170.171 322.04 170.344 322.201 170.47 322.378C170.6 322.555 170.691 322.742 170.743 322.938C170.799 323.129 170.827 323.314 170.827 323.491C170.827 323.934 170.715 324.317 170.491 324.639C170.271 324.956 169.954 325.204 169.539 325.381C169.128 325.554 168.629 325.64 168.041 325.64ZM176.413 315.378H182.72L182.713 316.512H177.743V319.858H182.209V320.978H177.743V325.5H176.413V315.378ZM185.349 322.182C185.349 322.639 185.424 323.055 185.573 323.428C185.727 323.797 185.958 324.091 186.266 324.31C186.579 324.529 186.968 324.639 187.435 324.639C187.897 324.639 188.294 324.532 188.625 324.317C188.961 324.102 189.176 323.792 189.269 323.386H190.494C190.405 323.876 190.209 324.289 189.906 324.625C189.603 324.961 189.236 325.215 188.807 325.388C188.378 325.556 187.93 325.64 187.463 325.64C186.786 325.64 186.191 325.493 185.678 325.199C185.165 324.905 184.763 324.483 184.474 323.932C184.185 323.381 184.04 322.721 184.04 321.951C184.04 321.19 184.171 320.523 184.432 319.949C184.693 319.375 185.071 318.927 185.566 318.605C186.065 318.283 186.665 318.122 187.365 318.122C188.046 318.122 188.623 318.269 189.094 318.563C189.565 318.857 189.922 319.272 190.165 319.809C190.412 320.341 190.536 320.973 190.536 321.706V322.182H185.349ZM185.356 321.307H189.29C189.29 320.892 189.22 320.518 189.08 320.187C188.94 319.851 188.725 319.587 188.436 319.396C188.151 319.2 187.792 319.102 187.358 319.102C186.905 319.102 186.53 319.212 186.231 319.431C185.937 319.646 185.715 319.923 185.566 320.264C185.421 320.6 185.351 320.948 185.356 321.307ZM193.408 322.182C193.408 322.639 193.482 323.055 193.632 323.428C193.786 323.797 194.017 324.091 194.325 324.31C194.637 324.529 195.027 324.639 195.494 324.639C195.956 324.639 196.352 324.532 196.684 324.317C197.02 324.102 197.234 323.792 197.328 323.386H198.553C198.464 323.876 198.268 324.289 197.965 324.625C197.661 324.961 197.295 325.215 196.866 325.388C196.436 325.556 195.988 325.64 195.522 325.64C194.845 325.64 194.25 325.493 193.737 325.199C193.223 324.905 192.822 324.483 192.533 323.932C192.243 323.381 192.099 322.721 192.099 321.951C192.099 321.19 192.229 320.523 192.491 319.949C192.752 319.375 193.13 318.927 193.625 318.605C194.124 318.283 194.724 318.122 195.424 318.122C196.105 318.122 196.681 318.269 197.153 318.563C197.624 318.857 197.981 319.272 198.224 319.809C198.471 320.341 198.595 320.973 198.595 321.706V322.182H193.408ZM193.415 321.307H197.349C197.349 320.892 197.279 320.518 197.139 320.187C196.999 319.851 196.784 319.587 196.495 319.396C196.21 319.2 195.851 319.102 195.417 319.102C194.964 319.102 194.588 319.212 194.29 319.431C193.996 319.646 193.774 319.923 193.625 320.264C193.48 320.6 193.41 320.948 193.415 321.307Z" fill="white" fill-opacity="0.7"/>
<path d="M29.369 350.378H30.685V356.776H32.365V357.917H30.685V360.5H29.418V357.917H24.651V356.734L29.369 350.378ZM25.89 356.776H29.39V352.079L25.89 356.776ZM33.8427 360.5V359.709V359.296C33.8427 358.778 33.9384 358.33 34.1297 357.952C34.3257 357.574 34.5824 357.245 34.8997 356.965C35.2217 356.68 35.5717 356.426 35.9497 356.202C36.3324 355.978 36.7127 355.763 37.0907 355.558C37.4734 355.348 37.8234 355.131 38.1407 354.907C38.458 354.678 38.7124 354.422 38.9037 354.137C39.0997 353.848 39.1977 353.507 39.1977 353.115C39.1977 352.602 39.0157 352.184 38.6517 351.862C38.2924 351.54 37.8047 351.379 37.1887 351.379C36.526 351.379 35.994 351.566 35.5927 351.939C35.1914 352.312 34.965 352.809 34.9137 353.43H33.6257C33.6397 352.847 33.7844 352.315 34.0597 351.834C34.335 351.349 34.7387 350.961 35.2707 350.672C35.8027 350.383 36.4584 350.238 37.2377 350.238C37.9144 350.238 38.5024 350.359 39.0017 350.602C39.501 350.84 39.886 351.176 40.1567 351.61C40.432 352.039 40.5697 352.541 40.5697 353.115C40.5697 353.638 40.474 354.086 40.2827 354.459C40.0914 354.832 39.837 355.157 39.5197 355.432C39.207 355.703 38.864 355.945 38.4907 356.16C38.1174 356.375 37.7417 356.582 37.3637 356.783C36.9857 356.979 36.6404 357.187 36.3277 357.406C36.015 357.621 35.763 357.868 35.5717 358.148C35.3804 358.428 35.2847 358.762 35.2847 359.149V359.352H40.6257V360.5H33.8427ZM42.8215 360.5V350.378H46.0765C47.3085 350.378 48.2395 350.604 48.8695 351.057C49.5042 351.51 49.8215 352.163 49.8215 353.017C49.8215 353.554 49.6815 354.013 49.4015 354.396C49.1262 354.779 48.6409 355.094 47.9455 355.341C48.3422 355.425 48.6759 355.546 48.9465 355.705C49.2219 355.864 49.4412 356.05 49.6045 356.265C49.7725 356.475 49.8915 356.708 49.9615 356.965C50.0362 357.222 50.0735 357.492 50.0735 357.777C50.0735 358.692 49.7469 359.375 49.0935 359.828C48.4449 360.276 47.4742 360.5 46.1815 360.5H42.8215ZM44.1165 359.422H46.1675C47.0122 359.422 47.6539 359.284 48.0925 359.009C48.5359 358.729 48.7575 358.3 48.7575 357.721C48.7575 357.296 48.6479 356.953 48.4285 356.692C48.2139 356.426 47.9222 356.232 47.5535 356.111C47.1849 355.99 46.7742 355.929 46.3215 355.929H44.1165V359.422ZM44.1165 354.83H46.3215C46.5875 354.83 46.8512 354.804 47.1125 354.753C47.3739 354.702 47.6142 354.613 47.8335 354.487C48.0529 354.361 48.2302 354.193 48.3655 353.983C48.5009 353.768 48.5685 353.5 48.5685 353.178C48.5685 352.59 48.3422 352.156 47.8895 351.876C47.4415 351.591 46.8582 351.449 46.1395 351.449H44.1165V354.83ZM63.1797 357C63.1797 357.779 63.0513 358.44 62.7947 358.981C62.538 359.522 62.1367 359.935 61.5907 360.22C61.0493 360.5 60.3447 360.64 59.4767 360.64C58.5993 360.64 57.8877 360.495 57.3417 360.206C56.8003 359.917 56.4037 359.492 56.1517 358.932C55.9043 358.372 55.7807 357.684 55.7807 356.867V350.378H57.1247V357.063C57.1247 357.88 57.3277 358.491 57.7337 358.897C58.1397 359.303 58.7207 359.506 59.4767 359.506C59.9853 359.506 60.417 359.417 60.7717 359.24C61.131 359.063 61.404 358.794 61.5907 358.435C61.782 358.071 61.8777 357.614 61.8777 357.063V350.378H63.1797V357ZM69.1904 360.64C68.7144 360.64 68.2524 360.582 67.8044 360.465C67.3564 360.344 66.9504 360.164 66.5864 359.926C66.2224 359.688 65.9191 359.394 65.6764 359.044C65.4384 358.689 65.2891 358.279 65.2284 357.812H66.5864C66.6704 358.195 66.8361 358.517 67.0834 358.778C67.3354 359.039 67.6411 359.235 68.0004 359.366C68.3644 359.497 68.7587 359.562 69.1834 359.562C69.6594 359.562 70.0841 359.497 70.4574 359.366C70.8354 359.231 71.1317 359.039 71.3464 358.792C71.5657 358.545 71.6754 358.248 71.6754 357.903C71.6754 357.6 71.6054 357.336 71.4654 357.112C71.3301 356.888 71.1317 356.701 70.8704 356.552C70.6091 356.403 70.2917 356.286 69.9184 356.202L67.9304 355.74C67.1837 355.577 66.5981 355.285 66.1734 354.865C65.7534 354.445 65.5387 353.89 65.5294 353.199C65.5294 352.616 65.6834 352.102 65.9914 351.659C66.3041 351.216 66.7311 350.87 67.2724 350.623C67.8184 350.376 68.4414 350.252 69.1414 350.252C69.9487 350.252 70.6277 350.39 71.1784 350.665C71.7291 350.94 72.1444 351.302 72.4244 351.75C72.7044 352.198 72.8467 352.676 72.8514 353.185H71.5144C71.4724 352.728 71.3371 352.366 71.1084 352.1C70.8844 351.829 70.6021 351.638 70.2614 351.526C69.9207 351.409 69.5497 351.351 69.1484 351.351C68.8591 351.351 68.5791 351.388 68.3084 351.463C68.0424 351.533 67.8021 351.64 67.5874 351.785C67.3774 351.93 67.2094 352.109 67.0834 352.324C66.9574 352.539 66.8944 352.788 66.8944 353.073C66.8944 353.437 67.0181 353.733 67.2654 353.962C67.5174 354.191 67.9724 354.387 68.6304 354.55L70.5554 355.012C71.0594 355.119 71.4701 355.278 71.7874 355.488C72.1094 355.698 72.3567 355.936 72.5294 356.202C72.7067 356.468 72.8281 356.746 72.8934 357.035C72.9634 357.324 72.9984 357.609 72.9984 357.889C72.9984 358.398 72.8467 358.862 72.5434 359.282C72.2401 359.697 71.8037 360.029 71.2344 360.276C70.6697 360.519 69.9884 360.64 69.1904 360.64ZM75.316 350.378C75.3487 350.378 75.4467 350.38 75.61 350.385C75.778 350.385 75.981 350.385 76.219 350.385C76.457 350.38 76.7043 350.38 76.961 350.385C77.2177 350.385 77.4533 350.387 77.668 350.392C78.9093 350.411 79.915 350.614 80.685 351.001C81.4597 351.384 82.0267 351.941 82.386 352.674C82.75 353.407 82.932 354.307 82.932 355.376C82.932 356.496 82.736 357.436 82.344 358.197C81.9567 358.958 81.364 359.532 80.566 359.919C79.7727 360.306 78.7623 360.5 77.535 360.5H75.316V350.378ZM76.646 351.491V359.387H77.535C78.3703 359.387 79.089 359.259 79.691 359.002C80.293 358.741 80.755 358.318 81.077 357.735C81.4037 357.152 81.567 356.372 81.567 355.397C81.567 354.422 81.4083 353.649 81.091 353.08C80.7783 352.511 80.3257 352.105 79.733 351.862C79.1403 351.615 78.4263 351.491 77.591 351.491H76.646Z" fill="white"/>
<rect x="120" y="352" width="8" height="8" rx="2" fill="#FFA726"/>
<path d="M146.322 351.568V350.378H153.98V351.568H150.893V360.5H149.591V351.568H146.322ZM157.46 360.64C156.792 360.64 156.209 360.498 155.71 360.213C155.21 359.924 154.823 359.501 154.548 358.946C154.272 358.391 154.135 357.712 154.135 356.909C154.135 356.153 154.263 355.49 154.52 354.921C154.776 354.352 155.152 353.911 155.647 353.598C156.146 353.281 156.75 353.122 157.46 353.122C158.127 353.122 158.706 353.269 159.196 353.563C159.69 353.852 160.073 354.279 160.344 354.844C160.614 355.409 160.75 356.097 160.75 356.909C160.75 357.646 160.624 358.295 160.372 358.855C160.124 359.415 159.756 359.854 159.266 360.171C158.78 360.484 158.178 360.64 157.46 360.64ZM157.46 359.618C157.894 359.618 158.26 359.508 158.559 359.289C158.857 359.07 159.084 358.755 159.238 358.344C159.392 357.933 159.469 357.446 159.469 356.881C159.469 356.363 159.401 355.899 159.266 355.488C159.13 355.073 158.913 354.744 158.615 354.501C158.321 354.258 157.936 354.137 157.46 354.137C157.021 354.137 156.65 354.247 156.347 354.466C156.043 354.681 155.812 354.993 155.654 355.404C155.5 355.815 155.423 356.307 155.423 356.881C155.423 357.39 155.493 357.852 155.633 358.267C155.773 358.682 155.992 359.011 156.291 359.254C156.589 359.497 156.979 359.618 157.46 359.618ZM168.97 360.5H167.598L165.33 356.867L163.902 358.344V360.5H162.614V350.098H163.902V356.881L167.304 353.262H168.788L166.177 356.02L168.97 360.5ZM171.282 357.182C171.282 357.639 171.357 358.055 171.506 358.428C171.66 358.797 171.891 359.091 172.199 359.31C172.512 359.529 172.902 359.639 173.368 359.639C173.83 359.639 174.227 359.532 174.558 359.317C174.894 359.102 175.109 358.792 175.202 358.386H176.427C176.339 358.876 176.143 359.289 175.839 359.625C175.536 359.961 175.17 360.215 174.74 360.388C174.311 360.556 173.863 360.64 173.396 360.64C172.72 360.64 172.125 360.493 171.611 360.199C171.098 359.905 170.697 359.483 170.407 358.932C170.118 358.381 169.973 357.721 169.973 356.951C169.973 356.19 170.104 355.523 170.365 354.949C170.627 354.375 171.005 353.927 171.499 353.605C171.999 353.283 172.598 353.122 173.298 353.122C173.98 353.122 174.556 353.269 175.027 353.563C175.499 353.857 175.856 354.272 176.098 354.809C176.346 355.341 176.469 355.973 176.469 356.706V357.182H171.282ZM171.289 356.307H175.223C175.223 355.892 175.153 355.518 175.013 355.187C174.873 354.851 174.659 354.587 174.369 354.396C174.085 354.2 173.725 354.102 173.291 354.102C172.839 354.102 172.463 354.212 172.164 354.431C171.87 354.646 171.649 354.923 171.499 355.264C171.355 355.6 171.285 355.948 171.289 356.307ZM178.417 360.5V353.262H179.67V354.312C179.787 354.111 179.948 353.922 180.153 353.745C180.363 353.568 180.615 353.425 180.909 353.318C181.208 353.211 181.551 353.157 181.938 353.157C182.395 353.157 182.815 353.248 183.198 353.43C183.585 353.612 183.893 353.897 184.122 354.284C184.355 354.667 184.472 355.161 184.472 355.768V360.5H183.177V355.894C183.177 355.329 183.028 354.912 182.729 354.641C182.435 354.366 182.052 354.228 181.581 354.228C181.254 354.228 180.949 354.282 180.664 354.389C180.379 354.492 180.148 354.65 179.971 354.865C179.794 355.075 179.705 355.341 179.705 355.663V360.5H178.417ZM190.337 350.378H191.66V359.338H196.441V360.5H190.33L190.337 350.378ZM199.714 353.262V360.5H198.461V353.262H199.714ZM199.742 350.385V351.729H198.419V350.385H199.742ZM204.73 360.64C204.226 360.64 203.757 360.563 203.323 360.409C202.894 360.25 202.537 360.005 202.252 359.674C201.968 359.338 201.788 358.911 201.713 358.393H202.889C202.955 358.678 203.071 358.916 203.239 359.107C203.412 359.294 203.627 359.436 203.883 359.534C204.14 359.627 204.42 359.674 204.723 359.674C205.209 359.674 205.601 359.583 205.899 359.401C206.198 359.219 206.347 358.939 206.347 358.561C206.347 358.295 206.268 358.083 206.109 357.924C205.955 357.761 205.715 357.642 205.388 357.567L203.89 357.196C203.307 357.056 202.84 356.837 202.49 356.538C202.14 356.239 201.965 355.822 201.965 355.285C201.961 354.86 202.061 354.487 202.266 354.165C202.472 353.843 202.78 353.589 203.19 353.402C203.601 353.215 204.112 353.122 204.723 353.122C205.507 353.122 206.14 353.299 206.62 353.654C207.106 354.004 207.358 354.52 207.376 355.201H206.235C206.189 354.856 206.032 354.583 205.766 354.382C205.505 354.177 205.153 354.074 204.709 354.074C204.247 354.074 203.872 354.167 203.582 354.354C203.293 354.536 203.148 354.821 203.148 355.208C203.148 355.465 203.251 355.668 203.456 355.817C203.662 355.962 203.965 356.083 204.366 356.181L205.815 356.545C206.151 356.634 206.427 356.75 206.641 356.895C206.861 357.04 207.033 357.201 207.159 357.378C207.29 357.555 207.381 357.742 207.432 357.938C207.488 358.129 207.516 358.314 207.516 358.491C207.516 358.934 207.404 359.317 207.18 359.639C206.961 359.956 206.644 360.204 206.228 360.381C205.818 360.554 205.318 360.64 204.73 360.64ZM213.009 354.207H211.378V358.708C211.378 358.965 211.403 359.154 211.455 359.275C211.511 359.392 211.602 359.466 211.728 359.499C211.858 359.532 212.036 359.548 212.26 359.548H213.051V360.416C212.962 360.449 212.827 360.477 212.645 360.5C212.467 360.523 212.246 360.535 211.98 360.535C211.48 360.535 211.093 360.467 210.818 360.332C210.542 360.197 210.349 359.996 210.237 359.73C210.129 359.464 210.076 359.137 210.076 358.75V354.207H208.9V353.262H210.111L210.426 351.155H211.378V353.255H213.009V354.207ZM216.439 353.262V360.5H215.186V353.262H216.439ZM216.467 350.385V351.729H215.144V350.385H216.467ZM218.968 360.5V353.262H220.221V354.312C220.338 354.111 220.499 353.922 220.704 353.745C220.914 353.568 221.166 353.425 221.46 353.318C221.759 353.211 222.102 353.157 222.489 353.157C222.947 353.157 223.367 353.248 223.749 353.43C224.137 353.612 224.445 353.897 224.673 354.284C224.907 354.667 225.023 355.161 225.023 355.768V360.5H223.728V355.894C223.728 355.329 223.579 354.912 223.28 354.641C222.986 354.366 222.604 354.228 222.132 354.228C221.806 354.228 221.5 354.282 221.215 354.389C220.931 354.492 220.7 354.65 220.522 354.865C220.345 355.075 220.256 355.341 220.256 355.663V360.5H218.968ZM230.27 362.894C229.132 362.894 228.245 362.728 227.61 362.397C226.98 362.07 226.665 361.601 226.665 360.99C226.665 360.729 226.726 360.507 226.847 360.325C226.969 360.138 227.113 359.984 227.281 359.863C227.449 359.742 227.606 359.646 227.75 359.576C227.895 359.501 227.988 359.448 228.03 359.415C227.951 359.368 227.851 359.31 227.729 359.24C227.613 359.17 227.51 359.077 227.421 358.96C227.333 358.843 227.288 358.692 227.288 358.505C227.288 358.276 227.396 358.066 227.61 357.875C227.825 357.684 228.142 357.541 228.562 357.448C228.138 357.233 227.806 356.949 227.568 356.594C227.33 356.239 227.211 355.854 227.211 355.439C227.211 354.972 227.337 354.566 227.589 354.221C227.846 353.876 228.21 353.612 228.681 353.43C229.153 353.243 229.713 353.15 230.361 353.15C230.833 353.15 231.229 353.206 231.551 353.318C231.873 353.425 232.172 353.579 232.447 353.78C232.522 353.747 232.639 353.698 232.797 353.633C232.961 353.563 233.14 353.488 233.336 353.409C233.532 353.33 233.714 353.255 233.882 353.185C234.055 353.11 234.193 353.054 234.295 353.017L234.288 354.214L233.021 354.452C233.091 354.601 233.147 354.765 233.189 354.942C233.236 355.119 233.259 355.285 233.259 355.439C233.259 355.864 233.147 356.249 232.923 356.594C232.704 356.939 232.37 357.215 231.922 357.42C231.474 357.625 230.914 357.728 230.242 357.728C230.186 357.728 230.114 357.728 230.025 357.728C229.941 357.723 229.869 357.719 229.808 357.714C229.314 357.728 228.973 357.784 228.786 357.882C228.6 357.975 228.506 358.08 228.506 358.197C228.506 358.332 228.611 358.426 228.821 358.477C229.031 358.528 229.388 358.573 229.892 358.61C230.074 358.619 230.298 358.631 230.564 358.645C230.835 358.659 231.134 358.678 231.46 358.701C232.221 358.748 232.807 358.941 233.217 359.282C233.628 359.623 233.833 360.082 233.833 360.661C233.833 361.319 233.539 361.856 232.951 362.271C232.363 362.686 231.47 362.894 230.27 362.894ZM230.501 362.061C231.169 362.061 231.68 361.961 232.034 361.76C232.389 361.559 232.566 361.256 232.566 360.85C232.566 360.561 232.457 360.325 232.237 360.143C232.023 359.956 231.694 359.849 231.25 359.821L229.22 359.688C229.038 359.679 228.849 359.725 228.653 359.828C228.457 359.926 228.289 360.064 228.149 360.241C228.014 360.418 227.946 360.619 227.946 360.843C227.946 361.226 228.154 361.524 228.569 361.739C228.989 361.954 229.633 362.061 230.501 362.061ZM230.277 356.895C230.8 356.895 231.22 356.774 231.537 356.531C231.859 356.288 232.02 355.929 232.02 355.453C232.02 354.963 231.859 354.59 231.537 354.333C231.22 354.076 230.8 353.948 230.277 353.948C229.75 353.948 229.323 354.079 228.996 354.34C228.674 354.597 228.513 354.968 228.513 355.453C228.513 355.91 228.667 356.265 228.975 356.517C229.283 356.769 229.717 356.895 230.277 356.895Z" fill="white" fill-opacity="0.7"/>
<defs>
<filter id="filter0_d_10_10811" x="218" y="66" width="104" height="62" filterUnits="userSpaceOnUse" color-interpolation-filters="sRGB">
<feFlood flood-opacity="0" result="BackgroundImageFix"/>
<feColorMatrix in="SourceAlpha" type="matrix" values="0 0 0 0 0 0 0 0 0 0 0 0 0 0 0 0 0 0 127 0" result="hardAlpha"/>
<feOffset/>
<feGaussianBlur stdDeviation="10"/>
<feColorMatrix type="matrix" values="0 0 0 0 0.219948 0 0 0 0 0.278529 0 0 0 0 0.429167 0 0 0 0.03 0"/>
<feBlend mode="normal" in2="BackgroundImageFix" result="effect1_dropShadow_10_10811"/>
<feBlend mode="normal" in="SourceGraphic" in2="effect1_dropShadow_10_10811" result="shape"/>
</filter>
<linearGradient id="paint0_linear_10_10811" x1="163.5" y1="0" x2="163.5" y2="397" gradientUnits="userSpaceOnUse">
<stop stop-color="white" stop-opacity="0.05"/>
<stop offset="1" stop-color="white" stop-opacity="0.05"/>
</linearGradient>
</defs>
</svg>
