<svg width="25" height="24" viewBox="0 0 25 24" fill="none" xmlns="http://www.w3.org/2000/svg">
<path d="M12.6665 12C15.4279 12 17.6665 9.76142 17.6665 7C17.6665 4.23858 15.4279 2 12.6665 2C9.90508 2 7.6665 4.23858 7.6665 7C7.6665 9.76142 9.90508 12 12.6665 12Z" stroke="white" stroke-width="1.5" stroke-linecap="round" stroke-linejoin="round"/>
<path d="M4.07642 22C4.07642 18.13 7.92644 15 12.6664 15C13.6264 15 14.5565 15.13 15.4265 15.37" stroke="white" stroke-width="1.5" stroke-linecap="round" stroke-linejoin="round"/>
<path d="M22.6665 18C22.6665 18.32 22.6265 18.63 22.5465 18.93C22.4565 19.33 22.2965 19.72 22.0865 20.06C21.3965 21.22 20.1265 22 18.6665 22C17.6365 22 16.7065 21.61 16.0065 20.97C15.7065 20.71 15.4465 20.4 15.2465 20.06C14.8765 19.46 14.6665 18.75 14.6665 18C14.6665 16.92 15.0965 15.93 15.7965 15.21C16.5265 14.46 17.5465 14 18.6665 14C19.8465 14 20.9165 14.51 21.6365 15.33C22.2765 16.04 22.6665 16.98 22.6665 18Z" stroke="white" stroke-width="1.5" stroke-miterlimit="10" stroke-linecap="round" stroke-linejoin="round"/>
<path d="M20.1565 17.98H17.1765" stroke="white" stroke-width="1.5" stroke-miterlimit="10" stroke-linecap="round" stroke-linejoin="round"/>
</svg>
