<svg width="20" height="20" viewBox="0 0 20 20" fill="none" xmlns="http://www.w3.org/2000/svg">
<g id="Group">
<path id="Vector" d="M10 19.1693C14.75 19.1693 18.6583 15.5526 19.125 10.9193C19.175 10.4276 18.7833 10.0026 18.2917 10.0026C17.8667 10.0026 17.5083 10.3193 17.4667 10.7359C17.1 14.5359 13.8917 17.5026 10 17.5026C7.40001 17.5026 5.10834 16.1776 3.76668 14.1693H5.00001C5.45834 14.1693 5.83334 13.7943 5.83334 13.3359C5.83334 12.8776 5.45834 12.5026 5.00001 12.5026H1.66668C1.20834 12.5026 0.833344 12.8776 0.833344 13.3359V16.6693C0.833344 17.1276 1.20834 17.5026 1.66668 17.5026C2.12501 17.5026 2.50001 17.1276 2.50001 16.6693V15.2776C4.15834 17.6276 6.90001 19.1693 10 19.1693ZM10 0.835938C5.25001 0.835938 1.34168 4.4526 0.87501 9.08594C0.833343 9.5776 1.21668 10.0026 1.70834 10.0026C2.13334 10.0026 2.49168 9.68594 2.53334 9.26927C2.90001 5.46927 6.10834 2.5026 10 2.5026C12.6 2.5026 14.8917 3.8276 16.2333 5.83594H15C14.5417 5.83594 14.1667 6.21094 14.1667 6.66927C14.1667 7.1276 14.5417 7.5026 15 7.5026H18.3333C18.7917 7.5026 19.1667 7.1276 19.1667 6.66927V3.33594C19.1667 2.8776 18.7917 2.5026 18.3333 2.5026C17.875 2.5026 17.5 2.8776 17.5 3.33594V4.7276C15.8417 2.3776 13.1 0.835938 10 0.835938ZM9.26668 4.9026C9.26668 4.49427 9.60001 4.16927 10 4.16927C10.4 4.16927 10.7333 4.49427 10.7333 4.9026V5.21094C11.625 5.36927 12.1917 5.84427 12.5333 6.29427C12.8167 6.66094 12.6667 7.19427 12.2333 7.3776C11.9333 7.5026 11.5833 7.4026 11.3833 7.14427C11.15 6.8276 10.7333 6.5026 10.05 6.5026C9.46668 6.5026 8.54168 6.81094 8.54168 7.66094C8.54168 8.4526 9.25834 8.7526 10.7417 9.24427C12.7417 9.93594 13.25 10.9526 13.25 12.1193C13.25 14.3026 11.1667 14.7276 10.7333 14.8026V15.1109C10.7333 15.5109 10.4083 15.8443 10 15.8443C9.59168 15.8443 9.26668 15.5193 9.26668 15.1109V14.7609C8.74168 14.6359 7.65834 14.2526 7.02501 13.0109C6.83334 12.6443 7.05001 12.1609 7.43334 12.0109C7.77501 11.8776 8.18334 12.0026 8.35834 12.3276C8.62501 12.8359 9.15001 13.4693 10.125 13.4693C10.9 13.4693 11.775 13.0693 11.775 12.1276C11.775 11.3276 11.1917 10.9109 9.87501 10.4359C8.95834 10.1109 7.08334 9.5776 7.08334 7.6776C7.08334 7.59427 7.09168 5.6776 9.26668 5.21094V4.9026Z" fill="white"/>
</g>
</svg>
