<svg width="331" height="314" viewBox="0 0 331 314" fill="none" xmlns="http://www.w3.org/2000/svg">
<rect width="331" height="314" rx="10" fill="white"/>
<path d="M20.44 34.49V32.54H31.55V34.49H27.18V47H25.02V34.49H20.44ZM33.0258 47V36.66H35.0758V38.78C35.2491 38.2733 35.4891 37.85 35.7958 37.51C36.1091 37.1633 36.4724 36.9033 36.8858 36.73C37.2991 36.55 37.7358 36.46 38.1958 36.46C38.3358 36.46 38.4691 36.47 38.5958 36.49C38.7224 36.5033 38.8224 36.53 38.8958 36.57V38.63C38.8091 38.59 38.6958 38.5633 38.5558 38.55C38.4224 38.5367 38.3058 38.5267 38.2058 38.52C37.7524 38.4867 37.3391 38.51 36.9658 38.59C36.5924 38.67 36.2691 38.8033 35.9958 38.99C35.7291 39.1767 35.5224 39.42 35.3758 39.72C35.2358 40.02 35.1658 40.3733 35.1658 40.78V47H33.0258ZM43.7125 47.2C43.0458 47.2 42.4525 47.08 41.9325 46.84C41.4192 46.6 41.0158 46.2533 40.7225 45.8C40.4292 45.3467 40.2825 44.8 40.2825 44.16C40.2825 43.0133 40.6892 42.1567 41.5025 41.59C42.3158 41.0233 43.6125 40.7233 45.3925 40.69L47.0925 40.64V39.89C47.0925 39.2967 46.9158 38.83 46.5625 38.49C46.2092 38.15 45.6658 37.9833 44.9325 37.99C44.3792 37.99 43.8858 38.1167 43.4525 38.37C43.0258 38.6233 42.7458 39.04 42.6125 39.62H40.7525C40.7925 38.9333 40.9892 38.3567 41.3425 37.89C41.7025 37.4167 42.1958 37.06 42.8225 36.82C43.4492 36.58 44.1858 36.46 45.0325 36.46C45.9725 36.46 46.7458 36.59 47.3525 36.85C47.9592 37.1033 48.4092 37.4767 48.7025 37.97C49.0025 38.4633 49.1525 39.0633 49.1525 39.77V47H47.3425L47.1725 45.1C46.7858 45.8933 46.2958 46.4433 45.7025 46.75C45.1158 47.05 44.4525 47.2 43.7125 47.2ZM44.3825 45.71C44.7092 45.71 45.0325 45.6533 45.3525 45.54C45.6725 45.42 45.9625 45.26 46.2225 45.06C46.4825 44.8533 46.6892 44.6233 46.8425 44.37C47.0025 44.1167 47.0858 43.8567 47.0925 43.59V41.88L45.6925 41.91C44.9792 41.9167 44.3725 41.99 43.8725 42.13C43.3792 42.27 42.9992 42.4867 42.7325 42.78C42.4725 43.0733 42.3425 43.4633 42.3425 43.95C42.3425 44.5033 42.5358 44.9367 42.9225 45.25C43.3092 45.5567 43.7958 45.71 44.3825 45.71ZM58.1239 36.66V38.2H55.7039V47H53.5539V38.2H51.4439V36.66H53.5539V35.09C53.5539 34.2633 53.7739 33.6333 54.2139 33.2C54.6539 32.76 55.3006 32.54 56.1539 32.54H58.2139L58.2239 34.02H56.7339C56.3206 34.02 56.0372 34.13 55.8839 34.35C55.7372 34.5633 55.6639 34.8933 55.6639 35.34V36.66H58.1239ZM66.0669 36.66V38.2H63.6469V47H61.4969V38.2H59.3869V36.66H61.4969V35.09C61.4969 34.2633 61.7169 33.6333 62.1569 33.2C62.5969 32.76 63.2435 32.54 64.0969 32.54H66.1569L66.1669 34.02H64.6769C64.2635 34.02 63.9802 34.13 63.8269 34.35C63.6802 34.5633 63.6069 34.8933 63.6069 35.34V36.66H66.0669ZM70.5928 36.66V47H68.5328V36.66H70.5928ZM70.6328 32.55V34.66H68.4828V32.55H70.6328ZM78.0248 36.46C78.7982 36.46 79.4848 36.6133 80.0848 36.92C80.6915 37.22 81.1815 37.64 81.5548 38.18C81.9282 38.72 82.1548 39.35 82.2348 40.07H80.3848C80.3248 39.73 80.1948 39.4133 79.9948 39.12C79.8015 38.8267 79.5382 38.5933 79.2048 38.42C78.8782 38.24 78.4882 38.15 78.0348 38.15C77.2082 38.15 76.5348 38.4533 76.0148 39.06C75.4948 39.6667 75.2348 40.5967 75.2348 41.85C75.2348 42.9967 75.4748 43.91 75.9548 44.59C76.4415 45.27 77.1482 45.61 78.0748 45.61C78.5215 45.61 78.9082 45.5167 79.2348 45.33C79.5682 45.1433 79.8315 44.9033 80.0248 44.61C80.2182 44.3167 80.3415 44.0133 80.3948 43.7H82.2148C82.1415 44.3933 81.9148 45.0033 81.5348 45.53C81.1615 46.0567 80.6715 46.4667 80.0648 46.76C79.4648 47.0533 78.7848 47.2 78.0248 47.2C77.0848 47.2 76.2515 46.9967 75.5248 46.59C74.7982 46.1767 74.2282 45.5733 73.8148 44.78C73.4082 43.98 73.2048 43.01 73.2048 41.87C73.2048 40.7967 73.3948 39.8533 73.7748 39.04C74.1548 38.2267 74.7048 37.5933 75.4248 37.14C76.1515 36.6867 77.0182 36.46 78.0248 36.46ZM86.3661 42.33C86.3661 42.95 86.4661 43.5067 86.6661 44C86.8728 44.4867 87.1828 44.8733 87.5961 45.16C88.0094 45.44 88.5228 45.58 89.1361 45.58C89.7494 45.58 90.2794 45.44 90.7261 45.16C91.1794 44.88 91.4761 44.4633 91.6161 43.91H93.5961C93.4761 44.6167 93.1928 45.2167 92.7461 45.71C92.3061 46.2033 91.7728 46.5767 91.1461 46.83C90.5194 47.0767 89.8628 47.2 89.1761 47.2C88.1961 47.2 87.3328 46.99 86.5861 46.57C85.8394 46.1433 85.2561 45.5367 84.8361 44.75C84.4228 43.9633 84.2161 43.0267 84.2161 41.94C84.2161 40.8667 84.4061 39.92 84.7861 39.1C85.1661 38.2733 85.7161 37.6267 86.4361 37.16C87.1561 36.6933 88.0228 36.46 89.0361 36.46C90.0361 36.46 90.8761 36.6733 91.5561 37.1C92.2428 37.5267 92.7628 38.1267 93.1161 38.9C93.4694 39.6667 93.6461 40.5733 93.6461 41.62V42.33H86.3661ZM86.3661 40.94H91.6061C91.6061 40.4 91.5128 39.91 91.3261 39.47C91.1394 39.0233 90.8528 38.6733 90.4661 38.42C90.0861 38.16 89.6061 38.03 89.0261 38.03C88.4328 38.03 87.9394 38.1733 87.5461 38.46C87.1528 38.7467 86.8561 39.1133 86.6561 39.56C86.4628 40.0067 86.3661 40.4667 86.3661 40.94ZM111.69 47H109.44L106.88 40.95H103.25V47H101.11V32.54H106.85C107.923 32.54 108.813 32.7067 109.52 33.04C110.226 33.3667 110.753 33.8333 111.1 34.44C111.446 35.0467 111.62 35.7633 111.62 36.59C111.62 37.37 111.486 38.02 111.22 38.54C110.96 39.06 110.62 39.4833 110.2 39.81C109.786 40.1367 109.35 40.3933 108.89 40.58L111.69 47ZM106.27 39.22C107.276 39.22 108.056 39.0033 108.61 38.57C109.163 38.13 109.44 37.5033 109.44 36.69C109.44 35.89 109.186 35.2833 108.68 34.87C108.18 34.4567 107.5 34.25 106.64 34.25H103.25V39.22H106.27ZM115.8 42.33C115.8 42.95 115.9 43.5067 116.1 44C116.307 44.4867 116.617 44.8733 117.03 45.16C117.444 45.44 117.957 45.58 118.57 45.58C119.184 45.58 119.714 45.44 120.16 45.16C120.614 44.88 120.91 44.4633 121.05 43.91H123.03C122.91 44.6167 122.627 45.2167 122.18 45.71C121.74 46.2033 121.207 46.5767 120.58 46.83C119.954 47.0767 119.297 47.2 118.61 47.2C117.63 47.2 116.767 46.99 116.02 46.57C115.274 46.1433 114.69 45.5367 114.27 44.75C113.857 43.9633 113.65 43.0267 113.65 41.94C113.65 40.8667 113.84 39.92 114.22 39.1C114.6 38.2733 115.15 37.6267 115.87 37.16C116.59 36.6933 117.457 36.46 118.47 36.46C119.47 36.46 120.31 36.6733 120.99 37.1C121.677 37.5267 122.197 38.1267 122.55 38.9C122.904 39.6667 123.08 40.5733 123.08 41.62V42.33H115.8ZM115.8 40.94H121.04C121.04 40.4 120.947 39.91 120.76 39.47C120.574 39.0233 120.287 38.6733 119.9 38.42C119.52 38.16 119.04 38.03 118.46 38.03C117.867 38.03 117.374 38.1733 116.98 38.46C116.587 38.7467 116.29 39.1133 116.09 39.56C115.897 40.0067 115.8 40.4667 115.8 40.94ZM129.351 47.2C128.631 47.2 127.954 47.0867 127.321 46.86C126.694 46.6333 126.168 46.2767 125.741 45.79C125.321 45.3033 125.058 44.68 124.951 43.92H126.861C126.948 44.3133 127.111 44.64 127.351 44.9C127.598 45.1533 127.891 45.3433 128.231 45.47C128.578 45.59 128.948 45.65 129.341 45.65C129.994 45.65 130.521 45.5333 130.921 45.3C131.328 45.06 131.531 44.6933 131.531 44.2C131.531 43.8467 131.421 43.5633 131.201 43.35C130.988 43.1367 130.648 42.98 130.181 42.88L128.121 42.39C127.268 42.19 126.584 41.8733 126.071 41.44C125.558 41 125.298 40.3867 125.291 39.6C125.291 38.9933 125.441 38.4533 125.741 37.98C126.048 37.5067 126.501 37.1367 127.101 36.87C127.701 36.5967 128.448 36.46 129.341 36.46C130.508 36.46 131.444 36.72 132.151 37.24C132.858 37.76 133.224 38.5133 133.251 39.5H131.401C131.334 39.0267 131.118 38.6567 130.751 38.39C130.391 38.1167 129.914 37.98 129.321 37.98C128.708 37.98 128.204 38.1033 127.811 38.35C127.418 38.59 127.221 38.96 127.221 39.46C127.221 39.8 127.364 40.07 127.651 40.27C127.938 40.4633 128.368 40.6233 128.941 40.75L130.901 41.24C131.408 41.3733 131.824 41.55 132.151 41.77C132.478 41.9833 132.734 42.22 132.921 42.48C133.108 42.74 133.238 43.01 133.311 43.29C133.391 43.57 133.431 43.8333 133.431 44.08C133.431 44.7333 133.264 45.2933 132.931 45.76C132.604 46.22 132.134 46.5767 131.521 46.83C130.914 47.0767 130.191 47.2 129.351 47.2ZM140.204 47.2C139.237 47.2 138.391 46.9933 137.664 46.58C136.944 46.16 136.384 45.5533 135.984 44.76C135.591 43.9667 135.394 43.0067 135.394 41.88C135.394 40.7933 135.581 39.8433 135.954 39.03C136.334 38.2167 136.884 37.5867 137.604 37.14C138.324 36.6867 139.194 36.46 140.214 36.46C141.187 36.46 142.031 36.6733 142.744 37.1C143.457 37.52 144.011 38.1367 144.404 38.95C144.797 39.7567 144.994 40.7333 144.994 41.88C144.994 42.9267 144.807 43.85 144.434 44.65C144.067 45.45 143.527 46.0767 142.814 46.53C142.107 46.9767 141.237 47.2 140.204 47.2ZM140.214 45.55C140.801 45.55 141.291 45.3967 141.684 45.09C142.084 44.7767 142.384 44.34 142.584 43.78C142.784 43.2133 142.884 42.56 142.884 41.82C142.884 41.1333 142.794 40.51 142.614 39.95C142.441 39.3833 142.157 38.9333 141.764 38.6C141.371 38.2667 140.854 38.1 140.214 38.1C139.614 38.1 139.114 38.2533 138.714 38.56C138.314 38.86 138.011 39.29 137.804 39.85C137.604 40.4033 137.504 41.06 137.504 41.82C137.504 42.4933 137.594 43.1133 137.774 43.68C137.954 44.2467 138.244 44.7 138.644 45.04C139.044 45.38 139.567 45.55 140.214 45.55ZM151.087 47.2C150.567 47.1933 150.07 47.1167 149.597 46.97C149.123 46.8233 148.7 46.6033 148.327 46.31C147.96 46.0167 147.667 45.6533 147.447 45.22C147.233 44.7867 147.127 44.2833 147.127 43.71V36.66H149.277V43.48C149.277 44.1 149.47 44.6033 149.857 44.99C150.243 45.3767 150.827 45.57 151.607 45.57C152.313 45.57 152.88 45.3867 153.307 45.02C153.733 44.6467 153.947 44.1033 153.947 43.39V36.66H156.077V47H154.417L154.177 45C154.057 45.54 153.84 45.9733 153.527 46.3C153.22 46.62 152.853 46.8533 152.427 47C152.007 47.14 151.56 47.2067 151.087 47.2ZM159.097 47V36.66H161.147V38.78C161.32 38.2733 161.56 37.85 161.867 37.51C162.18 37.1633 162.544 36.9033 162.957 36.73C163.37 36.55 163.807 36.46 164.267 36.46C164.407 36.46 164.54 36.47 164.667 36.49C164.794 36.5033 164.894 36.53 164.967 36.57V38.63C164.88 38.59 164.767 38.5633 164.627 38.55C164.494 38.5367 164.377 38.5267 164.277 38.52C163.824 38.4867 163.41 38.51 163.037 38.59C162.664 38.67 162.34 38.8033 162.067 38.99C161.8 39.1767 161.594 39.42 161.447 39.72C161.307 40.02 161.237 40.3733 161.237 40.78V47H159.097ZM171.133 36.46C171.906 36.46 172.593 36.6133 173.193 36.92C173.799 37.22 174.289 37.64 174.663 38.18C175.036 38.72 175.263 39.35 175.343 40.07H173.493C173.433 39.73 173.303 39.4133 173.103 39.12C172.909 38.8267 172.646 38.5933 172.313 38.42C171.986 38.24 171.596 38.15 171.143 38.15C170.316 38.15 169.643 38.4533 169.123 39.06C168.603 39.6667 168.343 40.5967 168.343 41.85C168.343 42.9967 168.583 43.91 169.063 44.59C169.549 45.27 170.256 45.61 171.183 45.61C171.629 45.61 172.016 45.5167 172.343 45.33C172.676 45.1433 172.939 44.9033 173.133 44.61C173.326 44.3167 173.449 44.0133 173.503 43.7H175.323C175.249 44.3933 175.023 45.0033 174.643 45.53C174.269 46.0567 173.779 46.4667 173.173 46.76C172.573 47.0533 171.893 47.2 171.133 47.2C170.193 47.2 169.359 46.9967 168.633 46.59C167.906 46.1767 167.336 45.5733 166.923 44.78C166.516 43.98 166.313 43.01 166.313 41.87C166.313 40.7967 166.503 39.8533 166.883 39.04C167.263 38.2267 167.813 37.5933 168.533 37.14C169.259 36.6867 170.126 36.46 171.133 36.46ZM179.474 42.33C179.474 42.95 179.574 43.5067 179.774 44C179.981 44.4867 180.291 44.8733 180.704 45.16C181.117 45.44 181.631 45.58 182.244 45.58C182.857 45.58 183.387 45.44 183.834 45.16C184.287 44.88 184.584 44.4633 184.724 43.91H186.704C186.584 44.6167 186.301 45.2167 185.854 45.71C185.414 46.2033 184.881 46.5767 184.254 46.83C183.627 47.0767 182.971 47.2 182.284 47.2C181.304 47.2 180.441 46.99 179.694 46.57C178.947 46.1433 178.364 45.5367 177.944 44.75C177.531 43.9633 177.324 43.0267 177.324 41.94C177.324 40.8667 177.514 39.92 177.894 39.1C178.274 38.2733 178.824 37.6267 179.544 37.16C180.264 36.6933 181.131 36.46 182.144 36.46C183.144 36.46 183.984 36.6733 184.664 37.1C185.351 37.5267 185.871 38.1267 186.224 38.9C186.577 39.6667 186.754 40.5733 186.754 41.62V42.33H179.474ZM179.474 40.94H184.714C184.714 40.4 184.621 39.91 184.434 39.47C184.247 39.0233 183.961 38.6733 183.574 38.42C183.194 38.16 182.714 38.03 182.134 38.03C181.541 38.03 181.047 38.1733 180.654 38.46C180.261 38.7467 179.964 39.1133 179.764 39.56C179.571 40.0067 179.474 40.4667 179.474 40.94ZM193.024 47.2C192.304 47.2 191.628 47.0867 190.994 46.86C190.368 46.6333 189.841 46.2767 189.414 45.79C188.994 45.3033 188.731 44.68 188.624 43.92H190.534C190.621 44.3133 190.784 44.64 191.024 44.9C191.271 45.1533 191.564 45.3433 191.904 45.47C192.251 45.59 192.621 45.65 193.014 45.65C193.668 45.65 194.194 45.5333 194.594 45.3C195.001 45.06 195.204 44.6933 195.204 44.2C195.204 43.8467 195.094 43.5633 194.874 43.35C194.661 43.1367 194.321 42.98 193.854 42.88L191.794 42.39C190.941 42.19 190.258 41.8733 189.744 41.44C189.231 41 188.971 40.3867 188.964 39.6C188.964 38.9933 189.114 38.4533 189.414 37.98C189.721 37.5067 190.174 37.1367 190.774 36.87C191.374 36.5967 192.121 36.46 193.014 36.46C194.181 36.46 195.118 36.72 195.824 37.24C196.531 37.76 196.898 38.5133 196.924 39.5H195.074C195.008 39.0267 194.791 38.6567 194.424 38.39C194.064 38.1167 193.588 37.98 192.994 37.98C192.381 37.98 191.878 38.1033 191.484 38.35C191.091 38.59 190.894 38.96 190.894 39.46C190.894 39.8 191.038 40.07 191.324 40.27C191.611 40.4633 192.041 40.6233 192.614 40.75L194.574 41.24C195.081 41.3733 195.498 41.55 195.824 41.77C196.151 41.9833 196.408 42.22 196.594 42.48C196.781 42.74 196.911 43.01 196.984 43.29C197.064 43.57 197.104 43.8333 197.104 44.08C197.104 44.7333 196.938 45.2933 196.604 45.76C196.278 46.22 195.808 46.5767 195.194 46.83C194.588 47.0767 193.864 47.2 193.024 47.2Z" fill="#212121"/>
<path d="M292 38.3359C291.083 38.3359 290.333 39.0859 290.333 40.0026C290.333 40.9193 291.083 41.6693 292 41.6693C292.917 41.6693 293.667 40.9193 293.667 40.0026C293.667 39.0859 292.917 38.3359 292 38.3359ZM302 38.3359C301.083 38.3359 300.333 39.0859 300.333 40.0026C300.333 40.9193 301.083 41.6693 302 41.6693C302.917 41.6693 303.667 40.9193 303.667 40.0026C303.667 39.0859 302.917 38.3359 302 38.3359ZM297 38.3359C296.083 38.3359 295.333 39.0859 295.333 40.0026C295.333 40.9193 296.083 41.6693 297 41.6693C297.917 41.6693 298.667 40.9193 298.667 40.0026C298.667 39.0859 297.917 38.3359 297 38.3359Z" fill="#B5B5C3"/>
<path d="M74.276 77.344V76.324H80.84V77.344H78.194V85H77.078V77.344H74.276ZM84.077 85.12C83.505 85.12 83.005 84.998 82.577 84.754C82.149 84.506 81.817 84.144 81.581 83.668C81.345 83.192 81.227 82.61 81.227 81.922C81.227 81.274 81.337 80.706 81.557 80.218C81.777 79.73 82.099 79.352 82.523 79.084C82.951 78.812 83.469 78.676 84.077 78.676C84.649 78.676 85.145 78.802 85.565 79.054C85.989 79.302 86.317 79.668 86.549 80.152C86.781 80.636 86.897 81.226 86.897 81.922C86.897 82.554 86.789 83.11 86.573 83.59C86.361 84.07 86.045 84.446 85.625 84.718C85.209 84.986 84.693 85.12 84.077 85.12ZM84.077 84.244C84.449 84.244 84.763 84.15 85.019 83.962C85.275 83.774 85.469 83.504 85.601 83.152C85.733 82.8 85.799 82.382 85.799 81.898C85.799 81.454 85.741 81.056 85.625 80.704C85.509 80.348 85.323 80.066 85.067 79.858C84.815 79.65 84.485 79.546 84.077 79.546C83.701 79.546 83.383 79.64 83.123 79.828C82.863 80.012 82.665 80.28 82.529 80.632C82.397 80.984 82.331 81.406 82.331 81.898C82.331 82.334 82.391 82.73 82.511 83.086C82.631 83.442 82.819 83.724 83.075 83.932C83.331 84.14 83.665 84.244 84.077 84.244ZM91.702 79.606H90.304V83.464C90.304 83.684 90.326 83.846 90.37 83.95C90.418 84.05 90.496 84.114 90.604 84.142C90.716 84.17 90.868 84.184 91.06 84.184H91.738V84.928C91.662 84.956 91.546 84.98 91.39 85C91.238 85.02 91.048 85.03 90.82 85.03C90.392 85.03 90.06 84.972 89.824 84.856C89.588 84.74 89.422 84.568 89.326 84.34C89.234 84.112 89.188 83.832 89.188 83.5V79.606H88.18V78.796H89.218L89.488 76.99H90.304V78.79H91.702V79.606ZM95.377 85.12C94.977 85.12 94.623 85.05 94.315 84.91C94.007 84.766 93.765 84.56 93.589 84.292C93.417 84.024 93.331 83.7 93.331 83.32C93.331 82.632 93.571 82.12 94.051 81.784C94.531 81.448 95.301 81.268 96.361 81.244L97.471 81.214V80.728C97.471 80.348 97.357 80.048 97.129 79.828C96.901 79.604 96.547 79.492 96.067 79.492C95.711 79.496 95.397 79.58 95.125 79.744C94.857 79.908 94.683 80.176 94.603 80.548H93.625C93.649 80.144 93.763 79.804 93.967 79.528C94.171 79.248 94.455 79.036 94.819 78.892C95.187 78.748 95.621 78.676 96.121 78.676C96.661 78.676 97.109 78.752 97.465 78.904C97.825 79.056 98.093 79.28 98.269 79.576C98.449 79.872 98.539 80.236 98.539 80.668V85H97.591L97.513 83.836C97.273 84.32 96.967 84.656 96.595 84.844C96.227 85.028 95.821 85.12 95.377 85.12ZM95.713 84.322C95.921 84.322 96.127 84.284 96.331 84.208C96.539 84.132 96.729 84.03 96.901 83.902C97.073 83.77 97.209 83.624 97.309 83.464C97.413 83.3 97.467 83.132 97.471 82.96V81.898L96.547 81.916C96.075 81.924 95.679 81.972 95.359 82.06C95.043 82.148 94.805 82.286 94.645 82.474C94.489 82.662 94.411 82.908 94.411 83.212C94.411 83.56 94.531 83.832 94.771 84.028C95.015 84.224 95.329 84.322 95.713 84.322ZM102.4 85.078C102.064 85.078 101.792 85.032 101.584 84.94C101.38 84.848 101.222 84.724 101.11 84.568C101.002 84.412 100.928 84.234 100.888 84.034C100.852 83.83 100.834 83.62 100.834 83.404V76.084H101.926V83.296C101.926 83.608 101.986 83.842 102.106 83.998C102.23 84.154 102.402 84.24 102.622 84.256L102.958 84.262V84.982C102.866 85.01 102.77 85.032 102.67 85.048C102.57 85.068 102.48 85.078 102.4 85.078ZM114.544 82C114.544 82.668 114.434 83.234 114.214 83.698C113.994 84.162 113.65 84.516 113.182 84.76C112.718 85 112.114 85.12 111.37 85.12C110.618 85.12 110.008 84.996 109.54 84.748C109.076 84.5 108.736 84.136 108.52 83.656C108.308 83.176 108.202 82.586 108.202 81.886V76.324H109.354V82.054C109.354 82.754 109.528 83.278 109.876 83.626C110.224 83.974 110.722 84.148 111.37 84.148C111.806 84.148 112.176 84.072 112.48 83.92C112.788 83.768 113.022 83.538 113.182 83.23C113.346 82.918 113.428 82.526 113.428 82.054V76.324H114.544V82ZM118.979 85.12C118.547 85.12 118.145 85.054 117.773 84.922C117.405 84.786 117.099 84.576 116.855 84.292C116.611 84.004 116.457 83.638 116.393 83.194H117.401C117.457 83.438 117.557 83.642 117.701 83.806C117.849 83.966 118.033 84.088 118.253 84.172C118.473 84.252 118.713 84.292 118.973 84.292C119.389 84.292 119.725 84.214 119.981 84.058C120.237 83.902 120.365 83.662 120.365 83.338C120.365 83.11 120.297 82.928 120.161 82.792C120.029 82.652 119.823 82.55 119.543 82.486L118.259 82.168C117.759 82.048 117.359 81.86 117.059 81.604C116.759 81.348 116.609 80.99 116.609 80.53C116.605 80.166 116.691 79.846 116.867 79.57C117.043 79.294 117.307 79.076 117.659 78.916C118.011 78.756 118.449 78.676 118.973 78.676C119.645 78.676 120.187 78.828 120.599 79.132C121.015 79.432 121.231 79.874 121.247 80.458H120.269C120.229 80.162 120.095 79.928 119.867 79.756C119.643 79.58 119.341 79.492 118.961 79.492C118.565 79.492 118.243 79.572 117.995 79.732C117.747 79.888 117.623 80.132 117.623 80.464C117.623 80.684 117.711 80.858 117.887 80.986C118.063 81.11 118.323 81.214 118.667 81.298L119.909 81.61C120.197 81.686 120.433 81.786 120.617 81.91C120.805 82.034 120.953 82.172 121.061 82.324C121.173 82.476 121.251 82.636 121.295 82.804C121.343 82.968 121.367 83.126 121.367 83.278C121.367 83.658 121.271 83.986 121.079 84.262C120.891 84.534 120.619 84.746 120.263 84.898C119.911 85.046 119.483 85.12 118.979 85.12ZM124.109 82.156C124.109 82.548 124.173 82.904 124.301 83.224C124.433 83.54 124.631 83.792 124.895 83.98C125.163 84.168 125.497 84.262 125.897 84.262C126.293 84.262 126.633 84.17 126.917 83.986C127.205 83.802 127.389 83.536 127.469 83.188H128.519C128.443 83.608 128.275 83.962 128.015 84.25C127.755 84.538 127.441 84.756 127.073 84.904C126.705 85.048 126.321 85.12 125.921 85.12C125.341 85.12 124.831 84.994 124.391 84.742C123.951 84.49 123.607 84.128 123.359 83.656C123.111 83.184 122.987 82.618 122.987 81.958C122.987 81.306 123.099 80.734 123.323 80.242C123.547 79.75 123.871 79.366 124.295 79.09C124.723 78.814 125.237 78.676 125.837 78.676C126.421 78.676 126.915 78.802 127.319 79.054C127.723 79.306 128.029 79.662 128.237 80.122C128.449 80.578 128.555 81.12 128.555 81.748V82.156H124.109ZM124.115 81.406H127.487C127.487 81.05 127.427 80.73 127.307 80.446C127.187 80.158 127.003 79.932 126.755 79.768C126.511 79.6 126.203 79.516 125.831 79.516C125.443 79.516 125.121 79.61 124.865 79.798C124.613 79.982 124.423 80.22 124.295 80.512C124.171 80.8 124.111 81.098 124.115 81.406ZM130.479 85V78.796H131.535V79.99C131.639 79.694 131.785 79.45 131.973 79.258C132.161 79.062 132.375 78.916 132.615 78.82C132.859 78.724 133.111 78.676 133.371 78.676C133.463 78.676 133.553 78.682 133.641 78.694C133.729 78.706 133.797 78.726 133.845 78.754V79.828C133.785 79.8 133.707 79.782 133.611 79.774C133.519 79.762 133.441 79.756 133.377 79.756C133.129 79.74 132.897 79.756 132.681 79.804C132.465 79.848 132.275 79.926 132.111 80.038C131.947 80.15 131.817 80.298 131.721 80.482C131.629 80.662 131.583 80.882 131.583 81.142V85H130.479ZM137.698 85.12C137.266 85.12 136.864 85.054 136.492 84.922C136.124 84.786 135.818 84.576 135.574 84.292C135.33 84.004 135.176 83.638 135.112 83.194H136.12C136.176 83.438 136.276 83.642 136.42 83.806C136.568 83.966 136.752 84.088 136.972 84.172C137.192 84.252 137.432 84.292 137.692 84.292C138.108 84.292 138.444 84.214 138.7 84.058C138.956 83.902 139.084 83.662 139.084 83.338C139.084 83.11 139.016 82.928 138.88 82.792C138.748 82.652 138.542 82.55 138.262 82.486L136.978 82.168C136.478 82.048 136.078 81.86 135.778 81.604C135.478 81.348 135.328 80.99 135.328 80.53C135.324 80.166 135.41 79.846 135.586 79.57C135.762 79.294 136.026 79.076 136.378 78.916C136.73 78.756 137.168 78.676 137.692 78.676C138.364 78.676 138.906 78.828 139.318 79.132C139.734 79.432 139.95 79.874 139.966 80.458H138.988C138.948 80.162 138.814 79.928 138.586 79.756C138.362 79.58 138.06 79.492 137.68 79.492C137.284 79.492 136.962 79.572 136.714 79.732C136.466 79.888 136.342 80.132 136.342 80.464C136.342 80.684 136.43 80.858 136.606 80.986C136.782 81.11 137.042 81.214 137.386 81.298L138.628 81.61C138.916 81.686 139.152 81.786 139.336 81.91C139.524 82.034 139.672 82.172 139.78 82.324C139.892 82.476 139.97 82.636 140.014 82.804C140.062 82.968 140.086 83.126 140.086 83.278C140.086 83.658 139.99 83.986 139.798 84.262C139.61 84.534 139.338 84.746 138.982 84.898C138.63 85.046 138.202 85.12 137.698 85.12Z" fill="#78909C"/>
<path d="M85.136 97.432H86.64V104.744H88.56V106.048H86.64V109H85.192V106.048H79.744V104.696L85.136 97.432ZM81.16 104.744H85.16V99.376L81.16 104.744ZM94.5085 97.272C95.1485 97.272 95.7378 97.392 96.2765 97.632C96.8205 97.872 97.2712 98.216 97.6285 98.664C97.9858 99.112 98.2072 99.6533 98.2925 100.288H96.9005C96.7458 99.7387 96.4658 99.304 96.0605 98.984C95.6552 98.664 95.1458 98.504 94.5325 98.504C93.8498 98.504 93.2792 98.6987 92.8205 99.088C92.3672 99.472 92.0365 100.037 91.8285 100.784C91.6205 101.525 91.5485 102.437 91.6125 103.52C91.7565 103.131 91.9752 102.789 92.2685 102.496C92.5672 102.197 92.9138 101.968 93.3085 101.808C93.7032 101.643 94.1298 101.56 94.5885 101.56C95.3512 101.56 96.0178 101.709 96.5885 102.008C97.1592 102.301 97.6045 102.723 97.9245 103.272C98.2445 103.816 98.4045 104.467 98.4045 105.224C98.4045 105.997 98.2392 106.683 97.9085 107.28C97.5832 107.872 97.1192 108.336 96.5165 108.672C95.9138 109.008 95.2018 109.176 94.3805 109.176C93.4845 109.176 92.7058 108.944 92.0445 108.48C91.3885 108.016 90.8792 107.355 90.5165 106.496C90.1592 105.632 89.9805 104.597 89.9805 103.392C89.9805 102.155 90.1538 101.077 90.5005 100.16C90.8525 99.2427 91.3645 98.5333 92.0365 98.032C92.7085 97.5253 93.5325 97.272 94.5085 97.272ZM94.3485 102.76C93.9272 102.76 93.5218 102.861 93.1325 103.064C92.7485 103.261 92.4338 103.523 92.1885 103.848C91.9485 104.173 91.8285 104.533 91.8285 104.928C91.8232 105.515 91.9245 106.037 92.1325 106.496C92.3458 106.949 92.6445 107.307 93.0285 107.568C93.4125 107.824 93.8578 107.952 94.3645 107.952C94.8392 107.952 95.2605 107.84 95.6285 107.616C95.9965 107.392 96.2845 107.08 96.4925 106.68C96.7058 106.28 96.8125 105.819 96.8125 105.296C96.8125 104.768 96.7165 104.315 96.5245 103.936C96.3378 103.557 96.0605 103.267 95.6925 103.064C95.3245 102.861 94.8765 102.76 94.3485 102.76ZM101.188 97.432H108.092L108.052 98.712H102.452L102.156 102.448C102.54 102.091 102.958 101.837 103.412 101.688C103.87 101.533 104.366 101.456 104.9 101.456C105.598 101.456 106.241 101.6 106.828 101.888C107.42 102.171 107.894 102.592 108.252 103.152C108.609 103.707 108.788 104.395 108.788 105.216C108.788 106.016 108.614 106.712 108.268 107.304C107.921 107.896 107.433 108.357 106.804 108.688C106.174 109.013 105.436 109.176 104.588 109.176C103.873 109.176 103.212 109.051 102.604 108.8C101.996 108.549 101.473 108.2 101.036 107.752C100.604 107.304 100.286 106.789 100.084 106.208L101.364 105.672C101.556 106.109 101.796 106.499 102.084 106.84C102.377 107.181 102.724 107.448 103.124 107.64C103.524 107.832 103.977 107.928 104.484 107.928C105.305 107.928 105.964 107.691 106.46 107.216C106.961 106.736 107.212 106.085 107.212 105.264C107.212 104.752 107.094 104.307 106.86 103.928C106.625 103.544 106.308 103.245 105.908 103.032C105.513 102.819 105.076 102.712 104.596 102.712C104.281 102.712 103.988 102.741 103.716 102.8C103.444 102.853 103.174 102.96 102.908 103.12C102.641 103.28 102.361 103.523 102.068 103.848C102.036 103.864 102.012 103.872 101.996 103.872C101.98 103.867 101.953 103.856 101.916 103.84L100.668 103.448L101.188 97.432ZM111.588 97.432H118.492L118.452 98.712H112.852L112.556 102.448C112.94 102.091 113.358 101.837 113.812 101.688C114.27 101.533 114.766 101.456 115.3 101.456C115.998 101.456 116.641 101.6 117.228 101.888C117.82 102.171 118.294 102.592 118.652 103.152C119.009 103.707 119.188 104.395 119.188 105.216C119.188 106.016 119.014 106.712 118.668 107.304C118.321 107.896 117.833 108.357 117.204 108.688C116.574 109.013 115.836 109.176 114.988 109.176C114.273 109.176 113.612 109.051 113.004 108.8C112.396 108.549 111.873 108.2 111.436 107.752C111.004 107.304 110.686 106.789 110.484 106.208L111.764 105.672C111.956 106.109 112.196 106.499 112.484 106.84C112.777 107.181 113.124 107.448 113.524 107.64C113.924 107.832 114.377 107.928 114.884 107.928C115.705 107.928 116.364 107.691 116.86 107.216C117.361 106.736 117.612 106.085 117.612 105.264C117.612 104.752 117.494 104.307 117.26 103.928C117.025 103.544 116.708 103.245 116.308 103.032C115.913 102.819 115.476 102.712 114.996 102.712C114.681 102.712 114.388 102.741 114.116 102.8C113.844 102.853 113.574 102.96 113.308 103.12C113.041 103.28 112.761 103.523 112.468 103.848C112.436 103.864 112.412 103.872 112.396 103.872C112.38 103.867 112.353 103.856 112.316 103.84L111.068 103.448L111.588 97.432ZM121.036 100.8C121.036 100.053 121.217 99.4187 121.58 98.896C121.942 98.368 122.425 97.9653 123.028 97.688C123.636 97.4107 124.305 97.272 125.036 97.272C125.836 97.272 126.542 97.3893 127.156 97.624C127.769 97.8533 128.249 98.1893 128.596 98.632C128.942 99.0747 129.116 99.616 129.116 100.256C129.116 100.827 128.934 101.344 128.572 101.808C128.209 102.267 127.654 102.627 126.908 102.888C127.414 103.027 127.857 103.229 128.236 103.496C128.614 103.763 128.908 104.091 129.116 104.48C129.324 104.864 129.428 105.307 129.428 105.808C129.428 106.336 129.316 106.811 129.092 107.232C128.873 107.648 128.564 108.003 128.164 108.296C127.764 108.584 127.292 108.805 126.748 108.96C126.204 109.109 125.612 109.181 124.972 109.176C124.177 109.171 123.476 109.024 122.868 108.736C122.265 108.448 121.79 108.045 121.444 107.528C121.097 107.005 120.91 106.387 120.884 105.672H122.364C122.476 106.392 122.769 106.944 123.244 107.328C123.718 107.712 124.313 107.904 125.028 107.904C125.593 107.904 126.086 107.816 126.508 107.64C126.929 107.459 127.254 107.211 127.484 106.896C127.713 106.581 127.828 106.213 127.828 105.792C127.828 105.328 127.7 104.936 127.444 104.616C127.188 104.296 126.838 104.053 126.396 103.888C125.953 103.717 125.46 103.629 124.916 103.624L123.876 103.6V102.344L124.868 102.32C125.374 102.309 125.828 102.213 126.228 102.032C126.628 101.845 126.942 101.603 127.172 101.304C127.406 101 127.524 100.667 127.524 100.304C127.524 99.984 127.425 99.688 127.228 99.416C127.03 99.1387 126.745 98.9173 126.372 98.752C126.004 98.5867 125.556 98.504 125.028 98.504C124.612 98.504 124.214 98.5867 123.836 98.752C123.457 98.912 123.145 99.16 122.9 99.496C122.654 99.832 122.524 100.267 122.508 100.8H121.036ZM135.154 97.272C136.407 97.272 137.405 97.776 138.146 98.784C138.893 99.7867 139.266 101.272 139.266 103.24C139.266 105.197 138.895 106.677 138.154 107.68C137.413 108.677 136.407 109.176 135.138 109.176C133.874 109.176 132.871 108.68 132.13 107.688C131.389 106.691 131.018 105.216 131.018 103.264C131.018 101.947 131.189 100.843 131.53 99.952C131.871 99.0613 132.351 98.392 132.97 97.944C133.589 97.496 134.317 97.272 135.154 97.272ZM135.154 107.896C135.981 107.896 136.605 107.533 137.026 106.808C137.453 106.077 137.666 104.891 137.666 103.248C137.666 101.573 137.45 100.368 137.018 99.632C136.591 98.8907 135.967 98.52 135.146 98.52C134.33 98.52 133.701 98.8933 133.258 99.64C132.821 100.381 132.602 101.584 132.602 103.248C132.602 104.885 132.821 106.069 133.258 106.8C133.695 107.531 134.327 107.896 135.154 107.896Z" fill="#212121"/>
<rect x="159.25" y="71.25" width="0.5" height="43.5" stroke="#ECEFF1" stroke-width="0.5"/>
<path d="M184.792 76.324H185.902V85H184.912L180.256 78.16V85H179.146V76.324H180.208L184.792 83.068V76.324ZM189.075 82.156C189.075 82.548 189.139 82.904 189.267 83.224C189.399 83.54 189.597 83.792 189.861 83.98C190.129 84.168 190.463 84.262 190.863 84.262C191.259 84.262 191.599 84.17 191.883 83.986C192.171 83.802 192.355 83.536 192.435 83.188H193.485C193.409 83.608 193.241 83.962 192.981 84.25C192.721 84.538 192.407 84.756 192.039 84.904C191.671 85.048 191.287 85.12 190.887 85.12C190.307 85.12 189.797 84.994 189.357 84.742C188.917 84.49 188.573 84.128 188.325 83.656C188.077 83.184 187.953 82.618 187.953 81.958C187.953 81.306 188.065 80.734 188.289 80.242C188.513 79.75 188.837 79.366 189.261 79.09C189.689 78.814 190.203 78.676 190.803 78.676C191.387 78.676 191.881 78.802 192.285 79.054C192.689 79.306 192.995 79.662 193.203 80.122C193.415 80.578 193.521 81.12 193.521 81.748V82.156H189.075ZM189.081 81.406H192.453C192.453 81.05 192.393 80.73 192.273 80.446C192.153 80.158 191.969 79.932 191.721 79.768C191.477 79.6 191.169 79.516 190.797 79.516C190.409 79.516 190.087 79.61 189.831 79.798C189.579 79.982 189.389 80.22 189.261 80.512C189.137 80.8 189.077 81.098 189.081 81.406ZM203.382 78.796L201.504 85H200.412L198.996 80.422L197.652 85H196.566L194.652 78.796H195.678L197.1 83.566H197.196L198.594 78.796H199.434L200.886 83.554H200.982L202.344 78.796H203.382ZM214.733 82C214.733 82.668 214.623 83.234 214.403 83.698C214.183 84.162 213.839 84.516 213.371 84.76C212.907 85 212.303 85.12 211.559 85.12C210.807 85.12 210.197 84.996 209.729 84.748C209.265 84.5 208.925 84.136 208.709 83.656C208.497 83.176 208.391 82.586 208.391 81.886V76.324H209.543V82.054C209.543 82.754 209.717 83.278 210.065 83.626C210.413 83.974 210.911 84.148 211.559 84.148C211.995 84.148 212.365 84.072 212.669 83.92C212.977 83.768 213.211 83.538 213.371 83.23C213.535 82.918 213.617 82.526 213.617 82.054V76.324H214.733V82ZM219.167 85.12C218.735 85.12 218.333 85.054 217.961 84.922C217.593 84.786 217.287 84.576 217.043 84.292C216.799 84.004 216.645 83.638 216.581 83.194H217.589C217.645 83.438 217.745 83.642 217.889 83.806C218.037 83.966 218.221 84.088 218.441 84.172C218.661 84.252 218.901 84.292 219.161 84.292C219.577 84.292 219.913 84.214 220.169 84.058C220.425 83.902 220.553 83.662 220.553 83.338C220.553 83.11 220.485 82.928 220.349 82.792C220.217 82.652 220.011 82.55 219.731 82.486L218.447 82.168C217.947 82.048 217.547 81.86 217.247 81.604C216.947 81.348 216.797 80.99 216.797 80.53C216.793 80.166 216.879 79.846 217.055 79.57C217.231 79.294 217.495 79.076 217.847 78.916C218.199 78.756 218.637 78.676 219.161 78.676C219.833 78.676 220.375 78.828 220.787 79.132C221.203 79.432 221.419 79.874 221.435 80.458H220.457C220.417 80.162 220.283 79.928 220.055 79.756C219.831 79.58 219.529 79.492 219.149 79.492C218.753 79.492 218.431 79.572 218.183 79.732C217.935 79.888 217.811 80.132 217.811 80.464C217.811 80.684 217.899 80.858 218.075 80.986C218.251 81.11 218.511 81.214 218.855 81.298L220.097 81.61C220.385 81.686 220.621 81.786 220.805 81.91C220.993 82.034 221.141 82.172 221.249 82.324C221.361 82.476 221.439 82.636 221.483 82.804C221.531 82.968 221.555 83.126 221.555 83.278C221.555 83.658 221.459 83.986 221.267 84.262C221.079 84.534 220.807 84.746 220.451 84.898C220.099 85.046 219.671 85.12 219.167 85.12ZM224.298 82.156C224.298 82.548 224.362 82.904 224.49 83.224C224.622 83.54 224.82 83.792 225.084 83.98C225.352 84.168 225.686 84.262 226.086 84.262C226.482 84.262 226.822 84.17 227.106 83.986C227.394 83.802 227.578 83.536 227.658 83.188H228.708C228.632 83.608 228.464 83.962 228.204 84.25C227.944 84.538 227.63 84.756 227.262 84.904C226.894 85.048 226.51 85.12 226.11 85.12C225.53 85.12 225.02 84.994 224.58 84.742C224.14 84.49 223.796 84.128 223.548 83.656C223.3 83.184 223.176 82.618 223.176 81.958C223.176 81.306 223.288 80.734 223.512 80.242C223.736 79.75 224.06 79.366 224.484 79.09C224.912 78.814 225.426 78.676 226.026 78.676C226.61 78.676 227.104 78.802 227.508 79.054C227.912 79.306 228.218 79.662 228.426 80.122C228.638 80.578 228.744 81.12 228.744 81.748V82.156H224.298ZM224.304 81.406H227.676C227.676 81.05 227.616 80.73 227.496 80.446C227.376 80.158 227.192 79.932 226.944 79.768C226.7 79.6 226.392 79.516 226.02 79.516C225.632 79.516 225.31 79.61 225.054 79.798C224.802 79.982 224.612 80.22 224.484 80.512C224.36 80.8 224.3 81.098 224.304 81.406ZM230.667 85V78.796H231.723V79.99C231.827 79.694 231.973 79.45 232.161 79.258C232.349 79.062 232.563 78.916 232.803 78.82C233.047 78.724 233.299 78.676 233.559 78.676C233.651 78.676 233.741 78.682 233.829 78.694C233.917 78.706 233.985 78.726 234.033 78.754V79.828C233.973 79.8 233.895 79.782 233.799 79.774C233.707 79.762 233.629 79.756 233.565 79.756C233.317 79.74 233.085 79.756 232.869 79.804C232.653 79.848 232.463 79.926 232.299 80.038C232.135 80.15 232.005 80.298 231.909 80.482C231.817 80.662 231.771 80.882 231.771 81.142V85H230.667ZM237.886 85.12C237.454 85.12 237.052 85.054 236.68 84.922C236.312 84.786 236.006 84.576 235.762 84.292C235.518 84.004 235.364 83.638 235.3 83.194H236.308C236.364 83.438 236.464 83.642 236.608 83.806C236.756 83.966 236.94 84.088 237.16 84.172C237.38 84.252 237.62 84.292 237.88 84.292C238.296 84.292 238.632 84.214 238.888 84.058C239.144 83.902 239.272 83.662 239.272 83.338C239.272 83.11 239.204 82.928 239.068 82.792C238.936 82.652 238.73 82.55 238.45 82.486L237.166 82.168C236.666 82.048 236.266 81.86 235.966 81.604C235.666 81.348 235.516 80.99 235.516 80.53C235.512 80.166 235.598 79.846 235.774 79.57C235.95 79.294 236.214 79.076 236.566 78.916C236.918 78.756 237.356 78.676 237.88 78.676C238.552 78.676 239.094 78.828 239.506 79.132C239.922 79.432 240.138 79.874 240.154 80.458H239.176C239.136 80.162 239.002 79.928 238.774 79.756C238.55 79.58 238.248 79.492 237.868 79.492C237.472 79.492 237.15 79.572 236.902 79.732C236.654 79.888 236.53 80.132 236.53 80.464C236.53 80.684 236.618 80.858 236.794 80.986C236.97 81.11 237.23 81.214 237.574 81.298L238.816 81.61C239.104 81.686 239.34 81.786 239.524 81.91C239.712 82.034 239.86 82.172 239.968 82.324C240.08 82.476 240.158 82.636 240.202 82.804C240.25 82.968 240.274 83.126 240.274 83.278C240.274 83.658 240.178 83.986 239.986 84.262C239.798 84.534 239.526 84.746 239.17 84.898C238.818 85.046 238.39 85.12 237.886 85.12Z" fill="#78909C"/>
<path d="M180.976 109V99.792H178.744V98.824C179.437 98.824 179.976 98.7733 180.36 98.672C180.744 98.5707 181.016 98.416 181.176 98.208C181.341 98 181.432 97.7413 181.448 97.432H182.504V109H180.976ZM186.538 97.432H193.442L193.402 98.712H187.802L187.506 102.448C187.89 102.091 188.308 101.837 188.762 101.688C189.22 101.533 189.716 101.456 190.25 101.456C190.948 101.456 191.591 101.6 192.178 101.888C192.77 102.171 193.244 102.592 193.602 103.152C193.959 103.707 194.138 104.395 194.138 105.216C194.138 106.016 193.964 106.712 193.618 107.304C193.271 107.896 192.783 108.357 192.154 108.688C191.524 109.013 190.786 109.176 189.938 109.176C189.223 109.176 188.562 109.051 187.954 108.8C187.346 108.549 186.823 108.2 186.386 107.752C185.954 107.304 185.636 106.789 185.434 106.208L186.714 105.672C186.906 106.109 187.146 106.499 187.434 106.84C187.727 107.181 188.074 107.448 188.474 107.64C188.874 107.832 189.327 107.928 189.834 107.928C190.655 107.928 191.314 107.691 191.81 107.216C192.311 106.736 192.562 106.085 192.562 105.264C192.562 104.752 192.444 104.307 192.21 103.928C191.975 103.544 191.658 103.245 191.258 103.032C190.863 102.819 190.426 102.712 189.946 102.712C189.631 102.712 189.338 102.741 189.066 102.8C188.794 102.853 188.524 102.96 188.258 103.12C187.991 103.28 187.711 103.523 187.418 103.848C187.386 103.864 187.362 103.872 187.346 103.872C187.33 103.867 187.303 103.856 187.266 103.84L186.018 103.448L186.538 97.432ZM200.362 97.272C201.002 97.272 201.591 97.392 202.13 97.632C202.674 97.872 203.124 98.216 203.482 98.664C203.839 99.112 204.06 99.6533 204.146 100.288H202.754C202.599 99.7387 202.319 99.304 201.914 98.984C201.508 98.664 200.999 98.504 200.386 98.504C199.703 98.504 199.132 98.6987 198.674 99.088C198.22 99.472 197.89 100.037 197.682 100.784C197.474 101.525 197.402 102.437 197.466 103.52C197.61 103.131 197.828 102.789 198.122 102.496C198.42 102.197 198.767 101.968 199.162 101.808C199.556 101.643 199.983 101.56 200.442 101.56C201.204 101.56 201.871 101.709 202.442 102.008C203.012 102.301 203.458 102.723 203.778 103.272C204.098 103.816 204.258 104.467 204.258 105.224C204.258 105.997 204.092 106.683 203.762 107.28C203.436 107.872 202.972 108.336 202.37 108.672C201.767 109.008 201.055 109.176 200.234 109.176C199.338 109.176 198.559 108.944 197.898 108.48C197.242 108.016 196.732 107.355 196.37 106.496C196.012 105.632 195.834 104.597 195.834 103.392C195.834 102.155 196.007 101.077 196.354 100.16C196.706 99.2427 197.218 98.5333 197.89 98.032C198.562 97.5253 199.386 97.272 200.362 97.272ZM200.202 102.76C199.78 102.76 199.375 102.861 198.986 103.064C198.602 103.261 198.287 103.523 198.042 103.848C197.802 104.173 197.682 104.533 197.682 104.928C197.676 105.515 197.778 106.037 197.986 106.496C198.199 106.949 198.498 107.307 198.882 107.568C199.266 107.824 199.711 107.952 200.218 107.952C200.692 107.952 201.114 107.84 201.482 107.616C201.85 107.392 202.138 107.08 202.346 106.68C202.559 106.28 202.666 105.819 202.666 105.296C202.666 104.768 202.57 104.315 202.378 103.936C202.191 103.557 201.914 103.267 201.546 103.064C201.178 102.861 200.73 102.76 200.202 102.76ZM205.995 100.8C205.995 100.053 206.176 99.4187 206.539 98.896C206.902 98.368 207.384 97.9653 207.987 97.688C208.595 97.4107 209.264 97.272 209.995 97.272C210.795 97.272 211.502 97.3893 212.115 97.624C212.728 97.8533 213.208 98.1893 213.555 98.632C213.902 99.0747 214.075 99.616 214.075 100.256C214.075 100.827 213.894 101.344 213.531 101.808C213.168 102.267 212.614 102.627 211.867 102.888C212.374 103.027 212.816 103.229 213.195 103.496C213.574 103.763 213.867 104.091 214.075 104.48C214.283 104.864 214.387 105.307 214.387 105.808C214.387 106.336 214.275 106.811 214.051 107.232C213.832 107.648 213.523 108.003 213.123 108.296C212.723 108.584 212.251 108.805 211.707 108.96C211.163 109.109 210.571 109.181 209.931 109.176C209.136 109.171 208.435 109.024 207.827 108.736C207.224 108.448 206.75 108.045 206.403 107.528C206.056 107.005 205.87 106.387 205.843 105.672H207.323C207.435 106.392 207.728 106.944 208.203 107.328C208.678 107.712 209.272 107.904 209.987 107.904C210.552 107.904 211.046 107.816 211.467 107.64C211.888 107.459 212.214 107.211 212.443 106.896C212.672 106.581 212.787 106.213 212.787 105.792C212.787 105.328 212.659 104.936 212.403 104.616C212.147 104.296 211.798 104.053 211.355 103.888C210.912 103.717 210.419 103.629 209.875 103.624L208.835 103.6V102.344L209.827 102.32C210.334 102.309 210.787 102.213 211.187 102.032C211.587 101.845 211.902 101.603 212.131 101.304C212.366 101 212.483 100.667 212.483 100.304C212.483 99.984 212.384 99.688 212.187 99.416C211.99 99.1387 211.704 98.9173 211.331 98.752C210.963 98.5867 210.515 98.504 209.987 98.504C209.571 98.504 209.174 98.5867 208.795 98.752C208.416 98.912 208.104 99.16 207.859 99.496C207.614 99.832 207.483 100.267 207.467 100.8H205.995ZM220.113 97.272C221.367 97.272 222.364 97.776 223.105 98.784C223.852 99.7867 224.225 101.272 224.225 103.24C224.225 105.197 223.855 106.677 223.113 107.68C222.372 108.677 221.367 109.176 220.097 109.176C218.833 109.176 217.831 108.68 217.089 107.688C216.348 106.691 215.977 105.216 215.977 103.264C215.977 101.947 216.148 100.843 216.489 99.952C216.831 99.0613 217.311 98.392 217.929 97.944C218.548 97.496 219.276 97.272 220.113 97.272ZM220.113 107.896C220.94 107.896 221.564 107.533 221.985 106.808C222.412 106.077 222.625 104.891 222.625 103.248C222.625 101.573 222.409 100.368 221.977 99.632C221.551 98.8907 220.927 98.52 220.105 98.52C219.289 98.52 218.66 98.8933 218.217 99.64C217.78 100.381 217.561 101.584 217.561 103.248C217.561 104.885 217.78 106.069 218.217 106.8C218.655 107.531 219.287 107.896 220.113 107.896Z" fill="#212121"/>
<g clip-path="url(#clip0_9890_245478)">
<path d="M21.337 140.878H27.644L27.637 142.012H22.667V145.358H27.133V146.478H22.667V151H21.337V140.878ZM29.5535 151V143.762H30.7855V145.155C30.9068 144.81 31.0772 144.525 31.2965 144.301C31.5158 144.072 31.7655 143.902 32.0455 143.79C32.3302 143.678 32.6242 143.622 32.9275 143.622C33.0348 143.622 33.1398 143.629 33.2425 143.643C33.3452 143.657 33.4245 143.68 33.4805 143.713V144.966C33.4105 144.933 33.3195 144.912 33.2075 144.903C33.1002 144.889 33.0092 144.882 32.9345 144.882C32.6452 144.863 32.3745 144.882 32.1225 144.938C31.8705 144.989 31.6488 145.08 31.4575 145.211C31.2662 145.342 31.1145 145.514 31.0025 145.729C30.8952 145.939 30.8415 146.196 30.8415 146.499V151H29.5535ZM37.8778 151.14C37.2105 151.14 36.6272 150.998 36.1278 150.713C35.6285 150.424 35.2412 150.001 34.9658 149.446C34.6905 148.891 34.5528 148.212 34.5528 147.409C34.5528 146.653 34.6812 145.99 34.9378 145.421C35.1945 144.852 35.5702 144.411 36.0648 144.098C36.5642 143.781 37.1685 143.622 37.8778 143.622C38.5452 143.622 39.1238 143.769 39.6138 144.063C40.1085 144.352 40.4912 144.779 40.7618 145.344C41.0325 145.909 41.1678 146.597 41.1678 147.409C41.1678 148.146 41.0418 148.795 40.7898 149.355C40.5425 149.915 40.1738 150.354 39.6838 150.671C39.1985 150.984 38.5965 151.14 37.8778 151.14ZM37.8778 150.118C38.3118 150.118 38.6782 150.008 38.9768 149.789C39.2755 149.57 39.5018 149.255 39.6558 148.844C39.8098 148.433 39.8868 147.946 39.8868 147.381C39.8868 146.863 39.8192 146.399 39.6838 145.988C39.5485 145.573 39.3315 145.244 39.0328 145.001C38.7388 144.758 38.3538 144.637 37.8778 144.637C37.4392 144.637 37.0682 144.747 36.7648 144.966C36.4615 145.181 36.2305 145.493 36.0718 145.904C35.9178 146.315 35.8408 146.807 35.8408 147.381C35.8408 147.89 35.9108 148.352 36.0508 148.767C36.1908 149.182 36.4102 149.511 36.7088 149.754C37.0075 149.997 37.3972 150.118 37.8778 150.118ZM43.0322 151V143.762H44.2782V144.812C44.4788 144.495 44.7542 144.217 45.1042 143.979C45.4542 143.741 45.9092 143.622 46.4692 143.622C46.7305 143.622 46.9965 143.666 47.2672 143.755C47.5425 143.844 47.7945 143.977 48.0232 144.154C48.2518 144.331 48.4292 144.548 48.5552 144.805C48.7792 144.45 49.0825 144.166 49.4652 143.951C49.8478 143.732 50.2795 143.622 50.7602 143.622C51.0122 143.622 51.2758 143.662 51.5512 143.741C51.8265 143.816 52.0808 143.951 52.3142 144.147C52.5522 144.338 52.7458 144.607 52.8952 144.952C53.0445 145.293 53.1192 145.731 53.1192 146.268V151H51.8172V146.394C51.8172 145.955 51.7472 145.617 51.6072 145.379C51.4672 145.136 51.2828 144.966 51.0542 144.868C50.8302 144.77 50.5898 144.721 50.3332 144.721C50.1092 144.721 49.8712 144.765 49.6192 144.854C49.3672 144.943 49.1525 145.092 48.9752 145.302C48.7978 145.512 48.7092 145.799 48.7092 146.163V151H47.4212V146.016C47.4212 145.731 47.3442 145.493 47.1902 145.302C47.0408 145.111 46.8518 144.966 46.6232 144.868C46.3992 144.77 46.1752 144.721 45.9512 144.721C45.7038 144.721 45.4542 144.77 45.2022 144.868C44.9548 144.966 44.7448 145.122 44.5722 145.337C44.4042 145.547 44.3202 145.822 44.3202 146.163V151H43.0322ZM58.978 140.878C59.0107 140.878 59.1087 140.88 59.272 140.885C59.44 140.885 59.643 140.885 59.881 140.885C60.119 140.88 60.3663 140.88 60.623 140.885C60.8797 140.885 61.1153 140.887 61.33 140.892C62.5713 140.911 63.577 141.114 64.347 141.501C65.1217 141.884 65.6887 142.441 66.048 143.174C66.412 143.907 66.594 144.807 66.594 145.876C66.594 146.996 66.398 147.936 66.006 148.697C65.6187 149.458 65.026 150.032 64.228 150.419C63.4347 150.806 62.4243 151 61.197 151H58.978V140.878ZM60.308 141.991V149.887H61.197C62.0323 149.887 62.751 149.759 63.353 149.502C63.955 149.241 64.417 148.818 64.739 148.235C65.0657 147.652 65.229 146.872 65.229 145.897C65.229 144.922 65.0703 144.149 64.753 143.58C64.4403 143.011 63.9877 142.605 63.395 142.362C62.8023 142.115 62.0883 141.991 61.253 141.991H60.308ZM69.989 143.762V151H68.736V143.762H69.989ZM70.017 140.885V142.229H68.694V140.885H70.017ZM72.5188 151V143.762H73.7508V145.155C73.8721 144.81 74.0425 144.525 74.2618 144.301C74.4811 144.072 74.7308 143.902 75.0108 143.79C75.2955 143.678 75.5895 143.622 75.8928 143.622C76.0001 143.622 76.1051 143.629 76.2078 143.643C76.3105 143.657 76.3898 143.68 76.4458 143.713V144.966C76.3758 144.933 76.2848 144.912 76.1728 144.903C76.0655 144.889 75.9745 144.882 75.8998 144.882C75.6105 144.863 75.3398 144.882 75.0878 144.938C74.8358 144.989 74.6141 145.08 74.4228 145.211C74.2315 145.342 74.0798 145.514 73.9678 145.729C73.8605 145.939 73.8068 146.196 73.8068 146.499V151H72.5188ZM78.8902 147.682C78.8902 148.139 78.9648 148.555 79.1142 148.928C79.2682 149.297 79.4992 149.591 79.8072 149.81C80.1198 150.029 80.5095 150.139 80.9762 150.139C81.4382 150.139 81.8348 150.032 82.1662 149.817C82.5022 149.602 82.7168 149.292 82.8102 148.886H84.0352C83.9465 149.376 83.7505 149.789 83.4472 150.125C83.1438 150.461 82.7775 150.715 82.3482 150.888C81.9188 151.056 81.4708 151.14 81.0042 151.14C80.3275 151.14 79.7325 150.993 79.2192 150.699C78.7058 150.405 78.3045 149.983 78.0152 149.432C77.7258 148.881 77.5812 148.221 77.5812 147.451C77.5812 146.69 77.7118 146.023 77.9732 145.449C78.2345 144.875 78.6125 144.427 79.1072 144.105C79.6065 143.783 80.2062 143.622 80.9062 143.622C81.5875 143.622 82.1638 143.769 82.6352 144.063C83.1065 144.357 83.4635 144.772 83.7062 145.309C83.9535 145.841 84.0772 146.473 84.0772 147.206V147.682H78.8902ZM78.8972 146.807H82.8312C82.8312 146.392 82.7612 146.018 82.6212 145.687C82.4812 145.351 82.2665 145.087 81.9772 144.896C81.6925 144.7 81.3332 144.602 80.8992 144.602C80.4465 144.602 80.0708 144.712 79.7722 144.931C79.4782 145.146 79.2565 145.423 79.1072 145.764C78.9625 146.1 78.8925 146.448 78.8972 146.807ZM88.9088 143.622C89.4268 143.622 89.8935 143.722 90.3088 143.923C90.7242 144.119 91.0625 144.399 91.3238 144.763C91.5898 145.127 91.7555 145.556 91.8208 146.051H90.6728C90.6308 145.799 90.5328 145.568 90.3788 145.358C90.2295 145.148 90.0312 144.98 89.7838 144.854C89.5365 144.728 89.2472 144.665 88.9158 144.665C88.2952 144.665 87.7912 144.889 87.4038 145.337C87.0165 145.785 86.8228 146.471 86.8228 147.395C86.8228 148.23 87.0002 148.9 87.3548 149.404C87.7142 149.903 88.2415 150.153 88.9368 150.153C89.2682 150.153 89.5552 150.09 89.7978 149.964C90.0452 149.833 90.2435 149.663 90.3928 149.453C90.5422 149.238 90.6378 149.01 90.6798 148.767H91.8068C91.7462 149.252 91.5828 149.672 91.3168 150.027C91.0508 150.382 90.7102 150.657 90.2948 150.853C89.8842 151.044 89.4222 151.14 88.9088 151.14C88.2602 151.14 87.6838 150.998 87.1798 150.713C86.6805 150.428 86.2885 150.008 86.0038 149.453C85.7192 148.898 85.5768 148.216 85.5768 147.409C85.5768 146.653 85.7052 145.993 85.9618 145.428C86.2232 144.859 86.6012 144.415 87.0958 144.098C87.5952 143.781 88.1995 143.622 88.9088 143.622ZM97.1866 144.707H95.5556V149.208C95.5556 149.465 95.5812 149.654 95.6326 149.775C95.6886 149.892 95.7796 149.966 95.9056 149.999C96.0362 150.032 96.2136 150.048 96.4376 150.048H97.2286V150.916C97.1399 150.949 97.0046 150.977 96.8226 151C96.6452 151.023 96.4236 151.035 96.1576 151.035C95.6582 151.035 95.2709 150.967 94.9956 150.832C94.7202 150.697 94.5266 150.496 94.4146 150.23C94.3072 149.964 94.2536 149.637 94.2536 149.25V144.707H93.0776V143.762H94.2886L94.6036 141.655H95.5556V143.755H97.1866V144.707Z" fill="#464E5F"/>
<path d="M269.638 140.878H275.679L275.644 141.998H270.744L270.485 145.267C270.821 144.954 271.187 144.733 271.584 144.602C271.985 144.467 272.419 144.399 272.886 144.399C273.497 144.399 274.06 144.525 274.573 144.777C275.091 145.024 275.506 145.393 275.819 145.883C276.132 146.368 276.288 146.97 276.288 147.689C276.288 148.389 276.136 148.998 275.833 149.516C275.53 150.034 275.103 150.438 274.552 150.727C274.001 151.012 273.355 151.154 272.613 151.154C271.988 151.154 271.409 151.044 270.877 150.825C270.345 150.606 269.888 150.3 269.505 149.908C269.127 149.516 268.849 149.066 268.672 148.557L269.792 148.088C269.96 148.471 270.17 148.811 270.422 149.11C270.679 149.409 270.982 149.642 271.332 149.81C271.682 149.978 272.079 150.062 272.522 150.062C273.241 150.062 273.817 149.854 274.251 149.439C274.69 149.019 274.909 148.45 274.909 147.731C274.909 147.283 274.806 146.893 274.601 146.562C274.396 146.226 274.118 145.965 273.768 145.778C273.423 145.591 273.04 145.498 272.62 145.498C272.345 145.498 272.088 145.524 271.85 145.575C271.612 145.622 271.376 145.715 271.143 145.855C270.91 145.995 270.665 146.207 270.408 146.492C270.38 146.506 270.359 146.513 270.345 146.513C270.331 146.508 270.308 146.499 270.275 146.485L269.183 146.142L269.638 140.878ZM281.43 140.738C282.526 140.738 283.399 141.179 284.048 142.061C284.701 142.938 285.028 144.238 285.028 145.96C285.028 147.673 284.703 148.968 284.055 149.845C283.406 150.718 282.526 151.154 281.416 151.154C280.31 151.154 279.432 150.72 278.784 149.852C278.135 148.979 277.811 147.689 277.811 145.981C277.811 144.828 277.96 143.862 278.259 143.083C278.557 142.304 278.977 141.718 279.519 141.326C280.06 140.934 280.697 140.738 281.43 140.738ZM281.43 150.034C282.153 150.034 282.699 149.717 283.068 149.082C283.441 148.443 283.628 147.404 283.628 145.967C283.628 144.502 283.439 143.447 283.061 142.803C282.687 142.154 282.141 141.83 281.423 141.83C280.709 141.83 280.158 142.157 279.771 142.81C279.388 143.459 279.197 144.511 279.197 145.967C279.197 147.4 279.388 148.436 279.771 149.075C280.153 149.714 280.706 150.034 281.43 150.034ZM289.031 140.724C289.484 140.724 289.89 140.843 290.249 141.081C290.608 141.319 290.891 141.655 291.096 142.089C291.301 142.523 291.404 143.034 291.404 143.622C291.404 144.21 291.301 144.719 291.096 145.148C290.895 145.577 290.615 145.911 290.256 146.149C289.897 146.382 289.488 146.499 289.031 146.499C288.569 146.499 288.156 146.382 287.792 146.149C287.433 145.911 287.148 145.577 286.938 145.148C286.728 144.719 286.623 144.21 286.623 143.622C286.623 143.034 286.728 142.523 286.938 142.089C287.148 141.655 287.433 141.319 287.792 141.081C288.156 140.843 288.569 140.724 289.031 140.724ZM289.017 145.778C289.465 145.778 289.808 145.58 290.046 145.183C290.289 144.786 290.41 144.266 290.41 143.622C290.41 142.969 290.289 142.444 290.046 142.047C289.803 141.646 289.46 141.445 289.017 141.445C288.718 141.445 288.464 141.538 288.254 141.725C288.049 141.907 287.89 142.161 287.778 142.488C287.671 142.815 287.617 143.193 287.617 143.622C287.617 144.261 287.738 144.782 287.981 145.183C288.224 145.58 288.569 145.778 289.017 145.778ZM295.366 145.351C295.823 145.351 296.232 145.472 296.591 145.715C296.95 145.953 297.233 146.289 297.438 146.723C297.643 147.157 297.746 147.666 297.746 148.249C297.746 148.837 297.643 149.348 297.438 149.782C297.237 150.216 296.957 150.552 296.598 150.79C296.239 151.023 295.828 151.14 295.366 151.14C294.904 151.14 294.491 151.023 294.127 150.79C293.763 150.552 293.478 150.216 293.273 149.782C293.068 149.348 292.965 148.837 292.965 148.249C292.965 147.666 293.068 147.157 293.273 146.723C293.483 146.289 293.77 145.953 294.134 145.715C294.498 145.472 294.909 145.351 295.366 145.351ZM295.352 150.405C295.641 150.405 295.891 150.314 296.101 150.132C296.311 149.945 296.472 149.691 296.584 149.369C296.696 149.047 296.752 148.678 296.752 148.263C296.752 147.838 296.694 147.463 296.577 147.136C296.465 146.805 296.304 146.546 296.094 146.359C295.884 146.172 295.637 146.079 295.352 146.079C295.067 146.079 294.82 146.175 294.61 146.366C294.4 146.553 294.239 146.812 294.127 147.143C294.015 147.47 293.959 147.843 293.959 148.263C293.959 148.678 294.015 149.047 294.127 149.369C294.239 149.691 294.398 149.945 294.603 150.132C294.813 150.314 295.063 150.405 295.352 150.405ZM295.947 140.766L289.143 151.056L288.268 151.049L295.1 140.766H295.947Z" fill="#464E5F"/>
<path d="M20 164C20 162.343 21.3431 161 23 161H111V167H23C21.3431 167 20 165.657 20 164Z" fill="#3699FF"/>
<path d="M111 161H296C297.657 161 299 162.343 299 164C299 165.657 297.657 167 296 167H111V161Z" fill="#3699FF"/>
<path opacity="0.6" d="M111 161H296C297.657 161 299 162.343 299 164C299 165.657 297.657 167 296 167H111V161Z" fill="white"/>
</g>
<g clip-path="url(#clip1_9890_245478)">
<path d="M20.581 192L24.242 181.878H25.705L29.366 192H28.043L27.049 189.228H22.912L21.897 192H20.581ZM23.241 188.038H26.706L24.984 183.159L23.241 188.038ZM35.036 184.762V185.707H33.279V192H31.977V185.707H30.451V184.762H31.977V183.642C31.977 183.068 32.124 182.632 32.418 182.333C32.712 182.03 33.1507 181.878 33.734 181.878H35.099L35.106 182.795H34.021C33.727 182.795 33.5264 182.874 33.419 183.033C33.3117 183.192 33.258 183.432 33.258 183.754V184.762H35.036ZM40.6338 184.762V185.707H38.8768V192H37.5748V185.707H36.0488V184.762H37.5748V183.642C37.5748 183.068 37.7218 182.632 38.0158 182.333C38.3098 182.03 38.7484 181.878 39.3318 181.878H40.6968L40.7038 182.795H39.6188C39.3248 182.795 39.1241 182.874 39.0168 183.033C38.9094 183.192 38.8558 183.432 38.8558 183.754V184.762H40.6338ZM43.8033 184.762V192H42.5503V184.762H43.8033ZM43.8313 181.885V183.229H42.5083V181.885H43.8313ZM48.16 192.091C47.768 192.091 47.4507 192.037 47.208 191.93C46.97 191.823 46.7857 191.678 46.655 191.496C46.529 191.314 46.4427 191.106 46.396 190.873C46.354 190.635 46.333 190.39 46.333 190.138V181.598H47.607V190.012C47.607 190.376 47.677 190.649 47.817 190.831C47.9617 191.013 48.1624 191.113 48.419 191.132L48.811 191.139V191.979C48.7037 192.012 48.5917 192.037 48.475 192.056C48.3584 192.079 48.2534 192.091 48.16 192.091ZM52.0456 184.762V192H50.7926V184.762H52.0456ZM52.0736 181.885V183.229H50.7506V181.885H52.0736ZM56.4953 192.14C56.0287 192.14 55.6157 192.058 55.2563 191.895C54.897 191.727 54.6147 191.487 54.4093 191.174C54.2087 190.861 54.1083 190.483 54.1083 190.04C54.1083 189.237 54.3883 188.64 54.9483 188.248C55.5083 187.856 56.4067 187.646 57.6433 187.618L58.9383 187.583V187.016C58.9383 186.573 58.8053 186.223 58.5393 185.966C58.2733 185.705 57.8603 185.574 57.3003 185.574C56.885 185.579 56.5187 185.677 56.2013 185.868C55.8887 186.059 55.6857 186.372 55.5923 186.806H54.4513C54.4793 186.335 54.6123 185.938 54.8503 185.616C55.0883 185.289 55.4197 185.042 55.8443 184.874C56.2737 184.706 56.78 184.622 57.3633 184.622C57.9933 184.622 58.516 184.711 58.9313 184.888C59.3513 185.065 59.664 185.327 59.8693 185.672C60.0793 186.017 60.1843 186.442 60.1843 186.946V192H59.0783L58.9873 190.642C58.7073 191.207 58.3503 191.599 57.9163 191.818C57.487 192.033 57.0133 192.14 56.4953 192.14ZM56.8873 191.209C57.13 191.209 57.3703 191.165 57.6083 191.076C57.851 190.987 58.0727 190.868 58.2733 190.719C58.474 190.565 58.6327 190.395 58.7493 190.208C58.8707 190.017 58.9337 189.821 58.9383 189.62V188.381L57.8603 188.402C57.3097 188.411 56.8477 188.467 56.4743 188.57C56.1057 188.673 55.828 188.834 55.6413 189.053C55.4593 189.272 55.3683 189.559 55.3683 189.914C55.3683 190.32 55.5083 190.637 55.7883 190.866C56.073 191.095 56.4393 191.209 56.8873 191.209ZM65.9012 185.707H64.2702V190.208C64.2702 190.465 64.2959 190.654 64.3472 190.775C64.4032 190.892 64.4942 190.966 64.6202 190.999C64.7509 191.032 64.9282 191.048 65.1522 191.048H65.9432V191.916C65.8545 191.949 65.7192 191.977 65.5372 192C65.3599 192.023 65.1382 192.035 64.8722 192.035C64.3729 192.035 63.9855 191.967 63.7102 191.832C63.4349 191.697 63.2412 191.496 63.1292 191.23C63.0219 190.964 62.9682 190.637 62.9682 190.25V185.707H61.7922V184.762H63.0032L63.3182 182.655H64.2702V184.755H65.9012V185.707ZM68.6636 188.682C68.6636 189.139 68.7383 189.555 68.8876 189.928C69.0416 190.297 69.2726 190.591 69.5806 190.81C69.8933 191.029 70.2829 191.139 70.7496 191.139C71.2116 191.139 71.6083 191.032 71.9396 190.817C72.2756 190.602 72.4903 190.292 72.5836 189.886H73.8086C73.7199 190.376 73.5239 190.789 73.2206 191.125C72.9173 191.461 72.5509 191.715 72.1216 191.888C71.6923 192.056 71.2443 192.14 70.7776 192.14C70.1009 192.14 69.5059 191.993 68.9926 191.699C68.4793 191.405 68.0779 190.983 67.7886 190.432C67.4993 189.881 67.3546 189.221 67.3546 188.451C67.3546 187.69 67.4853 187.023 67.7466 186.449C68.0079 185.875 68.3859 185.427 68.8806 185.105C69.3799 184.783 69.9796 184.622 70.6796 184.622C71.3609 184.622 71.9373 184.769 72.4086 185.063C72.8799 185.357 73.2369 185.772 73.4796 186.309C73.7269 186.841 73.8506 187.473 73.8506 188.206V188.682H68.6636ZM68.6706 187.807H72.6046C72.6046 187.392 72.5346 187.018 72.3946 186.687C72.2546 186.351 72.0399 186.087 71.7506 185.896C71.4659 185.7 71.1066 185.602 70.6726 185.602C70.2199 185.602 69.8443 185.712 69.5456 185.931C69.2516 186.146 69.0299 186.423 68.8806 186.764C68.7359 187.1 68.6659 187.448 68.6706 187.807Z" fill="#464E5F"/>
<path d="M269.638 181.878H275.679L275.644 182.998H270.744L270.485 186.267C270.821 185.954 271.187 185.733 271.584 185.602C271.985 185.467 272.419 185.399 272.886 185.399C273.497 185.399 274.06 185.525 274.573 185.777C275.091 186.024 275.506 186.393 275.819 186.883C276.132 187.368 276.288 187.97 276.288 188.689C276.288 189.389 276.136 189.998 275.833 190.516C275.53 191.034 275.103 191.438 274.552 191.727C274.001 192.012 273.355 192.154 272.613 192.154C271.988 192.154 271.409 192.044 270.877 191.825C270.345 191.606 269.888 191.3 269.505 190.908C269.127 190.516 268.849 190.066 268.672 189.557L269.792 189.088C269.96 189.471 270.17 189.811 270.422 190.11C270.679 190.409 270.982 190.642 271.332 190.81C271.682 190.978 272.079 191.062 272.522 191.062C273.241 191.062 273.817 190.854 274.251 190.439C274.69 190.019 274.909 189.45 274.909 188.731C274.909 188.283 274.806 187.893 274.601 187.562C274.396 187.226 274.118 186.965 273.768 186.778C273.423 186.591 273.04 186.498 272.62 186.498C272.345 186.498 272.088 186.524 271.85 186.575C271.612 186.622 271.376 186.715 271.143 186.855C270.91 186.995 270.665 187.207 270.408 187.492C270.38 187.506 270.359 187.513 270.345 187.513C270.331 187.508 270.308 187.499 270.275 187.485L269.183 187.142L269.638 181.878ZM281.43 181.738C282.526 181.738 283.399 182.179 284.048 183.061C284.701 183.938 285.028 185.238 285.028 186.96C285.028 188.673 284.703 189.968 284.055 190.845C283.406 191.718 282.526 192.154 281.416 192.154C280.31 192.154 279.432 191.72 278.784 190.852C278.135 189.979 277.811 188.689 277.811 186.981C277.811 185.828 277.96 184.862 278.259 184.083C278.557 183.304 278.977 182.718 279.519 182.326C280.06 181.934 280.697 181.738 281.43 181.738ZM281.43 191.034C282.153 191.034 282.699 190.717 283.068 190.082C283.441 189.443 283.628 188.404 283.628 186.967C283.628 185.502 283.439 184.447 283.061 183.803C282.687 183.154 282.141 182.83 281.423 182.83C280.709 182.83 280.158 183.157 279.771 183.81C279.388 184.459 279.197 185.511 279.197 186.967C279.197 188.4 279.388 189.436 279.771 190.075C280.153 190.714 280.706 191.034 281.43 191.034ZM289.031 181.724C289.484 181.724 289.89 181.843 290.249 182.081C290.608 182.319 290.891 182.655 291.096 183.089C291.301 183.523 291.404 184.034 291.404 184.622C291.404 185.21 291.301 185.719 291.096 186.148C290.895 186.577 290.615 186.911 290.256 187.149C289.897 187.382 289.488 187.499 289.031 187.499C288.569 187.499 288.156 187.382 287.792 187.149C287.433 186.911 287.148 186.577 286.938 186.148C286.728 185.719 286.623 185.21 286.623 184.622C286.623 184.034 286.728 183.523 286.938 183.089C287.148 182.655 287.433 182.319 287.792 182.081C288.156 181.843 288.569 181.724 289.031 181.724ZM289.017 186.778C289.465 186.778 289.808 186.58 290.046 186.183C290.289 185.786 290.41 185.266 290.41 184.622C290.41 183.969 290.289 183.444 290.046 183.047C289.803 182.646 289.46 182.445 289.017 182.445C288.718 182.445 288.464 182.538 288.254 182.725C288.049 182.907 287.89 183.161 287.778 183.488C287.671 183.815 287.617 184.193 287.617 184.622C287.617 185.261 287.738 185.782 287.981 186.183C288.224 186.58 288.569 186.778 289.017 186.778ZM295.366 186.351C295.823 186.351 296.232 186.472 296.591 186.715C296.95 186.953 297.233 187.289 297.438 187.723C297.643 188.157 297.746 188.666 297.746 189.249C297.746 189.837 297.643 190.348 297.438 190.782C297.237 191.216 296.957 191.552 296.598 191.79C296.239 192.023 295.828 192.14 295.366 192.14C294.904 192.14 294.491 192.023 294.127 191.79C293.763 191.552 293.478 191.216 293.273 190.782C293.068 190.348 292.965 189.837 292.965 189.249C292.965 188.666 293.068 188.157 293.273 187.723C293.483 187.289 293.77 186.953 294.134 186.715C294.498 186.472 294.909 186.351 295.366 186.351ZM295.352 191.405C295.641 191.405 295.891 191.314 296.101 191.132C296.311 190.945 296.472 190.691 296.584 190.369C296.696 190.047 296.752 189.678 296.752 189.263C296.752 188.838 296.694 188.463 296.577 188.136C296.465 187.805 296.304 187.546 296.094 187.359C295.884 187.172 295.637 187.079 295.352 187.079C295.067 187.079 294.82 187.175 294.61 187.366C294.4 187.553 294.239 187.812 294.127 188.143C294.015 188.47 293.959 188.843 293.959 189.263C293.959 189.678 294.015 190.047 294.127 190.369C294.239 190.691 294.398 190.945 294.603 191.132C294.813 191.314 295.063 191.405 295.352 191.405ZM295.947 181.766L289.143 192.056L288.268 192.049L295.1 181.766H295.947Z" fill="#464E5F"/>
<path d="M20 205C20 203.343 21.3431 202 23 202H111V208H23C21.3431 208 20 206.657 20 205Z" fill="#3699FF"/>
<path d="M111 202H296C297.657 202 299 203.343 299 205C299 206.657 297.657 208 296 208H111V202Z" fill="#3699FF"/>
<path opacity="0.6" d="M111 202H296C297.657 202 299 203.343 299 205C299 206.657 297.657 208 296 208H111V202Z" fill="white"/>
</g>
<g clip-path="url(#clip2_9890_245478)">
<path d="M28.575 233H27.203L25.355 228.639H22.632V233H21.337V222.878H25.257C25.985 222.878 26.594 222.99 27.084 223.214C27.574 223.433 27.9403 223.751 28.183 224.166C28.4257 224.577 28.547 225.069 28.547 225.643C28.547 226.194 28.449 226.651 28.253 227.015C28.0617 227.379 27.8167 227.673 27.518 227.897C27.2193 228.116 26.909 228.287 26.587 228.408L28.575 233ZM24.837 227.568C25.5977 227.568 26.1857 227.414 26.601 227.106C27.0163 226.793 27.224 226.331 27.224 225.72C27.224 225.123 27.0373 224.677 26.664 224.383C26.2953 224.084 25.789 223.935 25.145 223.935H22.632V227.568H24.837ZM31.4072 229.682C31.4072 230.139 31.4819 230.555 31.6312 230.928C31.7852 231.297 32.0162 231.591 32.3242 231.81C32.6369 232.029 33.0265 232.139 33.4932 232.139C33.9552 232.139 34.3519 232.032 34.6832 231.817C35.0192 231.602 35.2339 231.292 35.3272 230.886H36.5522C36.4635 231.376 36.2675 231.789 35.9642 232.125C35.6609 232.461 35.2945 232.715 34.8652 232.888C34.4359 233.056 33.9879 233.14 33.5212 233.14C32.8445 233.14 32.2495 232.993 31.7362 232.699C31.2229 232.405 30.8215 231.983 30.5322 231.432C30.2429 230.881 30.0982 230.221 30.0982 229.451C30.0982 228.69 30.2289 228.023 30.4902 227.449C30.7515 226.875 31.1295 226.427 31.6242 226.105C32.1235 225.783 32.7232 225.622 33.4232 225.622C34.1045 225.622 34.6809 225.769 35.1522 226.063C35.6235 226.357 35.9805 226.772 36.2232 227.309C36.4705 227.841 36.5942 228.473 36.5942 229.206V229.682H31.4072ZM31.4142 228.807H35.3482C35.3482 228.392 35.2782 228.018 35.1382 227.687C34.9982 227.351 34.7835 227.087 34.4942 226.896C34.2095 226.7 33.8502 226.602 33.4162 226.602C32.9635 226.602 32.5879 226.712 32.2892 226.931C31.9952 227.146 31.7735 227.423 31.6242 227.764C31.4795 228.1 31.4095 228.448 31.4142 228.807ZM42.3428 225.762V226.707H40.5858V233H39.2838V226.707H37.7578V225.762H39.2838V224.642C39.2838 224.068 39.4308 223.632 39.7248 223.333C40.0188 223.03 40.4574 222.878 41.0408 222.878H42.4058L42.4128 223.795H41.3278C41.0338 223.795 40.8331 223.874 40.7258 224.033C40.6184 224.192 40.5648 224.432 40.5648 224.754V225.762H42.3428ZM44.9542 229.682C44.9542 230.139 45.0289 230.555 45.1782 230.928C45.3322 231.297 45.5632 231.591 45.8712 231.81C46.1839 232.029 46.5736 232.139 47.0402 232.139C47.5022 232.139 47.8989 232.032 48.2302 231.817C48.5662 231.602 48.7809 231.292 48.8742 230.886H50.0992C50.0106 231.376 49.8146 231.789 49.5112 232.125C49.2079 232.461 48.8416 232.715 48.4122 232.888C47.9829 233.056 47.5349 233.14 47.0682 233.14C46.3916 233.14 45.7966 232.993 45.2832 232.699C44.7699 232.405 44.3686 231.983 44.0792 231.432C43.7899 230.881 43.6452 230.221 43.6452 229.451C43.6452 228.69 43.7759 228.023 44.0372 227.449C44.2986 226.875 44.6766 226.427 45.1712 226.105C45.6706 225.783 46.2702 225.622 46.9702 225.622C47.6516 225.622 48.2279 225.769 48.6992 226.063C49.1706 226.357 49.5276 226.772 49.7702 227.309C50.0176 227.841 50.1412 228.473 50.1412 229.206V229.682H44.9542ZM44.9612 228.807H48.8952C48.8952 228.392 48.8252 228.018 48.6852 227.687C48.5452 227.351 48.3306 227.087 48.0412 226.896C47.7566 226.7 47.3972 226.602 46.9632 226.602C46.5106 226.602 46.1349 226.712 45.8362 226.931C45.5422 227.146 45.3206 227.423 45.1712 227.764C45.0266 228.1 44.9566 228.448 44.9612 228.807ZM52.0889 233V225.762H53.3209V227.155C53.4422 226.81 53.6126 226.525 53.8319 226.301C54.0512 226.072 54.3009 225.902 54.5809 225.79C54.8656 225.678 55.1596 225.622 55.4629 225.622C55.5702 225.622 55.6752 225.629 55.7779 225.643C55.8806 225.657 55.9599 225.68 56.0159 225.713V226.966C55.9459 226.933 55.8549 226.912 55.7429 226.903C55.6356 226.889 55.5446 226.882 55.4699 226.882C55.1806 226.863 54.9099 226.882 54.6579 226.938C54.4059 226.989 54.1842 227.08 53.9929 227.211C53.8016 227.342 53.6499 227.514 53.5379 227.729C53.4306 227.939 53.3769 228.196 53.3769 228.499V233H52.0889ZM57.6866 233V225.762H58.9186V227.155C59.04 226.81 59.2103 226.525 59.4296 226.301C59.649 226.072 59.8986 225.902 60.1786 225.79C60.4633 225.678 60.7573 225.622 61.0606 225.622C61.168 225.622 61.273 225.629 61.3756 225.643C61.4783 225.657 61.5576 225.68 61.6136 225.713V226.966C61.5436 226.933 61.4526 226.912 61.3406 226.903C61.2333 226.889 61.1423 226.882 61.0676 226.882C60.7783 226.863 60.5076 226.882 60.2556 226.938C60.0036 226.989 59.782 227.08 59.5906 227.211C59.3993 227.342 59.2476 227.514 59.1356 227.729C59.0283 227.939 58.9746 228.196 58.9746 228.499V233H57.6866ZM65.1086 233.14C64.642 233.14 64.229 233.058 63.8696 232.895C63.5103 232.727 63.228 232.487 63.0226 232.174C62.822 231.861 62.7216 231.483 62.7216 231.04C62.7216 230.237 63.0016 229.64 63.5616 229.248C64.1216 228.856 65.02 228.646 66.2566 228.618L67.5516 228.583V228.016C67.5516 227.573 67.4186 227.223 67.1526 226.966C66.8866 226.705 66.4736 226.574 65.9136 226.574C65.4983 226.579 65.132 226.677 64.8146 226.868C64.502 227.059 64.299 227.372 64.2056 227.806H63.0646C63.0926 227.335 63.2256 226.938 63.4636 226.616C63.7016 226.289 64.033 226.042 64.4576 225.874C64.887 225.706 65.3933 225.622 65.9766 225.622C66.6066 225.622 67.1293 225.711 67.5446 225.888C67.9646 226.065 68.2773 226.327 68.4826 226.672C68.6926 227.017 68.7976 227.442 68.7976 227.946V233H67.6916L67.6006 231.642C67.3206 232.207 66.9636 232.599 66.5296 232.818C66.1003 233.033 65.6266 233.14 65.1086 233.14ZM65.5006 232.209C65.7433 232.209 65.9836 232.165 66.2216 232.076C66.4643 231.987 66.686 231.868 66.8866 231.719C67.0873 231.565 67.246 231.395 67.3626 231.208C67.484 231.017 67.547 230.821 67.5516 230.62V229.381L66.4736 229.402C65.923 229.411 65.461 229.467 65.0876 229.57C64.719 229.673 64.4413 229.834 64.2546 230.053C64.0726 230.272 63.9816 230.559 63.9816 230.914C63.9816 231.32 64.1216 231.637 64.4016 231.866C64.6863 232.095 65.0526 232.209 65.5006 232.209ZM73.006 233.091C72.614 233.091 72.2966 233.037 72.054 232.93C71.816 232.823 71.6316 232.678 71.501 232.496C71.375 232.314 71.2886 232.106 71.242 231.873C71.2 231.635 71.179 231.39 71.179 231.138V222.598H72.453V231.012C72.453 231.376 72.523 231.649 72.663 231.831C72.8076 232.013 73.0083 232.113 73.265 232.132L73.657 232.139V232.979C73.5496 233.012 73.4376 233.037 73.321 233.056C73.2043 233.079 73.0993 233.091 73.006 233.091Z" fill="#464E5F"/>
<path d="M269.638 222.878H275.679L275.644 223.998H270.744L270.485 227.267C270.821 226.954 271.187 226.733 271.584 226.602C271.985 226.467 272.419 226.399 272.886 226.399C273.497 226.399 274.06 226.525 274.573 226.777C275.091 227.024 275.506 227.393 275.819 227.883C276.132 228.368 276.288 228.97 276.288 229.689C276.288 230.389 276.136 230.998 275.833 231.516C275.53 232.034 275.103 232.438 274.552 232.727C274.001 233.012 273.355 233.154 272.613 233.154C271.988 233.154 271.409 233.044 270.877 232.825C270.345 232.606 269.888 232.3 269.505 231.908C269.127 231.516 268.849 231.066 268.672 230.557L269.792 230.088C269.96 230.471 270.17 230.811 270.422 231.11C270.679 231.409 270.982 231.642 271.332 231.81C271.682 231.978 272.079 232.062 272.522 232.062C273.241 232.062 273.817 231.854 274.251 231.439C274.69 231.019 274.909 230.45 274.909 229.731C274.909 229.283 274.806 228.893 274.601 228.562C274.396 228.226 274.118 227.965 273.768 227.778C273.423 227.591 273.04 227.498 272.62 227.498C272.345 227.498 272.088 227.524 271.85 227.575C271.612 227.622 271.376 227.715 271.143 227.855C270.91 227.995 270.665 228.207 270.408 228.492C270.38 228.506 270.359 228.513 270.345 228.513C270.331 228.508 270.308 228.499 270.275 228.485L269.183 228.142L269.638 222.878ZM281.43 222.738C282.526 222.738 283.399 223.179 284.048 224.061C284.701 224.938 285.028 226.238 285.028 227.96C285.028 229.673 284.703 230.968 284.055 231.845C283.406 232.718 282.526 233.154 281.416 233.154C280.31 233.154 279.432 232.72 278.784 231.852C278.135 230.979 277.811 229.689 277.811 227.981C277.811 226.828 277.96 225.862 278.259 225.083C278.557 224.304 278.977 223.718 279.519 223.326C280.06 222.934 280.697 222.738 281.43 222.738ZM281.43 232.034C282.153 232.034 282.699 231.717 283.068 231.082C283.441 230.443 283.628 229.404 283.628 227.967C283.628 226.502 283.439 225.447 283.061 224.803C282.687 224.154 282.141 223.83 281.423 223.83C280.709 223.83 280.158 224.157 279.771 224.81C279.388 225.459 279.197 226.511 279.197 227.967C279.197 229.4 279.388 230.436 279.771 231.075C280.153 231.714 280.706 232.034 281.43 232.034ZM289.031 222.724C289.484 222.724 289.89 222.843 290.249 223.081C290.608 223.319 290.891 223.655 291.096 224.089C291.301 224.523 291.404 225.034 291.404 225.622C291.404 226.21 291.301 226.719 291.096 227.148C290.895 227.577 290.615 227.911 290.256 228.149C289.897 228.382 289.488 228.499 289.031 228.499C288.569 228.499 288.156 228.382 287.792 228.149C287.433 227.911 287.148 227.577 286.938 227.148C286.728 226.719 286.623 226.21 286.623 225.622C286.623 225.034 286.728 224.523 286.938 224.089C287.148 223.655 287.433 223.319 287.792 223.081C288.156 222.843 288.569 222.724 289.031 222.724ZM289.017 227.778C289.465 227.778 289.808 227.58 290.046 227.183C290.289 226.786 290.41 226.266 290.41 225.622C290.41 224.969 290.289 224.444 290.046 224.047C289.803 223.646 289.46 223.445 289.017 223.445C288.718 223.445 288.464 223.538 288.254 223.725C288.049 223.907 287.89 224.161 287.778 224.488C287.671 224.815 287.617 225.193 287.617 225.622C287.617 226.261 287.738 226.782 287.981 227.183C288.224 227.58 288.569 227.778 289.017 227.778ZM295.366 227.351C295.823 227.351 296.232 227.472 296.591 227.715C296.95 227.953 297.233 228.289 297.438 228.723C297.643 229.157 297.746 229.666 297.746 230.249C297.746 230.837 297.643 231.348 297.438 231.782C297.237 232.216 296.957 232.552 296.598 232.79C296.239 233.023 295.828 233.14 295.366 233.14C294.904 233.14 294.491 233.023 294.127 232.79C293.763 232.552 293.478 232.216 293.273 231.782C293.068 231.348 292.965 230.837 292.965 230.249C292.965 229.666 293.068 229.157 293.273 228.723C293.483 228.289 293.77 227.953 294.134 227.715C294.498 227.472 294.909 227.351 295.366 227.351ZM295.352 232.405C295.641 232.405 295.891 232.314 296.101 232.132C296.311 231.945 296.472 231.691 296.584 231.369C296.696 231.047 296.752 230.678 296.752 230.263C296.752 229.838 296.694 229.463 296.577 229.136C296.465 228.805 296.304 228.546 296.094 228.359C295.884 228.172 295.637 228.079 295.352 228.079C295.067 228.079 294.82 228.175 294.61 228.366C294.4 228.553 294.239 228.812 294.127 229.143C294.015 229.47 293.959 229.843 293.959 230.263C293.959 230.678 294.015 231.047 294.127 231.369C294.239 231.691 294.398 231.945 294.603 232.132C294.813 232.314 295.063 232.405 295.352 232.405ZM295.947 222.766L289.143 233.056L288.268 233.049L295.1 222.766H295.947Z" fill="#464E5F"/>
<path d="M20 246C20 244.343 21.3431 243 23 243H111V249H23C21.3431 249 20 247.657 20 246Z" fill="#3699FF"/>
<path d="M111 243H296C297.657 243 299 244.343 299 246C299 247.657 297.657 249 296 249H111V243Z" fill="#3699FF"/>
<path opacity="0.6" d="M111 243H296C297.657 243 299 244.343 299 246C299 247.657 297.657 249 296 249H111V243Z" fill="white"/>
</g>
<g clip-path="url(#clip3_9890_245478)">
<path d="M21.337 274V263.878H23.129L26.181 272.236L29.275 263.878H31.06V274H29.723V265.817L26.79 274H25.579L22.667 265.894V274H21.337ZM35.6024 274.14C35.1357 274.14 34.7227 274.058 34.3634 273.895C34.004 273.727 33.7217 273.487 33.5164 273.174C33.3157 272.861 33.2154 272.483 33.2154 272.04C33.2154 271.237 33.4954 270.64 34.0554 270.248C34.6154 269.856 35.5137 269.646 36.7504 269.618L38.0454 269.583V269.016C38.0454 268.573 37.9124 268.223 37.6464 267.966C37.3804 267.705 36.9674 267.574 36.4074 267.574C35.992 267.579 35.6257 267.677 35.3084 267.868C34.9957 268.059 34.7927 268.372 34.6994 268.806H33.5584C33.5864 268.335 33.7194 267.938 33.9574 267.616C34.1954 267.289 34.5267 267.042 34.9514 266.874C35.3807 266.706 35.887 266.622 36.4704 266.622C37.1004 266.622 37.623 266.711 38.0384 266.888C38.4584 267.065 38.771 267.327 38.9764 267.672C39.1864 268.017 39.2914 268.442 39.2914 268.946V274H38.1854L38.0944 272.642C37.8144 273.207 37.4574 273.599 37.0234 273.818C36.594 274.033 36.1204 274.14 35.6024 274.14ZM35.9944 273.209C36.237 273.209 36.4774 273.165 36.7154 273.076C36.958 272.987 37.1797 272.868 37.3804 272.719C37.581 272.565 37.7397 272.395 37.8564 272.208C37.9777 272.017 38.0407 271.821 38.0454 271.62V270.381L36.9674 270.402C36.4167 270.411 35.9547 270.467 35.5814 270.57C35.2127 270.673 34.935 270.834 34.7484 271.053C34.5664 271.272 34.4754 271.559 34.4754 271.914C34.4754 272.32 34.6154 272.637 34.8954 272.866C35.18 273.095 35.5464 273.209 35.9944 273.209ZM41.6727 274V266.762H42.9047V268.155C43.0261 267.81 43.1964 267.525 43.4157 267.301C43.6351 267.072 43.8847 266.902 44.1647 266.79C44.4494 266.678 44.7434 266.622 45.0467 266.622C45.1541 266.622 45.2591 266.629 45.3617 266.643C45.4644 266.657 45.5437 266.68 45.5997 266.713V267.966C45.5297 267.933 45.4387 267.912 45.3267 267.903C45.2194 267.889 45.1284 267.882 45.0537 267.882C44.7644 267.863 44.4937 267.882 44.2417 267.938C43.9897 267.989 43.7681 268.08 43.5767 268.211C43.3854 268.342 43.2337 268.514 43.1217 268.729C43.0144 268.939 42.9607 269.196 42.9607 269.499V274H41.6727ZM53.6265 274H52.2545L49.9865 270.367L48.5585 271.844V274H47.2705V263.598H48.5585V270.381L51.9605 266.762H53.4445L50.8335 269.52L53.6265 274ZM55.9387 270.682C55.9387 271.139 56.0133 271.555 56.1627 271.928C56.3167 272.297 56.5477 272.591 56.8557 272.81C57.1683 273.029 57.558 273.139 58.0247 273.139C58.4867 273.139 58.8833 273.032 59.2147 272.817C59.5507 272.602 59.7653 272.292 59.8587 271.886H61.0837C60.995 272.376 60.799 272.789 60.4957 273.125C60.1923 273.461 59.826 273.715 59.3967 273.888C58.9673 274.056 58.5193 274.14 58.0527 274.14C57.376 274.14 56.781 273.993 56.2677 273.699C55.7543 273.405 55.353 272.983 55.0637 272.432C54.7743 271.881 54.6297 271.221 54.6297 270.451C54.6297 269.69 54.7603 269.023 55.0217 268.449C55.283 267.875 55.661 267.427 56.1557 267.105C56.655 266.783 57.2547 266.622 57.9547 266.622C58.636 266.622 59.2123 266.769 59.6837 267.063C60.155 267.357 60.512 267.772 60.7547 268.309C61.002 268.841 61.1257 269.473 61.1257 270.206V270.682H55.9387ZM55.9457 269.807H59.8797C59.8797 269.392 59.8097 269.018 59.6697 268.687C59.5297 268.351 59.315 268.087 59.0257 267.896C58.741 267.7 58.3817 267.602 57.9477 267.602C57.495 267.602 57.1193 267.712 56.8207 267.931C56.5267 268.146 56.305 268.423 56.1557 268.764C56.011 269.1 55.941 269.448 55.9457 269.807ZM66.5182 267.707H64.8872V272.208C64.8872 272.465 64.9129 272.654 64.9642 272.775C65.0202 272.892 65.1112 272.966 65.2372 272.999C65.3679 273.032 65.5452 273.048 65.7692 273.048H66.5602V273.916C66.4716 273.949 66.3362 273.977 66.1542 274C65.9769 274.023 65.7552 274.035 65.4892 274.035C64.9899 274.035 64.6026 273.967 64.3272 273.832C64.0519 273.697 63.8582 273.496 63.7462 273.23C63.6389 272.964 63.5852 272.637 63.5852 272.25V267.707H62.4092V266.762H63.6202L63.9352 264.655H64.8872V266.755H66.5182V267.707ZM69.948 266.762V274H68.695V266.762H69.948ZM69.976 263.885V265.229H68.653V263.885H69.976ZM72.4778 274V266.762H73.7308V267.812C73.8475 267.611 74.0085 267.422 74.2138 267.245C74.4238 267.068 74.6758 266.925 74.9698 266.818C75.2685 266.711 75.6115 266.657 75.9988 266.657C76.4561 266.657 76.8761 266.748 77.2588 266.93C77.6461 267.112 77.9541 267.397 78.1828 267.784C78.4161 268.167 78.5328 268.661 78.5328 269.268V274H77.2378V269.394C77.2378 268.829 77.0885 268.412 76.7898 268.141C76.4958 267.866 76.1131 267.728 75.6418 267.728C75.3151 267.728 75.0095 267.782 74.7248 267.889C74.4401 267.992 74.2091 268.15 74.0318 268.365C73.8545 268.575 73.7658 268.841 73.7658 269.163V274H72.4778ZM83.7799 276.394C82.6412 276.394 81.7545 276.228 81.1199 275.897C80.4899 275.57 80.1749 275.101 80.1749 274.49C80.1749 274.229 80.2355 274.007 80.3569 273.825C80.4782 273.638 80.6229 273.484 80.7909 273.363C80.9589 273.242 81.1152 273.146 81.2599 273.076C81.4045 273.001 81.4979 272.948 81.5399 272.915C81.4605 272.868 81.3602 272.81 81.2389 272.74C81.1222 272.67 81.0195 272.577 80.9309 272.46C80.8422 272.343 80.7979 272.192 80.7979 272.005C80.7979 271.776 80.9052 271.566 81.1199 271.375C81.3345 271.184 81.6519 271.041 82.0719 270.948C81.6472 270.733 81.3159 270.449 81.0779 270.094C80.8399 269.739 80.7209 269.354 80.7209 268.939C80.7209 268.472 80.8469 268.066 81.0989 267.721C81.3555 267.376 81.7195 267.112 82.1909 266.93C82.6622 266.743 83.2222 266.65 83.8709 266.65C84.3422 266.65 84.7389 266.706 85.0609 266.818C85.3829 266.925 85.6815 267.079 85.9569 267.28C86.0315 267.247 86.1482 267.198 86.3069 267.133C86.4702 267.063 86.6499 266.988 86.8459 266.909C87.0419 266.83 87.2239 266.755 87.3919 266.685C87.5645 266.61 87.7022 266.554 87.8049 266.517L87.7979 267.714L86.5309 267.952C86.6009 268.101 86.6569 268.265 86.6989 268.442C86.7455 268.619 86.7689 268.785 86.7689 268.939C86.7689 269.364 86.6569 269.749 86.4329 270.094C86.2135 270.439 85.8799 270.715 85.4319 270.92C84.9839 271.125 84.4239 271.228 83.7519 271.228C83.6959 271.228 83.6235 271.228 83.5349 271.228C83.4509 271.223 83.3785 271.219 83.3179 271.214C82.8232 271.228 82.4825 271.284 82.2959 271.382C82.1092 271.475 82.0159 271.58 82.0159 271.697C82.0159 271.832 82.1209 271.926 82.3309 271.977C82.5409 272.028 82.8979 272.073 83.4019 272.11C83.5839 272.119 83.8079 272.131 84.0739 272.145C84.3445 272.159 84.6432 272.178 84.9699 272.201C85.7305 272.248 86.3162 272.441 86.7269 272.782C87.1375 273.123 87.3429 273.582 87.3429 274.161C87.3429 274.819 87.0489 275.356 86.4609 275.771C85.8729 276.186 84.9792 276.394 83.7799 276.394ZM84.0109 275.561C84.6782 275.561 85.1892 275.461 85.5439 275.26C85.8985 275.059 86.0759 274.756 86.0759 274.35C86.0759 274.061 85.9662 273.825 85.7469 273.643C85.5322 273.456 85.2032 273.349 84.7599 273.321L82.7299 273.188C82.5479 273.179 82.3589 273.225 82.1629 273.328C81.9669 273.426 81.7989 273.564 81.6589 273.741C81.5235 273.918 81.4559 274.119 81.4559 274.343C81.4559 274.726 81.6635 275.024 82.0789 275.239C82.4989 275.454 83.1429 275.561 84.0109 275.561ZM83.7869 270.395C84.3095 270.395 84.7295 270.274 85.0469 270.031C85.3689 269.788 85.5299 269.429 85.5299 268.953C85.5299 268.463 85.3689 268.09 85.0469 267.833C84.7295 267.576 84.3095 267.448 83.7869 267.448C83.2595 267.448 82.8325 267.579 82.5059 267.84C82.1839 268.097 82.0229 268.468 82.0229 268.953C82.0229 269.41 82.1769 269.765 82.4849 270.017C82.7929 270.269 83.2269 270.395 83.7869 270.395Z" fill="#464E5F"/>
<path d="M269.638 263.878H275.679L275.644 264.998H270.744L270.485 268.267C270.821 267.954 271.187 267.733 271.584 267.602C271.985 267.467 272.419 267.399 272.886 267.399C273.497 267.399 274.06 267.525 274.573 267.777C275.091 268.024 275.506 268.393 275.819 268.883C276.132 269.368 276.288 269.97 276.288 270.689C276.288 271.389 276.136 271.998 275.833 272.516C275.53 273.034 275.103 273.438 274.552 273.727C274.001 274.012 273.355 274.154 272.613 274.154C271.988 274.154 271.409 274.044 270.877 273.825C270.345 273.606 269.888 273.3 269.505 272.908C269.127 272.516 268.849 272.066 268.672 271.557L269.792 271.088C269.96 271.471 270.17 271.811 270.422 272.11C270.679 272.409 270.982 272.642 271.332 272.81C271.682 272.978 272.079 273.062 272.522 273.062C273.241 273.062 273.817 272.854 274.251 272.439C274.69 272.019 274.909 271.45 274.909 270.731C274.909 270.283 274.806 269.893 274.601 269.562C274.396 269.226 274.118 268.965 273.768 268.778C273.423 268.591 273.04 268.498 272.62 268.498C272.345 268.498 272.088 268.524 271.85 268.575C271.612 268.622 271.376 268.715 271.143 268.855C270.91 268.995 270.665 269.207 270.408 269.492C270.38 269.506 270.359 269.513 270.345 269.513C270.331 269.508 270.308 269.499 270.275 269.485L269.183 269.142L269.638 263.878ZM281.43 263.738C282.526 263.738 283.399 264.179 284.048 265.061C284.701 265.938 285.028 267.238 285.028 268.96C285.028 270.673 284.703 271.968 284.055 272.845C283.406 273.718 282.526 274.154 281.416 274.154C280.31 274.154 279.432 273.72 278.784 272.852C278.135 271.979 277.811 270.689 277.811 268.981C277.811 267.828 277.96 266.862 278.259 266.083C278.557 265.304 278.977 264.718 279.519 264.326C280.06 263.934 280.697 263.738 281.43 263.738ZM281.43 273.034C282.153 273.034 282.699 272.717 283.068 272.082C283.441 271.443 283.628 270.404 283.628 268.967C283.628 267.502 283.439 266.447 283.061 265.803C282.687 265.154 282.141 264.83 281.423 264.83C280.709 264.83 280.158 265.157 279.771 265.81C279.388 266.459 279.197 267.511 279.197 268.967C279.197 270.4 279.388 271.436 279.771 272.075C280.153 272.714 280.706 273.034 281.43 273.034ZM289.031 263.724C289.484 263.724 289.89 263.843 290.249 264.081C290.608 264.319 290.891 264.655 291.096 265.089C291.301 265.523 291.404 266.034 291.404 266.622C291.404 267.21 291.301 267.719 291.096 268.148C290.895 268.577 290.615 268.911 290.256 269.149C289.897 269.382 289.488 269.499 289.031 269.499C288.569 269.499 288.156 269.382 287.792 269.149C287.433 268.911 287.148 268.577 286.938 268.148C286.728 267.719 286.623 267.21 286.623 266.622C286.623 266.034 286.728 265.523 286.938 265.089C287.148 264.655 287.433 264.319 287.792 264.081C288.156 263.843 288.569 263.724 289.031 263.724ZM289.017 268.778C289.465 268.778 289.808 268.58 290.046 268.183C290.289 267.786 290.41 267.266 290.41 266.622C290.41 265.969 290.289 265.444 290.046 265.047C289.803 264.646 289.46 264.445 289.017 264.445C288.718 264.445 288.464 264.538 288.254 264.725C288.049 264.907 287.89 265.161 287.778 265.488C287.671 265.815 287.617 266.193 287.617 266.622C287.617 267.261 287.738 267.782 287.981 268.183C288.224 268.58 288.569 268.778 289.017 268.778ZM295.366 268.351C295.823 268.351 296.232 268.472 296.591 268.715C296.95 268.953 297.233 269.289 297.438 269.723C297.643 270.157 297.746 270.666 297.746 271.249C297.746 271.837 297.643 272.348 297.438 272.782C297.237 273.216 296.957 273.552 296.598 273.79C296.239 274.023 295.828 274.14 295.366 274.14C294.904 274.14 294.491 274.023 294.127 273.79C293.763 273.552 293.478 273.216 293.273 272.782C293.068 272.348 292.965 271.837 292.965 271.249C292.965 270.666 293.068 270.157 293.273 269.723C293.483 269.289 293.77 268.953 294.134 268.715C294.498 268.472 294.909 268.351 295.366 268.351ZM295.352 273.405C295.641 273.405 295.891 273.314 296.101 273.132C296.311 272.945 296.472 272.691 296.584 272.369C296.696 272.047 296.752 271.678 296.752 271.263C296.752 270.838 296.694 270.463 296.577 270.136C296.465 269.805 296.304 269.546 296.094 269.359C295.884 269.172 295.637 269.079 295.352 269.079C295.067 269.079 294.82 269.175 294.61 269.366C294.4 269.553 294.239 269.812 294.127 270.143C294.015 270.47 293.959 270.843 293.959 271.263C293.959 271.678 294.015 272.047 294.127 272.369C294.239 272.691 294.398 272.945 294.603 273.132C294.813 273.314 295.063 273.405 295.352 273.405ZM295.947 263.766L289.143 274.056L288.268 274.049L295.1 263.766H295.947Z" fill="#464E5F"/>
<path d="M20 287C20 285.343 21.3431 284 23 284H111V290H23C21.3431 290 20 288.657 20 287Z" fill="#3699FF"/>
<path d="M111 284H296C297.657 284 299 285.343 299 287C299 288.657 297.657 290 296 290H111V284Z" fill="#3699FF"/>
<path opacity="0.6" d="M111 284H296C297.657 284 299 285.343 299 287C299 288.657 297.657 290 296 290H111V284Z" fill="white"/>
</g>
<defs>
<clipPath id="clip0_9890_245478">
<rect width="279" height="31" fill="white" transform="translate(20 136)"/>
</clipPath>
<clipPath id="clip1_9890_245478">
<rect width="279" height="31" fill="white" transform="translate(20 177)"/>
</clipPath>
<clipPath id="clip2_9890_245478">
<rect width="279" height="31" fill="white" transform="translate(20 218)"/>
</clipPath>
<clipPath id="clip3_9890_245478">
<rect width="279" height="31" fill="white" transform="translate(20 259)"/>
</clipPath>
</defs>
</svg>
