<svg width="25" height="24" viewBox="0 0 25 24" fill="none" xmlns="http://www.w3.org/2000/svg">
<path d="M9.82656 10.87C9.72656 10.86 9.60656 10.86 9.49656 10.87C7.11656 10.79 5.22656 8.84 5.22656 6.44C5.22656 3.99 7.20656 2 9.66656 2C12.1166 2 14.1066 3.99 14.1066 6.44C14.0966 8.84 12.2066 10.79 9.82656 10.87Z" stroke="white" stroke-width="1.5" stroke-linecap="round" stroke-linejoin="round"/>
<path d="M17.0765 4C19.0165 4 20.5765 5.57 20.5765 7.5C20.5765 9.39 19.0765 10.93 17.2065 11C17.1265 10.99 17.0365 10.99 16.9465 11" stroke="white" stroke-width="1.5" stroke-linecap="round" stroke-linejoin="round"/>
<path d="M4.82647 14.56C2.40647 16.18 2.40647 18.82 4.82647 20.43C7.57647 22.27 12.0865 22.27 14.8365 20.43C17.2565 18.81 17.2565 16.17 14.8365 14.56C12.0965 12.73 7.58647 12.73 4.82647 14.56Z" stroke="white" stroke-width="1.5" stroke-linecap="round" stroke-linejoin="round"/>
<path d="M19.0066 20C19.7266 19.85 20.4066 19.56 20.9666 19.13C22.5266 17.96 22.5266 16.03 20.9666 14.86C20.4166 14.44 19.7466 14.16 19.0366 14" stroke="white" stroke-width="1.5" stroke-linecap="round" stroke-linejoin="round"/>
</svg>
