<svg width="22" height="23" viewBox="0 0 22 23" fill="none" xmlns="http://www.w3.org/2000/svg">
<g id="Icon">
<path id="Mask" d="M7.70453 8.74472C7.37139 8.46657 6.87638 8.51214 6.59823 8.84529C6.32009 9.17844 6.36566 9.67423 6.69881 9.95159L10.6274 13.8802C10.6644 13.9116 10.7084 13.9266 10.7492 13.9501C10.7814 13.969 10.8097 13.991 10.8451 14.0051C10.937 14.0413 11.0329 14.0625 11.1303 14.0625C11.2277 14.0625 11.3236 14.0413 11.4155 14.0051C11.4509 13.991 11.4792 13.969 11.5114 13.9501C11.5522 13.9266 11.5962 13.9116 11.6332 13.8802L15.5618 9.95159C15.8957 9.67423 15.9405 9.17844 15.6624 8.84529C15.385 8.51214 14.89 8.46657 14.5561 8.74472L11.916 11.5993L11.1304 12.3849L10.3428 11.5973L7.70453 8.74472Z" fill="#9295A6"/>
</g>
</svg>
