<svg width="24" height="25" viewBox="0 0 24 25" fill="none" xmlns="http://www.w3.org/2000/svg">
<path fillRule="evenodd" clipRule="evenodd" d="M11.9826 7.63483L6.36562 13.2518L6.10162 16.2078L9.07862 15.9368L14.6786 10.3308L11.9826 7.63483ZM17.9673 7.04068L15.2723 4.34668L13.3243 6.29468L16.0193 8.99068L17.9673 7.04068ZM5.0912 18.3078C5.0602 18.3108 5.0302 18.3118 5.0002 18.3118C4.7362 18.3118 4.4812 18.2078 4.2932 18.0188C4.0832 17.8088 3.9772 17.5168 4.0042 17.2218L4.3832 13.0508C4.4252 12.5938 4.6272 12.1628 4.9522 11.8378L13.9482 2.84083C14.6502 2.13683 15.9242 2.17183 16.6642 2.91083L19.4022 5.64883H19.4032C20.1692 6.41583 20.1992 7.63283 19.4712 8.36283L10.4742 17.3598C10.1492 17.6858 9.7192 17.8868 9.2612 17.9288L5.0912 18.3078ZM5 20.3119H19C19.55 20.3119 20 20.7619 20 21.3119C20 21.8619 19.55 22.3119 19 22.3119H5C4.45 22.3119 4 21.8619 4 21.3119C4 20.7619 4.45 20.3119 5 20.3119Z" fill="#9295A6"/>
</svg>
