<svg width="22" height="23" viewBox="0 0 22 23" fill="none" xmlns="http://www.w3.org/2000/svg">
<g id="Icon">
<path id="Mask" fillRule="evenodd" clipRule="evenodd" d="M17.4173 16.8118H4.58398C4.0789 16.8118 3.66732 16.4012 3.66732 15.8952V6.95768L10.4507 12.0452C10.6138 12.168 10.8072 12.2285 11.0007 12.2285C11.1941 12.2285 11.3875 12.168 11.5507 12.0452L18.334 6.95768V15.8952C18.334 16.4012 17.9224 16.8118 17.4173 16.8118V16.8118ZM16.8059 5.81185L11.0007 10.166L5.1954 5.81185H16.8059ZM17.4173 3.97852H4.58398C3.06782 3.97852 1.83398 5.21235 1.83398 6.72852V15.8952C1.83398 17.4113 3.06782 18.6452 4.58398 18.6452H17.4173C18.9335 18.6452 20.1673 17.4113 20.1673 15.8952V6.72852C20.1673 5.21235 18.9335 3.97852 17.4173 3.97852V3.97852Z" fill="#9295A6"/>
</g>
</svg>
