<svg width="22" height="23" viewBox="0 0 22 23" fill="none" xmlns="http://www.w3.org/2000/svg">
<g id="Icon">
<path id="Mask" fillRule="evenodd" clipRule="evenodd" d="M6.05065 3.97982C4.73615 3.97982 3.66732 5.04865 3.66732 6.36315C3.66732 13.1355 9.1774 18.6465 15.9507 18.6465C17.2642 18.6465 18.334 17.5777 18.334 16.2632C18.334 16.1614 18.3276 16.0615 18.3147 15.9625L14.0797 14.9908C13.9954 15.1522 13.9028 15.3272 13.8185 15.4904C13.4005 16.2879 13.098 16.8672 12.3262 16.5565C9.29565 15.4932 6.82157 13.0182 5.74448 9.95098C5.41723 9.2314 6.04057 8.90507 6.83073 8.49257C6.99115 8.40823 7.1644 8.31748 7.32298 8.23498L6.35132 3.99907C6.24957 3.98623 6.15057 3.97982 6.05065 3.97982M15.9507 20.4798C8.16632 20.4798 1.83398 14.1475 1.83398 6.36315C1.83398 4.03757 3.72507 2.14648 6.05065 2.14648C6.28898 2.14648 6.52457 2.16665 6.75282 2.20607C6.97557 2.24182 7.19923 2.29865 7.4174 2.37382C7.71532 2.4774 7.9399 2.72765 8.01048 3.03565L9.2654 8.50265C9.33507 8.80332 9.24798 9.11865 9.03348 9.34232C8.90882 9.47248 8.90607 9.47523 7.7694 10.0702C8.68973 12.063 10.2893 13.6571 12.2418 14.5462C12.8377 13.4087 12.8413 13.405 12.9715 13.2803C13.1952 13.0658 13.5123 12.9824 13.8112 13.0484L19.2791 14.3033C19.5862 14.3739 19.8364 14.5976 19.9391 14.8955C20.0142 15.1118 20.0711 15.3355 20.1087 15.5656C20.1472 15.792 20.1673 16.0267 20.1673 16.2632C20.1673 18.5887 18.2753 20.4798 15.9507 20.4798" fill="#9295A6"/>
</g>
</svg>
