<svg width="114" height="115" viewBox="0 0 114 115" fill="none" xmlns="http://www.w3.org/2000/svg">
<g id="Vector">
<path d="M3.93103 0.3125H0V4.24353H3.93103V0.3125Z" fill="black"/>
<path d="M7.86207 0.3125H3.93103V4.24353H7.86207V0.3125Z" fill="black"/>
<path d="M11.7931 0.3125H7.86207V4.24353H11.7931V0.3125Z" fill="black"/>
<path d="M15.7241 0.3125H11.7931V4.24353H15.7241V0.3125Z" fill="black"/>
<path d="M19.6552 0.3125H15.7241V4.24353H19.6552V0.3125Z" fill="black"/>
<path d="M23.5862 0.3125H19.6552V4.24353H23.5862V0.3125Z" fill="black"/>
<path d="M27.5172 0.3125H23.5862V4.24353H27.5172V0.3125Z" fill="black"/>
<path d="M35.3793 0.3125H31.4483V4.24353H35.3793V0.3125Z" fill="black"/>
<path d="M39.3103 0.3125H35.3793V4.24353H39.3103V0.3125Z" fill="black"/>
<path d="M43.2414 0.3125H39.3103V4.24353H43.2414V0.3125Z" fill="black"/>
<path d="M47.1724 0.3125H43.2414V4.24353H47.1724V0.3125Z" fill="black"/>
<path d="M55.0345 0.3125H51.1035V4.24353H55.0345V0.3125Z" fill="black"/>
<path d="M62.8966 0.3125H58.9655V4.24353H62.8966V0.3125Z" fill="black"/>
<path d="M66.8276 0.3125H62.8966V4.24353H66.8276V0.3125Z" fill="black"/>
<path d="M74.6897 0.3125H70.7586V4.24353H74.6897V0.3125Z" fill="black"/>
<path d="M90.4138 0.3125H86.4828V4.24353H90.4138V0.3125Z" fill="black"/>
<path d="M94.3448 0.3125H90.4138V4.24353H94.3448V0.3125Z" fill="black"/>
<path d="M98.2759 0.3125H94.3448V4.24353H98.2759V0.3125Z" fill="black"/>
<path d="M102.207 0.3125H98.2759V4.24353H102.207V0.3125Z" fill="black"/>
<path d="M106.138 0.3125H102.207V4.24353H106.138V0.3125Z" fill="black"/>
<path d="M110.069 0.3125H106.138V4.24353H110.069V0.3125Z" fill="black"/>
<path d="M114 0.3125H110.069V4.24353H114V0.3125Z" fill="black"/>
<path d="M3.93103 4.24353H0V8.17457H3.93103V4.24353Z" fill="black"/>
<path d="M27.5172 4.24353H23.5862V8.17457H27.5172V4.24353Z" fill="black"/>
<path d="M43.2414 4.24353H39.3103V8.17457H43.2414V4.24353Z" fill="black"/>
<path d="M55.0345 4.24353H51.1035V8.17457H55.0345V4.24353Z" fill="black"/>
<path d="M66.8276 4.24353H62.8966V8.17457H66.8276V4.24353Z" fill="black"/>
<path d="M70.7586 4.24353H66.8276V8.17457H70.7586V4.24353Z" fill="black"/>
<path d="M82.5517 4.24353H78.6207V8.17457H82.5517V4.24353Z" fill="black"/>
<path d="M90.4138 4.24353H86.4828V8.17457H90.4138V4.24353Z" fill="black"/>
<path d="M114 4.24353H110.069V8.17457H114V4.24353Z" fill="black"/>
<path d="M3.93103 8.17457H0V12.1056H3.93103V8.17457Z" fill="black"/>
<path d="M11.7931 8.17457H7.86207V12.1056H11.7931V8.17457Z" fill="black"/>
<path d="M15.7241 8.17457H11.7931V12.1056H15.7241V8.17457Z" fill="black"/>
<path d="M19.6552 8.17457H15.7241V12.1056H19.6552V8.17457Z" fill="black"/>
<path d="M27.5172 8.17457H23.5862V12.1056H27.5172V8.17457Z" fill="black"/>
<path d="M35.3793 8.17457H31.4483V12.1056H35.3793V8.17457Z" fill="black"/>
<path d="M39.3103 8.17457H35.3793V12.1056H39.3103V8.17457Z" fill="black"/>
<path d="M43.2414 8.17457H39.3103V12.1056H43.2414V8.17457Z" fill="black"/>
<path d="M47.1724 8.17457H43.2414V12.1056H47.1724V8.17457Z" fill="black"/>
<path d="M51.1035 8.17457H47.1724V12.1056H51.1035V8.17457Z" fill="black"/>
<path d="M66.8276 8.17457H62.8966V12.1056H66.8276V8.17457Z" fill="black"/>
<path d="M70.7586 8.17457H66.8276V12.1056H70.7586V8.17457Z" fill="black"/>
<path d="M74.6897 8.17457H70.7586V12.1056H74.6897V8.17457Z" fill="black"/>
<path d="M78.6207 8.17457H74.6897V12.1056H78.6207V8.17457Z" fill="black"/>
<path d="M90.4138 8.17457H86.4828V12.1056H90.4138V8.17457Z" fill="black"/>
<path d="M98.2759 8.17457H94.3448V12.1056H98.2759V8.17457Z" fill="black"/>
<path d="M102.207 8.17457H98.2759V12.1056H102.207V8.17457Z" fill="black"/>
<path d="M106.138 8.17457H102.207V12.1056H106.138V8.17457Z" fill="black"/>
<path d="M114 8.17457H110.069V12.1056H114V8.17457Z" fill="black"/>
<path d="M3.93103 12.1056H0V16.0366H3.93103V12.1056Z" fill="black"/>
<path d="M11.7931 12.1056H7.86207V16.0366H11.7931V12.1056Z" fill="black"/>
<path d="M15.7241 12.1056H11.7931V16.0366H15.7241V12.1056Z" fill="black"/>
<path d="M19.6552 12.1056H15.7241V16.0366H19.6552V12.1056Z" fill="black"/>
<path d="M27.5172 12.1056H23.5862V16.0366H27.5172V12.1056Z" fill="black"/>
<path d="M35.3793 12.1056H31.4483V16.0366H35.3793V12.1056Z" fill="black"/>
<path d="M43.2414 12.1056H39.3103V16.0366H43.2414V12.1056Z" fill="black"/>
<path d="M47.1724 12.1056H43.2414V16.0366H47.1724V12.1056Z" fill="black"/>
<path d="M78.6207 12.1056H74.6897V16.0366H78.6207V12.1056Z" fill="black"/>
<path d="M82.5517 12.1056H78.6207V16.0366H82.5517V12.1056Z" fill="black"/>
<path d="M90.4138 12.1056H86.4828V16.0366H90.4138V12.1056Z" fill="black"/>
<path d="M98.2759 12.1056H94.3448V16.0366H98.2759V12.1056Z" fill="black"/>
<path d="M102.207 12.1056H98.2759V16.0366H102.207V12.1056Z" fill="black"/>
<path d="M106.138 12.1056H102.207V16.0366H106.138V12.1056Z" fill="black"/>
<path d="M114 12.1056H110.069V16.0366H114V12.1056Z" fill="black"/>
<path d="M3.93103 16.0366H0V19.9677H3.93103V16.0366Z" fill="black"/>
<path d="M11.7931 16.0366H7.86207V19.9677H11.7931V16.0366Z" fill="black"/>
<path d="M15.7241 16.0366H11.7931V19.9677H15.7241V16.0366Z" fill="black"/>
<path d="M19.6552 16.0366H15.7241V19.9677H19.6552V16.0366Z" fill="black"/>
<path d="M27.5172 16.0366H23.5862V19.9677H27.5172V16.0366Z" fill="black"/>
<path d="M39.3103 16.0366H35.3793V19.9677H39.3103V16.0366Z" fill="black"/>
<path d="M43.2414 16.0366H39.3103V19.9677H43.2414V16.0366Z" fill="black"/>
<path d="M47.1724 16.0366H43.2414V19.9677H47.1724V16.0366Z" fill="black"/>
<path d="M51.1035 16.0366H47.1724V19.9677H51.1035V16.0366Z" fill="black"/>
<path d="M58.9655 16.0366H55.0345V19.9677H58.9655V16.0366Z" fill="black"/>
<path d="M62.8966 16.0366H58.9655V19.9677H62.8966V16.0366Z" fill="black"/>
<path d="M90.4138 16.0366H86.4828V19.9677H90.4138V16.0366Z" fill="black"/>
<path d="M98.2759 16.0366H94.3448V19.9677H98.2759V16.0366Z" fill="black"/>
<path d="M102.207 16.0366H98.2759V19.9677H102.207V16.0366Z" fill="black"/>
<path d="M106.138 16.0366H102.207V19.9677H106.138V16.0366Z" fill="black"/>
<path d="M114 16.0366H110.069V19.9677H114V16.0366Z" fill="black"/>
<path d="M3.93103 19.9677H0V23.8987H3.93103V19.9677Z" fill="black"/>
<path d="M27.5172 19.9677H23.5862V23.8987H27.5172V19.9677Z" fill="black"/>
<path d="M35.3793 19.9677H31.4483V23.8987H35.3793V19.9677Z" fill="black"/>
<path d="M39.3103 19.9677H35.3793V23.8987H39.3103V19.9677Z" fill="black"/>
<path d="M43.2414 19.9677H39.3103V23.8987H43.2414V19.9677Z" fill="black"/>
<path d="M62.8966 19.9677H58.9655V23.8987H62.8966V19.9677Z" fill="black"/>
<path d="M70.7586 19.9677H66.8276V23.8987H70.7586V19.9677Z" fill="black"/>
<path d="M74.6897 19.9677H70.7586V23.8987H74.6897V19.9677Z" fill="black"/>
<path d="M78.6207 19.9677H74.6897V23.8987H78.6207V19.9677Z" fill="black"/>
<path d="M90.4138 19.9677H86.4828V23.8987H90.4138V19.9677Z" fill="black"/>
<path d="M114 19.9677H110.069V23.8987H114V19.9677Z" fill="black"/>
<path d="M3.93103 23.8987H0V27.8297H3.93103V23.8987Z" fill="black"/>
<path d="M7.86207 23.8987H3.93103V27.8297H7.86207V23.8987Z" fill="black"/>
<path d="M11.7931 23.8987H7.86207V27.8297H11.7931V23.8987Z" fill="black"/>
<path d="M15.7241 23.8987H11.7931V27.8297H15.7241V23.8987Z" fill="black"/>
<path d="M19.6552 23.8987H15.7241V27.8297H19.6552V23.8987Z" fill="black"/>
<path d="M23.5862 23.8987H19.6552V27.8297H23.5862V23.8987Z" fill="black"/>
<path d="M27.5172 23.8987H23.5862V27.8297H27.5172V23.8987Z" fill="black"/>
<path d="M35.3793 23.8987H31.4483V27.8297H35.3793V23.8987Z" fill="black"/>
<path d="M43.2414 23.8987H39.3103V27.8297H43.2414V23.8987Z" fill="black"/>
<path d="M51.1035 23.8987H47.1724V27.8297H51.1035V23.8987Z" fill="black"/>
<path d="M58.9655 23.8987H55.0345V27.8297H58.9655V23.8987Z" fill="black"/>
<path d="M66.8276 23.8987H62.8966V27.8297H66.8276V23.8987Z" fill="black"/>
<path d="M74.6897 23.8987H70.7586V27.8297H74.6897V23.8987Z" fill="black"/>
<path d="M82.5517 23.8987H78.6207V27.8297H82.5517V23.8987Z" fill="black"/>
<path d="M90.4138 23.8987H86.4828V27.8297H90.4138V23.8987Z" fill="black"/>
<path d="M94.3448 23.8987H90.4138V27.8297H94.3448V23.8987Z" fill="black"/>
<path d="M98.2759 23.8987H94.3448V27.8297H98.2759V23.8987Z" fill="black"/>
<path d="M102.207 23.8987H98.2759V27.8297H102.207V23.8987Z" fill="black"/>
<path d="M106.138 23.8987H102.207V27.8297H106.138V23.8987Z" fill="black"/>
<path d="M110.069 23.8987H106.138V27.8297H110.069V23.8987Z" fill="black"/>
<path d="M114 23.8987H110.069V27.8297H114V23.8987Z" fill="black"/>
<path d="M35.3793 27.8297H31.4483V31.7608H35.3793V27.8297Z" fill="black"/>
<path d="M39.3103 27.8297H35.3793V31.7608H39.3103V27.8297Z" fill="black"/>
<path d="M43.2414 27.8297H39.3103V31.7608H43.2414V27.8297Z" fill="black"/>
<path d="M51.1035 27.8297H47.1724V31.7608H51.1035V27.8297Z" fill="black"/>
<path d="M55.0345 27.8297H51.1035V31.7608H55.0345V27.8297Z" fill="black"/>
<path d="M58.9655 27.8297H55.0345V31.7608H58.9655V27.8297Z" fill="black"/>
<path d="M62.8966 27.8297H58.9655V31.7608H62.8966V27.8297Z" fill="black"/>
<path d="M66.8276 27.8297H62.8966V31.7608H66.8276V27.8297Z" fill="black"/>
<path d="M70.7586 27.8297H66.8276V31.7608H70.7586V27.8297Z" fill="black"/>
<path d="M78.6207 27.8297H74.6897V31.7608H78.6207V27.8297Z" fill="black"/>
<path d="M82.5517 27.8297H78.6207V31.7608H82.5517V27.8297Z" fill="black"/>
<path d="M3.93103 31.7608H0V35.6918H3.93103V31.7608Z" fill="black"/>
<path d="M7.86207 31.7608H3.93103V35.6918H7.86207V31.7608Z" fill="black"/>
<path d="M15.7241 31.7608H11.7931V35.6918H15.7241V31.7608Z" fill="black"/>
<path d="M27.5172 31.7608H23.5862V35.6918H27.5172V31.7608Z" fill="black"/>
<path d="M31.4483 31.7608H27.5172V35.6918H31.4483V31.7608Z" fill="black"/>
<path d="M47.1724 31.7608H43.2414V35.6918H47.1724V31.7608Z" fill="black"/>
<path d="M62.8966 31.7608H58.9655V35.6918H62.8966V31.7608Z" fill="black"/>
<path d="M66.8276 31.7608H62.8966V35.6918H66.8276V31.7608Z" fill="black"/>
<path d="M70.7586 31.7608H66.8276V35.6918H70.7586V31.7608Z" fill="black"/>
<path d="M86.4828 31.7608H82.5517V35.6918H86.4828V31.7608Z" fill="black"/>
<path d="M90.4138 31.7608H86.4828V35.6918H90.4138V31.7608Z" fill="black"/>
<path d="M94.3448 31.7608H90.4138V35.6918H94.3448V31.7608Z" fill="black"/>
<path d="M102.207 31.7608H98.2759V35.6918H102.207V31.7608Z" fill="black"/>
<path d="M106.138 31.7608H102.207V35.6918H106.138V31.7608Z" fill="black"/>
<path d="M114 31.7608H110.069V35.6918H114V31.7608Z" fill="black"/>
<path d="M3.93103 35.6918H0V39.6228H3.93103V35.6918Z" fill="black"/>
<path d="M7.86207 35.6918H3.93103V39.6228H7.86207V35.6918Z" fill="black"/>
<path d="M19.6552 35.6918H15.7241V39.6228H19.6552V35.6918Z" fill="black"/>
<path d="M23.5862 35.6918H19.6552V39.6228H23.5862V35.6918Z" fill="black"/>
<path d="M31.4483 35.6918H27.5172V39.6228H31.4483V35.6918Z" fill="black"/>
<path d="M43.2414 35.6918H39.3103V39.6228H43.2414V35.6918Z" fill="black"/>
<path d="M47.1724 35.6918H43.2414V39.6228H47.1724V35.6918Z" fill="black"/>
<path d="M55.0345 35.6918H51.1035V39.6228H55.0345V35.6918Z" fill="black"/>
<path d="M58.9655 35.6918H55.0345V39.6228H58.9655V35.6918Z" fill="black"/>
<path d="M62.8966 35.6918H58.9655V39.6228H62.8966V35.6918Z" fill="black"/>
<path d="M70.7586 35.6918H66.8276V39.6228H70.7586V35.6918Z" fill="black"/>
<path d="M74.6897 35.6918H70.7586V39.6228H74.6897V35.6918Z" fill="black"/>
<path d="M82.5517 35.6918H78.6207V39.6228H82.5517V35.6918Z" fill="black"/>
<path d="M86.4828 35.6918H82.5517V39.6228H86.4828V35.6918Z" fill="black"/>
<path d="M94.3448 35.6918H90.4138V39.6228H94.3448V35.6918Z" fill="black"/>
<path d="M98.2759 35.6918H94.3448V39.6228H98.2759V35.6918Z" fill="black"/>
<path d="M110.069 35.6918H106.138V39.6228H110.069V35.6918Z" fill="black"/>
<path d="M3.93103 39.6228H0V43.5539H3.93103V39.6228Z" fill="black"/>
<path d="M11.7931 39.6228H7.86207V43.5539H11.7931V39.6228Z" fill="black"/>
<path d="M19.6552 39.6228H15.7241V43.5539H19.6552V39.6228Z" fill="black"/>
<path d="M23.5862 39.6228H19.6552V43.5539H23.5862V39.6228Z" fill="black"/>
<path d="M27.5172 39.6228H23.5862V43.5539H27.5172V39.6228Z" fill="black"/>
<path d="M31.4483 39.6228H27.5172V43.5539H31.4483V39.6228Z" fill="black"/>
<path d="M47.1724 39.6228H43.2414V43.5539H47.1724V39.6228Z" fill="black"/>
<path d="M55.0345 39.6228H51.1035V43.5539H55.0345V39.6228Z" fill="black"/>
<path d="M58.9655 39.6228H55.0345V43.5539H58.9655V39.6228Z" fill="black"/>
<path d="M62.8966 39.6228H58.9655V43.5539H62.8966V39.6228Z" fill="black"/>
<path d="M78.6207 39.6228H74.6897V43.5539H78.6207V39.6228Z" fill="black"/>
<path d="M82.5517 39.6228H78.6207V43.5539H82.5517V39.6228Z" fill="black"/>
<path d="M86.4828 39.6228H82.5517V43.5539H86.4828V39.6228Z" fill="black"/>
<path d="M90.4138 39.6228H86.4828V43.5539H90.4138V39.6228Z" fill="black"/>
<path d="M94.3448 39.6228H90.4138V43.5539H94.3448V39.6228Z" fill="black"/>
<path d="M102.207 39.6228H98.2759V43.5539H102.207V39.6228Z" fill="black"/>
<path d="M106.138 39.6228H102.207V43.5539H106.138V39.6228Z" fill="black"/>
<path d="M110.069 39.6228H106.138V43.5539H110.069V39.6228Z" fill="black"/>
<path d="M15.7241 43.5539H11.7931V47.4849H15.7241V43.5539Z" fill="black"/>
<path d="M23.5862 43.5539H19.6552V47.4849H23.5862V43.5539Z" fill="black"/>
<path d="M35.3793 43.5539H31.4483V47.4849H35.3793V43.5539Z" fill="black"/>
<path d="M39.3103 43.5539H35.3793V47.4849H39.3103V43.5539Z" fill="black"/>
<path d="M51.1035 43.5539H47.1724V47.4849H51.1035V43.5539Z" fill="black"/>
<path d="M58.9655 43.5539H55.0345V47.4849H58.9655V43.5539Z" fill="black"/>
<path d="M66.8276 43.5539H62.8966V47.4849H66.8276V43.5539Z" fill="black"/>
<path d="M74.6897 43.5539H70.7586V47.4849H74.6897V43.5539Z" fill="black"/>
<path d="M82.5517 43.5539H78.6207V47.4849H82.5517V43.5539Z" fill="black"/>
<path d="M86.4828 43.5539H82.5517V47.4849H86.4828V43.5539Z" fill="black"/>
<path d="M90.4138 43.5539H86.4828V47.4849H90.4138V43.5539Z" fill="black"/>
<path d="M94.3448 43.5539H90.4138V47.4849H94.3448V43.5539Z" fill="black"/>
<path d="M102.207 43.5539H98.2759V47.4849H102.207V43.5539Z" fill="black"/>
<path d="M106.138 43.5539H102.207V47.4849H106.138V43.5539Z" fill="black"/>
<path d="M114 43.5539H110.069V47.4849H114V43.5539Z" fill="black"/>
<path d="M15.7241 47.4849H11.7931V51.416H15.7241V47.4849Z" fill="black"/>
<path d="M23.5862 47.4849H19.6552V51.416H23.5862V47.4849Z" fill="black"/>
<path d="M27.5172 47.4849H23.5862V51.416H27.5172V47.4849Z" fill="black"/>
<path d="M35.3793 47.4849H31.4483V51.416H35.3793V47.4849Z" fill="black"/>
<path d="M39.3103 47.4849H35.3793V51.416H39.3103V47.4849Z" fill="black"/>
<path d="M43.2414 47.4849H39.3103V51.416H43.2414V47.4849Z" fill="black"/>
<path d="M47.1724 47.4849H43.2414V51.416H47.1724V47.4849Z" fill="black"/>
<path d="M51.1035 47.4849H47.1724V51.416H51.1035V47.4849Z" fill="black"/>
<path d="M55.0345 47.4849H51.1035V51.416H55.0345V47.4849Z" fill="black"/>
<path d="M58.9655 47.4849H55.0345V51.416H58.9655V47.4849Z" fill="black"/>
<path d="M66.8276 47.4849H62.8966V51.416H66.8276V47.4849Z" fill="black"/>
<path d="M74.6897 47.4849H70.7586V51.416H74.6897V47.4849Z" fill="black"/>
<path d="M82.5517 47.4849H78.6207V51.416H82.5517V47.4849Z" fill="black"/>
<path d="M102.207 47.4849H98.2759V51.416H102.207V47.4849Z" fill="black"/>
<path d="M106.138 47.4849H102.207V51.416H106.138V47.4849Z" fill="black"/>
<path d="M110.069 47.4849H106.138V51.416H110.069V47.4849Z" fill="black"/>
<path d="M114 47.4849H110.069V51.416H114V47.4849Z" fill="black"/>
<path d="M3.93103 51.416H0V55.347H3.93103V51.416Z" fill="black"/>
<path d="M7.86207 51.416H3.93103V55.347H7.86207V51.416Z" fill="black"/>
<path d="M23.5862 51.416H19.6552V55.347H23.5862V51.416Z" fill="black"/>
<path d="M35.3793 51.416H31.4483V55.347H35.3793V51.416Z" fill="black"/>
<path d="M39.3103 51.416H35.3793V55.347H39.3103V51.416Z" fill="black"/>
<path d="M43.2414 51.416H39.3103V55.347H43.2414V51.416Z" fill="black"/>
<path d="M58.9655 51.416H55.0345V55.347H58.9655V51.416Z" fill="black"/>
<path d="M74.6897 51.416H70.7586V55.347H74.6897V51.416Z" fill="black"/>
<path d="M78.6207 51.416H74.6897V55.347H78.6207V51.416Z" fill="black"/>
<path d="M82.5517 51.416H78.6207V55.347H82.5517V51.416Z" fill="black"/>
<path d="M94.3448 51.416H90.4138V55.347H94.3448V51.416Z" fill="black"/>
<path d="M110.069 51.416H106.138V55.347H110.069V51.416Z" fill="black"/>
<path d="M3.93103 55.347H0V59.278H3.93103V55.347Z" fill="black"/>
<path d="M15.7241 55.347H11.7931V59.278H15.7241V55.347Z" fill="black"/>
<path d="M19.6552 55.347H15.7241V59.278H19.6552V55.347Z" fill="black"/>
<path d="M27.5172 55.347H23.5862V59.278H27.5172V55.347Z" fill="black"/>
<path d="M39.3103 55.347H35.3793V59.278H39.3103V55.347Z" fill="black"/>
<path d="M51.1035 55.347H47.1724V59.278H51.1035V55.347Z" fill="black"/>
<path d="M55.0345 55.347H51.1035V59.278H55.0345V55.347Z" fill="black"/>
<path d="M62.8966 55.347H58.9655V59.278H62.8966V55.347Z" fill="black"/>
<path d="M66.8276 55.347H62.8966V59.278H66.8276V55.347Z" fill="black"/>
<path d="M70.7586 55.347H66.8276V59.278H70.7586V55.347Z" fill="black"/>
<path d="M74.6897 55.347H70.7586V59.278H74.6897V55.347Z" fill="black"/>
<path d="M78.6207 55.347H74.6897V59.278H78.6207V55.347Z" fill="black"/>
<path d="M82.5517 55.347H78.6207V59.278H82.5517V55.347Z" fill="black"/>
<path d="M90.4138 55.347H86.4828V59.278H90.4138V55.347Z" fill="black"/>
<path d="M94.3448 55.347H90.4138V59.278H94.3448V55.347Z" fill="black"/>
<path d="M114 55.347H110.069V59.278H114V55.347Z" fill="black"/>
<path d="M3.93103 59.278H0V63.2091H3.93103V59.278Z" fill="black"/>
<path d="M15.7241 59.278H11.7931V63.2091H15.7241V59.278Z" fill="black"/>
<path d="M23.5862 59.278H19.6552V63.2091H23.5862V59.278Z" fill="black"/>
<path d="M31.4483 59.278H27.5172V63.2091H31.4483V59.278Z" fill="black"/>
<path d="M35.3793 59.278H31.4483V63.2091H35.3793V59.278Z" fill="black"/>
<path d="M39.3103 59.278H35.3793V63.2091H39.3103V59.278Z" fill="black"/>
<path d="M51.1035 59.278H47.1724V63.2091H51.1035V59.278Z" fill="black"/>
<path d="M58.9655 59.278H55.0345V63.2091H58.9655V59.278Z" fill="black"/>
<path d="M66.8276 59.278H62.8966V63.2091H66.8276V59.278Z" fill="black"/>
<path d="M74.6897 59.278H70.7586V63.2091H74.6897V59.278Z" fill="black"/>
<path d="M86.4828 59.278H82.5517V63.2091H86.4828V59.278Z" fill="black"/>
<path d="M90.4138 59.278H86.4828V63.2091H90.4138V59.278Z" fill="black"/>
<path d="M94.3448 59.278H90.4138V63.2091H94.3448V59.278Z" fill="black"/>
<path d="M110.069 59.278H106.138V63.2091H110.069V59.278Z" fill="black"/>
<path d="M7.86207 63.2091H3.93103V67.1401H7.86207V63.2091Z" fill="black"/>
<path d="M11.7931 63.2091H7.86207V67.1401H11.7931V63.2091Z" fill="black"/>
<path d="M19.6552 63.2091H15.7241V67.1401H19.6552V63.2091Z" fill="black"/>
<path d="M23.5862 63.2091H19.6552V67.1401H23.5862V63.2091Z" fill="black"/>
<path d="M27.5172 63.2091H23.5862V67.1401H27.5172V63.2091Z" fill="black"/>
<path d="M31.4483 63.2091H27.5172V67.1401H31.4483V63.2091Z" fill="black"/>
<path d="M43.2414 63.2091H39.3103V67.1401H43.2414V63.2091Z" fill="black"/>
<path d="M47.1724 63.2091H43.2414V67.1401H47.1724V63.2091Z" fill="black"/>
<path d="M55.0345 63.2091H51.1035V67.1401H55.0345V63.2091Z" fill="black"/>
<path d="M58.9655 63.2091H55.0345V67.1401H58.9655V63.2091Z" fill="black"/>
<path d="M62.8966 63.2091H58.9655V67.1401H62.8966V63.2091Z" fill="black"/>
<path d="M66.8276 63.2091H62.8966V67.1401H66.8276V63.2091Z" fill="black"/>
<path d="M70.7586 63.2091H66.8276V67.1401H70.7586V63.2091Z" fill="black"/>
<path d="M74.6897 63.2091H70.7586V67.1401H74.6897V63.2091Z" fill="black"/>
<path d="M82.5517 63.2091H78.6207V67.1401H82.5517V63.2091Z" fill="black"/>
<path d="M86.4828 63.2091H82.5517V67.1401H86.4828V63.2091Z" fill="black"/>
<path d="M98.2759 63.2091H94.3448V67.1401H98.2759V63.2091Z" fill="black"/>
<path d="M3.93103 67.1401H0V71.0711H3.93103V67.1401Z" fill="black"/>
<path d="M7.86207 67.1401H3.93103V71.0711H7.86207V67.1401Z" fill="black"/>
<path d="M15.7241 67.1401H11.7931V71.0711H15.7241V67.1401Z" fill="black"/>
<path d="M23.5862 67.1401H19.6552V71.0711H23.5862V67.1401Z" fill="black"/>
<path d="M31.4483 67.1401H27.5172V71.0711H31.4483V67.1401Z" fill="black"/>
<path d="M35.3793 67.1401H31.4483V71.0711H35.3793V67.1401Z" fill="black"/>
<path d="M43.2414 67.1401H39.3103V71.0711H43.2414V67.1401Z" fill="black"/>
<path d="M51.1035 67.1401H47.1724V71.0711H51.1035V67.1401Z" fill="black"/>
<path d="M58.9655 67.1401H55.0345V71.0711H58.9655V67.1401Z" fill="black"/>
<path d="M66.8276 67.1401H62.8966V71.0711H66.8276V67.1401Z" fill="black"/>
<path d="M70.7586 67.1401H66.8276V71.0711H70.7586V67.1401Z" fill="black"/>
<path d="M74.6897 67.1401H70.7586V71.0711H74.6897V67.1401Z" fill="black"/>
<path d="M90.4138 67.1401H86.4828V71.0711H90.4138V67.1401Z" fill="black"/>
<path d="M106.138 67.1401H102.207V71.0711H106.138V67.1401Z" fill="black"/>
<path d="M110.069 67.1401H106.138V71.0711H110.069V67.1401Z" fill="black"/>
<path d="M114 67.1401H110.069V71.0711H114V67.1401Z" fill="black"/>
<path d="M3.93103 71.0711H0V75.0022H3.93103V71.0711Z" fill="black"/>
<path d="M7.86207 71.0711H3.93103V75.0022H7.86207V71.0711Z" fill="black"/>
<path d="M11.7931 71.0711H7.86207V75.0022H11.7931V71.0711Z" fill="black"/>
<path d="M15.7241 71.0711H11.7931V75.0022H15.7241V71.0711Z" fill="black"/>
<path d="M23.5862 71.0711H19.6552V75.0022H23.5862V71.0711Z" fill="black"/>
<path d="M27.5172 71.0711H23.5862V75.0022H27.5172V71.0711Z" fill="black"/>
<path d="M31.4483 71.0711H27.5172V75.0022H31.4483V71.0711Z" fill="black"/>
<path d="M35.3793 71.0711H31.4483V75.0022H35.3793V71.0711Z" fill="black"/>
<path d="M39.3103 71.0711H35.3793V75.0022H39.3103V71.0711Z" fill="black"/>
<path d="M43.2414 71.0711H39.3103V75.0022H43.2414V71.0711Z" fill="black"/>
<path d="M47.1724 71.0711H43.2414V75.0022H47.1724V71.0711Z" fill="black"/>
<path d="M58.9655 71.0711H55.0345V75.0022H58.9655V71.0711Z" fill="black"/>
<path d="M62.8966 71.0711H58.9655V75.0022H62.8966V71.0711Z" fill="black"/>
<path d="M82.5517 71.0711H78.6207V75.0022H82.5517V71.0711Z" fill="black"/>
<path d="M86.4828 71.0711H82.5517V75.0022H86.4828V71.0711Z" fill="black"/>
<path d="M94.3448 71.0711H90.4138V75.0022H94.3448V71.0711Z" fill="black"/>
<path d="M98.2759 71.0711H94.3448V75.0022H98.2759V71.0711Z" fill="black"/>
<path d="M102.207 71.0711H98.2759V75.0022H102.207V71.0711Z" fill="black"/>
<path d="M106.138 71.0711H102.207V75.0022H106.138V71.0711Z" fill="black"/>
<path d="M110.069 71.0711H106.138V75.0022H110.069V71.0711Z" fill="black"/>
<path d="M114 71.0711H110.069V75.0022H114V71.0711Z" fill="black"/>
<path d="M3.93103 75.0022H0V78.9332H3.93103V75.0022Z" fill="black"/>
<path d="M15.7241 75.0022H11.7931V78.9332H15.7241V75.0022Z" fill="black"/>
<path d="M19.6552 75.0022H15.7241V78.9332H19.6552V75.0022Z" fill="black"/>
<path d="M23.5862 75.0022H19.6552V78.9332H23.5862V75.0022Z" fill="black"/>
<path d="M31.4483 75.0022H27.5172V78.9332H31.4483V75.0022Z" fill="black"/>
<path d="M35.3793 75.0022H31.4483V78.9332H35.3793V75.0022Z" fill="black"/>
<path d="M39.3103 75.0022H35.3793V78.9332H39.3103V75.0022Z" fill="black"/>
<path d="M51.1035 75.0022H47.1724V78.9332H51.1035V75.0022Z" fill="black"/>
<path d="M55.0345 75.0022H51.1035V78.9332H55.0345V75.0022Z" fill="black"/>
<path d="M58.9655 75.0022H55.0345V78.9332H58.9655V75.0022Z" fill="black"/>
<path d="M78.6207 75.0022H74.6897V78.9332H78.6207V75.0022Z" fill="black"/>
<path d="M82.5517 75.0022H78.6207V78.9332H82.5517V75.0022Z" fill="black"/>
<path d="M90.4138 75.0022H86.4828V78.9332H90.4138V75.0022Z" fill="black"/>
<path d="M114 75.0022H110.069V78.9332H114V75.0022Z" fill="black"/>
<path d="M3.93103 78.9332H0V82.8642H3.93103V78.9332Z" fill="black"/>
<path d="M11.7931 78.9332H7.86207V82.8642H11.7931V78.9332Z" fill="black"/>
<path d="M23.5862 78.9332H19.6552V82.8642H23.5862V78.9332Z" fill="black"/>
<path d="M27.5172 78.9332H23.5862V82.8642H27.5172V78.9332Z" fill="black"/>
<path d="M31.4483 78.9332H27.5172V82.8642H31.4483V78.9332Z" fill="black"/>
<path d="M39.3103 78.9332H35.3793V82.8642H39.3103V78.9332Z" fill="black"/>
<path d="M43.2414 78.9332H39.3103V82.8642H43.2414V78.9332Z" fill="black"/>
<path d="M47.1724 78.9332H43.2414V82.8642H47.1724V78.9332Z" fill="black"/>
<path d="M55.0345 78.9332H51.1035V82.8642H55.0345V78.9332Z" fill="black"/>
<path d="M58.9655 78.9332H55.0345V82.8642H58.9655V78.9332Z" fill="black"/>
<path d="M62.8966 78.9332H58.9655V82.8642H62.8966V78.9332Z" fill="black"/>
<path d="M66.8276 78.9332H62.8966V82.8642H66.8276V78.9332Z" fill="black"/>
<path d="M70.7586 78.9332H66.8276V82.8642H70.7586V78.9332Z" fill="black"/>
<path d="M74.6897 78.9332H70.7586V82.8642H74.6897V78.9332Z" fill="black"/>
<path d="M78.6207 78.9332H74.6897V82.8642H78.6207V78.9332Z" fill="black"/>
<path d="M82.5517 78.9332H78.6207V82.8642H82.5517V78.9332Z" fill="black"/>
<path d="M86.4828 78.9332H82.5517V82.8642H86.4828V78.9332Z" fill="black"/>
<path d="M90.4138 78.9332H86.4828V82.8642H90.4138V78.9332Z" fill="black"/>
<path d="M94.3448 78.9332H90.4138V82.8642H94.3448V78.9332Z" fill="black"/>
<path d="M98.2759 78.9332H94.3448V82.8642H98.2759V78.9332Z" fill="black"/>
<path d="M106.138 78.9332H102.207V82.8642H106.138V78.9332Z" fill="black"/>
<path d="M110.069 78.9332H106.138V82.8642H110.069V78.9332Z" fill="black"/>
<path d="M114 78.9332H110.069V82.8642H114V78.9332Z" fill="black"/>
<path d="M39.3103 82.8642H35.3793V86.7953H39.3103V82.8642Z" fill="black"/>
<path d="M66.8276 82.8642H62.8966V86.7953H66.8276V82.8642Z" fill="black"/>
<path d="M82.5517 82.8642H78.6207V86.7953H82.5517V82.8642Z" fill="black"/>
<path d="M98.2759 82.8642H94.3448V86.7953H98.2759V82.8642Z" fill="black"/>
<path d="M102.207 82.8642H98.2759V86.7953H102.207V82.8642Z" fill="black"/>
<path d="M110.069 82.8642H106.138V86.7953H110.069V82.8642Z" fill="black"/>
<path d="M114 82.8642H110.069V86.7953H114V82.8642Z" fill="black"/>
<path d="M3.93103 86.7953H0V90.7263H3.93103V86.7953Z" fill="black"/>
<path d="M7.86207 86.7953H3.93103V90.7263H7.86207V86.7953Z" fill="black"/>
<path d="M11.7931 86.7953H7.86207V90.7263H11.7931V86.7953Z" fill="black"/>
<path d="M15.7241 86.7953H11.7931V90.7263H15.7241V86.7953Z" fill="black"/>
<path d="M19.6552 86.7953H15.7241V90.7263H19.6552V86.7953Z" fill="black"/>
<path d="M23.5862 86.7953H19.6552V90.7263H23.5862V86.7953Z" fill="black"/>
<path d="M27.5172 86.7953H23.5862V90.7263H27.5172V86.7953Z" fill="black"/>
<path d="M35.3793 86.7953H31.4483V90.7263H35.3793V86.7953Z" fill="black"/>
<path d="M39.3103 86.7953H35.3793V90.7263H39.3103V86.7953Z" fill="black"/>
<path d="M55.0345 86.7953H51.1035V90.7263H55.0345V86.7953Z" fill="black"/>
<path d="M74.6897 86.7953H70.7586V90.7263H74.6897V86.7953Z" fill="black"/>
<path d="M78.6207 86.7953H74.6897V90.7263H78.6207V86.7953Z" fill="black"/>
<path d="M82.5517 86.7953H78.6207V90.7263H82.5517V86.7953Z" fill="black"/>
<path d="M90.4138 86.7953H86.4828V90.7263H90.4138V86.7953Z" fill="black"/>
<path d="M98.2759 86.7953H94.3448V90.7263H98.2759V86.7953Z" fill="black"/>
<path d="M3.93103 90.7263H0V94.6573H3.93103V90.7263Z" fill="black"/>
<path d="M27.5172 90.7263H23.5862V94.6573H27.5172V90.7263Z" fill="black"/>
<path d="M39.3103 90.7263H35.3793V94.6573H39.3103V90.7263Z" fill="black"/>
<path d="M43.2414 90.7263H39.3103V94.6573H43.2414V90.7263Z" fill="black"/>
<path d="M47.1724 90.7263H43.2414V94.6573H47.1724V90.7263Z" fill="black"/>
<path d="M55.0345 90.7263H51.1035V94.6573H55.0345V90.7263Z" fill="black"/>
<path d="M58.9655 90.7263H55.0345V94.6573H58.9655V90.7263Z" fill="black"/>
<path d="M62.8966 90.7263H58.9655V94.6573H62.8966V90.7263Z" fill="black"/>
<path d="M70.7586 90.7263H66.8276V94.6573H70.7586V90.7263Z" fill="black"/>
<path d="M74.6897 90.7263H70.7586V94.6573H74.6897V90.7263Z" fill="black"/>
<path d="M82.5517 90.7263H78.6207V94.6573H82.5517V90.7263Z" fill="black"/>
<path d="M98.2759 90.7263H94.3448V94.6573H98.2759V90.7263Z" fill="black"/>
<path d="M106.138 90.7263H102.207V94.6573H106.138V90.7263Z" fill="black"/>
<path d="M110.069 90.7263H106.138V94.6573H110.069V90.7263Z" fill="black"/>
<path d="M3.93103 94.6573H0V98.5884H3.93103V94.6573Z" fill="black"/>
<path d="M11.7931 94.6573H7.86207V98.5884H11.7931V94.6573Z" fill="black"/>
<path d="M15.7241 94.6573H11.7931V98.5884H15.7241V94.6573Z" fill="black"/>
<path d="M19.6552 94.6573H15.7241V98.5884H19.6552V94.6573Z" fill="black"/>
<path d="M27.5172 94.6573H23.5862V98.5884H27.5172V94.6573Z" fill="black"/>
<path d="M39.3103 94.6573H35.3793V98.5884H39.3103V94.6573Z" fill="black"/>
<path d="M43.2414 94.6573H39.3103V98.5884H43.2414V94.6573Z" fill="black"/>
<path d="M47.1724 94.6573H43.2414V98.5884H47.1724V94.6573Z" fill="black"/>
<path d="M58.9655 94.6573H55.0345V98.5884H58.9655V94.6573Z" fill="black"/>
<path d="M62.8966 94.6573H58.9655V98.5884H62.8966V94.6573Z" fill="black"/>
<path d="M66.8276 94.6573H62.8966V98.5884H66.8276V94.6573Z" fill="black"/>
<path d="M82.5517 94.6573H78.6207V98.5884H82.5517V94.6573Z" fill="black"/>
<path d="M86.4828 94.6573H82.5517V98.5884H86.4828V94.6573Z" fill="black"/>
<path d="M90.4138 94.6573H86.4828V98.5884H90.4138V94.6573Z" fill="black"/>
<path d="M94.3448 94.6573H90.4138V98.5884H94.3448V94.6573Z" fill="black"/>
<path d="M98.2759 94.6573H94.3448V98.5884H98.2759V94.6573Z" fill="black"/>
<path d="M102.207 94.6573H98.2759V98.5884H102.207V94.6573Z" fill="black"/>
<path d="M3.93103 98.5884H0V102.519H3.93103V98.5884Z" fill="black"/>
<path d="M11.7931 98.5884H7.86207V102.519H11.7931V98.5884Z" fill="black"/>
<path d="M15.7241 98.5884H11.7931V102.519H15.7241V98.5884Z" fill="black"/>
<path d="M19.6552 98.5884H15.7241V102.519H19.6552V98.5884Z" fill="black"/>
<path d="M27.5172 98.5884H23.5862V102.519H27.5172V98.5884Z" fill="black"/>
<path d="M35.3793 98.5884H31.4483V102.519H35.3793V98.5884Z" fill="black"/>
<path d="M51.1035 98.5884H47.1724V102.519H51.1035V98.5884Z" fill="black"/>
<path d="M66.8276 98.5884H62.8966V102.519H66.8276V98.5884Z" fill="black"/>
<path d="M70.7586 98.5884H66.8276V102.519H70.7586V98.5884Z" fill="black"/>
<path d="M82.5517 98.5884H78.6207V102.519H82.5517V98.5884Z" fill="black"/>
<path d="M86.4828 98.5884H82.5517V102.519H86.4828V98.5884Z" fill="black"/>
<path d="M90.4138 98.5884H86.4828V102.519H90.4138V98.5884Z" fill="black"/>
<path d="M94.3448 98.5884H90.4138V102.519H94.3448V98.5884Z" fill="black"/>
<path d="M102.207 98.5884H98.2759V102.519H102.207V98.5884Z" fill="black"/>
<path d="M110.069 98.5884H106.138V102.519H110.069V98.5884Z" fill="black"/>
<path d="M114 98.5884H110.069V102.519H114V98.5884Z" fill="black"/>
<path d="M3.93103 102.519H0V106.45H3.93103V102.519Z" fill="black"/>
<path d="M11.7931 102.519H7.86207V106.45H11.7931V102.519Z" fill="black"/>
<path d="M15.7241 102.519H11.7931V106.45H15.7241V102.519Z" fill="black"/>
<path d="M19.6552 102.519H15.7241V106.45H19.6552V102.519Z" fill="black"/>
<path d="M27.5172 102.519H23.5862V106.45H27.5172V102.519Z" fill="black"/>
<path d="M43.2414 102.519H39.3103V106.45H43.2414V102.519Z" fill="black"/>
<path d="M51.1035 102.519H47.1724V106.45H51.1035V102.519Z" fill="black"/>
<path d="M55.0345 102.519H51.1035V106.45H55.0345V102.519Z" fill="black"/>
<path d="M58.9655 102.519H55.0345V106.45H58.9655V102.519Z" fill="black"/>
<path d="M70.7586 102.519H66.8276V106.45H70.7586V102.519Z" fill="black"/>
<path d="M74.6897 102.519H70.7586V106.45H74.6897V102.519Z" fill="black"/>
<path d="M78.6207 102.519H74.6897V106.45H78.6207V102.519Z" fill="black"/>
<path d="M82.5517 102.519H78.6207V106.45H82.5517V102.519Z" fill="black"/>
<path d="M86.4828 102.519H82.5517V106.45H86.4828V102.519Z" fill="black"/>
<path d="M98.2759 102.519H94.3448V106.45H98.2759V102.519Z" fill="black"/>
<path d="M106.138 102.519H102.207V106.45H106.138V102.519Z" fill="black"/>
<path d="M3.93103 106.45H0V110.381H3.93103V106.45Z" fill="black"/>
<path d="M27.5172 106.45H23.5862V110.381H27.5172V106.45Z" fill="black"/>
<path d="M35.3793 106.45H31.4483V110.381H35.3793V106.45Z" fill="black"/>
<path d="M43.2414 106.45H39.3103V110.381H43.2414V106.45Z" fill="black"/>
<path d="M55.0345 106.45H51.1035V110.381H55.0345V106.45Z" fill="black"/>
<path d="M58.9655 106.45H55.0345V110.381H58.9655V106.45Z" fill="black"/>
<path d="M62.8966 106.45H58.9655V110.381H62.8966V106.45Z" fill="black"/>
<path d="M66.8276 106.45H62.8966V110.381H66.8276V106.45Z" fill="black"/>
<path d="M70.7586 106.45H66.8276V110.381H70.7586V106.45Z" fill="black"/>
<path d="M86.4828 106.45H82.5517V110.381H86.4828V106.45Z" fill="black"/>
<path d="M90.4138 106.45H86.4828V110.381H90.4138V106.45Z" fill="black"/>
<path d="M98.2759 106.45H94.3448V110.381H98.2759V106.45Z" fill="black"/>
<path d="M102.207 106.45H98.2759V110.381H102.207V106.45Z" fill="black"/>
<path d="M110.069 106.45H106.138V110.381H110.069V106.45Z" fill="black"/>
<path d="M114 106.45H110.069V110.381H114V106.45Z" fill="black"/>
<path d="M3.93103 110.381H0V114.312H3.93103V110.381Z" fill="black"/>
<path d="M7.86207 110.381H3.93103V114.312H7.86207V110.381Z" fill="black"/>
<path d="M11.7931 110.381H7.86207V114.312H11.7931V110.381Z" fill="black"/>
<path d="M15.7241 110.381H11.7931V114.312H15.7241V110.381Z" fill="black"/>
<path d="M19.6552 110.381H15.7241V114.312H19.6552V110.381Z" fill="black"/>
<path d="M23.5862 110.381H19.6552V114.312H23.5862V110.381Z" fill="black"/>
<path d="M27.5172 110.381H23.5862V114.312H27.5172V110.381Z" fill="black"/>
<path d="M35.3793 110.381H31.4483V114.312H35.3793V110.381Z" fill="black"/>
<path d="M39.3103 110.381H35.3793V114.312H39.3103V110.381Z" fill="black"/>
<path d="M47.1724 110.381H43.2414V114.312H47.1724V110.381Z" fill="black"/>
<path d="M55.0345 110.381H51.1035V114.312H55.0345V110.381Z" fill="black"/>
<path d="M58.9655 110.381H55.0345V114.312H58.9655V110.381Z" fill="black"/>
<path d="M86.4828 110.381H82.5517V114.312H86.4828V110.381Z" fill="black"/>
<path d="M98.2759 110.381H94.3448V114.312H98.2759V110.381Z" fill="black"/>
<path d="M106.138 110.381H102.207V114.312H106.138V110.381Z" fill="black"/>
</g>
</svg>
