<svg width="25" height="24" viewBox="0 0 25 24" fill="none" xmlns="http://www.w3.org/2000/svg">
<path fillRule="evenodd" clipRule="evenodd" d="M7.96252 19C7.41152 19 6.96252 18.551 6.96252 18C6.96252 17.449 7.41152 17 7.96252 17H18.9625V19H7.96252ZM7.96252 5H18.9625V15H7.96252C7.60952 15 7.27652 15.072 6.96252 15.184V6C6.96252 5.449 7.41152 5 7.96252 5ZM19.9625 3H7.96252C6.30852 3 4.96252 4.346 4.96252 6V18C4.96252 19.654 6.30852 21 7.96252 21H18.9625H19.9625C20.5145 21 20.9625 20.552 20.9625 20V19V17V4C20.9625 3.448 20.5145 3 19.9625 3Z" fill="#9295A6"/>
</svg>
