<svg width="25" height="24" viewBox="0 0 25 24" fill="none" xmlns="http://www.w3.org/2000/svg">
<path fillRule="evenodd" clipRule="evenodd" d="M7.83362 12.7998H12.9626C13.2466 12.7998 13.5176 12.9208 13.7066 13.1318C13.8956 13.3428 13.9866 13.6248 13.9566 13.9068L13.5076 18.0568L18.0916 11.1998H12.9626C12.6786 11.1998 12.4076 11.0788 12.2186 10.8678C12.0286 10.6568 11.9376 10.3748 11.9686 10.0928L12.4176 5.94385L7.83362 12.7998ZM12.0734 22.9997C11.9594 22.9997 11.8444 22.9807 11.7314 22.9397C11.2994 22.7817 11.0294 22.3497 11.0794 21.8927L11.8484 14.7997H5.9624C5.5934 14.7997 5.2544 14.5967 5.0804 14.2717C4.9064 13.9457 4.9264 13.5507 5.1314 13.2437L13.0204 1.44474C13.2754 1.06074 13.7594 0.902737 14.1924 1.06074C14.6254 1.21774 14.8954 1.65074 14.8454 2.10774L14.0764 9.19974H19.9624C20.3314 9.19974 20.6704 9.40374 20.8444 9.72874C21.0184 10.0547 20.9984 10.4487 20.7934 10.7557L12.9044 22.5557C12.7154 22.8397 12.3994 22.9997 12.0734 22.9997Z" fill="#5367FF"/>
</svg>
