<svg width="25" height="24" viewBox="0 0 25 24" fill="none" xmlns="http://www.w3.org/2000/svg">
<path fillRule="evenodd" clipRule="evenodd" d="M20.9625 18C20.9625 18.551 20.5135 19 19.9625 19H17.9625V9H19.9625C20.5135 9 20.9625 9.449 20.9625 10V18ZM4.96252 18V10C4.96252 9.449 5.41152 9 5.96252 9H7.96252V19H5.96252C5.41152 19 4.96252 18.551 4.96252 18ZM10.9625 5.5C10.9625 5.224 11.1865 5 11.4625 5H14.4625C14.7385 5 14.9625 5.224 14.9625 5.5V7H10.9625V5.5ZM9.96252 19H15.9625V9H9.96252V19ZM19.9625 7H16.9625V5.5C16.9625 4.122 15.8405 3 14.4625 3H11.4625C10.0845 3 8.96252 4.122 8.96252 5.5V7H5.96252C4.30852 7 2.96252 8.346 2.96252 10V18C2.96252 19.654 4.30852 21 5.96252 21H19.9625C21.6165 21 22.9625 19.654 22.9625 18V10C22.9625 8.346 21.6165 7 19.9625 7Z" fill="#9295A6"/>
</svg>
