<svg width="25" height="24" viewBox="0 0 25 24" fill="none" xmlns="http://www.w3.org/2000/svg">
<path fillRule="evenodd" clipRule="evenodd" d="M16.4131 1.40266C17.4752 1.09921 18.5821 1.7142 18.8856 2.77627C18.9366 2.95495 18.9625 3.13988 18.9625 3.32571V4.99998H20.9625C22.0671 4.99998 22.9625 5.89541 22.9625 6.99998V19C22.9625 20.1045 22.0671 21 20.9625 21H4.96252C3.85795 21 2.96252 20.1045 2.96252 19H2.98923C2.97148 18.8924 2.96252 18.7835 2.96252 18.6742V6.75428C2.96252 5.86132 3.55448 5.07655 4.41308 4.83123L16.4131 1.40266ZM11.1026 19H20.9625V11H18.9625V15.2457C18.9625 16.1386 18.3706 16.9234 17.512 17.1687L11.1026 19ZM18.9625 6.99998H20.9625V8.99998H18.9625V6.99998ZM4.96252 6.75426V18.6742L16.9625 15.2457V3.32568L4.96252 6.75426ZM14.9625 8.99998C14.9625 9.55227 14.5148 9.99998 13.9625 9.99998C13.4102 9.99998 12.9625 9.55227 12.9625 8.99998C12.9625 8.4477 13.4102 7.99998 13.9625 7.99998C14.5148 7.99998 14.9625 8.4477 14.9625 8.99998Z" fill="#9295A6"/>
</svg>
