<svg width="25" height="24" viewBox="0 0 25 24" fill="none" xmlns="http://www.w3.org/2000/svg">
<path fillRule="evenodd" clipRule="evenodd" d="M12.7838 15.506C12.9528 15.506 13.1228 15.549 13.2758 15.635L17.9628 18.286V5.334C17.9628 5.133 17.8418 5 17.7628 5H8.16283C8.08283 5 7.96283 5.133 7.96283 5.334V18.234L12.2688 15.649C12.4278 15.554 12.6058 15.506 12.7838 15.506ZM6.96283 21C6.79283 21 6.62283 20.957 6.46983 20.87C6.15683 20.693 5.96283 20.36 5.96283 20V5.334C5.96283 4.047 6.94983 3 8.16283 3H17.7628C18.9758 3 19.9628 4.047 19.9628 5.334V20C19.9628 20.356 19.7738 20.685 19.4668 20.864C19.1588 21.044 18.7808 21.047 18.4708 20.871L12.7988 17.663L7.47683 20.858C7.31883 20.952 7.14083 21 6.96283 21Z" fill="#9295A6"/>
</svg>
