<svg width="24" height="25" viewBox="0 0 24 25" fill="none" xmlns="http://www.w3.org/2000/svg">
<g id="bank (1) 2">
<path id="Vector" d="M21.5979 21.1125C21.5979 21.3246 21.5137 21.5281 21.3637 21.6781C21.2136 21.8281 21.0102 21.9124 20.798 21.9124H3.19965C2.9875 21.9124 2.78403 21.8281 2.63402 21.6781C2.484 21.5281 2.39973 21.3246 2.39973 21.1125C2.39973 20.9003 2.484 20.6968 2.63402 20.5468C2.78403 20.3968 2.9875 20.3125 3.19965 20.3125H20.798C21.0102 20.3125 21.2136 20.3968 21.3637 20.5468C21.5137 20.6968 21.5979 20.9003 21.5979 21.1125ZM2.63251 9.55478C2.46014 9.23506 2.38028 8.87363 2.4019 8.51105C2.42352 8.14847 2.54576 7.79909 2.75489 7.50211C3.09667 7.00064 3.55438 6.58902 4.08917 6.30219L10.0894 3.17919C10.6792 2.87251 11.3341 2.7124 11.9988 2.7124C12.6636 2.7124 13.3185 2.87251 13.9083 3.17919L19.9077 6.30459C20.4425 6.59142 20.9002 7.00304 21.242 7.50451C21.4511 7.80149 21.5734 8.15087 21.595 8.51345C21.6166 8.87603 21.5367 9.23746 21.3644 9.55718C21.1788 9.90823 20.9005 10.2016 20.5597 10.4054C20.219 10.6093 19.8288 10.7157 19.4317 10.7131H19.1982V17.1127H19.9981C20.2102 17.1127 20.4137 17.197 20.5637 17.347C20.7137 17.497 20.798 17.7005 20.798 17.9127C20.798 18.1248 20.7137 18.3283 20.5637 18.4783C20.4137 18.6283 20.2102 18.7126 19.9981 18.7126H3.99958C3.78742 18.7126 3.58396 18.6283 3.43395 18.4783C3.28393 18.3283 3.19965 18.1248 3.19965 17.9127C3.19965 17.7005 3.28393 17.497 3.43395 17.347C3.58396 17.197 3.78742 17.1127 3.99958 17.1127H4.7995V10.7131H4.56593C4.16849 10.7156 3.778 10.6089 3.43706 10.4046C3.09612 10.2004 2.81781 9.90639 2.63251 9.55478ZM6.39936 17.1127H8.79913V10.7131H6.39936V17.1127ZM10.399 10.7131V17.1127H13.5987V10.7131H10.399ZM17.5983 10.7131H15.1985V17.1127H17.5983V10.7131ZM4.04997 8.81323C4.10016 8.90577 4.17485 8.98271 4.26586 9.03562C4.35687 9.08853 4.46068 9.11538 4.56593 9.11321H19.4317C19.537 9.11538 19.6408 9.08853 19.7318 9.03562C19.8228 8.98271 19.8975 8.90577 19.9477 8.81323C19.9843 8.75209 20.0019 8.6815 19.9985 8.61034C19.9951 8.53918 19.9707 8.47062 19.9285 8.41326C19.7347 8.1252 19.4743 7.88812 19.1694 7.7221L13.1699 4.5967C12.8084 4.40905 12.407 4.3111 11.9996 4.3111C11.5923 4.3111 11.1909 4.40905 10.8293 4.5967L4.8299 7.7221C4.52512 7.88866 4.26478 8.12596 4.07077 8.41406C4.02845 8.47118 4.0039 8.53951 4.0002 8.61051C3.9965 8.68151 4.01381 8.75202 4.04997 8.81323Z" fill="black"/>
</g>
</svg>
