<svg width="24" height="25" viewBox="0 0 24 25" fill="none" xmlns="http://www.w3.org/2000/svg">
<g id="visa (1) 2">
<path id="Mask" fillRule="evenodd" clipRule="evenodd" d="M7 16.8125C7 16.2625 7.45 15.8125 8 15.8125C8.55 15.8125 9 16.2625 9 16.8125C9 17.3625 8.55 17.8125 8 17.8125C7.45 17.8125 7 17.3625 7 16.8125ZM12 15.8125H16C16.55 15.8125 17 16.2625 17 16.8125C17 17.3625 16.55 17.8125 16 17.8125H12C11.45 17.8125 11 17.3625 11 16.8125C11 16.2625 11.45 15.8125 12 15.8125ZM18 20.8125H6C5.449 20.8125 5 20.3635 5 19.8125V13.8125H19V19.8125C19 20.3635 18.551 20.8125 18 20.8125ZM6 6.8125H7V7.8125C7 8.3625 7.45 8.8125 8 8.8125C8.55 8.8125 9 8.3625 9 7.8125V6.8125H15V7.8125C15 8.3625 15.45 8.8125 16 8.8125C16.55 8.8125 17 8.3625 17 7.8125V6.8125H18C18.551 6.8125 19 7.2615 19 7.8125V11.8125H5V7.8125C5 7.2615 5.449 6.8125 6 6.8125ZM18 4.8125H17V3.8125C17 3.2625 16.55 2.8125 16 2.8125C15.45 2.8125 15 3.2625 15 3.8125V4.8125H9V3.8125C9 3.2625 8.55 2.8125 8 2.8125C7.45 2.8125 7 3.2625 7 3.8125V4.8125H6C4.346 4.8125 3 6.1585 3 7.8125V19.8125C3 21.4665 4.346 22.8125 6 22.8125H18C19.654 22.8125 21 21.4665 21 19.8125V7.8125C21 6.1585 19.654 4.8125 18 4.8125Z" fill="#CCCED9"/>
</g>
</svg>
