<svg width="20" height="20" viewBox="0 0 20 20" fill="none" xmlns="http://www.w3.org/2000/svg">
<path fillRule="evenodd" clipRule="evenodd" d="M9.16699 12.5H5.83366C5.37533 12.5 5.00033 12.125 5.00033 11.6667C5.00033 11.2084 5.37533 10.8334 5.83366 10.8334H9.16699C9.62533 10.8334 10.0003 11.2084 10.0003 11.6667C10.0003 12.125 9.62533 12.5 9.16699 12.5ZM14.167 12.5H12.5003C12.042 12.5 11.667 12.125 11.667 11.6667C11.667 11.2084 12.042 10.8334 12.5003 10.8334H14.167C14.6253 10.8334 15.0003 11.2084 15.0003 11.6667C15.0003 12.125 14.6253 12.5 14.167 12.5ZM16.667 13.3334C16.667 13.7925 16.2937 14.1667 15.8337 14.1667H4.16699C3.70699 14.1667 3.33366 13.7925 3.33366 13.3334V9.16669H16.667V13.3334ZM3.33366 6.66669C3.33366 6.20752 3.70699 5.83335 4.16699 5.83335H15.8337C16.2937 5.83335 16.667 6.20752 16.667 6.66669V7.50002H3.33366V6.66669ZM15.8337 4.16669H4.16699C2.78866 4.16669 1.66699 5.28835 1.66699 6.66669V13.3334C1.66699 14.7117 2.78866 15.8334 4.16699 15.8334H15.8337C17.212 15.8334 18.3337 14.7117 18.3337 13.3334V6.66669C18.3337 5.28835 17.212 4.16669 15.8337 4.16669Z" fill="white"/>
</svg>
