<svg width="18" height="18" viewBox="0 0 18 18" fill="none" xmlns="http://www.w3.org/2000/svg">
<path fillRule="evenodd" clipRule="evenodd" d="M7.33366 12.3334C7.33366 12.7917 6.95866 13.1667 6.50033 13.1667C6.04199 13.1667 5.66699 12.7917 5.66699 12.3334V9.00002C5.66699 8.54169 6.04199 8.16669 6.50033 8.16669C6.95866 8.16669 7.33366 8.54169 7.33366 9.00002V12.3334ZM12.3337 12.3334C12.3337 12.7917 11.9587 13.1667 11.5003 13.1667C11.042 13.1667 10.667 12.7917 10.667 12.3334V9.00002C10.667 8.54169 11.042 8.16669 11.5003 8.16669C11.9587 8.16669 12.3337 8.54169 12.3337 9.00002V12.3334ZM14.0003 14.8334C14.0003 15.2925 13.627 15.6667 13.167 15.6667H4.83366C4.37366 15.6667 4.00032 15.2925 4.00032 14.8334V5.66669H14.0003V14.8334ZM7.33366 2.60669C7.33366 2.47752 7.51199 2.33335 7.75032 2.33335H10.2503C10.4887 2.33335 10.667 2.47752 10.667 2.60669V4.00002H7.33366V2.60669ZM16.5003 4.00002H15.667H12.3337V2.60669C12.3337 1.53669 11.3995 0.666687 10.2503 0.666687H7.75033C6.60116 0.666687 5.66699 1.53669 5.66699 2.60669V4.00002H2.33366H1.50033C1.04199 4.00002 0.666992 4.37502 0.666992 4.83335C0.666992 5.29169 1.04199 5.66669 1.50033 5.66669H2.33366V14.8334C2.33366 16.2117 3.45533 17.3334 4.83366 17.3334H13.167C14.5453 17.3334 15.667 16.2117 15.667 14.8334V5.66669H16.5003C16.9587 5.66669 17.3337 5.29169 17.3337 4.83335C17.3337 4.37502 16.9587 4.00002 16.5003 4.00002Z" fill="#6C7080"/>
</svg>
