<svg width="24" height="25" viewBox="0 0 24 25" fill="none" xmlns="http://www.w3.org/2000/svg">
<g id="visa (1) 2">
<path id="Mask" fillRule="evenodd" clipRule="evenodd" d="M11.1016 9.2125C11.1016 8.7157 11.5048 8.3125 12.0016 8.3125C12.4984 8.3125 12.9016 8.7157 12.9016 9.2125C12.9016 9.7093 12.4984 10.1125 12.0016 10.1125C11.5048 10.1125 11.1016 9.7093 11.1016 9.2125ZM11.1016 11.9127C11.1016 11.4159 11.5048 11.0127 12.0016 11.0127C12.4984 11.0127 12.9016 11.4159 12.9016 11.9127V16.4127C12.9016 16.9095 12.4984 17.3127 12.0016 17.3127C11.5048 17.3127 11.1016 16.9095 11.1016 16.4127V11.9127ZM12.0008 20.0123C8.03088 20.0123 4.80078 16.7822 4.80078 12.8123C4.80078 8.8424 8.03088 5.6123 12.0008 5.6123C15.9707 5.6123 19.2008 8.8424 19.2008 12.8123C19.2008 16.7822 15.9707 20.0123 12.0008 20.0123ZM12 3.8125C7.0293 3.8125 3 7.8418 3 12.8125C3 17.7832 7.0293 21.8125 12 21.8125C16.9698 21.8125 21 17.7832 21 12.8125C21 7.8418 16.9698 3.8125 12 3.8125Z" fill="#CCCED9"/>
</g>
</svg>
