<svg width="24" height="25" viewBox="0 0 24 25" fill="none" xmlns="http://www.w3.org/2000/svg">
<g id="Icon">
<path id="Mask" fillRule="evenodd" clipRule="evenodd" d="M20.997 11.7865H21C21.551 11.7865 21.999 12.2325 22 12.7835C22.008 15.4545 20.975 17.9695 19.091 19.8635C17.208 21.7575 14.7 22.8045 12.029 22.8125H12C9.33905 22.8125 6.83605 21.7805 4.94905 19.9035C3.05505 18.0205 2.00805 15.5125 2.00005 12.8415C1.99205 10.1695 3.02505 7.6555 4.90905 5.7615C6.79205 3.8675 9.30005 2.8205 11.971 2.8125C12.766 2.8245 13.576 2.9045 14.352 3.0905C14.888 3.2205 15.219 3.7605 15.089 4.2975C14.96 4.8335 14.417 5.1635 13.883 5.0355C13.262 4.8855 12.603 4.8225 11.977 4.8125C9.84005 4.8185 7.83305 5.6565 6.32705 7.1715C4.82005 8.6865 3.99405 10.6985 4.00005 12.8355C4.00605 14.9725 4.84405 16.9785 6.35905 18.4855C7.86905 19.9865 9.87105 20.8125 12 20.8125H12.023C14.16 20.8065 16.167 19.9685 17.673 18.4535C19.18 16.9375 20.006 14.9265 20 12.7895C19.999 12.2375 20.445 11.7875 20.997 11.7865ZM8.29325 12.1056C8.68425 11.7146 9.31625 11.7146 9.70725 12.1056L11.9513 14.3496L18.2482 7.15361C18.6123 6.74061 19.2432 6.69661 19.6593 7.06061C20.0742 7.42361 20.1162 8.05561 19.7523 8.47161L12.7523 16.4716C12.5702 16.6796 12.3102 16.8026 12.0332 16.8126H12.0002C11.7353 16.8126 11.4812 16.7076 11.2933 16.5196L8.29325 13.5196C7.90225 13.1286 7.90225 12.4966 8.29325 12.1056Z" fill="#9295A6"/>
</g>
</svg>
