<svg width="18" height="11" viewBox="0 0 18 11" fill="none" xmlns="http://www.w3.org/2000/svg">
<path d="M6.45646 0.545454H7.88757V6.76385C7.88757 7.42554 7.73215 8.01184 7.4213 8.52273C7.11046 9.03054 6.67343 9.43063 6.11022 9.72301C5.54701 10.0123 4.88686 10.157 4.12976 10.157C3.37573 10.157 2.71711 10.0123 2.1539 9.72301C1.59069 9.43063 1.15367 9.03054 0.842823 8.52273C0.53198 8.01184 0.376559 7.42554 0.376559 6.76385V0.545454H1.80305V6.64844C1.80305 7.07623 1.89692 7.45632 2.08466 7.78871C2.27547 8.12109 2.54476 8.38269 2.89254 8.57351C3.24031 8.76125 3.65272 8.85511 4.12976 8.85511C4.60987 8.85511 5.02381 8.76125 5.37159 8.57351C5.72244 8.38269 5.9902 8.12109 6.17485 7.78871C6.36259 7.45632 6.45646 7.07623 6.45646 6.64844V0.545454ZM8.92152 10V0.545454H12.2915C13.0271 0.545454 13.6365 0.679332 14.1197 0.947088C14.6029 1.21484 14.9645 1.58108 15.2045 2.04581C15.4446 2.50746 15.5646 3.02758 15.5646 3.60618C15.5646 4.18785 15.4431 4.71106 15.1999 5.17578C14.9599 5.63743 14.5967 6.00367 14.1104 6.2745C13.6272 6.54226 13.0194 6.67614 12.2869 6.67614H9.96946V5.46662H12.1577C12.6224 5.46662 12.9994 5.3866 13.2887 5.22656C13.578 5.06345 13.7904 4.84186 13.9258 4.56179C14.0612 4.28172 14.1289 3.96319 14.1289 3.60618C14.1289 3.24917 14.0612 2.93217 13.9258 2.65518C13.7904 2.3782 13.5765 2.16122 13.2841 2.00426C12.9948 1.8473 12.6132 1.76882 12.1392 1.76882H10.348V10H8.92152ZM17.6234 0.545454V10H16.1969V0.545454H17.6234Z" fill="white"/>
</svg>
