<svg width="24" height="25" viewBox="0 0 24 25" fill="none" xmlns="http://www.w3.org/2000/svg">
<g id="visa (1) 2">
<path id="Vector" d="M9.11264 7.98289L5.97103 17.3536H3.92053L2.37563 9.876C2.28052 9.4148 2.19923 9.24705 1.91405 9.05123C1.44689 8.73553 0.678469 8.43934 0 8.25494L0.0474844 7.98295H3.3465C3.76725 7.98295 4.14553 8.33375 4.24064 8.9385L5.05753 14.362L7.07522 7.98295H9.11264V7.98289ZM17.1445 14.2927C17.1536 11.8209 14.4082 11.6864 14.428 10.5805C14.4333 10.243 14.6893 9.88578 15.2498 9.79561C15.5281 9.74932 16.2941 9.71539 17.1623 10.2136L17.5026 8.2274C17.0355 8.01547 16.435 7.8125 15.6888 7.8125C13.7721 7.8125 12.4228 9.08686 12.4114 10.9102C12.3989 12.2587 13.3741 13.0111 14.1097 13.4601C14.865 13.9196 15.1176 14.213 15.1149 14.6251C15.11 15.254 14.5123 15.5289 13.9547 15.5412C12.9795 15.5602 12.4139 15.2118 11.9621 14.9489L11.611 17.0033C12.0635 17.263 12.9013 17.4885 13.7683 17.5018C15.8054 17.5017 17.1381 16.2409 17.1445 14.2927ZM22.206 17.3536H24L22.4346 7.98295H20.7785C20.4063 7.98295 20.0926 8.25424 19.9529 8.66984L17.0446 17.3536H19.0802L19.4843 15.9542H21.9725L22.206 17.3536ZM20.0421 14.0335L21.0632 10.515L21.6507 14.0335H20.0421ZM11.884 7.98289L10.2795 17.3536H8.33981L9.94472 7.98289H11.884V7.98289Z" fill="#5367FF"/>
</g>
</svg>
