<svg width="20" height="20" viewBox="0 0 20 20" fill="none" xmlns="http://www.w3.org/2000/svg">
<path fillRule="evenodd" clipRule="evenodd" d="M12.0879 1.38665C12.8845 1.14593 13.7147 1.63378 13.9423 2.4763C13.9806 2.61804 14 2.76474 14 2.91216V12.368C14 13.0764 13.556 13.6989 12.9121 13.8935L7.59616 15.5H16.4V8.99998H16V6.99998H16.4V6.49998H14.8V4.99998H16.4C17.2837 4.99998 18 5.67155 18 6.49998V6.99998V8.99998V15.5C18 16.3284 17.2837 17 16.4 17H3.6C2.71634 17 2 16.3284 2 15.5H2.0515C2.01733 15.3656 2 15.227 2 15.0878V5.63196C2 4.9236 2.44397 4.30106 3.08792 4.10646L12.0879 1.38665ZM4 5.86073V14.6742L12 12.1392V6.99998V3.32568L4 5.86073ZM12 6.99998C12 6.4477 11.5523 5.99998 11 5.99998C10.4477 5.99998 10 6.4477 10 6.99998C10 7.55226 10.4477 7.99998 11 7.99998C11.5523 7.99998 12 7.55226 12 6.99998Z" fill="white"/>
</svg>
